<?xml version="1.0" encoding="UTF-8" standalone="no"?>
<!-- Created with Inkscape (http://www.inkscape.org/) -->

<svg
   xmlns:dc="http://purl.org/dc/elements/1.1/"
   xmlns:cc="http://creativecommons.org/ns#"
   xmlns:rdf="http://www.w3.org/1999/02/22-rdf-syntax-ns#"
   xmlns:svg="http://www.w3.org/2000/svg"
   xmlns="http://www.w3.org/2000/svg"
   xmlns:sodipodi="http://sodipodi.sourceforge.net/DTD/sodipodi-0.dtd"
   xmlns:inkscape="http://www.inkscape.org/namespaces/inkscape"
   width="210mm"
   height="297mm"
   id="svg2"
   version="1.1"
   inkscape:version="0.48.5 r10040"
   sodipodi:docname="clickcounter-positions.svg">
  <defs
     id="defs4" />
  <sodipodi:namedview
     id="base"
     pagecolor="#ffffff"
     bordercolor="#666666"
     borderopacity="1.0"
     inkscape:pageopacity="0.0"
     inkscape:pageshadow="2"
     inkscape:zoom="1"
     inkscape:cx="241.0311"
     inkscape:cy="372.45337"
     inkscape:document-units="px"
     inkscape:current-layer="layer1"
     showgrid="false"
     inkscape:window-width="1920"
     inkscape:window-height="1180"
     inkscape:window-x="-4"
     inkscape:window-y="-4"
     inkscape:window-maximized="1" />
  <metadata
     id="metadata7">
    <rdf:RDF>
      <cc:Work
         rdf:about="">
        <dc:format>image/svg+xml</dc:format>
        <dc:type
           rdf:resource="http://purl.org/dc/dcmitype/StillImage" />
        <dc:title></dc:title>
      </cc:Work>
    </rdf:RDF>
  </metadata>
  <g
     inkscape:label="Ebene 1"
     inkscape:groupmode="layer"
     id="layer1">
    <g
       id="g3065"
       transform="translate(-3.2890625e-6,0)"
       inkscape:export-filename="/home/m/www/stop.hiv/src/Dothiv/CharityWebsiteBundle/Resources/public/images/clickcounter/top.png"
       inkscape:export-xdpi="85.459991"
       inkscape:export-ydpi="85.459991">
      <path
         id="rect3039"
         d="m 305.8125,17.375 0,89 -15.75,0 0,9.5 164,0 0,-9.5 -15.75,0 0,-89 -132.5,0 z"
         style="fill:#ffffff;fill-opacity:1;stroke:none"
         inkscape:connector-curvature="0" />
      <g
         inkscape:export-ydpi="85.459938"
         inkscape:export-xdpi="85.459938"
         inkscape:export-filename="/home/m/www/stop.hiv/src/Dothiv/CharityWebsiteBundle/Resources/public/images/clickcounter/top.png"
         transform="translate(243.69233,-98.655099)"
         id="g3068">
        <rect
           style="fill:#e00073;fill-opacity:1;stroke:none"
           id="rect3014"
           width="59.285713"
           height="15.714286"
           x="98.712051"
           y="118.51125" />
        <path
           style="fill:#252525;fill-opacity:1;stroke:none"
           d="m 63.964289,111.4866 c -3.21784,0 -5.8125,2.59466 -5.8125,5.8125 l 0,85.625 -10.46875,0 c -2.2385,0 -4.0625,1.79275 -4.0625,4.03125 l 0,5.8125 c 0,2.2385 1.824,4.03125 4.0625,4.03125 l 161.375001,0 c 2.2385,0 4.03125,-1.79275 4.03125,-4.03125 l 0,-5.8125 c 0,-2.2385 -1.79275,-4.03125 -4.03125,-4.03125 l -10.5,0 0,-85.625 c 0,-3.21784 -2.59466,-5.8125 -5.8125,-5.8125 l -128.781251,0 z m 2,7.09375 124.781251,0 0,81.65625 -124.781251,0 0,-81.65625 z m 53.312501,88.28125 18.15625,0 c 1.04398,0 1.90625,0.83102 1.90625,1.875 l 0,2.25 c 0,1.04398 -0.86227,1.875 -1.90625,1.875 l -18.15625,0 c -1.04398,0 -1.90625,-0.83102 -1.90625,-1.875 l 0,-2.25 c 0,-1.04398 0.86227,-1.875 1.90625,-1.875 z m 85.875,0 c 1.66321,0 3,1.33679 3,3 0,1.66321 -1.33679,3 -3,3 -1.66321,0 -3,-1.33679 -3,-3 0,-1.66321 1.33679,-3 3,-3 z"
           id="rect2996"
           inkscape:connector-curvature="0" />
        <rect
           y="118.51125"
           x="98.712051"
           height="15.714286"
           width="59.285713"
           id="rect3064"
           style="fill:#e00073;fill-opacity:1;stroke:none" />
        <path
           inkscape:connector-curvature="0"
           id="path3066"
           d="m 63.964289,111.4866 c -3.21784,0 -5.8125,2.59466 -5.8125,5.8125 l 0,85.625 -10.46875,0 c -2.2385,0 -4.0625,1.79275 -4.0625,4.03125 l 0,5.8125 c 0,2.2385 1.824,4.03125 4.0625,4.03125 l 161.375001,0 c 2.2385,0 4.03125,-1.79275 4.03125,-4.03125 l 0,-5.8125 c 0,-2.2385 -1.79275,-4.03125 -4.03125,-4.03125 l -10.5,0 0,-85.625 c 0,-3.21784 -2.59466,-5.8125 -5.8125,-5.8125 l -128.781251,0 z m 2,7.09375 124.781251,0 0,81.65625 -124.781251,0 0,-81.65625 z m 53.312501,88.28125 18.15625,0 c 1.04398,0 1.90625,0.83102 1.90625,1.875 l 0,2.25 c 0,1.04398 -0.86227,1.875 -1.90625,1.875 l -18.15625,0 c -1.04398,0 -1.90625,-0.83102 -1.90625,-1.875 l 0,-2.25 c 0,-1.04398 0.86227,-1.875 1.90625,-1.875 z m 85.875,0 c 1.66321,0 3,1.33679 3,3 0,1.66321 -1.33679,3 -3,3 -1.66321,0 -3,-1.33679 -3,-3 0,-1.66321 1.33679,-3 3,-3 z"
           style="fill:#252525;fill-opacity:1;stroke:none" />
      </g>
    </g>
    <g
       id="g3126"
       inkscape:export-filename="/home/m/www/stop.hiv/src/Dothiv/CharityWebsiteBundle/Resources/public/images/clickcounter/top-micro.png"
       inkscape:export-xdpi="85.459991"
       inkscape:export-ydpi="85.459991">
      <path
         id="rect3039-2"
         d="m 305.79724,805.11218 0,89 -15.75,0 0,9.5 164,0 0,-9.5 -15.75,0 0,-89 -132.5,0 z"
         style="fill:#ffffff;fill-opacity:1;stroke:none"
         inkscape:connector-curvature="0" />
      <g
         inkscape:export-ydpi="85.459938"
         inkscape:export-xdpi="85.459938"
         inkscape:export-filename="/home/m/top-micro.png"
         transform="translate(243.69233,-96.94169)"
         id="g3104">
        <rect
           style="fill:#e00073;fill-opacity:1;stroke:none"
           id="rect3036"
           width="18.910713"
           height="8.3392849"
           x="118.89956"
           y="904.17566" />
        <path
           style="fill:#252525;fill-opacity:1;stroke:none"
           d="m 63.964289,897.10893 c -3.21784,0 -5.8125,2.59466 -5.8125,5.8125 l 0,85.625 -10.46875,0 c -2.2385,0 -4.0625,1.79275 -4.0625,4.03125 l 0,5.8125 c 0,2.23852 1.824,4.03122 4.0625,4.03122 l 161.375001,0 c 2.2385,0 4.03125,-1.7927 4.03125,-4.03122 l 0,-5.8125 c 0,-2.2385 -1.79275,-4.03125 -4.03125,-4.03125 l -10.5,0 0,-85.625 c 0,-3.21784 -2.59466,-5.8125 -5.8125,-5.8125 l -128.781251,0 z m 2,7.09375 124.781251,0 0,81.65625 -124.781251,0 0,-81.65625 z m 53.312501,88.28125 18.15625,0 c 1.04398,0 1.90625,0.83102 1.90625,1.875 l 0,2.25 c 0,1.04398 -0.86227,1.875 -1.90625,1.875 l -18.15625,0 c -1.04398,0 -1.90625,-0.83102 -1.90625,-1.875 l 0,-2.25 c 0,-1.04398 0.86227,-1.875 1.90625,-1.875 z m 85.875,0 c 1.66321,0 3,1.33679 3,3 0,1.66321 -1.33679,3 -3,3 -1.66321,0 -3,-1.33679 -3,-3 0,-1.66321 1.33679,-3 3,-3 z"
           id="path3038"
           inkscape:connector-curvature="0" />
        <rect
           y="904.17566"
           x="118.89956"
           height="8.3392849"
           width="18.910713"
           id="rect3040"
           style="fill:#e00073;fill-opacity:1;stroke:none" />
        <path
           inkscape:connector-curvature="0"
           id="path3042"
           d="m 63.964289,897.10893 c -3.21784,0 -5.8125,2.59466 -5.8125,5.8125 l 0,85.625 -10.46875,0 c -2.2385,0 -4.0625,1.79275 -4.0625,4.03125 l 0,5.8125 c 0,2.23852 1.824,4.03122 4.0625,4.03122 l 161.375001,0 c 2.2385,0 4.03125,-1.7927 4.03125,-4.03122 l 0,-5.8125 c 0,-2.2385 -1.79275,-4.03125 -4.03125,-4.03125 l -10.5,0 0,-85.625 c 0,-3.21784 -2.59466,-5.8125 -5.8125,-5.8125 l -128.781251,0 z m 2,7.09375 124.781251,0 0,81.65625 -124.781251,0 0,-81.65625 z m 53.312501,88.28125 18.15625,0 c 1.04398,0 1.90625,0.83102 1.90625,1.875 l 0,2.25 c 0,1.04398 -0.86227,1.875 -1.90625,1.875 l -18.15625,0 c -1.04398,0 -1.90625,-0.83102 -1.90625,-1.875 l 0,-2.25 c 0,-1.04398 0.86227,-1.875 1.90625,-1.875 z m 85.875,0 c 1.66321,0 3,1.33679 3,3 0,1.66321 -1.33679,3 -3,3 -1.66321,0 -3,-1.33679 -3,-3 0,-1.66321 1.33679,-3 3,-3 z"
           style="fill:#252525;fill-opacity:1;stroke:none" />
      </g>
    </g>
    <g
       id="g3134"
       inkscape:export-filename="/home/m/www/stop.hiv/src/Dothiv/CharityWebsiteBundle/Resources/public/images/clickcounter/topright-micro.png"
       inkscape:export-xdpi="85.459991"
       inkscape:export-ydpi="85.459991">
      <path
         id="rect3039-7"
         d="m 305.79724,673.61218 0,89 -15.75,0 0,9.5 164,0 0,-9.5 -15.75,0 0,-89 -132.5,0 z"
         style="fill:#ffffff;fill-opacity:1;stroke:none"
         inkscape:connector-curvature="0" />
      <g
         inkscape:export-ydpi="85.459938"
         inkscape:export-xdpi="85.459938"
         inkscape:export-filename="/home/m/topright-micro.png"
         transform="translate(243.69233,-102.29934)"
         id="g3098">
        <rect
           y="778.31067"
           x="171.90787"
           height="8.3392849"
           width="18.910713"
           id="rect3032"
           style="fill:#e00073;fill-opacity:1;stroke:none" />
        <path
           inkscape:connector-curvature="0"
           id="path3034"
           d="m 63.964289,771.24392 c -3.21784,0 -5.8125,2.59466 -5.8125,5.8125 l 0,85.625 -10.46875,0 c -2.2385,0 -4.0625,1.79275 -4.0625,4.03125 l 0,5.8125 c 0,2.2385 1.824,4.03125 4.0625,4.03125 l 161.375001,0 c 2.2385,0 4.03125,-1.79275 4.03125,-4.03125 l 0,-5.8125 c 0,-2.2385 -1.79275,-4.03125 -4.03125,-4.03125 l -10.5,0 0,-85.625 c 0,-3.21784 -2.59466,-5.8125 -5.8125,-5.8125 l -128.781251,0 z m 2,7.09375 124.781251,0 0,81.65625 -124.781251,0 0,-81.65625 z m 53.312501,88.28125 18.15625,0 c 1.04398,0 1.90625,0.83102 1.90625,1.875 l 0,2.25 c 0,1.04398 -0.86227,1.875 -1.90625,1.875 l -18.15625,0 c -1.04398,0 -1.90625,-0.83102 -1.90625,-1.875 l 0,-2.25 c 0,-1.04398 0.86227,-1.875 1.90625,-1.875 z m 85.875,0 c 1.66321,0 3,1.33679 3,3 0,1.66321 -1.33679,3 -3,3 -1.66321,0 -3,-1.33679 -3,-3 0,-1.66321 1.33679,-3 3,-3 z"
           style="fill:#252525;fill-opacity:1;stroke:none" />
        <rect
           style="fill:#e00073;fill-opacity:1;stroke:none"
           id="rect3044"
           width="18.910713"
           height="8.3392849"
           x="171.90787"
           y="778.31067" />
        <path
           style="fill:#252525;fill-opacity:1;stroke:none"
           d="m 63.964289,771.24392 c -3.21784,0 -5.8125,2.59466 -5.8125,5.8125 l 0,85.625 -10.46875,0 c -2.2385,0 -4.0625,1.79275 -4.0625,4.03125 l 0,5.8125 c 0,2.2385 1.824,4.03125 4.0625,4.03125 l 161.375001,0 c 2.2385,0 4.03125,-1.79275 4.03125,-4.03125 l 0,-5.8125 c 0,-2.2385 -1.79275,-4.03125 -4.03125,-4.03125 l -10.5,0 0,-85.625 c 0,-3.21784 -2.59466,-5.8125 -5.8125,-5.8125 l -128.781251,0 z m 2,7.09375 124.781251,0 0,81.65625 -124.781251,0 0,-81.65625 z m 53.312501,88.28125 18.15625,0 c 1.04398,0 1.90625,0.83102 1.90625,1.875 l 0,2.25 c 0,1.04398 -0.86227,1.875 -1.90625,1.875 l -18.15625,0 c -1.04398,0 -1.90625,-0.83102 -1.90625,-1.875 l 0,-2.25 c 0,-1.04398 0.86227,-1.875 1.90625,-1.875 z m 85.875,0 c 1.66321,0 3,1.33679 3,3 0,1.66321 -1.33679,3 -3,3 -1.66321,0 -3,-1.33679 -3,-3 0,-1.66321 1.33679,-3 3,-3 z"
           id="path3046"
           inkscape:connector-curvature="0" />
      </g>
    </g>
    <g
       id="g3142"
       inkscape:export-filename="/home/m/www/stop.hiv/src/Dothiv/CharityWebsiteBundle/Resources/public/images/clickcounter/topleft-micro.png"
       inkscape:export-xdpi="85.459991"
       inkscape:export-ydpi="85.459991">
      <path
         id="rect3039-81"
         d="m 305.79724,542.61218 0,89 -15.75,0 0,9.5 164,0 0,-9.5 -15.75,0 0,-89 -132.5,0 z"
         style="fill:#ffffff;fill-opacity:1;stroke:none"
         inkscape:connector-curvature="0" />
      <g
         inkscape:export-ydpi="85.459938"
         inkscape:export-xdpi="85.459938"
         inkscape:export-filename="/home/m/topleft-micro.png"
         transform="translate(243.69233,-107.52195)"
         id="g3092">
        <rect
           style="fill:#e00073;fill-opacity:1;stroke:none"
           id="rect3028"
           width="18.910713"
           height="8.3392849"
           x="65.845367"
           y="652.31067" />
        <path
           style="fill:#252525;fill-opacity:1;stroke:none"
           d="m 63.964289,645.24392 c -3.21784,0 -5.8125,2.59466 -5.8125,5.8125 l 0,85.625 -10.46875,0 c -2.2385,0 -4.0625,1.79275 -4.0625,4.03125 l 0,5.8125 c 0,2.2385 1.824,4.03125 4.0625,4.03125 l 161.375001,0 c 2.2385,0 4.03125,-1.79275 4.03125,-4.03125 l 0,-5.8125 c 0,-2.2385 -1.79275,-4.03125 -4.03125,-4.03125 l -10.5,0 0,-85.625 c 0,-3.21784 -2.59466,-5.8125 -5.8125,-5.8125 l -128.781251,0 z m 2,7.09375 124.781251,0 0,81.65625 -124.781251,0 0,-81.65625 z m 53.312501,88.28125 18.15625,0 c 1.04398,0 1.90625,0.83102 1.90625,1.875 l 0,2.25 c 0,1.04398 -0.86227,1.875 -1.90625,1.875 l -18.15625,0 c -1.04398,0 -1.90625,-0.83102 -1.90625,-1.875 l 0,-2.25 c 0,-1.04398 0.86227,-1.875 1.90625,-1.875 z m 85.875,0 c 1.66321,0 3,1.33679 3,3 0,1.66321 -1.33679,3 -3,3 -1.66321,0 -3,-1.33679 -3,-3 0,-1.66321 1.33679,-3 3,-3 z"
           id="path3030"
           inkscape:connector-curvature="0" />
        <rect
           y="652.31067"
           x="65.845367"
           height="8.3392849"
           width="18.910713"
           id="rect3048"
           style="fill:#e00073;fill-opacity:1;stroke:none" />
        <path
           inkscape:connector-curvature="0"
           id="path3050"
           d="m 63.964289,645.24392 c -3.21784,0 -5.8125,2.59466 -5.8125,5.8125 l 0,85.625 -10.46875,0 c -2.2385,0 -4.0625,1.79275 -4.0625,4.03125 l 0,5.8125 c 0,2.2385 1.824,4.03125 4.0625,4.03125 l 161.375001,0 c 2.2385,0 4.03125,-1.79275 4.03125,-4.03125 l 0,-5.8125 c 0,-2.2385 -1.79275,-4.03125 -4.03125,-4.03125 l -10.5,0 0,-85.625 c 0,-3.21784 -2.59466,-5.8125 -5.8125,-5.8125 l -128.781251,0 z m 2,7.09375 124.781251,0 0,81.65625 -124.781251,0 0,-81.65625 z m 53.312501,88.28125 18.15625,0 c 1.04398,0 1.90625,0.83102 1.90625,1.875 l 0,2.25 c 0,1.04398 -0.86227,1.875 -1.90625,1.875 l -18.15625,0 c -1.04398,0 -1.90625,-0.83102 -1.90625,-1.875 l 0,-2.25 c 0,-1.04398 0.86227,-1.875 1.90625,-1.875 z m 85.875,0 c 1.66321,0 3,1.33679 3,3 0,1.66321 -1.33679,3 -3,3 -1.66321,0 -3,-1.33679 -3,-3 0,-1.66321 1.33679,-3 3,-3 z"
           style="fill:#252525;fill-opacity:1;stroke:none" />
      </g>
    </g>
    <g
       id="g3150"
       inkscape:export-filename="/home/m/www/stop.hiv/src/Dothiv/CharityWebsiteBundle/Resources/public/images/clickcounter/right.png"
       inkscape:export-xdpi="85.459991"
       inkscape:export-ydpi="85.459991">
      <path
         id="rect3039-90"
         d="m 305.79724,411.11218 0,89 -15.75,0 0,9.5 164,0 0,-9.5 -15.75,0 0,-89 -132.5,0 z"
         style="fill:#ffffff;fill-opacity:1;stroke:none"
         inkscape:connector-curvature="0" />
      <g
         inkscape:export-ydpi="85.459938"
         inkscape:export-xdpi="85.459938"
         inkscape:export-filename="/home/m/right.png"
         transform="translate(243.69233,-102.27296)"
         id="g3086">
        <rect
           y="543.24829"
           x="150.49107"
           height="26.714285"
           width="40.285713"
           id="rect3024"
           style="fill:#e00073;fill-opacity:1;stroke:none" />
        <path
           inkscape:connector-curvature="0"
           id="path3026"
           d="m 63.964289,508.77231 c -3.21784,0 -5.8125,2.59466 -5.8125,5.8125 l 0,85.625 -10.46875,0 c -2.2385,0 -4.0625,1.79275 -4.0625,4.03125 l 0,5.8125 c 0,2.2385 1.824,4.03125 4.0625,4.03125 l 161.375001,0 c 2.2385,0 4.03125,-1.79275 4.03125,-4.03125 l 0,-5.8125 c 0,-2.2385 -1.79275,-4.03125 -4.03125,-4.03125 l -10.5,0 0,-85.625 c 0,-3.21784 -2.59466,-5.8125 -5.8125,-5.8125 l -128.781251,0 z m 2,7.09375 124.781251,0 0,81.65625 -124.781251,0 0,-81.65625 z m 53.312501,88.28125 18.15625,0 c 1.04398,0 1.90625,0.83102 1.90625,1.875 l 0,2.25 c 0,1.04398 -0.86227,1.875 -1.90625,1.875 l -18.15625,0 c -1.04398,0 -1.90625,-0.83102 -1.90625,-1.875 l 0,-2.25 c 0,-1.04398 0.86227,-1.875 1.90625,-1.875 z m 85.875,0 c 1.66321,0 3,1.33679 3,3 0,1.66321 -1.33679,3 -3,3 -1.66321,0 -3,-1.33679 -3,-3 0,-1.66321 1.33679,-3 3,-3 z"
           style="fill:#252525;fill-opacity:1;stroke:none" />
        <rect
           style="fill:#e00073;fill-opacity:1;stroke:none"
           id="rect3052"
           width="40.285713"
           height="26.714285"
           x="150.49107"
           y="543.24829" />
        <path
           style="fill:#252525;fill-opacity:1;stroke:none"
           d="m 63.964289,508.77231 c -3.21784,0 -5.8125,2.59466 -5.8125,5.8125 l 0,85.625 -10.46875,0 c -2.2385,0 -4.0625,1.79275 -4.0625,4.03125 l 0,5.8125 c 0,2.2385 1.824,4.03125 4.0625,4.03125 l 161.375001,0 c 2.2385,0 4.03125,-1.79275 4.03125,-4.03125 l 0,-5.8125 c 0,-2.2385 -1.79275,-4.03125 -4.03125,-4.03125 l -10.5,0 0,-85.625 c 0,-3.21784 -2.59466,-5.8125 -5.8125,-5.8125 l -128.781251,0 z m 2,7.09375 124.781251,0 0,81.65625 -124.781251,0 0,-81.65625 z m 53.312501,88.28125 18.15625,0 c 1.04398,0 1.90625,0.83102 1.90625,1.875 l 0,2.25 c 0,1.04398 -0.86227,1.875 -1.90625,1.875 l -18.15625,0 c -1.04398,0 -1.90625,-0.83102 -1.90625,-1.875 l 0,-2.25 c 0,-1.04398 0.86227,-1.875 1.90625,-1.875 z m 85.875,0 c 1.66321,0 3,1.33679 3,3 0,1.66321 -1.33679,3 -3,3 -1.66321,0 -3,-1.33679 -3,-3 0,-1.66321 1.33679,-3 3,-3 z"
           id="path3054"
           inkscape:connector-curvature="0" />
      </g>
    </g>
    <g
       id="g3158"
       inkscape:export-filename="/home/m/www/stop.hiv/src/Dothiv/CharityWebsiteBundle/Resources/public/images/clickcounter/left.png"
       inkscape:export-xdpi="85.459991"
       inkscape:export-ydpi="85.459991">
      <path
         id="rect3039-9"
         d="m 305.79724,280.11218 0,89 -15.75,0 0,9.5 164,0 0,-9.5 -15.75,0 0,-89 -132.5,0 z"
         style="fill:#ffffff;fill-opacity:1;stroke:none"
         inkscape:connector-curvature="0" />
      <g
         inkscape:export-ydpi="85.459938"
         inkscape:export-xdpi="85.459938"
         inkscape:export-filename="/home/m/left.png"
         transform="translate(243.69233,-101.49561)"
         id="g3080">
        <rect
           style="fill:#e00073;fill-opacity:1;stroke:none"
           id="rect3020"
           width="40.285713"
           height="26.714285"
           x="65.844635"
           y="411.24832" />
        <path
           style="fill:#252525;fill-opacity:1;stroke:none"
           d="m 63.964289,376.77231 c -3.21784,0 -5.8125,2.59466 -5.8125,5.8125 l 0,85.625 -10.46875,0 c -2.2385,0 -4.0625,1.79275 -4.0625,4.03125 l 0,5.8125 c 0,2.2385 1.824,4.03125 4.0625,4.03125 l 161.375001,0 c 2.2385,0 4.03125,-1.79275 4.03125,-4.03125 l 0,-5.8125 c 0,-2.2385 -1.79275,-4.03125 -4.03125,-4.03125 l -10.5,0 0,-85.625 c 0,-3.21784 -2.59466,-5.8125 -5.8125,-5.8125 l -128.781251,0 z m 2,7.09375 124.781251,0 0,81.65625 -124.781251,0 0,-81.65625 z m 53.312501,88.28125 18.15625,0 c 1.04398,0 1.90625,0.83102 1.90625,1.875 l 0,2.25 c 0,1.04398 -0.86227,1.875 -1.90625,1.875 l -18.15625,0 c -1.04398,0 -1.90625,-0.83102 -1.90625,-1.875 l 0,-2.25 c 0,-1.04398 0.86227,-1.875 1.90625,-1.875 z m 85.875,0 c 1.66321,0 3,1.33679 3,3 0,1.66321 -1.33679,3 -3,3 -1.66321,0 -3,-1.33679 -3,-3 0,-1.66321 1.33679,-3 3,-3 z"
           id="path3022"
           inkscape:connector-curvature="0" />
        <rect
           y="411.24832"
           x="65.844635"
           height="26.714285"
           width="40.285713"
           id="rect3056"
           style="fill:#e00073;fill-opacity:1;stroke:none" />
        <path
           inkscape:connector-curvature="0"
           id="path3058"
           d="m 63.964289,376.77231 c -3.21784,0 -5.8125,2.59466 -5.8125,5.8125 l 0,85.625 -10.46875,0 c -2.2385,0 -4.0625,1.79275 -4.0625,4.03125 l 0,5.8125 c 0,2.2385 1.824,4.03125 4.0625,4.03125 l 161.375001,0 c 2.2385,0 4.03125,-1.79275 4.03125,-4.03125 l 0,-5.8125 c 0,-2.2385 -1.79275,-4.03125 -4.03125,-4.03125 l -10.5,0 0,-85.625 c 0,-3.21784 -2.59466,-5.8125 -5.8125,-5.8125 l -128.781251,0 z m 2,7.09375 124.781251,0 0,81.65625 -124.781251,0 0,-81.65625 z m 53.312501,88.28125 18.15625,0 c 1.04398,0 1.90625,0.83102 1.90625,1.875 l 0,2.25 c 0,1.04398 -0.86227,1.875 -1.90625,1.875 l -18.15625,0 c -1.04398,0 -1.90625,-0.83102 -1.90625,-1.875 l 0,-2.25 c 0,-1.04398 0.86227,-1.875 1.90625,-1.875 z m 85.875,0 c 1.66321,0 3,1.33679 3,3 0,1.66321 -1.33679,3 -3,3 -1.66321,0 -3,-1.33679 -3,-3 0,-1.66321 1.33679,-3 3,-3 z"
           style="fill:#252525;fill-opacity:1;stroke:none" />
      </g>
    </g>
    <g
       id="g3166"
       inkscape:export-filename="/home/m/www/stop.hiv/src/Dothiv/CharityWebsiteBundle/Resources/public/images/clickcounter/bottom.png"
       inkscape:export-xdpi="85.459991"
       inkscape:export-ydpi="85.459991">
      <path
         id="rect3039-8"
         d="m 305.79724,148.61218 0,89 -15.75,0 0,9.5 164,0 0,-9.5 -15.75,0 0,-89 -132.5,0 z"
         style="fill:#ffffff;fill-opacity:1;stroke:none"
         inkscape:connector-curvature="0" />
      <g
         inkscape:export-ydpi="85.459938"
         inkscape:export-xdpi="85.459938"
         inkscape:export-filename="/home/m/www/stop.hiv/src/Dothiv/CharityWebsiteBundle/Resources/public/images/clickcounter/bottom.png"
         transform="translate(243.69233,-96.718209)"
         id="g3074">
        <rect
           y="313.83411"
           x="98.712051"
           height="15.714286"
           width="59.285713"
           id="rect3016"
           style="fill:#e00073;fill-opacity:1;stroke:none" />
        <path
           inkscape:connector-curvature="0"
           id="path3018"
           d="m 63.964289,240.77231 c -3.21784,0 -5.8125,2.59466 -5.8125,5.8125 l 0,85.625 -10.46875,0 c -2.2385,0 -4.0625,1.79275 -4.0625,4.03125 l 0,5.8125 c 0,2.2385 1.824,4.03125 4.0625,4.03125 l 161.375001,0 c 2.2385,0 4.03125,-1.79275 4.03125,-4.03125 l 0,-5.8125 c 0,-2.2385 -1.79275,-4.03125 -4.03125,-4.03125 l -10.5,0 0,-85.625 c 0,-3.21784 -2.59466,-5.8125 -5.8125,-5.8125 l -128.781251,0 z m 2,7.09375 124.781251,0 0,81.65625 -124.781251,0 0,-81.65625 z m 53.312501,88.28125 18.15625,0 c 1.04398,0 1.90625,0.83102 1.90625,1.875 l 0,2.25 c 0,1.04398 -0.86227,1.875 -1.90625,1.875 l -18.15625,0 c -1.04398,0 -1.90625,-0.83102 -1.90625,-1.875 l 0,-2.25 c 0,-1.04398 0.86227,-1.875 1.90625,-1.875 z m 85.875,0 c 1.66321,0 3,1.33679 3,3 0,1.66321 -1.33679,3 -3,3 -1.66321,0 -3,-1.33679 -3,-3 0,-1.66321 1.33679,-3 3,-3 z"
           style="fill:#252525;fill-opacity:1;stroke:none" />
        <rect
           style="fill:#e00073;fill-opacity:1;stroke:none"
           id="rect3060"
           width="59.285713"
           height="15.714286"
           x="98.712051"
           y="313.83411" />
        <path
           style="fill:#252525;fill-opacity:1;stroke:none"
           d="m 63.964289,240.77231 c -3.21784,0 -5.8125,2.59466 -5.8125,5.8125 l 0,85.625 -10.46875,0 c -2.2385,0 -4.0625,1.79275 -4.0625,4.03125 l 0,5.8125 c 0,2.2385 1.824,4.03125 4.0625,4.03125 l 161.375001,0 c 2.2385,0 4.03125,-1.79275 4.03125,-4.03125 l 0,-5.8125 c 0,-2.2385 -1.79275,-4.03125 -4.03125,-4.03125 l -10.5,0 0,-85.625 c 0,-3.21784 -2.59466,-5.8125 -5.8125,-5.8125 l -128.781251,0 z m 2,7.09375 124.781251,0 0,81.65625 -124.781251,0 0,-81.65625 z m 53.312501,88.28125 18.15625,0 c 1.04398,0 1.90625,0.83102 1.90625,1.875 l 0,2.25 c 0,1.04398 -0.86227,1.875 -1.90625,1.875 l -18.15625,0 c -1.04398,0 -1.90625,-0.83102 -1.90625,-1.875 l 0,-2.25 c 0,-1.04398 0.86227,-1.875 1.90625,-1.875 z m 85.875,0 c 1.66321,0 3,1.33679 3,3 0,1.66321 -1.33679,3 -3,3 -1.66321,0 -3,-1.33679 -3,-3 0,-1.66321 1.33679,-3 3,-3 z"
           id="path3062"
           inkscape:connector-curvature="0" />
      </g>
    </g>
    <g
       id="g3122"
       inkscape:export-filename="/home/m/www/stop.hiv/src/Dothiv/CharityWebsiteBundle/Resources/public/images/clickcounter/invisible.png"
       inkscape:export-xdpi="85.459991"
       inkscape:export-ydpi="85.459991">
      <path
         id="rect3039-0"
         d="m 305.79724,936.11218 0,89.00002 -15.75,0 0,9.5 164,0 0,-9.5 -15.75,0 0,-89.00002 -132.5,0 z"
         style="fill:#ffffff;fill-opacity:1;stroke:none"
         inkscape:connector-curvature="0" />
      <path
         inkscape:export-ydpi="85"
         inkscape:export-xdpi="85"
         inkscape:export-filename="/home/m/invisible.png"
         style="fill:#252525;fill-opacity:1;stroke:none"
         d="m 307.65662,931.38984 c -3.21784,0 -5.8125,2.59461 -5.8125,5.81251 l 0,85.62495 -10.46875,0 c -2.2385,0 -4.0625,1.7927 -4.0625,4.0312 l 0,5.8125 c 0,2.2386 1.824,4.0313 4.0625,4.0313 l 161.375,0 c 2.2385,0 4.03125,-1.7927 4.03125,-4.0313 l 0,-5.8125 c 0,-2.2385 -1.79275,-4.0312 -4.03125,-4.0312 l -10.5,0 0,-85.62495 c 0,-3.2179 -2.59466,-5.81251 -5.8125,-5.81251 l -128.78125,0 z m 2,7.09371 124.78125,0 0,81.65625 -124.78125,0 0,-81.65625 z m 53.3125,88.28125 18.15625,0 c 1.04398,0 1.90625,0.831 1.90625,1.875 l 0,2.25 c 0,1.044 -0.86227,1.875 -1.90625,1.875 l -18.15625,0 c -1.04398,0 -1.90625,-0.831 -1.90625,-1.875 l 0,-2.25 c 0,-1.044 0.86227,-1.875 1.90625,-1.875 z m 85.875,0 c 1.66321,0 3,1.3368 3,3 0,1.6632 -1.33679,3 -3,3 -1.66321,0 -3,-1.3368 -3,-3 0,-1.6632 1.33679,-3 3,-3 z"
         id="path3186"
         inkscape:connector-curvature="0" />
    </g>
  </g>
</svg>
