<?xml version="1.0" encoding="UTF-8" standalone="no"?>
<svg
   xmlns:dc="http://purl.org/dc/elements/1.1/"
   xmlns:cc="http://creativecommons.org/ns#"
   xmlns:rdf="http://www.w3.org/1999/02/22-rdf-syntax-ns#"
   xmlns:svg="http://www.w3.org/2000/svg"
   xmlns="http://www.w3.org/2000/svg"
   xmlns:sodipodi="http://sodipodi.sourceforge.net/DTD/sodipodi-0.dtd"
   xmlns:inkscape="http://www.inkscape.org/namespaces/inkscape"
   version="1.0"
   id="Layer_1"
   x="0px"
   y="0px"
   width="1024"
   height="1024"
   viewBox="0 0 1024 1024"
   enable-background="new 0 0 100 100"
   xml:space="preserve"
   inkscape:version="0.48.5 r10040"
   sodipodi:docname="clicking-hand.svg"><metadata
     id="metadata3027"><rdf:RDF><cc:Work
         rdf:about=""><dc:format>image/svg+xml</dc:format><dc:type
           rdf:resource="http://purl.org/dc/dcmitype/StillImage" /></cc:Work></rdf:RDF></metadata><defs
     id="defs3025" /><sodipodi:namedview
     pagecolor="#ffffff"
     bordercolor="#666666"
     borderopacity="1"
     objecttolerance="10"
     gridtolerance="10"
     guidetolerance="10"
     inkscape:pageopacity="0"
     inkscape:pageshadow="2"
     inkscape:window-width="1920"
     inkscape:window-height="1181"
     id="namedview3023"
     showgrid="false"
     inkscape:zoom="0.5"
     inkscape:cx="767.44452"
     inkscape:cy="711.12402"
     inkscape:window-x="-4"
     inkscape:window-y="-4"
     inkscape:window-maximized="1"
     inkscape:current-layer="Layer_1" /><path
     d="m 417.65548,164.68766 v -38.44939 c 0,-7.25036 5.87469,-13.12505 13.12505,-13.12505 7.25035,0 13.11639,5.87469 13.11639,13.12505 v 38.45804 c 0,7.2417 -5.86604,13.12505 -13.11639,13.12505 -7.25036,-0.009 -13.12505,-5.88335 -13.12505,-13.1337 z m -71.3269,26.16358 c 2.4312,4.19621 6.84371,6.5582 11.36869,6.5582 2.23221,0 4.49038,-0.56238 6.54955,-1.76501 6.27268,-3.62518 8.42703,-11.64556 4.80185,-17.91824 l -24.64948,-42.70616 c -3.62518,-6.28999 -11.66287,-8.42703 -17.9269,-4.8105 -6.27268,3.62518 -8.42703,11.65421 -4.8105,17.92689 l 24.66679,42.71482 z m -106.75675,24.78791 58.04611,33.51776 c 2.06783,1.19397 4.31734,1.75635 6.54955,1.75635 4.52498,0 8.93749,-2.34468 11.3687,-6.5582 3.62518,-6.28133 1.47949,-14.30171 -4.80185,-17.92689 l -58.04611,-33.51776 c -6.27269,-3.62518 -14.30172,-1.47084 -17.9269,4.80184 -3.62518,6.27269 -1.46218,14.30172 4.8105,17.9269 z m 6.5582,108.35736 h 38.46669 c 7.2417,0 13.1164,-5.87469 13.1164,-13.12505 0,-7.25035 -5.8747,-13.12504 -13.1164,-13.12504 h -38.46669 c -7.24171,0 -13.12505,5.87469 -13.12505,13.12504 0,7.25036 5.88334,13.12505 13.12505,13.12505 z m 317.71791,-13.12505 c 0,7.24171 5.86604,13.12505 13.11639,13.12505 l 48.09635,0.009 c 7.25035,0 13.11639,-5.8747 13.11639,-13.12505 0,-7.25036 -5.86604,-13.12505 -13.11639,-13.12505 l -48.09635,0 c -7.25035,0 -13.11639,5.87469 -13.11639,13.11639 z m -17.84038,-66.54235 c 2.4312,4.21351 6.84371,6.56685 11.386,6.56685 2.23221,0 4.48173,-0.56238 6.5409,-1.75635 l 41.53814,-23.97463 c 6.28999,-3.62518 8.41837,-11.65422 4.80185,-17.9269 -3.59923,-6.27268 -11.62826,-8.43568 -17.9096,-4.80185 l -41.53814,23.97463 c -6.27268,3.62518 -8.43568,11.64556 -4.81915,17.91825 z m -48.70198,-48.70198 c 2.06782,1.19397 4.31734,1.765 6.54955,1.765 4.52498,0 8.95479,-2.34468 11.36869,-6.5582 L 558.0165,116.7211 c 3.63383,-6.28134 1.48814,-14.29307 -4.80184,-17.91825 -6.27269,-3.63383 -14.29307,-1.47084 -17.9096,4.80185 l -42.80133,74.11283 c -3.62518,6.26404 -1.47083,14.28442 4.80185,17.9096 z M 790.99695,543.46257 V 722.3422 c 0,1.61792 -0.28552,3.19258 -0.8479,4.68072 -2.56963,6.71393 -62.69222,164.526 -65.90211,172.2003 -7.31957,17.62404 -20.26293,27.73824 -35.51636,27.73824 H 434.42301 c -30.72317,0 -33.10247,-14.5526 -33.10247,-35.10107 0,-7.2071 -0.009,-16.18785 -0.0346,-24.33801 0,-0.0952 -0.009,-0.14709 -0.009,-0.23361 0,-0.0865 0.009,-0.12978 0.009,-0.19899 0,-2.11108 0,-4.17026 0,-6.11695 -0.0173,-6.99945 -2.31873,-15.63412 -5.58918,-20.99835 -17.79712,-29.21773 -108.02859,-177.29632 -137.18575,-224.21599 -20.38406,-32.79099 -27.72094,-57.3107 -23.07483,-77.14103 3.30506,-14.09407 12.49346,-25.63581 28.08432,-35.29141 33.95901,-21.04161 61.52421,-12.75302 101.45309,34.06283 v -231.9076 c 0,-36.27774 29.52054,-65.79828 65.79828,-65.79828 36.2864,0 65.79829,29.52054 65.79829,65.79828 v 91.04476 h 40.06731 c 28.06701,0 51.99838,17.68464 61.46364,42.47256 h 33.68215 c 26.59618,0 49.49796,15.89368 59.87168,38.64838 h 33.56102 c 36.27774,0.009 65.78099,29.5292 65.78099,65.81559 z m -90.9842,345.68975 c 0.37204,-0.84789 1.59197,-3.97126 3.41753,-8.72985 H 427.55334 c 0.009,4.03183 0.0173,7.94252 0.0173,11.43792 0,2.31873 0,6.09964 0.19035,8.5568 1.30644,0.16439 3.39157,0.29417 6.66202,0.29417 h 254.30757 c 6.03042,0.009 10.17472,-8.85097 11.28217,-11.55904 z M 764.7555,543.46257 c 0,-21.82029 -17.7279,-39.55684 -39.53954,-39.55684 h -27.67767 c 0,0.30282 0.0346,0.59699 0.0346,0.8998 v 51.10723 c 0,7.25036 -5.88335,13.12505 -13.13371,13.12505 -7.23305,0 -13.11639,-5.87469 -13.11639,-13.12505 v -51.10723 c 0,-21.81163 -17.74521,-39.55684 -39.53954,-39.55684 H 602.4444 v 56.91271 c 0,7.25036 -5.86604,13.12505 -13.1164,13.12505 -7.25036,0 -13.1337,-5.87469 -13.1337,-13.12505 v -59.82842 c 0,-21.81164 -17.74521,-39.55684 -39.55684,-39.55684 h -40.06731 v 99.36796 c 0,7.25035 -5.87469,13.12505 -13.12505,13.12505 -7.25036,0 -13.1164,-5.8747 -13.1164,-13.12505 V 305.48128 c 0,-21.81163 -17.7452,-39.55684 -39.55684,-39.55684 -21.81163,0 -39.55684,17.74521 -39.55684,39.55684 v 331.04196 c 0,7.25035 -5.87469,13.12505 -13.12505,13.12505 -7.25035,0 -13.12504,-5.8747 -13.12504,-13.12505 v -56.95597 c -0.0606,-0.0865 -0.15574,-0.15574 -0.23361,-0.24226 -54.97466,-73.79271 -71.45668,-63.56607 -87.40227,-53.69417 -12.48481,7.73487 -15.314,14.54398 -16.35224,18.97379 -2.87246,12.25985 3.79822,31.53646 19.81303,57.30205 29.21773,47.01484 119.50111,195.1886 137.30688,224.40633 4.69802,7.72621 7.93386,17.93555 8.99805,27.86802 h 286.41506 c 15.15826,-39.59145 39.13289,-102.49132 51.23701,-134.24408 V 543.46257 z"
     id="path3021"
     inkscape:connector-curvature="0" /></svg>