<?xml version="1.0" encoding="UTF-8" standalone="no"?>
<!-- Created with Inkscape (http://www.inkscape.org/) -->

<svg
   xmlns:dc="http://purl.org/dc/elements/1.1/"
   xmlns:cc="http://creativecommons.org/ns#"
   xmlns:rdf="http://www.w3.org/1999/02/22-rdf-syntax-ns#"
   xmlns:svg="http://www.w3.org/2000/svg"
   xmlns="http://www.w3.org/2000/svg"
   xmlns:sodipodi="http://sodipodi.sourceforge.net/DTD/sodipodi-0.dtd"
   xmlns:inkscape="http://www.inkscape.org/namespaces/inkscape"
   width="155.5625"
   height="155.5625"
   id="svg3897"
   version="1.1"
   inkscape:version="0.48.5 r10040"
   sodipodi:docname="down-arrow-outline-inside.svg">
  <defs
     id="defs3899" />
  <sodipodi:namedview
     id="base"
     pagecolor="#ffffff"
     bordercolor="#666666"
     borderopacity="1.0"
     inkscape:pageopacity="0.0"
     inkscape:pageshadow="2"
     inkscape:zoom="1"
     inkscape:cx="198.56949"
     inkscape:cy="36.724238"
     inkscape:document-units="px"
     inkscape:current-layer="layer1"
     showgrid="false"
     inkscape:window-width="1920"
     inkscape:window-height="1181"
     inkscape:window-x="-4"
     inkscape:window-y="-4"
     inkscape:window-maximized="1"
     fit-margin-top="0"
     fit-margin-left="0"
     fit-margin-right="0"
     fit-margin-bottom="0" />
  <metadata
     id="metadata3902">
    <rdf:RDF>
      <cc:Work
         rdf:about="">
        <dc:format>image/svg+xml</dc:format>
        <dc:type
           rdf:resource="http://purl.org/dc/dcmitype/StillImage" />
        <dc:title></dc:title>
      </cc:Work>
    </rdf:RDF>
  </metadata>
  <g
     inkscape:label="Ebene 1"
     inkscape:groupmode="layer"
     id="layer1"
     transform="translate(-285.99955,-470.84313)">
    <path
       style="color:#000000;fill:#000000;fill-opacity:1;fill-rule:nonzero;stroke:none;stroke-width:19.5;marker:none;visibility:visible;display:inline;overflow:visible;enable-background:accumulate"
       d="m 31.46875,13.78125 c -5.8925,5.8925 -11.795,11.7949 -17.6875,17.6875 20.03134,20.03134 40.062364,40.062383 60.09375,60.09375 -20.031386,20.03137 -40.06241,40.06241 -60.09375,60.09375 5.8925,5.8926 11.795,11.795 17.6875,17.6875 20.0347,-20.0346 40.05905,-40.05905 60.09375,-60.09375 20.0347,20.0347 40.05905,40.05915 60.09375,60.09375 5.8925,-5.8925 11.795,-11.7949 17.6875,-17.6875 C 149.31241,131.62491 129.28139,111.59387 109.25,91.5625 c 20.03139,-20.031367 40.06241,-40.06241 60.09375,-60.09375 -5.8925,-5.8926 -11.795,-11.795 -17.6875,-17.6875 C 131.62155,33.81585 111.5972,53.8403 91.5625,73.875 71.5278,53.8403 51.50345,33.81585 31.46875,13.78125 z"
       transform="translate(272.2183,457.06188)"
       id="path3881"
       inkscape:connector-curvature="0" />
  </g>
</svg>
