<?xml version="1.0" encoding="UTF-8" standalone="no"?>
<!-- Created with Inkscape (http://www.inkscape.org/) -->

<svg
   xmlns:dc="http://purl.org/dc/elements/1.1/"
   xmlns:cc="http://creativecommons.org/ns#"
   xmlns:rdf="http://www.w3.org/1999/02/22-rdf-syntax-ns#"
   xmlns:svg="http://www.w3.org/2000/svg"
   xmlns="http://www.w3.org/2000/svg"
   xmlns:sodipodi="http://sodipodi.sourceforge.net/DTD/sodipodi-0.dtd"
   xmlns:inkscape="http://www.inkscape.org/namespaces/inkscape"
   width="444.59375"
   height="295.79077"
   id="svg2"
   version="1.1"
   inkscape:version="0.48.5 r10040"
   sodipodi:docname="cname.svg"
   inkscape:export-filename="/home/m/git/dothiv-gfx/png/cname.png"
   inkscape:export-xdpi="70.849998"
   inkscape:export-ydpi="70.849998">
  <defs
     id="defs4" />
  <sodipodi:namedview
     id="base"
     pagecolor="#ffffff"
     bordercolor="#666666"
     borderopacity="1.0"
     inkscape:pageopacity="0.0"
     inkscape:pageshadow="2"
     inkscape:zoom="1.4"
     inkscape:cx="236.44282"
     inkscape:cy="60.309619"
     inkscape:document-units="px"
     inkscape:current-layer="layer1"
     showgrid="false"
     fit-margin-top="10"
     fit-margin-left="10"
     fit-margin-right="10"
     fit-margin-bottom="10"
     inkscape:window-width="1920"
     inkscape:window-height="1181"
     inkscape:window-x="-4"
     inkscape:window-y="-4"
     inkscape:window-maximized="1"
     inkscape:object-nodes="false" />
  <metadata
     id="metadata7">
    <rdf:RDF>
      <cc:Work
         rdf:about="">
        <dc:format>image/svg+xml</dc:format>
        <dc:type
           rdf:resource="http://purl.org/dc/dcmitype/StillImage" />
        <dc:title />
      </cc:Work>
    </rdf:RDF>
  </metadata>
  <g
     inkscape:label="Ebene 1"
     inkscape:groupmode="layer"
     id="layer1"
     transform="translate(-149.75,-56.5625)">
    <path
       sodipodi:nodetypes="sssssssss"
       style="font-size:medium;font-style:normal;font-variant:normal;font-weight:normal;font-stretch:normal;text-indent:0;text-align:start;text-decoration:none;line-height:normal;letter-spacing:normal;word-spacing:normal;text-transform:none;direction:ltr;block-progression:tb;writing-mode:lr-tb;text-anchor:start;baseline-shift:baseline;color:#000000;fill:#ffffff;fill-opacity:1;fill-rule:nonzero;stroke:none;stroke-width:2.14495492;marker:none;visibility:visible;display:inline;overflow:visible;enable-background:accumulate;font-family:Sans;-inkscape-font-specification:Sans"
       d="m 165.62032,66.734286 c -3.02636,0 -5.50804,2.901809 -5.50804,6.440521 l 0,32.954013 c 0,3.5387 2.48168,6.44051 5.50804,6.44051 l 412.23092,0 c 3.02637,0 5.50804,-2.90181 5.50804,-6.44051 l 0,-32.954013 c 0,-3.538712 -2.48168,-6.440521 -5.50804,-6.440521 z"
       id="path3226"
       inkscape:connector-curvature="0" />
    <path
       inkscape:connector-curvature="0"
       id="path3224"
       d="m 237.1699,157.39548 c -1.96098,0 -3.56902,1.60804 -3.56902,3.56902 l 0,18.26149 c 0,1.96098 1.60804,3.56902 3.56902,3.56902 l 267.11145,0 c 1.96099,0 3.56902,-1.60804 3.56902,-3.56902 l 0,-18.26149 c 0,-1.96098 -1.60804,-3.56902 -3.56902,-3.56902 z"
       style="font-size:medium;font-style:normal;font-variant:normal;font-weight:normal;font-stretch:normal;text-indent:0;text-align:start;text-decoration:none;line-height:normal;letter-spacing:normal;word-spacing:normal;text-transform:none;direction:ltr;block-progression:tb;writing-mode:lr-tb;text-anchor:start;baseline-shift:baseline;color:#000000;fill:#ffffff;fill-opacity:1;fill-rule:nonzero;stroke:none;stroke-width:2.14495492;marker:none;visibility:visible;display:inline;overflow:visible;enable-background:accumulate;font-family:Sans;-inkscape-font-specification:Sans"
       sodipodi:nodetypes="sssssssss" />
    <path
       inkscape:connector-curvature="0"
       id="rect2985"
       d="m 166.15469,68.296929 116.37638,0 c 2.59657,0 4.68695,2.090378 4.68695,4.686945 l 0,33.529676 c 0,2.59657 -2.09038,4.68695 -4.68695,4.68695 l -116.37638,0 c -2.59656,0 -4.68694,-2.09038 -4.68694,-4.68695 l 0,-33.529676 c 0,-2.596567 2.09038,-4.686945 4.68694,-4.686945 z"
       style="color:#000000;fill:#000000;fill-opacity:1;fill-rule:nonzero;stroke:none;stroke-width:3;marker:none;visibility:visible;display:inline;overflow:visible;enable-background:accumulate" />
    <path
       d="m 182.14971,101.03798 c 2.91631,0 5.3866,-1.132219 7.23931,-3.293717 l -2.67614,-3.156476 c -1.0979,1.166523 -2.5389,2.092881 -4.35731,2.092881 -3.29371,0 -5.4209,-2.676147 -5.4209,-7.273619 0,-4.494543 2.43598,-7.204999 5.48952,-7.204999 1.61254,0 2.81338,0.75481 3.9456,1.784094 l 2.67614,-3.225094 c -1.50962,-1.543928 -3.84267,-2.916309 -6.72467,-2.916309 -5.66107,0 -10.56733,4.323007 -10.56733,11.733856 0,7.513778 4.73472,11.459383 10.39578,11.459383"
       style="font-size:38.79640198px;font-style:normal;font-variant:normal;font-weight:bold;font-stretch:normal;text-align:start;line-height:125%;letter-spacing:0px;word-spacing:0px;writing-mode:lr-tb;text-anchor:start;fill:#ffffff;fill-opacity:1;stroke:none;font-family:Source Sans Pro;-inkscape-font-specification:Source Sans Pro Bold"
       id="path4113"
       inkscape:connector-curvature="0" />
    <path
       d="m 192.78674,100.62626 4.80334,0 0,-7.925496 c 0,-2.641831 -0.41172,-5.626765 -0.61758,-8.097048 l 0.13724,0 2.19581,4.871952 5.83261,11.150592 5.18074,0 0,-22.369806 -4.80333,0 0,7.891191 c 0,2.64183 0.41171,5.798311 0.61757,8.165666 l -0.13724,0 -2.19581,-4.940571 -5.83261,-11.116286 -5.18074,0 0,22.369806"
       style="font-size:38.79640198px;font-style:normal;font-variant:normal;font-weight:bold;font-stretch:normal;text-align:start;line-height:125%;letter-spacing:0px;word-spacing:0px;writing-mode:lr-tb;text-anchor:start;fill:#ffffff;fill-opacity:1;stroke:none;font-family:Source Sans Pro;-inkscape-font-specification:Source Sans Pro Bold"
       id="path4115"
       inkscape:connector-curvature="0" />
    <path
       d="m 220.27081,91.362692 0.54896,-2.058571 c 0.61756,-2.230117 1.20083,-4.837646 1.74978,-7.205 l 0.13724,0 c 0.58326,2.333045 1.20083,4.974883 1.8184,7.205 l 0.51464,2.058571 -4.76902,0 m 7.17069,9.263568 5.35229,0 -6.99915,-22.369806 -6.07278,0 -6.99915,22.369806 5.14643,0 1.37238,-5.317973 6.8276,0 1.37238,5.317973"
       style="font-size:38.79640198px;font-style:normal;font-variant:normal;font-weight:bold;font-stretch:normal;text-align:start;line-height:125%;letter-spacing:0px;word-spacing:0px;writing-mode:lr-tb;text-anchor:start;fill:#ffffff;fill-opacity:1;stroke:none;font-family:Source Sans Pro;-inkscape-font-specification:Source Sans Pro Bold"
       id="path4117"
       inkscape:connector-curvature="0" />
    <path
       d="m 235.20456,100.62626 4.52886,0 0,-8.199973 c 0,-2.195807 -0.41171,-5.455216 -0.65188,-7.616714 l 0.13724,0 1.78409,5.317976 3.19079,8.543072 2.77907,0 3.19078,-8.543072 1.81841,-5.317976 0.13724,0 c -0.24017,2.161498 -0.65189,5.420907 -0.65189,7.616714 l 0,8.199973 4.59748,0 0,-22.369806 -5.48952,0 -3.53388,9.949762 c -0.44602,1.303761 -0.82343,2.744763 -1.26945,4.117143 l -0.13724,0 c -0.44603,-1.37238 -0.85774,-2.813382 -1.30377,-4.117143 l -3.60249,-9.949762 -5.52384,0 0,22.369806"
       style="font-size:38.79640198px;font-style:normal;font-variant:normal;font-weight:bold;font-stretch:normal;text-align:start;line-height:125%;letter-spacing:0px;word-spacing:0px;writing-mode:lr-tb;text-anchor:start;fill:#ffffff;fill-opacity:1;stroke:none;font-family:Source Sans Pro;-inkscape-font-specification:Source Sans Pro Bold"
       id="path4119"
       inkscape:connector-curvature="0" />
    <path
       d="m 261.33877,100.62626 14.34138,0 0,-4.254377 -9.29788,0 0,-5.146429 7.61672,0 0,-4.220071 -7.61672,0 0,-4.494548 8.95479,0 0,-4.254381 -13.99829,0 0,22.369806"
       style="font-size:38.79640198px;font-style:normal;font-variant:normal;font-weight:bold;font-stretch:normal;text-align:start;line-height:125%;letter-spacing:0px;word-spacing:0px;writing-mode:lr-tb;text-anchor:start;fill:#ffffff;fill-opacity:1;stroke:none;font-family:Source Sans Pro;-inkscape-font-specification:Source Sans Pro Bold"
       id="path4121"
       inkscape:connector-curvature="0" />
    <path
       d="m 302.95063,100.62626 5.764,0 1.50961,-6.793282 c 0.30879,-1.578237 0.54896,-3.156478 0.85774,-4.974881 l 0.13724,0 c 0.30879,1.818403 0.58327,3.396644 0.92636,4.974881 l 1.54393,6.793282 5.90123,0 4.08284,-17.01752 -4.6661,0 -1.61255,7.891191 c -0.30878,1.681164 -0.48033,3.328024 -0.78912,5.043499 l -0.13723,0 c -0.3431,-1.715475 -0.65188,-3.362335 -1.0636,-5.043499 l -1.92133,-7.891191 -4.35731,0 -1.88702,7.891191 c -0.41172,1.612545 -0.68619,3.328024 -0.99498,5.043499 l -0.13723,0 c -0.27449,-1.715475 -0.48034,-3.362335 -0.75482,-5.043499 l -1.64685,-7.891191 -5.0092,0 4.25439,17.01752"
       style="font-size:38.79640198px;font-style:normal;font-variant:normal;font-weight:bold;font-stretch:normal;text-align:start;line-height:125%;letter-spacing:0px;word-spacing:0px;writing-mode:lr-tb;text-anchor:start;fill:#000000;fill-opacity:1;stroke:none;font-family:Source Sans Pro;-inkscape-font-specification:Source Sans Pro Bold"
       id="path4124"
       inkscape:connector-curvature="0" />
    <path
       d="m 329.55391,100.62626 5.764,0 1.50962,-6.793282 c 0.30879,-1.578237 0.54895,-3.156478 0.85774,-4.974881 l 0.13724,0 c 0.30878,1.818403 0.58326,3.396644 0.92635,4.974881 l 1.54393,6.793282 5.90124,0 4.08283,-17.01752 -4.66609,0 -1.61255,7.891191 c -0.30879,1.681164 -0.48033,3.328024 -0.78912,5.043499 l -0.13723,0 c -0.34311,-1.715475 -0.65189,-3.362335 -1.0636,-5.043499 l -1.92134,-7.891191 -4.3573,0 -1.88703,7.891191 c -0.41171,1.612545 -0.6862,3.328024 -0.99497,5.043499 l -0.13725,0 c -0.27447,-1.715475 -0.48033,-3.362335 -0.75481,-5.043499 l -1.64685,-7.891191 -5.00919,0 4.25438,17.01752"
       style="font-size:38.79640198px;font-style:normal;font-variant:normal;font-weight:bold;font-stretch:normal;text-align:start;line-height:125%;letter-spacing:0px;word-spacing:0px;writing-mode:lr-tb;text-anchor:start;fill:#000000;fill-opacity:1;stroke:none;font-family:Source Sans Pro;-inkscape-font-specification:Source Sans Pro Bold"
       id="path4126"
       inkscape:connector-curvature="0" />
    <path
       d="m 356.15719,100.62626 5.76401,0 1.50961,-6.793282 c 0.30878,-1.578237 0.54895,-3.156478 0.85774,-4.974881 l 0.13723,0 c 0.30879,1.818403 0.58327,3.396644 0.92637,4.974881 l 1.54392,6.793282 5.90124,0 4.08284,-17.01752 -4.6661,0 -1.61254,7.891191 c -0.30879,1.681164 -0.48034,3.328024 -0.78913,5.043499 l -0.13724,0 c -0.34309,-1.715475 -0.65188,-3.362335 -1.06359,-5.043499 l -1.92133,-7.891191 -4.35732,0 -1.88702,7.891191 c -0.41172,1.612545 -0.68619,3.328024 -0.99498,5.043499 l -0.13723,0 c -0.27448,-1.715475 -0.48033,-3.362335 -0.75481,-5.043499 l -1.64686,-7.891191 -5.00919,0 4.25438,17.01752"
       style="font-size:38.79640198px;font-style:normal;font-variant:normal;font-weight:bold;font-stretch:normal;text-align:start;line-height:125%;letter-spacing:0px;word-spacing:0px;writing-mode:lr-tb;text-anchor:start;fill:#000000;fill-opacity:1;stroke:none;font-family:Source Sans Pro;-inkscape-font-specification:Source Sans Pro Bold"
       id="path4128"
       inkscape:connector-curvature="0" />
    <path
       d="m 380.01464,101.03798 c 1.74979,0 3.05355,-1.372385 3.05355,-3.156479 0,-1.818403 -1.30376,-3.190785 -3.05355,-3.190785 -1.74978,0 -3.05355,1.372382 -3.05355,3.190785 0,1.784094 1.30377,3.156479 3.05355,3.156479"
       style="font-size:38.79640198px;font-style:normal;font-variant:normal;font-weight:bold;font-stretch:normal;text-align:start;line-height:125%;letter-spacing:0px;word-spacing:0px;writing-mode:lr-tb;text-anchor:start;fill:#000000;fill-opacity:1;stroke:none;font-family:Source Sans Pro;-inkscape-font-specification:Source Sans Pro Bold"
       id="path4130"
       inkscape:connector-curvature="0" />
    <path
       d="m 394.69965,101.03798 c 2.02426,0 4.28869,-0.7205 6.03847,-1.921336 l -1.68116,-3.053547 c -1.23514,0.754808 -2.40167,1.132214 -3.67111,1.132214 -2.26443,0 -3.97992,-1.132217 -4.42594,-3.6025 l 10.18993,0 c 0.10293,-0.411714 0.20586,-1.338073 0.20586,-2.230119 0,-4.631781 -2.40167,-8.165667 -7.23931,-8.165667 -4.08283,0 -8.02843,3.396649 -8.02843,8.920477 0,5.626755 3.73974,8.920478 8.61169,8.920478 M 390.9256,90.264787 c 0.3431,-2.161498 1.71549,-3.225095 3.29372,-3.225095 2.02425,0 2.84769,1.338073 2.84769,3.225095 l -6.14141,0"
       style="font-size:38.79640198px;font-style:normal;font-variant:normal;font-weight:bold;font-stretch:normal;text-align:start;line-height:125%;letter-spacing:0px;word-spacing:0px;writing-mode:lr-tb;text-anchor:start;fill:#000000;fill-opacity:1;stroke:none;font-family:Source Sans Pro;-inkscape-font-specification:Source Sans Pro Bold"
       id="path4132"
       inkscape:connector-curvature="0" />
    <path
       d="m 402.55493,100.62626 5.21504,0 1.33807,-2.813378 c 0.41172,-0.994975 0.89206,-1.989953 1.30376,-2.950619 l 0.13725,0 c 0.54895,0.960666 1.06359,1.989953 1.61254,2.950619 l 1.64686,2.813378 5.4209,0 -5.24935,-8.268591 4.94057,-8.748929 -5.21505,0 -1.16652,2.744762 c -0.37741,0.960665 -0.82343,1.955643 -1.16653,2.916309 l -0.13723,0 c -0.48034,-0.960666 -0.99498,-1.955644 -1.441,-2.916309 l -1.50962,-2.744762 -5.42091,0 4.90626,8.165667 -5.21504,8.851853"
       style="font-size:38.79640198px;font-style:normal;font-variant:normal;font-weight:bold;font-stretch:normal;text-align:start;line-height:125%;letter-spacing:0px;word-spacing:0px;writing-mode:lr-tb;text-anchor:start;fill:#000000;fill-opacity:1;stroke:none;font-family:Source Sans Pro;-inkscape-font-specification:Source Sans Pro Bold"
       id="path4134"
       inkscape:connector-curvature="0" />
    <path
       d="m 425.88218,101.03798 c 1.92133,0 3.49957,-0.89205 4.94057,-2.161502 l 0.13723,0 0.3431,1.749782 4.11715,0 0,-9.743902 c 0,-5.215042 -2.40168,-7.685333 -6.75898,-7.685333 -2.67614,0 -5.11212,0.926359 -7.27362,2.230119 l 1.81841,3.328024 c 1.64685,-0.960666 3.05355,-1.543928 4.49455,-1.543928 1.85271,0 2.57321,0.960668 2.67614,2.470285 -6.72466,0.68619 -9.57236,2.641837 -9.57236,6.210024 0,2.881997 1.95565,5.146431 5.07781,5.146431 m 1.71548,-3.911289 c -1.20084,0 -1.95565,-0.514643 -1.95565,-1.612546 0,-1.303761 1.16653,-2.333048 4.73472,-2.813381 l 0,2.984928 c -0.89205,0.892047 -1.64686,1.440999 -2.77907,1.440999"
       style="font-size:38.79640198px;font-style:normal;font-variant:normal;font-weight:bold;font-stretch:normal;text-align:start;line-height:125%;letter-spacing:0px;word-spacing:0px;writing-mode:lr-tb;text-anchor:start;fill:#000000;fill-opacity:1;stroke:none;font-family:Source Sans Pro;-inkscape-font-specification:Source Sans Pro Bold"
       id="path4136"
       inkscape:connector-curvature="0" />
    <path
       d="m 439.6864,100.62626 5.0435,0 0,-11.493687 c 1.0636,-1.097904 2.05858,-1.646857 2.882,-1.646857 1.441,0 2.09288,0.754812 2.09288,3.225095 l 0,9.915449 5.0435,0 0,-11.493687 c 1.09791,-1.097904 2.05858,-1.646857 2.91632,-1.646857 1.44099,0 2.09288,0.754812 2.09288,3.225095 l 0,9.915449 5.0435,0 0,-10.567329 c 0,-4.254377 -1.64686,-6.861906 -5.31798,-6.861906 -2.26442,0 -3.84267,1.303764 -5.35228,2.847691 -0.85774,-1.818403 -2.29874,-2.847691 -4.70041,-2.847691 -2.23011,0 -3.73974,1.200835 -5.14643,2.607525 l -0.13724,0 -0.34309,-2.19581 -4.11715,0 0,17.01752"
       style="font-size:38.79640198px;font-style:normal;font-variant:normal;font-weight:bold;font-stretch:normal;text-align:start;line-height:125%;letter-spacing:0px;word-spacing:0px;writing-mode:lr-tb;text-anchor:start;fill:#000000;fill-opacity:1;stroke:none;font-family:Source Sans Pro;-inkscape-font-specification:Source Sans Pro Bold"
       id="path4138"
       inkscape:connector-curvature="0" />
    <path
       d="m 469.10414,106.93921 5.04351,0 0,-4.97488 -0.17155,-2.710448 c 1.20084,1.132208 2.57322,1.784098 4.04852,1.784098 3.67112,0 7.1707,-3.362342 7.1707,-9.194954 0,-5.249352 -2.53891,-8.646001 -6.65605,-8.646001 -1.7841,0 -3.49958,0.892049 -4.83765,2.092882 l -0.13723,0 -0.3431,-1.681167 -4.11715,0 0,23.33047 m 7.75396,-10.018375 c -0.85774,0 -1.81841,-0.274477 -2.71045,-1.097905 l 0,-6.964833 c 0.99497,-1.063595 1.88702,-1.543929 2.91631,-1.543929 2.02426,0 2.95062,1.543932 2.95062,4.597476 0,3.499568 -1.40669,5.009191 -3.15648,5.009191"
       style="font-size:38.79640198px;font-style:normal;font-variant:normal;font-weight:bold;font-stretch:normal;text-align:start;line-height:125%;letter-spacing:0px;word-spacing:0px;writing-mode:lr-tb;text-anchor:start;fill:#000000;fill-opacity:1;stroke:none;font-family:Source Sans Pro;-inkscape-font-specification:Source Sans Pro Bold"
       id="path4140"
       inkscape:connector-curvature="0" />
    <path
       d="m 493.37009,101.03798 c 1.13221,0 1.98995,-0.17155 2.53891,-0.41172 l -0.61758,-3.739735 c -0.27447,0.06862 -0.41171,0.06862 -0.61756,0.06862 -0.41172,0 -0.89205,-0.343096 -0.89205,-1.40669 l 0,-18.973166 -5.0435,0 0,18.767309 c 0,3.430949 1.16652,5.695382 4.63178,5.695382"
       style="font-size:38.79640198px;font-style:normal;font-variant:normal;font-weight:bold;font-stretch:normal;text-align:start;line-height:125%;letter-spacing:0px;word-spacing:0px;writing-mode:lr-tb;text-anchor:start;fill:#000000;fill-opacity:1;stroke:none;font-family:Source Sans Pro;-inkscape-font-specification:Source Sans Pro Bold"
       id="path4142"
       inkscape:connector-curvature="0" />
    <path
       d="m 506.13859,101.03798 c 2.02426,0 4.2887,-0.7205 6.03848,-1.921336 l -1.68117,-3.053547 c -1.23514,0.754808 -2.40166,1.132214 -3.67112,1.132214 -2.26443,0 -3.9799,-1.132217 -4.42592,-3.6025 l 10.18992,0 c 0.10293,-0.411714 0.20586,-1.338073 0.20586,-2.230119 0,-4.631781 -2.40167,-8.165667 -7.23931,-8.165667 -4.08283,0 -8.02843,3.396649 -8.02843,8.920477 0,5.626755 3.73974,8.920478 8.61169,8.920478 m -3.77405,-10.773193 c 0.3431,-2.161498 1.71548,-3.225095 3.29371,-3.225095 2.02427,0 2.8477,1.338073 2.8477,3.225095 l -6.14141,0"
       style="font-size:38.79640198px;font-style:normal;font-variant:normal;font-weight:bold;font-stretch:normal;text-align:start;line-height:125%;letter-spacing:0px;word-spacing:0px;writing-mode:lr-tb;text-anchor:start;fill:#000000;fill-opacity:1;stroke:none;font-family:Source Sans Pro;-inkscape-font-specification:Source Sans Pro Bold"
       id="path4144"
       inkscape:connector-curvature="0" />
    <path
       d="m 519.19605,101.03798 c 1.74978,0 3.05355,-1.372385 3.05355,-3.156479 0,-1.818403 -1.30377,-3.190785 -3.05355,-3.190785 -1.74979,0 -3.05355,1.372382 -3.05355,3.190785 0,1.784094 1.30376,3.156479 3.05355,3.156479"
       style="font-size:38.79640198px;font-style:normal;font-variant:normal;font-weight:bold;font-stretch:normal;text-align:start;line-height:125%;letter-spacing:0px;word-spacing:0px;writing-mode:lr-tb;text-anchor:start;fill:#000000;fill-opacity:1;stroke:none;font-family:Source Sans Pro;-inkscape-font-specification:Source Sans Pro Bold"
       id="path4146"
       inkscape:connector-curvature="0" />
    <path
       d="m 526.5994,100.62626 5.0435,0 0,-11.493687 c 1.0979,-1.063594 1.88703,-1.646857 3.15648,-1.646857 1.44099,0 2.09288,0.754812 2.09288,3.225095 l 0,9.915449 5.0435,0 0,-10.567329 c 0,-4.254377 -1.57824,-6.861906 -5.28367,-6.861906 -2.29873,0 -3.9799,1.200835 -5.24936,2.333049 l 0.24017,-3.053548 0,-5.901238 -5.0435,0 0,24.050972"
       style="font-size:38.79640198px;font-style:normal;font-variant:normal;font-weight:bold;font-stretch:normal;text-align:start;line-height:125%;letter-spacing:0px;word-spacing:0px;writing-mode:lr-tb;text-anchor:start;fill:#000000;fill-opacity:1;stroke:none;font-family:Source Sans Pro;-inkscape-font-specification:Source Sans Pro Bold"
       id="path4148"
       inkscape:connector-curvature="0" />
    <path
       d="m 546.16655,100.62626 5.0435,0 0,-17.01752 -5.0435,0 0,17.01752 m 2.50459,-19.522115 c 1.71548,0 2.91631,-1.097907 2.91631,-2.641833 0,-1.543928 -1.20083,-2.607524 -2.91631,-2.607524 -1.68116,0 -2.91631,1.063596 -2.91631,2.607524 0,1.543926 1.23515,2.641833 2.91631,2.641833"
       style="font-size:38.79640198px;font-style:normal;font-variant:normal;font-weight:bold;font-stretch:normal;text-align:start;line-height:125%;letter-spacing:0px;word-spacing:0px;writing-mode:lr-tb;text-anchor:start;fill:#000000;fill-opacity:1;stroke:none;font-family:Source Sans Pro;-inkscape-font-specification:Source Sans Pro Bold"
       id="path4150"
       inkscape:connector-curvature="0" />
    <path
       d="m 559.52636,100.62626 5.83262,0 5.55814,-17.01752 -4.83764,0 -2.23012,8.028428 c -0.44603,1.681165 -0.89205,3.465264 -1.30376,5.249357 l -0.13724,0 c -0.44603,-1.784093 -0.89205,-3.568192 -1.33807,-5.249357 l -2.19581,-8.028428 -5.07781,0 5.72969,17.01752"
       style="font-size:38.79640198px;font-style:normal;font-variant:normal;font-weight:bold;font-stretch:normal;text-align:start;line-height:125%;letter-spacing:0px;word-spacing:0px;writing-mode:lr-tb;text-anchor:start;fill:#000000;fill-opacity:1;stroke:none;font-family:Source Sans Pro;-inkscape-font-specification:Source Sans Pro Bold"
       id="path4152"
       inkscape:connector-curvature="0" />
    <path
       style="font-size:medium;font-style:normal;font-variant:normal;font-weight:normal;font-stretch:normal;text-indent:0;text-align:start;text-decoration:none;line-height:normal;letter-spacing:normal;word-spacing:normal;text-transform:none;direction:ltr;block-progression:tb;writing-mode:lr-tb;text-anchor:start;baseline-shift:baseline;color:#000000;fill:#000000;fill-opacity:1;stroke:none;stroke-width:3.44202876;marker:none;visibility:visible;display:inline;overflow:visible;enable-background:accumulate;font-family:Sans;-inkscape-font-specification:Sans"
       d="m 166.15625,66.5625 c -3.52024,0 -6.40625,2.886009 -6.40625,6.40625 l 0,33.53125 c 0,3.52024 2.88601,6.40625 6.40625,6.40625 l 411.78125,0 c 3.52024,0 6.40625,-2.88601 6.40625,-6.40625 l 0,-33.53125 c 0,-3.520241 -2.88601,-6.40625 -6.40625,-6.40625 l -411.78125,0 z m 0,3.46875 411.78125,0 c 1.6729,0 2.96875,1.264607 2.96875,2.9375 l 0,33.53125 c 0,1.6729 -1.29585,2.96875 -2.96875,2.96875 l -411.78125,0 c -1.67288,0 -2.96875,-1.29585 -2.96875,-2.96875 l 0,-33.53125 c 0,-1.672893 1.29587,-2.9375 2.96875,-2.9375 z"
       id="rect2995"
       inkscape:connector-curvature="0" />
    <g
       id="g4022"
       transform="translate(-5.7498108,-307.08637)">
      <g
         inkscape:export-ydpi="85.459991"
         inkscape:export-xdpi="85.459991"
         inkscape:export-filename="/home/m/www/stop.hiv/src/Dothiv/CharityWebsiteBundle/Resources/public/images/clickcounter/top.png"
         transform="translate(5.7498075,531.29563)"
         id="g3065">
        <path
           inkscape:connector-curvature="0"
           style="fill:#ffffff;fill-opacity:1;stroke:none"
           d="m 305.8125,17.375 0,89 -15.75,0 0,9.5 164,0 0,-9.5 -15.75,0 0,-89 -132.5,0 z"
           id="rect3039" />
        <g
           id="g3068"
           transform="translate(243.69233,-98.655099)"
           inkscape:export-filename="/home/m/www/stop.hiv/src/Dothiv/CharityWebsiteBundle/Resources/public/images/clickcounter/top.png"
           inkscape:export-xdpi="85.459938"
           inkscape:export-ydpi="85.459938">
          <rect
             y="118.51125"
             x="98.712051"
             height="15.714286"
             width="59.285713"
             id="rect3014"
             style="fill:#e00073;fill-opacity:1;stroke:none" />
          <path
             inkscape:connector-curvature="0"
             id="rect2996"
             d="m 63.964289,111.4866 c -3.21784,0 -5.8125,2.59466 -5.8125,5.8125 l 0,85.625 -10.46875,0 c -2.2385,0 -4.0625,1.79275 -4.0625,4.03125 l 0,5.8125 c 0,2.2385 1.824,4.03125 4.0625,4.03125 l 161.375001,0 c 2.2385,0 4.03125,-1.79275 4.03125,-4.03125 l 0,-5.8125 c 0,-2.2385 -1.79275,-4.03125 -4.03125,-4.03125 l -10.5,0 0,-85.625 c 0,-3.21784 -2.59466,-5.8125 -5.8125,-5.8125 l -128.781251,0 z m 2,7.09375 124.781251,0 0,81.65625 -124.781251,0 0,-81.65625 z m 53.312501,88.28125 18.15625,0 c 1.04398,0 1.90625,0.83102 1.90625,1.875 l 0,2.25 c 0,1.04398 -0.86227,1.875 -1.90625,1.875 l -18.15625,0 c -1.04398,0 -1.90625,-0.83102 -1.90625,-1.875 l 0,-2.25 c 0,-1.04398 0.86227,-1.875 1.90625,-1.875 z m 85.875,0 c 1.66321,0 3,1.33679 3,3 0,1.66321 -1.33679,3 -3,3 -1.66321,0 -3,-1.33679 -3,-3 0,-1.66321 1.33679,-3 3,-3 z"
             style="fill:#252525;fill-opacity:1;stroke:none" />
          <rect
             style="fill:#e00073;fill-opacity:1;stroke:none"
             id="rect3064"
             width="59.285713"
             height="15.714286"
             x="98.712051"
             y="118.51125" />
          <path
             style="fill:#252525;fill-opacity:1;stroke:none"
             d="m 63.964289,111.4866 c -3.21784,0 -5.8125,2.59466 -5.8125,5.8125 l 0,85.625 -10.46875,0 c -2.2385,0 -4.0625,1.79275 -4.0625,4.03125 l 0,5.8125 c 0,2.2385 1.824,4.03125 4.0625,4.03125 l 161.375001,0 c 2.2385,0 4.03125,-1.79275 4.03125,-4.03125 l 0,-5.8125 c 0,-2.2385 -1.79275,-4.03125 -4.03125,-4.03125 l -10.5,0 0,-85.625 c 0,-3.21784 -2.59466,-5.8125 -5.8125,-5.8125 l -128.781251,0 z m 2,7.09375 124.781251,0 0,81.65625 -124.781251,0 0,-81.65625 z m 53.312501,88.28125 18.15625,0 c 1.04398,0 1.90625,0.83102 1.90625,1.875 l 0,2.25 c 0,1.04398 -0.86227,1.875 -1.90625,1.875 l -18.15625,0 c -1.04398,0 -1.90625,-0.83102 -1.90625,-1.875 l 0,-2.25 c 0,-1.04398 0.86227,-1.875 1.90625,-1.875 z m 85.875,0 c 1.66321,0 3,1.33679 3,3 0,1.66321 -1.33679,3 -3,3 -1.66321,0 -3,-1.33679 -3,-3 0,-1.66321 1.33679,-3 3,-3 z"
             id="path3066"
             inkscape:connector-curvature="0" />
        </g>
      </g>
    </g>
    <path
       style="font-size:medium;font-style:normal;font-variant:normal;font-weight:normal;font-stretch:normal;text-indent:0;text-align:start;text-decoration:none;line-height:normal;letter-spacing:normal;word-spacing:normal;text-transform:none;direction:ltr;block-progression:tb;writing-mode:lr-tb;text-anchor:start;baseline-shift:baseline;color:#000000;fill:#000000;fill-opacity:1;stroke:none;stroke-width:5;marker:none;visibility:visible;display:inline;overflow:visible;enable-background:accumulate;font-family:Sans;-inkscape-font-specification:Sans"
       d="M 47.46875 59.90625 L 80.90625 101.21875 C 81.670476 99.687312 82.938845 98.457777 84.5 97.75 L 53.90625 59.90625 L 47.46875 59.90625 z M 104.125 129.96875 L 142.25 177.125 A 2.5110109 2.5110109 0 1 0 146.15625 173.96875 L 110.5625 129.96875 L 104.125 129.96875 z "
       transform="translate(149.75,56.5625)"
       id="path4159" />
    <path
       style="font-size:medium;font-style:normal;font-variant:normal;font-weight:normal;font-stretch:normal;text-indent:0;text-align:start;text-decoration:none;line-height:normal;letter-spacing:normal;word-spacing:normal;text-transform:none;direction:ltr;block-progression:tb;writing-mode:lr-tb;text-anchor:start;baseline-shift:baseline;color:#000000;fill:#000000;fill-opacity:1;stroke:none;stroke-width:5;marker:none;visibility:visible;display:inline;overflow:visible;enable-background:accumulate;font-family:Sans;-inkscape-font-specification:Sans"
       d="M 389.0625 59.90625 L 358.15625 98.09375 C 359.678 98.9819 360.85122 100.38526 361.4375 102.0625 L 395.5 59.90625 L 389.0625 59.90625 z M 332.40625 129.96875 L 296.8125 173.96875 A 2.5110109 2.5110109 0 0 0 300.71875 177.125 L 338.84375 129.96875 L 332.40625 129.96875 z "
       transform="translate(149.75,56.5625)"
       id="path4170" />
    <path
       style="font-size:medium;font-style:normal;font-variant:normal;font-weight:normal;font-stretch:normal;text-indent:0;text-align:start;text-decoration:none;line-height:normal;letter-spacing:normal;word-spacing:normal;text-transform:none;direction:ltr;block-progression:tb;writing-mode:lr-tb;text-anchor:start;baseline-shift:baseline;color:#000000;fill:#000000;fill-opacity:1;fill-rule:nonzero;stroke:none;stroke-width:2.14495492;marker:none;visibility:visible;display:inline;overflow:visible;enable-background:accumulate;font-family:Sans;-inkscape-font-specification:Sans"
       d="m 237.1699,157.39548 c -1.96098,0 -3.56902,1.60804 -3.56902,3.56902 l 0,18.26149 c 0,1.96098 1.60804,3.56902 3.56902,3.56902 l 267.11145,0 c 1.96099,0 3.56902,-1.60804 3.56902,-3.56902 l 0,-18.26149 c 0,-1.96098 -1.60804,-3.56902 -3.56902,-3.56902 l -267.11145,0 z m 0,2.05219 267.11145,0 c 0.86534,0 1.51683,0.65149 1.51683,1.51683 l 0,18.26149 c 0,0.86532 -0.6515,1.51683 -1.51683,1.51683 l -267.11145,0 c -0.86532,0 -1.51684,-0.65151 -1.51684,-1.51683 l 0,-18.26149 c 0,-0.86534 0.65152,-1.51683 1.51684,-1.51683 z"
       id="rect3789"
       inkscape:connector-curvature="0" />
    <path
       inkscape:connector-curvature="0"
       id="rect3779"
       d="m 237.17723,158.42029 15.69073,0 c 1.41317,0 2.55083,1.13767 2.55083,2.55083 l 0,18.24828 c 0,1.41315 -1.13766,2.55083 -2.55083,2.55083 l -15.69073,0 c -1.41315,0 -2.55082,-1.13768 -2.55082,-2.55083 l 0,-18.24828 c 0,-1.41316 1.13767,-2.55083 2.55082,-2.55083 z"
       style="color:#000000;fill:#000000;fill-opacity:1;fill-rule:nonzero;stroke:none;stroke-width:3;marker:none;visibility:visible;display:inline;overflow:visible;enable-background:accumulate" />
    <path
       d="m 243.3616,170.97365 0.29876,-1.12036 c 0.33611,-1.21372 0.65354,-2.63285 0.95231,-3.92127 l 0.0747,0 c 0.31743,1.26975 0.65354,2.70755 0.98965,3.92127 l 0.28009,1.12036 -2.5955,0 m 3.90259,5.04163 2.91294,0 -3.80923,-12.17459 -3.30507,0 -3.80923,12.17459 2.80091,0 0.7469,-2.89426 3.71587,0 0.74691,2.89426"
       style="font-size:38.79640198px;font-style:normal;font-variant:normal;font-weight:bold;font-stretch:normal;text-align:start;line-height:125%;letter-spacing:0px;word-spacing:0px;writing-mode:lr-tb;text-anchor:start;fill:#ffffff;fill-opacity:1;stroke:none;font-family:Source Sans Pro;-inkscape-font-specification:Source Sans Pro Bold"
       id="path4041"
       inkscape:connector-curvature="0" />
    <path
       d="m 264.63191,176.23936 c 1.10169,0 2.3341,-0.39213 3.2864,-1.04568 l -0.91496,-1.66187 c -0.67222,0.4108 -1.30709,0.6162 -1.99798,0.6162 -1.2324,0 -2.16603,-0.6162 -2.40878,-1.96063 l 5.54579,0 c 0.056,-0.22407 0.11204,-0.72823 0.11204,-1.21373 0,-2.52081 -1.30709,-4.4441 -3.93994,-4.4441 -2.22205,0 -4.36941,1.8486 -4.36941,4.8549 0,3.06232 2.03532,4.85491 4.68684,4.85491 m -2.05399,-5.86323 c 0.18672,-1.17638 0.93363,-1.75523 1.79258,-1.75523 1.10169,0 1.54983,0.72823 1.54983,1.75523 l -3.34241,0"
       style="font-size:38.79640198px;font-style:normal;font-variant:normal;font-weight:bold;font-stretch:normal;text-align:start;line-height:125%;letter-spacing:0px;word-spacing:0px;writing-mode:lr-tb;text-anchor:start;fill:#000000;fill-opacity:1;stroke:none;font-family:Source Sans Pro;-inkscape-font-specification:Source Sans Pro Bold"
       id="path4044"
       inkscape:connector-curvature="0" />
    <path
       d="m 268.90709,176.01528 2.83825,0 0.72823,-1.53116 c 0.22408,-0.54151 0.48549,-1.08302 0.70957,-1.60585 l 0.0747,0 c 0.29876,0.52283 0.57885,1.08302 0.87761,1.60585 l 0.89629,1.53116 2.95029,0 -2.85692,-4.50012 2.68887,-4.76153 -2.83826,0 -0.63487,1.49381 c -0.2054,0.52284 -0.44814,1.06434 -0.63487,1.58718 l -0.0747,0 c -0.26142,-0.52284 -0.54151,-1.06434 -0.78425,-1.58718 l -0.8216,-1.49381 -2.95029,0 2.6702,4.4441 -2.83825,4.81755"
       style="font-size:38.79640198px;font-style:normal;font-variant:normal;font-weight:bold;font-stretch:normal;text-align:start;line-height:125%;letter-spacing:0px;word-spacing:0px;writing-mode:lr-tb;text-anchor:start;fill:#000000;fill-opacity:1;stroke:none;font-family:Source Sans Pro;-inkscape-font-specification:Source Sans Pro Bold"
       id="path4046"
       inkscape:connector-curvature="0" />
    <path
       d="m 281.60277,176.23936 c 1.04568,0 1.90462,-0.4855 2.68887,-1.17639 l 0.0747,0 0.18673,0.95231 2.24072,0 0,-5.30304 c 0,-2.83825 -1.30709,-4.18269 -3.67852,-4.18269 -1.45647,0 -2.78223,0.50416 -3.95861,1.21373 l 0.98965,1.81125 c 0.89629,-0.52283 1.66187,-0.84027 2.44613,-0.84027 1.00832,0 1.40045,0.52283 1.45647,1.34443 -3.65985,0.37346 -5.20969,1.4378 -5.20969,3.37976 0,1.5685 1.06435,2.80091 2.76356,2.80091 m 0.93364,-2.12869 c -0.65354,0 -1.06435,-0.28009 -1.06435,-0.87762 0,-0.70956 0.63488,-1.26974 2.57684,-1.53116 l 0,1.62452 c -0.48549,0.48549 -0.89629,0.78426 -1.51249,0.78426"
       style="font-size:38.79640198px;font-style:normal;font-variant:normal;font-weight:bold;font-stretch:normal;text-align:start;line-height:125%;letter-spacing:0px;word-spacing:0px;writing-mode:lr-tb;text-anchor:start;fill:#000000;fill-opacity:1;stroke:none;font-family:Source Sans Pro;-inkscape-font-specification:Source Sans Pro Bold"
       id="path4048"
       inkscape:connector-curvature="0" />
    <path
       d="m 289.11562,176.01528 2.74488,0 0,-6.25535 c 0.57886,-0.59753 1.12036,-0.89629 1.56851,-0.89629 0.78425,0 1.13904,0.4108 1.13904,1.75523 l 0,5.39641 2.74488,0 0,-6.25535 c 0.59753,-0.59753 1.12036,-0.89629 1.58718,-0.89629 0.78425,0 1.13903,0.4108 1.13903,1.75523 l 0,5.39641 2.74489,0 0,-5.75119 c 0,-2.31541 -0.89629,-3.73454 -2.89427,-3.73454 -1.23239,0 -2.09134,0.70956 -2.91294,1.54984 -0.46682,-0.98966 -1.25107,-1.54984 -2.55816,-1.54984 -1.21372,0 -2.03532,0.65355 -2.8009,1.41913 l -0.0747,0 -0.18673,-1.19505 -2.24072,0 0,9.26165"
       style="font-size:38.79640198px;font-style:normal;font-variant:normal;font-weight:bold;font-stretch:normal;text-align:start;line-height:125%;letter-spacing:0px;word-spacing:0px;writing-mode:lr-tb;text-anchor:start;fill:#000000;fill-opacity:1;stroke:none;font-family:Source Sans Pro;-inkscape-font-specification:Source Sans Pro Bold"
       id="path4050"
       inkscape:connector-curvature="0" />
    <path
       d="m 305.126,179.45106 2.74488,0 0,-2.70754 -0.0934,-1.47514 c 0.65354,0.6162 1.40045,0.97098 2.20338,0.97098 1.99798,0 3.90259,-1.82993 3.90259,-5.00429 0,-2.85692 -1.38178,-4.70552 -3.6225,-4.70552 -0.97098,0 -1.90462,0.48549 -2.63285,1.13904 l -0.0747,0 -0.18673,-0.91496 -2.24072,0 0,12.69743 m 4.22003,-5.45243 c -0.46682,0 -0.98966,-0.14938 -1.47515,-0.59752 l 0,-3.79056 c 0.54151,-0.57885 1.027,-0.84027 1.58718,-0.84027 1.10169,0 1.60586,0.84027 1.60586,2.50214 0,1.90461 -0.76559,2.72621 -1.71789,2.72621"
       style="font-size:38.79640198px;font-style:normal;font-variant:normal;font-weight:bold;font-stretch:normal;text-align:start;line-height:125%;letter-spacing:0px;word-spacing:0px;writing-mode:lr-tb;text-anchor:start;fill:#000000;fill-opacity:1;stroke:none;font-family:Source Sans Pro;-inkscape-font-specification:Source Sans Pro Bold"
       id="path4052"
       inkscape:connector-curvature="0" />
    <path
       d="m 318.33255,176.23936 c 0.6162,0 1.08302,-0.0934 1.38178,-0.22408 l -0.33611,-2.03532 c -0.14938,0.0374 -0.22407,0.0374 -0.33611,0.0374 -0.22407,0 -0.48548,-0.18673 -0.48548,-0.76559 l 0,-10.326 -2.74489,0 0,10.21397 c 0,1.86726 0.63487,3.09967 2.52081,3.09967"
       style="font-size:38.79640198px;font-style:normal;font-variant:normal;font-weight:bold;font-stretch:normal;text-align:start;line-height:125%;letter-spacing:0px;word-spacing:0px;writing-mode:lr-tb;text-anchor:start;fill:#000000;fill-opacity:1;stroke:none;font-family:Source Sans Pro;-inkscape-font-specification:Source Sans Pro Bold"
       id="path4054"
       inkscape:connector-curvature="0" />
    <path
       d="m 325.28172,176.23936 c 1.10168,0 2.33408,-0.39213 3.28639,-1.04568 l -0.91496,-1.66187 c -0.67222,0.4108 -1.30709,0.6162 -1.99798,0.6162 -1.23239,0 -2.16603,-0.6162 -2.40878,-1.96063 l 5.54579,0 c 0.056,-0.22407 0.11204,-0.72823 0.11204,-1.21373 0,-2.52081 -1.30709,-4.4441 -3.93994,-4.4441 -2.22205,0 -4.36941,1.8486 -4.36941,4.8549 0,3.06232 2.03532,4.85491 4.68685,4.85491 m -2.054,-5.86323 c 0.18673,-1.17638 0.93364,-1.75523 1.79258,-1.75523 1.10169,0 1.54983,0.72823 1.54983,1.75523 l -3.34241,0"
       style="font-size:38.79640198px;font-style:normal;font-variant:normal;font-weight:bold;font-stretch:normal;text-align:start;line-height:125%;letter-spacing:0px;word-spacing:0px;writing-mode:lr-tb;text-anchor:start;fill:#000000;fill-opacity:1;stroke:none;font-family:Source Sans Pro;-inkscape-font-specification:Source Sans Pro Bold"
       id="path4056"
       inkscape:connector-curvature="0" />
    <path
       d="m 332.38813,176.23936 c 0.95231,0 1.66187,-0.74691 1.66187,-1.71789 0,-0.98966 -0.70956,-1.73657 -1.66187,-1.73657 -0.9523,0 -1.66187,0.74691 -1.66187,1.73657 0,0.97098 0.70957,1.71789 1.66187,1.71789"
       style="font-size:38.79640198px;font-style:normal;font-variant:normal;font-weight:bold;font-stretch:normal;text-align:start;line-height:125%;letter-spacing:0px;word-spacing:0px;writing-mode:lr-tb;text-anchor:start;fill:#000000;fill-opacity:1;stroke:none;font-family:Source Sans Pro;-inkscape-font-specification:Source Sans Pro Bold"
       id="path4058"
       inkscape:connector-curvature="0" />
    <path
       d="m 336.41735,176.01528 2.74489,0 0,-9.26165 -2.74489,0 0,9.26165 m 1.36311,-10.62476 c 0.93364,0 1.58718,-0.59753 1.58718,-1.4378 0,-0.84027 -0.65354,-1.41912 -1.58718,-1.41912 -0.91496,0 -1.58718,0.57885 -1.58718,1.41912 0,0.84027 0.67222,1.4378 1.58718,1.4378"
       style="font-size:38.79640198px;font-style:normal;font-variant:normal;font-weight:bold;font-stretch:normal;text-align:start;line-height:125%;letter-spacing:0px;word-spacing:0px;writing-mode:lr-tb;text-anchor:start;fill:#000000;fill-opacity:1;stroke:none;font-family:Source Sans Pro;-inkscape-font-specification:Source Sans Pro Bold"
       id="path4060"
       inkscape:connector-curvature="0" />
    <path
       d="m 347.29216,163.03776 c -0.4108,-0.14938 -1.08301,-0.33611 -1.84859,-0.33611 -2.50214,0 -3.41711,1.60585 -3.41711,3.56648 l 0,0.50417 -1.23239,0.0934 0,2.03532 1.23239,0 0,7.1143 2.74489,0 0,-7.1143 1.66187,0 0,-2.14735 -1.66187,0 0,-0.56019 c 0,-0.9523 0.39212,-1.32576 1.06434,-1.32576 0.29877,0 0.63487,0.0747 0.95231,0.18673 l 0.50416,-2.01665"
       style="font-size:38.79640198px;font-style:normal;font-variant:normal;font-weight:bold;font-stretch:normal;text-align:start;line-height:125%;letter-spacing:0px;word-spacing:0px;writing-mode:lr-tb;text-anchor:start;fill:#000000;fill-opacity:1;stroke:none;font-family:Source Sans Pro;-inkscape-font-specification:Source Sans Pro Bold"
       id="path4062"
       inkscape:connector-curvature="0" />
    <path
       d="m 347.94191,176.01528 2.74489,0 0,-5.37773 c 0.48549,-1.25107 1.34443,-1.69922 2.03532,-1.69922 0.39213,0 0.67222,0.056 1.00833,0.14938 l 0.44814,-2.37143 c -0.26141,-0.11204 -0.57885,-0.18673 -1.10169,-0.18673 -0.9523,0 -1.96063,0.59753 -2.63285,1.8486 l -0.0747,0 -0.18672,-1.62452 -2.24073,0 0,9.26165"
       style="font-size:38.79640198px;font-style:normal;font-variant:normal;font-weight:bold;font-stretch:normal;text-align:start;line-height:125%;letter-spacing:0px;word-spacing:0px;writing-mode:lr-tb;text-anchor:start;fill:#000000;fill-opacity:1;stroke:none;font-family:Source Sans Pro;-inkscape-font-specification:Source Sans Pro Bold"
       id="path4064"
       inkscape:connector-curvature="0" />
    <path
       d="m 357.20532,176.23936 c 1.04567,0 1.90461,-0.4855 2.68887,-1.17639 l 0.0747,0 0.18672,0.95231 2.24073,0 0,-5.30304 c 0,-2.83825 -1.3071,-4.18269 -3.67853,-4.18269 -1.45646,0 -2.78223,0.50416 -3.9586,1.21373 l 0.98965,1.81125 c 0.89628,-0.52283 1.66187,-0.84027 2.44612,-0.84027 1.00833,0 1.40045,0.52283 1.45647,1.34443 -3.65984,0.37346 -5.20968,1.4378 -5.20968,3.37976 0,1.5685 1.06434,2.80091 2.76356,2.80091 m 0.93363,-2.12869 c -0.65354,0 -1.06434,-0.28009 -1.06434,-0.87762 0,-0.70956 0.63487,-1.26974 2.57683,-1.53116 l 0,1.62452 c -0.48549,0.48549 -0.89629,0.78426 -1.51249,0.78426"
       style="font-size:38.79640198px;font-style:normal;font-variant:normal;font-weight:bold;font-stretch:normal;text-align:start;line-height:125%;letter-spacing:0px;word-spacing:0px;writing-mode:lr-tb;text-anchor:start;fill:#000000;fill-opacity:1;stroke:none;font-family:Source Sans Pro;-inkscape-font-specification:Source Sans Pro Bold"
       id="path4066"
       inkscape:connector-curvature="0" />
    <path
       d="m 364.71816,176.01528 2.74489,0 0,-6.25535 c 0.57885,-0.59753 1.12036,-0.89629 1.56851,-0.89629 0.78425,0 1.13903,0.4108 1.13903,1.75523 l 0,5.39641 2.74489,0 0,-6.25535 c 0.59752,-0.59753 1.12036,-0.89629 1.58718,-0.89629 0.78425,0 1.13903,0.4108 1.13903,1.75523 l 0,5.39641 2.74489,0 0,-5.75119 c 0,-2.31541 -0.89629,-3.73454 -2.89427,-3.73454 -1.2324,0 -2.09134,0.70956 -2.91294,1.54984 -0.46682,-0.98966 -1.25107,-1.54984 -2.55816,-1.54984 -1.21372,0 -2.03533,0.65355 -2.8009,1.41913 l -0.0747,0 -0.18672,-1.19505 -2.24073,0 0,9.26165"
       style="font-size:38.79640198px;font-style:normal;font-variant:normal;font-weight:bold;font-stretch:normal;text-align:start;line-height:125%;letter-spacing:0px;word-spacing:0px;writing-mode:lr-tb;text-anchor:start;fill:#000000;fill-opacity:1;stroke:none;font-family:Source Sans Pro;-inkscape-font-specification:Source Sans Pro Bold"
       id="path4068"
       inkscape:connector-curvature="0" />
    <path
       d="m 384.87388,176.23936 c 1.10169,0 2.3341,-0.39213 3.2864,-1.04568 l -0.91496,-1.66187 c -0.67222,0.4108 -1.30709,0.6162 -1.99798,0.6162 -1.2324,0 -2.16603,-0.6162 -2.40878,-1.96063 l 5.5458,0 c 0.056,-0.22407 0.11203,-0.72823 0.11203,-1.21373 0,-2.52081 -1.30709,-4.4441 -3.93994,-4.4441 -2.22205,0 -4.36941,1.8486 -4.36941,4.8549 0,3.06232 2.03533,4.85491 4.68684,4.85491 m -2.05399,-5.86323 c 0.18672,-1.17638 0.93363,-1.75523 1.79258,-1.75523 1.10169,0 1.54983,0.72823 1.54983,1.75523 l -3.34241,0"
       style="font-size:38.79640198px;font-style:normal;font-variant:normal;font-weight:bold;font-stretch:normal;text-align:start;line-height:125%;letter-spacing:0px;word-spacing:0px;writing-mode:lr-tb;text-anchor:start;fill:#000000;fill-opacity:1;stroke:none;font-family:Source Sans Pro;-inkscape-font-specification:Source Sans Pro Bold"
       id="path4070"
       inkscape:connector-curvature="0" />
    <path
       d="m 391.9803,176.23936 c 0.95231,0 1.66187,-0.74691 1.66187,-1.71789 0,-0.98966 -0.70956,-1.73657 -1.66187,-1.73657 -0.95231,0 -1.66187,0.74691 -1.66187,1.73657 0,0.97098 0.70956,1.71789 1.66187,1.71789"
       style="font-size:38.79640198px;font-style:normal;font-variant:normal;font-weight:bold;font-stretch:normal;text-align:start;line-height:125%;letter-spacing:0px;word-spacing:0px;writing-mode:lr-tb;text-anchor:start;fill:#000000;fill-opacity:1;stroke:none;font-family:Source Sans Pro;-inkscape-font-specification:Source Sans Pro Bold"
       id="path4072"
       inkscape:connector-curvature="0" />
    <path
       d="m 399.86048,176.23936 c 1.00832,0 2.14736,-0.29877 3.06232,-1.10169 l -1.08302,-1.79258 c -0.48548,0.37345 -1.06434,0.67222 -1.66187,0.67222 -1.19505,0 -2.07267,-1.02701 -2.07267,-2.63286 0,-1.60584 0.84028,-2.63285 2.16604,-2.63285 0.42947,0 0.80292,0.16806 1.25107,0.54151 l 1.28842,-1.7739 c -0.6909,-0.57886 -1.56851,-0.98966 -2.70755,-0.98966 -2.55815,0 -4.81755,1.77391 -4.81755,4.8549 0,3.08099 1.99798,4.85491 4.57481,4.85491"
       style="font-size:38.79640198px;font-style:normal;font-variant:normal;font-weight:bold;font-stretch:normal;text-align:start;line-height:125%;letter-spacing:0px;word-spacing:0px;writing-mode:lr-tb;text-anchor:start;fill:#000000;fill-opacity:1;stroke:none;font-family:Source Sans Pro;-inkscape-font-specification:Source Sans Pro Bold"
       id="path4074"
       inkscape:connector-curvature="0" />
    <path
       d="m 407.06435,176.23936 c 0.6162,0 1.08302,-0.0934 1.38178,-0.22408 l -0.33611,-2.03532 c -0.14938,0.0374 -0.22407,0.0374 -0.33611,0.0374 -0.22407,0 -0.48549,-0.18673 -0.48549,-0.76559 l 0,-10.326 -2.74488,0 0,10.21397 c 0,1.86726 0.63487,3.09967 2.52081,3.09967"
       style="font-size:38.79640198px;font-style:normal;font-variant:normal;font-weight:bold;font-stretch:normal;text-align:start;line-height:125%;letter-spacing:0px;word-spacing:0px;writing-mode:lr-tb;text-anchor:start;fill:#000000;fill-opacity:1;stroke:none;font-family:Source Sans Pro;-inkscape-font-specification:Source Sans Pro Bold"
       id="path4076"
       inkscape:connector-curvature="0" />
    <path
       d="m 409.86817,176.01528 2.74488,0 0,-9.26165 -2.74488,0 0,9.26165 m 1.3631,-10.62476 c 0.93363,0 1.58718,-0.59753 1.58718,-1.4378 0,-0.84027 -0.65355,-1.41912 -1.58718,-1.41912 -0.91496,0 -1.58718,0.57885 -1.58718,1.41912 0,0.84027 0.67222,1.4378 1.58718,1.4378"
       style="font-size:38.79640198px;font-style:normal;font-variant:normal;font-weight:bold;font-stretch:normal;text-align:start;line-height:125%;letter-spacing:0px;word-spacing:0px;writing-mode:lr-tb;text-anchor:start;fill:#000000;fill-opacity:1;stroke:none;font-family:Source Sans Pro;-inkscape-font-specification:Source Sans Pro Bold"
       id="path4078"
       inkscape:connector-curvature="0" />
    <path
       d="m 419.04376,176.23936 c 1.00832,0 2.14736,-0.29877 3.06232,-1.10169 l -1.08302,-1.79258 c -0.48548,0.37345 -1.06434,0.67222 -1.66187,0.67222 -1.19505,0 -2.07267,-1.02701 -2.07267,-2.63286 0,-1.60584 0.84028,-2.63285 2.16603,-2.63285 0.42948,0 0.80293,0.16806 1.25108,0.54151 l 1.28842,-1.7739 c -0.6909,-0.57886 -1.56851,-0.98966 -2.70755,-0.98966 -2.55815,0 -4.81755,1.77391 -4.81755,4.8549 0,3.08099 1.99798,4.85491 4.57481,4.85491"
       style="font-size:38.79640198px;font-style:normal;font-variant:normal;font-weight:bold;font-stretch:normal;text-align:start;line-height:125%;letter-spacing:0px;word-spacing:0px;writing-mode:lr-tb;text-anchor:start;fill:#000000;fill-opacity:1;stroke:none;font-family:Source Sans Pro;-inkscape-font-specification:Source Sans Pro Bold"
       id="path4080"
       inkscape:connector-curvature="0" />
    <path
       d="m 423.72682,176.01528 2.67019,0 0,-2.27807 1.17638,-1.32576 2.09134,3.60383 2.96896,0 -3.49179,-5.45243 3.24905,-3.80922 -2.98764,0 -2.93161,3.67852 -0.0747,0 0,-7.50643 -2.67019,0 0,13.08956"
       style="font-size:38.79640198px;font-style:normal;font-variant:normal;font-weight:bold;font-stretch:normal;text-align:start;line-height:125%;letter-spacing:0px;word-spacing:0px;writing-mode:lr-tb;text-anchor:start;fill:#000000;fill-opacity:1;stroke:none;font-family:Source Sans Pro;-inkscape-font-specification:Source Sans Pro Bold"
       id="path4082"
       inkscape:connector-curvature="0" />
    <path
       d="m 435.74882,171.08569 1.5685,-2.57683 c 0.33611,-0.67222 0.67222,-1.34443 0.97098,-1.99798 l 0.0747,0 c -0.0374,0.74691 -0.11203,1.88594 -0.11203,2.65152 l 0,1.92329 -2.50214,0 m 6.42341,0 -1.36311,0 0,-6.92757 -3.36109,0 -4.33207,7.13297 0,1.88594 5.135,0 0,2.83825 2.55816,0 0,-2.83825 1.36311,0 0,-2.09134"
       style="font-size:38.79640198px;font-style:normal;font-variant:normal;font-weight:bold;font-stretch:normal;text-align:start;line-height:125%;letter-spacing:0px;word-spacing:0px;writing-mode:lr-tb;text-anchor:start;fill:#000000;fill-opacity:1;stroke:none;font-family:Source Sans Pro;-inkscape-font-specification:Source Sans Pro Bold"
       id="path4084"
       inkscape:connector-curvature="0" />
    <path
       d="m 446.34266,176.23936 c 0.6162,0 1.08301,-0.0934 1.38178,-0.22408 l -0.33611,-2.03532 c -0.14938,0.0374 -0.22407,0.0374 -0.33611,0.0374 -0.22407,0 -0.48549,-0.18673 -0.48549,-0.76559 l 0,-10.326 -2.74489,0 0,10.21397 c 0,1.86726 0.63488,3.09967 2.52082,3.09967"
       style="font-size:38.79640198px;font-style:normal;font-variant:normal;font-weight:bold;font-stretch:normal;text-align:start;line-height:125%;letter-spacing:0px;word-spacing:0px;writing-mode:lr-tb;text-anchor:start;fill:#000000;fill-opacity:1;stroke:none;font-family:Source Sans Pro;-inkscape-font-specification:Source Sans Pro Bold"
       id="path4086"
       inkscape:connector-curvature="0" />
    <path
       d="m 449.14647,176.01528 2.74489,0 0,-9.26165 -2.74489,0 0,9.26165 m 1.36311,-10.62476 c 0.93363,0 1.58718,-0.59753 1.58718,-1.4378 0,-0.84027 -0.65355,-1.41912 -1.58718,-1.41912 -0.91496,0 -1.58718,0.57885 -1.58718,1.41912 0,0.84027 0.67222,1.4378 1.58718,1.4378"
       style="font-size:38.79640198px;font-style:normal;font-variant:normal;font-weight:bold;font-stretch:normal;text-align:start;line-height:125%;letter-spacing:0px;word-spacing:0px;writing-mode:lr-tb;text-anchor:start;fill:#000000;fill-opacity:1;stroke:none;font-family:Source Sans Pro;-inkscape-font-specification:Source Sans Pro Bold"
       id="path4088"
       inkscape:connector-curvature="0" />
    <path
       d="m 460.02128,163.03776 c -0.4108,-0.14938 -1.08302,-0.33611 -1.8486,-0.33611 -2.50213,0 -3.4171,1.60585 -3.4171,3.56648 l 0,0.50417 -1.2324,0.0934 0,2.03532 1.2324,0 0,7.1143 2.74489,0 0,-7.1143 1.66187,0 0,-2.14735 -1.66187,0 0,-0.56019 c 0,-0.9523 0.39212,-1.32576 1.06434,-1.32576 0.29876,0 0.63487,0.0747 0.95231,0.18673 l 0.50416,-2.01665"
       style="font-size:38.79640198px;font-style:normal;font-variant:normal;font-weight:bold;font-stretch:normal;text-align:start;line-height:125%;letter-spacing:0px;word-spacing:0px;writing-mode:lr-tb;text-anchor:start;fill:#000000;fill-opacity:1;stroke:none;font-family:Source Sans Pro;-inkscape-font-specification:Source Sans Pro Bold"
       id="path4090"
       inkscape:connector-curvature="0" />
    <path
       d="m 464.63402,176.23936 c 1.10169,0 2.33409,-0.39213 3.2864,-1.04568 l -0.91497,-1.66187 c -0.67221,0.4108 -1.30709,0.6162 -1.99797,0.6162 -1.2324,0 -2.16603,-0.6162 -2.40878,-1.96063 l 5.54579,0 c 0.056,-0.22407 0.11204,-0.72823 0.11204,-1.21373 0,-2.52081 -1.30709,-4.4441 -3.93994,-4.4441 -2.22205,0 -4.36942,1.8486 -4.36942,4.8549 0,3.06232 2.03533,4.85491 4.68685,4.85491 m -2.05399,-5.86323 c 0.18672,-1.17638 0.93363,-1.75523 1.79257,-1.75523 1.10169,0 1.54984,0.72823 1.54984,1.75523 l -3.34241,0"
       style="font-size:38.79640198px;font-style:normal;font-variant:normal;font-weight:bold;font-stretch:normal;text-align:start;line-height:125%;letter-spacing:0px;word-spacing:0px;writing-mode:lr-tb;text-anchor:start;fill:#000000;fill-opacity:1;stroke:none;font-family:Source Sans Pro;-inkscape-font-specification:Source Sans Pro Bold"
       id="path4092"
       inkscape:connector-curvature="0" />
    <path
       d="m 471.74044,176.23936 c 0.95231,0 1.66187,-0.74691 1.66187,-1.71789 0,-0.98966 -0.70956,-1.73657 -1.66187,-1.73657 -0.9523,0 -1.66187,0.74691 -1.66187,1.73657 0,0.97098 0.70957,1.71789 1.66187,1.71789"
       style="font-size:38.79640198px;font-style:normal;font-variant:normal;font-weight:bold;font-stretch:normal;text-align:start;line-height:125%;letter-spacing:0px;word-spacing:0px;writing-mode:lr-tb;text-anchor:start;fill:#000000;fill-opacity:1;stroke:none;font-family:Source Sans Pro;-inkscape-font-specification:Source Sans Pro Bold"
       id="path4094"
       inkscape:connector-curvature="0" />
    <path
       d="m 475.76966,176.01528 2.74488,0 0,-6.25535 c 0.59753,-0.57885 1.027,-0.89629 1.71789,-0.89629 0.78426,0 1.13904,0.4108 1.13904,1.75523 l 0,5.39641 2.74488,0 0,-5.75119 c 0,-2.31541 -0.85894,-3.73454 -2.87559,-3.73454 -1.25107,0 -2.16604,0.65355 -2.85692,1.26974 l 0.1307,-1.66187 0,-3.2117 -2.74488,0 0,13.08956"
       style="font-size:38.79640198px;font-style:normal;font-variant:normal;font-weight:bold;font-stretch:normal;text-align:start;line-height:125%;letter-spacing:0px;word-spacing:0px;writing-mode:lr-tb;text-anchor:start;fill:#000000;fill-opacity:1;stroke:none;font-family:Source Sans Pro;-inkscape-font-specification:Source Sans Pro Bold"
       id="path4096"
       inkscape:connector-curvature="0" />
    <path
       d="m 486.41894,176.01528 2.74489,0 0,-9.26165 -2.74489,0 0,9.26165 m 1.36311,-10.62476 c 0.93363,0 1.58718,-0.59753 1.58718,-1.4378 0,-0.84027 -0.65355,-1.41912 -1.58718,-1.41912 -0.91496,0 -1.58718,0.57885 -1.58718,1.41912 0,0.84027 0.67222,1.4378 1.58718,1.4378"
       style="font-size:38.79640198px;font-style:normal;font-variant:normal;font-weight:bold;font-stretch:normal;text-align:start;line-height:125%;letter-spacing:0px;word-spacing:0px;writing-mode:lr-tb;text-anchor:start;fill:#000000;fill-opacity:1;stroke:none;font-family:Source Sans Pro;-inkscape-font-specification:Source Sans Pro Bold"
       id="path4098"
       inkscape:connector-curvature="0" />
    <path
       d="m 493.68991,176.01528 3.17436,0 3.02497,-9.26165 -2.63285,0 -1.21372,4.3694 c -0.24275,0.91497 -0.48549,1.88595 -0.70957,2.85693 l -0.0747,0 c -0.24274,-0.97098 -0.48549,-1.94196 -0.72823,-2.85693 l -1.19506,-4.3694 -2.76356,0 3.11835,9.26165"
       style="font-size:38.79640198px;font-style:normal;font-variant:normal;font-weight:bold;font-stretch:normal;text-align:start;line-height:125%;letter-spacing:0px;word-spacing:0px;writing-mode:lr-tb;text-anchor:start;fill:#000000;fill-opacity:1;stroke:none;font-family:Source Sans Pro;-inkscape-font-specification:Source Sans Pro Bold"
       id="path4100"
       inkscape:connector-curvature="0" />
    <path
       style="font-size:medium;font-style:normal;font-variant:normal;font-weight:normal;font-stretch:normal;text-indent:0;text-align:start;text-decoration:none;line-height:normal;letter-spacing:normal;word-spacing:normal;text-transform:none;direction:ltr;block-progression:tb;writing-mode:lr-tb;text-anchor:start;baseline-shift:baseline;color:#000000;fill:#000000;fill-opacity:1;stroke:none;stroke-width:7;marker:none;visibility:visible;display:inline;overflow:visible;enable-background:accumulate;font-family:Sans;-inkscape-font-specification:Sans"
       d="M 168.78125,118.46875 A 3.50035,3.50035 0 0 0 166.375,124.625 L 291.65625,234.75 A 3.50035,3.50035 0 1 0 296.25,229.5 L 171,119.375 a 3.50035,3.50035 0 0 0 -2.21875,-0.90625 z"
       id="path4155"
       inkscape:connector-curvature="0" />
    <path
       style="font-size:medium;font-style:normal;font-variant:normal;font-weight:normal;font-stretch:normal;text-indent:0;text-align:start;text-decoration:none;line-height:normal;letter-spacing:normal;word-spacing:normal;text-transform:none;direction:ltr;block-progression:tb;writing-mode:lr-tb;text-anchor:start;baseline-shift:baseline;color:#000000;fill:#000000;fill-opacity:1;stroke:none;stroke-width:7;marker:none;visibility:visible;display:inline;overflow:visible;enable-background:accumulate;font-family:Sans;-inkscape-font-specification:Sans"
       d="m 573.9375,118.46875 a 3.50035,3.50035 0 0 0 -2.46875,0.90625 L 446.1875,229.5 a 3.50035,3.50035 0 1 0 4.625,5.25 l 125.25,-110.125 a 3.50035,3.50035 0 0 0 -2.125,-6.15625 z"
       id="path4157"
       inkscape:connector-curvature="0" />
  </g>
</svg>
