<?xml version="1.0" encoding="UTF-8" standalone="no"?>
<!-- Created with Inkscape (http://www.inkscape.org/) -->

<svg
   xmlns:dc="http://purl.org/dc/elements/1.1/"
   xmlns:cc="http://creativecommons.org/ns#"
   xmlns:rdf="http://www.w3.org/1999/02/22-rdf-syntax-ns#"
   xmlns:svg="http://www.w3.org/2000/svg"
   xmlns="http://www.w3.org/2000/svg"
   xmlns:sodipodi="http://sodipodi.sourceforge.net/DTD/sodipodi-0.dtd"
   xmlns:inkscape="http://www.inkscape.org/namespaces/inkscape"
   width="81.15625"
   height="50.875"
   id="svg4069"
   version="1.1"
   inkscape:version="0.48.5 r10040"
   sodipodi:docname="Neues Dokument 11">
  <defs
     id="defs4071" />
  <sodipodi:namedview
     id="base"
     pagecolor="#ffffff"
     bordercolor="#666666"
     borderopacity="1.0"
     inkscape:pageopacity="0.0"
     inkscape:pageshadow="2"
     inkscape:zoom="1.979899"
     inkscape:cx="26.10703"
     inkscape:cy="29.926437"
     inkscape:document-units="px"
     inkscape:current-layer="layer1"
     showgrid="false"
     fit-margin-top="0"
     fit-margin-left="0"
     fit-margin-right="0"
     fit-margin-bottom="0"
     inkscape:window-width="580"
     inkscape:window-height="463"
     inkscape:window-x="-4"
     inkscape:window-y="0"
     inkscape:window-maximized="0" />
  <metadata
     id="metadata4074">
    <rdf:RDF>
      <cc:Work
         rdf:about="">
        <dc:format>image/svg+xml</dc:format>
        <dc:type
           rdf:resource="http://purl.org/dc/dcmitype/StillImage" />
        <dc:title></dc:title>
      </cc:Work>
    </rdf:RDF>
  </metadata>
  <g
     inkscape:label="Ebene 1"
     inkscape:groupmode="layer"
     id="layer1"
     transform="translate(-650.85045,-624.06754)">
    <path
       style="color:#000000;fill:#000000;fill-opacity:1;stroke:none;stroke-width:3.68457818;marker:none;visibility:visible;display:inline;overflow:visible;enable-background:accumulate"
       d="m 691.4129,624.06754 c -22.39434,0 -40.53125,7.9455 -40.53125,17.7812 0.0165,-5.5277 -0.0305,9.5028 -0.0312,15.25 0,2.957 1.5256,5.6314 3.78125,7.7813 2.25565,2.1499 5.28846,3.9351 8.9375,5.4063 7.29808,2.942 17.09026,4.6562 27.875,4.6562 10.78479,0 20.54565,-1.7141 27.84375,-4.6562 3.64905,-1.4712 6.68185,-3.2564 8.9375,-5.4063 2.25565,-2.1499 3.78125,-4.8244 3.78125,-7.7813 0,-8.4808 -0.0312,-7.2243 -0.0312,-15.2187 4e-5,-0.011 0,-0.021 0,-0.031 0,-9.8355 -18.16815,-17.7812 -40.5625,-17.7812 z m 0,5 c 19.6324,0 35.5625,5.7125 35.5625,12.7812 0,0.011 7e-5,0.021 0,0.031 -0.0472,7.0542 -15.95925,12.7813 -35.5625,12.7813 -19.60327,0 -35.48414,-5.7271 -35.53125,-12.7813 -7e-5,-0.011 0,-0.021 0,-0.031 0,-7.0686 15.89883,-12.7812 35.53125,-12.7812 z m 35.59375,21.3438 c 0.007,1.5768 0,2.9651 0,6.6874 0,1.2279 -0.57798,2.5234 -2.03125,3.9688 l 0,-9.2188 c 0.7249,-0.4685 1.40869,-0.9385 2.03125,-1.4374 z m -71.15625,0.031 c 0.64902,0.5189 1.36545,1.0142 2.125,1.5 l 0,9.2188 c -1.52421,-1.4837 -2.125,-2.8081 -2.125,-4.0626 0,-3.7049 -0.007,-5.204 0,-6.6562 z m 66.125,3.125 0,9.8125 c -0.94749,0.5825 -2.06233,1.1198 -3.25,1.6563 l 0,-10 c 1.14834,-0.4592 2.22794,-0.9551 3.25,-1.4688 z m -61,0.031 c 0.96421,0.482 1.98647,0.9414 3.0625,1.375 l 0,10.0313 c -1.1115,-0.5059 -2.16327,-1.0157 -3.0625,-1.5625 z m 6.0625,2.4688 c 0.96737,0.3212 1.96775,0.6235 3,0.9062 l 0,10.2188 c -1.05331,-0.302 -2.0437,-0.6273 -3,-0.9688 z m 48.6875,0.031 0,10.1563 c -0.96596,0.3427 -1.96807,0.6662 -3.03125,0.9687 l 0,-10.2187 c 1.0436,-0.2833 2.0533,-0.5838 3.03125,-0.9063 z m -42.6875,1.5938 c 0.93532,0.2098 1.86814,0.4157 2.84375,0.5938 l 0,10.25 c -0.97178,-0.1821 -1.92414,-0.3809 -2.84375,-0.5938 z m 36.65625,0.031 0,10.25 c -1.0544,0.2424 -2.12813,0.455 -3.25,0.6563 l 0,-10.25 c 1.10745,-0.1945 2.19317,-0.4212 3.25,-0.6563 z m -30.8125,1.0626 c 1.29028,0.1841 2.62523,0.3415 3.96875,0.4687 l 0,10.25 c -1.35489,-0.1306 -2.6795,-0.2809 -3.96875,-0.4687 z m 24.5625,0.062 0,10.25 c -1.10206,0.1531 -2.22577,0.2948 -3.375,0.4063 l 0,-10.2813 c 1.14448,-0.1092 2.26876,-0.2242 3.375,-0.375 z m -17.59375,0.625 c 1.35608,0.082 2.72947,0.1348 4.125,0.1563 l 0,10.2813 c -1.39828,-0.023 -2.77144,-0.073 -4.125,-0.1563 z m 11.21875,0 0,10.2813 c -1.34198,0.083 -2.70671,0.133 -4.09375,0.1563 l 0,-10.2813 c 1.38119,-0.023 2.75122,-0.074 4.09375,-0.1563 z"
       id="path4049"
       inkscape:connector-curvature="0"
       sodipodi:nodetypes="sccscscsscsssccscssccccccccscccccccccccccccccccccccccccccccccccccccccccccccccccc" />
  </g>
</svg>
