<?xml version="1.0" encoding="UTF-8" standalone="no"?>
<!-- Created with Inkscape (http://www.inkscape.org/) -->

<svg
   xmlns:dc="http://purl.org/dc/elements/1.1/"
   xmlns:cc="http://creativecommons.org/ns#"
   xmlns:rdf="http://www.w3.org/1999/02/22-rdf-syntax-ns#"
   xmlns:svg="http://www.w3.org/2000/svg"
   xmlns="http://www.w3.org/2000/svg"
   xmlns:sodipodi="http://sodipodi.sourceforge.net/DTD/sodipodi-0.dtd"
   xmlns:inkscape="http://www.inkscape.org/namespaces/inkscape"
   width="1024"
   height="1024"
   id="svg3421"
   version="1.1"
   inkscape:version="0.48.5 r10040"
   sodipodi:docname="coin-stash.svg">
  <defs
     id="defs3423" />
  <sodipodi:namedview
     id="base"
     pagecolor="#ffffff"
     bordercolor="#666666"
     borderopacity="1.0"
     inkscape:pageopacity="0.0"
     inkscape:pageshadow="2"
     inkscape:zoom="0.49497475"
     inkscape:cx="766.62367"
     inkscape:cy="334.7297"
     inkscape:document-units="px"
     inkscape:current-layer="layer1"
     showgrid="false"
     fit-margin-top="0"
     fit-margin-left="0"
     fit-margin-right="0"
     fit-margin-bottom="0"
     inkscape:window-width="1920"
     inkscape:window-height="1181"
     inkscape:window-x="-4"
     inkscape:window-y="-4"
     inkscape:window-maximized="1" />
  <metadata
     id="metadata3426">
    <rdf:RDF>
      <cc:Work
         rdf:about="">
        <dc:format>image/svg+xml</dc:format>
        <dc:type
           rdf:resource="http://purl.org/dc/dcmitype/StillImage" />
        <dc:title />
      </cc:Work>
    </rdf:RDF>
  </metadata>
  <g
     inkscape:label="Ebene 1"
     inkscape:groupmode="layer"
     id="layer1"
     transform="translate(-284.3904,429.55994)">
    <path
       style="fill:#000000;fill-opacity:1;fill-rule:nonzero;stroke:none"
       d="m 794.79571,-349.35069 c -80.06975,0 -144.84126,28.42031 -144.84126,63.58734 0.0593,-19.76402 -0.24325,33.98979 -0.24622,54.53862 0,4.21552 0.78505,8.25628 2.33913,12.09575 -1.33474,3.40286 -2.09291,6.8304 -2.09291,10.43374 0.0593,-19.76402 -0.24325,33.98978 -0.24622,54.53861 0,4.20304 0.80459,8.22959 2.33913,12.06497 -1.28259,3.33753 -2.09291,6.68815 -2.09291,10.21831 0.0593,-19.76396 -0.24326,33.989773 -0.24622,54.538603 0,4.14317 0.84566,8.30903 2.33913,12.09575 -1.28905,3.34568 -2.09291,6.89443 -2.09291,10.43374 0.0593,-19.76395 -0.24325,33.989788 -0.24622,54.53861674 0,4.14317196 0.84566,8.06280096 2.33913,11.84952926 -1.28906,3.345671 -2.09291,6.894429 -2.09291,10.433741 0.0593,-19.7639563 -0.24325,33.989783 -0.24622,54.538612 0,4.143172 0.84567,8.062801 2.33913,11.849529 -1.33473,3.402865 -2.09291,6.830332 -2.09291,10.433746 0.0593,-19.764029 -0.24325,34.020493 -0.24622,54.569383 0,4.20298 0.80459,8.2296 2.33913,12.06497 -1.28259,3.33752 -2.09291,6.68813 -2.09291,10.2183 0.0593,-19.76394 -0.24326,33.98979 -0.24622,54.53862 0,4.20303 0.80459,8.22959 2.33913,12.06497 -1.28259,3.3375 -2.09291,6.68812 -2.09291,10.2183 0.0593,-19.76403 -0.24325,33.98978 -0.24622,54.53861 0,4.14316 0.84566,8.27824 2.33913,12.06496 -1.28906,3.34568 -2.09291,6.92522 -2.09291,10.46453 0.0593,-19.76397 -0.24325,33.98939 -0.24622,54.5386 0,4.14309 0.84567,8.0628 2.33913,11.84954 -1.28905,3.34576 -2.09291,6.89464 -2.09291,10.43374 0.0593,-19.76403 -0.24326,33.98941 -0.24622,54.53862 0,10.5724 5.41582,20.16729 13.48076,27.85409 8.06493,7.68678 18.96215,14.0068 32.00912,19.26703 26.09396,10.51885 61.03728,16.71244 99.5976,16.71244 26.1146,0 50.30379,-3.01975 71.46652,-8.12539 25.07778,28.99865 62.23133,47.36734 103.53719,47.36734 40.29018,0 76.22878,-17.50348 101.19788,-45.27444 20.497,4.70084 43.7419,7.41749 68.6966,7.41749 38.5602,0 73.5035,-6.19315 99.5976,-16.71244 13.0469,-5.26029 23.9442,-11.58032 32.009,-19.26702 8.065,-7.68687 13.4809,-17.28199 13.4809,-27.85409 l 0,-54.29239 c 10e-5,-0.0446 0,-0.21057 0,-0.24622 0,-3.70006 -0.9351,-7.19102 -2.3392,-10.67998 1.4402,-3.7224 2.3392,-7.53908 2.3392,-11.6033 l 0,-54.32316 c 10e-5,-0.0446 0,-0.1798 0,-0.21545 0,-3.70004 -0.9351,-7.19101 -2.3392,-10.67996 1.4402,-3.72243 2.3392,-7.5391 2.3392,-11.60332 l 0,-54.32317 c 10e-5,-0.0446 0,-0.17979 0,-0.21543 0,-3.70005 -0.9351,-7.19103 -2.3392,-10.67998 1.4447,-3.72767 2.3392,-7.53261 2.3392,-11.60329 l 0,-54.32317 c 10e-5,-0.0445 0,-0.21058 0,-0.24624 0,-3.60904 -0.755,-7.24118 -2.093,-10.64918 1.4219,-3.70002 2.093,-7.59717 2.093,-11.63407 l 0,-54.29238 c 10e-5,-0.0445 0,-0.21058 0,-0.24624 0,-3.702723 -0.933,-7.404078 -2.3392,-10.895406 -0.029,-0.06688 0.029,-0.17863 0,-0.246223 1.4507,-3.716603 2.3392,-7.539084 2.3392,-11.603305 l 0,-54.323165 c 10e-5,-0.04457 0,-0.179794 0,-0.215447 0,-35.16629 -65.0177,-63.587341 -145.0875,-63.587341 -78.8187,0 -143.03834,27.550975 -145.0259,61.956107 0.0118,8.775059 -0.0283,41.130486 -0.0307,56.169846 0,4.06437 0.85777,7.886702 2.30834,11.603305 0.0224,0.06688 -0.0224,0.183083 0,0.246223 -1.4071,3.491328 -2.09286,7.192623 -2.09286,10.895406 0.0589,-19.764019 -0.21253,34.02056 -0.21548,54.56939 0,4.03703 0.67092,7.90333 2.09287,11.6033 -1.33889,3.40798 -1.87739,7.03998 -1.87739,10.64918 0.0589,-19.76394 -0.21253,34.02056 -0.21548,54.56939 0,4.07082 0.86378,7.87564 2.30834,11.60331 -1.40522,3.48895 -2.09286,6.97985 -2.09286,10.67998 0.0447,-14.12926 -0.12936,16.23562 -0.21548,38.99571 -8.09699,-1.49391 -16.30449,-2.33913 -24.83785,-2.33913 -10.24983,0 -20.33884,1.12667 -29.94699,3.26246 l 0,-41.33483 c 1.4e-4,-0.0446 0,-0.17981 0,-0.21545 0,-3.70198 -0.90275,-7.18932 -2.30835,-10.67998 1.4402,-3.7224 2.30835,-7.53907 2.30835,-11.60329 l 0,-54.32317 c 1.4e-4,-0.0445 0,-0.17979 0,-0.21546 0,-3.70196 -0.90275,-7.18928 -2.30835,-10.67996 1.4402,-3.72239 2.30835,-7.53907 2.30835,-11.6033 l 0,-54.323153 c 1.4e-4,-0.04453 0,-0.179787 0,-0.215448 0,-3.701902 -0.90275,-7.189305 -2.30835,-10.679964 1.44459,-3.727674 2.30835,-7.532622 2.30835,-11.603306 l 0,-54.323164 c 1.4e-4,-0.04457 0,-0.210572 0,-0.246225 0,-3.680812 -0.70284,-7.423544 -2.09291,-10.895411 1.37411,-3.6405493 2.09291,-7.4233183 2.09291,-11.38785926 l 0,-54.29238674 c 1.4e-4,-0.0446 0,-0.21057 0,-0.24623 0,-3.68081 -0.70284,-7.42354 -2.09291,-10.89541 1.37411,-3.64054 2.09291,-7.63876 2.09291,-11.6033 l 0,-54.323163 c 1.4e-4,-0.0445 0,-0.21058 0,-0.24622 0,-3.70199 -0.90275,-7.1893 -2.30835,-10.67998 1.4402,-3.72241 2.30835,-7.53909 2.30835,-11.6033 l 0,-54.29239 c 1.4e-4,-0.0446 0,-0.21057 0,-0.24622 0,-3.70198 -0.90275,-7.18931 -2.30835,-10.67996 -0.0298,-0.0669 0.0297,-0.14712 0,-0.21545 1.455,-3.72189 2.30835,-7.53263 2.30835,-11.60331 l 0,-54.56939 c 0,-35.16628 -64.9868,-63.58734 -145.0567,-63.58734 z m 0,17.88202 c 70.19472,0 127.17469,20.43153 127.17469,45.70532 -0.16935,25.22196 -57.08426,45.7361 -127.17469,45.7361 -70.09043,0 -126.82163,-20.51414 -126.99002,-45.7361 0,-25.27343 56.79538,-45.70532 126.99002,-45.70532 z m -127.20546,76.36021 c 2.32051,1.85526 4.94798,3.58766 7.66371,5.32459 l 0,32.96323 c -5.44974,-5.30492 -7.66371,-9.91867 -7.66371,-14.40409 0,-13.24663 -0.0297,-18.69155 0,-23.88373 z m 254.38015,0 c 0.0298,5.63783 0,10.57478 0,23.88373 0,4.39014 -1.97524,8.98992 -7.17127,14.15787 l 0,-32.93245 c 2.59177,-1.67507 4.94529,-3.32534 7.17127,-5.10915 z m -17.85125,11.14163 0,35.02537 c -3.3877,2.08268 -7.35688,4.11424 -11.60329,6.03249 l 0,-35.73327 c 4.10589,-1.64185 7.94894,-3.48789 11.60329,-5.32459 z m -218.18521,0.21545 c 3.44757,1.72335 7.04814,3.34335 10.89541,4.89371 l 0,35.73325 c -3.97413,-1.80884 -7.68016,-3.61574 -10.89541,-5.57082 l 0,-35.05614 z m 21.82159,8.83329 c 3.45871,1.14846 6.95837,2.22094 10.64919,3.23168 l 0,36.44115 c -3.76608,-1.07989 -7.22999,-2.25689 -10.64919,-3.47791 l 0,-36.19492 z m 174.08035,0 0,36.44114 c -3.45366,1.22533 -7.12483,2.39632 -10.92617,3.47791 l 0,-36.68737 c 3.73129,-1.01297 7.42957,-2.07854 10.92617,-3.23168 z m -152.7512,5.78626 c 3.34427,0.75012 6.73002,1.45612 10.2183,2.0929 l 0,36.68737 c -3.47454,-0.65139 -6.93026,-1.33165 -10.2183,-2.0929 l 0,-36.68737 z m 131.14505,0 0,36.68737 c -3.76994,0.86658 -7.59212,1.58862 -11.60331,2.30835 l 0,-36.6566 c 3.95965,-0.69522 7.82468,-1.49855 11.60331,-2.33912 z m -110.24678,3.93958 c 4.61341,0.65808 9.35409,1.17645 14.15787,1.63123 l 0,36.68737 c -4.84433,-0.46719 -9.54818,-0.95969 -14.15787,-1.63123 l 0,-36.68737 z m 87.74806,0.24623 0,36.68738 c -3.94033,0.54739 -7.95596,0.98636 -12.06497,1.38499 l 0,-36.90281 c 4.09207,-0.39071 8.10972,-0.63069 12.06497,-1.16956 z m -62.91022,2.09289 c 4.84866,0.2934 9.87608,0.63066 14.86578,0.7079 l 0,36.6566 c -4.99951,-0.0824 -10.02619,-0.16383 -14.86578,-0.46167 l 0,-36.90283 z m 40.16529,0 0,36.90283 c -4.79814,0.29636 -9.66024,0.37774 -14.61956,0.46167 l 0,-36.6566 c 4.93837,-0.0824 9.81941,-0.41302 14.61956,-0.7079 z m 102.33684,26.46909 c -14.77426,19.41129 -63.9822,33.64036 -122.52721,33.64036 -58.2855,0 -107.13711,-14.14487 -122.09632,-33.42492 6.5076,4.47793 13.92478,8.60818 22.49872,12.06499 26.09396,10.51899 61.03728,16.71244 99.5976,16.71244 38.56038,0 73.4728,-6.19308 99.56682,-16.71244 8.71321,-3.51304 16.38394,-7.7121 22.96039,-12.28043 z m 4.64748,18.31291 c 0.0298,5.63783 0,10.60556 0,23.9145 0,4.39021 -1.97524,8.98992 -7.17127,14.15789 l 0,-32.96325 c 2.59177,-1.67506 4.94529,-3.32534 7.17127,-5.10914 z m -254.38015,0.24622 c 2.32051,1.85527 4.94798,3.58767 7.66371,5.32459 l 0,32.96325 c -5.44974,-5.30494 -7.66371,-10.13411 -7.66371,-14.61956 0,-13.24663 -0.0297,-18.47603 0,-23.66828 z m 18.34369,11.14163 c 3.44757,1.72336 7.04814,3.31258 10.89541,4.86294 l 0,35.97946 c -3.97413,-1.80882 -7.68016,-3.6158 -10.89541,-5.57081 l 0,-35.27159 z m 218.18521,0 0,35.05615 c -3.3877,2.08268 -7.35688,3.86802 -11.60329,5.78625 l 0,-35.73324 c 4.10589,-1.64187 7.94894,-3.27246 11.60329,-5.10916 z m -196.36362,8.80252 c 3.45871,1.14844 6.95837,2.2517 10.64919,3.26246 l 0,36.68737 c -3.76608,-1.07983 -7.22999,-2.2569 -10.64919,-3.47792 l 0,-36.47191 z m 174.08035,0.24622 0,36.19492 c -3.45366,1.22533 -7.12483,2.42709 -10.92617,3.50869 l 0,-36.44114 c 3.73129,-1.0129 7.42957,-2.10934 10.92617,-3.26247 z m -152.7512,5.57082 c 3.34427,0.75012 6.73002,1.45613 10.2183,2.0929 l 0,36.65658 c -3.47454,-0.6514 -6.93026,-1.30087 -10.2183,-2.06212 l 0,-36.68736 z m 131.14505,0.24622 0,36.65659 c -3.76994,0.86658 -7.59212,1.6194 -11.60331,2.33912 l 0,-36.68736 c 3.95965,-0.69523 7.82468,-1.46777 11.60331,-2.30835 z m -110.24678,3.69336 c 4.61341,0.65807 9.35409,1.17644 14.15787,1.63123 l 0,36.68738 c -4.84433,-0.4672 -9.54818,-0.95971 -14.15787,-1.63125 l 0,-36.68736 z m 87.74806,0.24623 0,36.65658 c -3.94033,0.54741 -7.95596,1.01715 -12.06497,1.4158 l 0,-36.68738 c 4.09207,-0.39069 8.10972,-0.84584 12.06497,-1.385 z m -62.91022,2.30834 c 4.84866,0.29338 9.87608,0.38442 14.86578,0.46167 l 0,36.68736 c -4.99951,-0.0824 -10.02619,-0.16382 -14.86578,-0.46167 l 0,-36.68736 z m 40.16529,0 0,36.68736 c -4.79814,0.29638 -9.66024,0.37775 -14.61956,0.46167 l 0,-36.68736 c 4.93837,-0.0824 9.81941,-0.16681 14.61956,-0.46167 z m 101.65972,26.93075 c -15.61313,18.942023 -64.23306,32.717003 -121.85009,32.717003 -56.94846,0 -105.04243,-13.40467 -121.17298,-32.009113 6.27244,4.13954 13.50087,7.63997 21.57538,10.89542 26.09396,10.519063 61.03728,16.712443 99.5976,16.712443 38.56038,0 73.4728,-6.19306 99.56682,-16.712443 8.4167,-3.39336 15.83259,-7.24593 22.28327,-11.60331 z m 5.3246,17.42035 c 0.0298,5.637883 0,10.574773 0,23.883723 0,4.39014 -1.97524,8.98993 -7.17127,14.15788 l 0,-32.93246 c 2.59177,-1.675 4.94529,-3.32541 7.17127,-5.109143 z m -254.38015,0.21544 c 2.32051,1.855263 4.94798,3.618513 7.66371,5.355373 l 0,32.96324 c -5.44974,-5.30485 -7.66371,-10.16489 -7.66371,-14.65033 0,-13.24664 -0.0297,-18.47596 0,-23.668283 z m 18.34369,11.141633 c 3.44757,1.72343 7.04814,3.34342 10.89541,4.8937 l 0,35.94871 c -3.97413,-1.80876 -7.68016,-3.61581 -10.89541,-5.57082 l 0,-35.27159 z m 218.18521,0 0,35.05614 c -3.3877,2.0827 -7.35688,3.8681 -11.60329,5.78627 l 0,-35.73326 c 4.10589,-1.64179 7.94894,-3.27238 11.60329,-5.10915 z m -196.36362,8.83329 c 3.45871,1.14853 6.95837,2.22096 10.64919,3.2317 l 0,36.68736 c -3.76608,-1.07982 -7.22999,-2.25682 -10.64919,-3.47791 l 0,-36.44115 z m 174.08035,0.21545 0,36.2257 c -3.45366,1.22533 -7.12483,2.39623 -10.92617,3.47791 l 0,-36.44114 c 3.73129,-1.01299 7.42957,-2.10934 10.92617,-3.26247 z m -152.7512,5.57082 c 3.34427,0.7501 6.73002,1.45606 10.2183,2.0929 l 0,36.68737 c -3.47454,-0.6514 -6.93026,-1.33173 -10.2183,-2.0929 l 0,-36.68737 z m 131.14505,0.24622 0,36.65659 c -3.76994,0.86657 -7.59212,1.6194 -11.60331,2.33913 l 0,-36.68738 c 3.95965,-0.69521 7.82468,-1.46785 11.60331,-2.30834 z m -110.24678,3.69336 c 4.61341,0.65808 9.35409,1.17637 14.15787,1.63123 l 0,36.68738 c -4.84433,-0.4672 -9.54818,-0.95971 -14.15787,-1.63124 l 0,-36.68737 z m 87.74806,0.24622 0,36.68738 c -3.94033,0.54741 -7.95596,0.98637 -12.06497,1.38501 l 0,-36.68738 c 4.09207,-0.39069 8.10972,-0.84583 12.06497,-1.38501 z m -62.91022,2.30836 c 4.84866,0.29339 9.87608,0.38442 14.86578,0.46167 l 0,36.68737 c -4.99951,-0.0824 -10.02619,-0.16383 -14.86578,-0.46167 l 0,-36.68737 z m 40.16529,0 0,36.68737 c -4.79814,0.29636 -9.66024,0.37773 -14.61956,0.46167 l 0,-36.68737 c 4.93837,-0.0825 9.81941,-0.1668 14.61956,-0.46167 z m 101.65972,26.93074 c -15.61313,18.942021 -64.23306,32.9632357 -121.85009,32.9632357 -56.94846,0 -105.04243,-13.6509037 -121.17298,-32.2553457 6.27244,4.13954 13.50087,7.63998 21.57538,10.89541 26.09396,10.519009 61.03728,16.712458 99.5976,16.712458 38.56038,0 73.4728,-6.193074 99.56682,-16.712458 8.4167,-3.39336 15.83259,-7.24591 22.28327,-11.6033 z m 5.3246,17.635792 c 0.0298,5.6379 0,10.605557 0,23.91450474 0,4.39021296 -1.97524,8.98992296 -7.17127,14.15787926 l 0,-32.963236 c 2.59177,-1.674992 4.94529,-3.325343 7.17127,-5.109148 z m -254.38015,0.246224 c 2.32051,1.855191 4.94798,3.587662 7.66371,5.324594 l 0,32.963235 c -5.44974,-5.3049243 -7.66371,-10.1341843 -7.66371,-14.61954826 0,-13.24670174 -0.0297,-18.47595874 0,-23.66828074 z m 472.10365,1.38501 c 70.1947,0 127.2054,20.4623067 127.2054,45.736105 0,0.04457 3e-4,0.179793 0,0.215447 -0.1694,25.221953 -57.115,45.736103 -127.2054,45.736103 -70.0904,0 -127.0062,-20.51415 -127.1746,-45.736103 -3e-4,-0.04457 0,-0.179794 0,-0.215447 0,-25.2734343 56.98,-45.736105 127.1746,-45.736105 z m -453.75996,9.756626 c 3.44757,1.723341 7.04814,3.3126377 10.89541,4.8629237 l 0,35.9794783 c -3.97413,-1.808839 -7.68016,-3.615877 -10.89541,-5.570816 l 0,-35.271586 z m 218.18521,0 0,35.05614 c -3.3877,2.082611 -7.35688,3.868089 -11.60329,5.786262 l 0,-35.7332543 c 4.10589,-1.641862 7.94894,-3.2724547 11.60329,-5.1091477 z m -196.36362,8.8332847 c 3.45871,1.148448 6.95837,2.22095 10.64919,3.23169004 l 0,36.68737326 c -3.76608,-1.079899 -7.22999,-2.256899 -10.64919,-3.477914 l 0,-36.4411493 z m 174.08035,0.215445 0,36.2257043 c -3.45366,1.225398 -7.12483,2.396311 -10.92617,3.477914 l 0,-36.44115026 c 3.73129,-1.01297404 7.42957,-2.10934104 10.92617,-3.26246804 z m -152.7512,5.570818 c 3.34427,0.750107 6.73002,1.45614 10.2183,2.092905 l 0,36.6565943 c -3.47454,-0.651399 -6.93026,-1.300869 -10.2183,-2.062125 l 0,-36.6873743 z m 131.14505,0.246226 0,36.6565943 c -3.76994,0.86657 -7.59212,1.619396 -11.60331,2.339128 l 0,-36.6873743 c 3.95965,-0.695218 7.82468,-1.467771 11.60331,-2.308348 z m -110.24678,3.693359 c 4.61341,0.658077 9.35409,1.176448 14.15787,1.631234 l 0,36.6873743 c -4.84433,-0.467196 -9.54818,-0.959703 -14.15787,-1.631235 l 0,-36.6873733 z m 87.74806,0.246223 0,36.6565963 c -3.94033,0.547414 -7.95596,1.017151 -12.06497,1.415789 l 0,-36.6873743 c 4.09207,-0.390689 8.10972,-0.845839 12.06497,-1.385011 z m -62.91022,2.30835 c 4.84866,0.293391 9.87608,0.384425 14.86578,0.46167 l 0,36.6873743 c -4.99951,-0.08244 -10.02619,-0.163828 -14.86578,-0.46167 l 0,-36.6873743 z m 40.16529,0 0,36.6873743 c -4.79814,0.296365 -9.66024,0.377738 -14.61956,0.46167 l 0,-36.6873743 c 4.93837,-0.08244 9.81941,-0.166791 14.61956,-0.46167 z M 916.6458,35.035723 c -15.61313,18.942021 -64.23306,32.932458 -121.85009,32.932458 -56.94846,0 -105.04243,-13.650904 -121.17298,-32.255341 6.27244,4.139537 13.50087,7.88621 21.57538,11.141635 26.09396,10.519083 61.03728,16.712453 99.5976,16.712453 38.56038,0 73.4728,-6.193074 99.56682,-16.712453 8.4167,-3.393361 15.83259,-7.461366 22.28327,-11.818752 z m 5.3246,17.635793 c 0.0298,5.6379 0,10.574779 0,23.883726 0,4.390143 -1.97524,8.989924 -7.17127,14.157879 l 0,-32.932457 c 2.59177,-1.674993 4.94529,-3.325412 7.17127,-5.109148 z m -254.38015,0.215446 c 2.32051,1.855259 4.94798,3.618508 7.66371,5.355372 l 0,32.963235 c -5.44974,-5.304847 -7.66371,-10.164894 -7.66371,-14.650327 0,-13.246633 -0.0297,-18.475957 0,-23.66828 z m 599.30905,0.923341 c 0.029,5.637819 0,10.605556 0,23.914503 0,4.390145 -2.006,8.989923 -7.202,14.157879 l 0,-32.963234 c 2.5917,-1.675073 4.976,-3.325345 7.202,-5.109148 z m -254.38,0.246223 c 2.3205,1.855258 4.9172,3.587661 7.633,5.324594 l 0,32.963236 c -5.4497,-5.304917 -7.633,-10.134118 -7.633,-14.61955 0,-13.246634 -0.029,-18.476105 0,-23.66828 z m -326.58536,9.972071 c 3.44757,1.72342 7.04814,3.343417 10.89541,4.893701 l 0,35.948692 c -3.97413,-1.80876 -7.68016,-3.6158 -10.89541,-5.570803 l 0,-35.27159 z m 218.18521,0 0,35.05614 c -3.3877,2.082693 -7.35688,3.868073 -11.60329,5.786253 l 0,-35.733246 c 4.10589,-1.641791 7.94894,-3.272384 11.60329,-5.109147 z m 126.71305,1.169563 c 3.4476,1.723342 7.0789,3.31257 10.9262,4.862925 l 0,35.979475 c -3.9741,-1.80884 -7.7109,-3.61573 -10.9262,-5.57082 l 0,-35.27158 z m 218.1851,0 0,35.05613 c -3.3877,2.08269 -7.5723,3.86802 -11.8187,5.78627 l 0,-35.733252 c 4.1058,-1.641861 8.1643,-3.272454 11.8187,-5.109148 z m -541.26177,7.663723 c 3.45871,1.148526 6.95837,2.221018 10.64919,3.231689 l 0,36.687358 c -3.76608,-1.07981 -7.22999,-2.25681 -10.64919,-3.47791 l 0,-36.441137 z m 174.08035,0.215445 0,36.225692 c -3.45366,1.22533 -7.12483,2.39631 -10.92617,3.47791 l 0,-36.441134 c 3.73129,-1.012975 7.42957,-2.109332 10.92617,-3.262468 z m 170.60232,0.92334 c 3.4588,1.148449 6.9892,2.251719 10.68,3.262467 l 0,36.687365 c -3.766,-1.0799 -7.2607,-2.28768 -10.68,-3.50869 l 0,-36.441142 z m 174.0804,0.246224 0,36.194918 c -3.4537,1.22533 -6.8785,2.42709 -10.6799,3.50869 l 0,-36.44114 c 3.7312,-1.012976 7.1833,-2.109342 10.6799,-3.262468 z m -497.43392,4.401253 c 3.34427,0.750107 6.73002,1.456061 10.2183,2.092905 l 0,36.68737 c -3.47454,-0.6514 -6.93026,-1.33165 -10.2183,-2.09291 l 0,-36.687365 z m 131.14505,0.246225 0,36.65659 c -3.76994,0.86656 -7.59212,1.6194 -11.60331,2.33913 l 0,-36.68737 c 3.95965,-0.695219 7.82468,-1.46785 11.60331,-2.30835 z m 213.78387,0.923339 c 3.3443,0.750106 6.4839,1.45614 9.9721,2.092904 l 0,36.656587 c -3.4744,-0.65138 -6.684,-1.30086 -9.9721,-2.06212 l 0,-36.687371 z m 130.8988,0.246225 0,36.656586 c -3.7699,0.86657 -7.5921,1.58862 -11.6033,2.30835 l 0,-36.656587 c 3.9598,-0.695218 7.8247,-1.46777 11.6033,-2.308349 z M 749.98295,82.58773 c 4.61341,0.658087 9.35409,1.176448 14.15787,1.631233 l 0,36.687367 c -4.84433,-0.46719 -9.54818,-0.95971 -14.15787,-1.63124 l 0,-36.68736 z m 87.74806,0.246224 0,36.687366 c -3.94033,0.54741 -7.95596,0.98637 -12.06497,1.38501 l 0,-36.687367 c 4.09207,-0.390688 8.10972,-0.845838 12.06497,-1.385009 z m 257.18099,0.923339 c 4.6132,0.658087 9.354,1.176439 14.1577,1.631235 l 0,36.687372 c -4.8443,-0.46721 -9.5482,-0.95971 -14.1577,-1.63124 l 0,-36.687367 z m 87.7172,0.246224 0,36.656593 c -3.9403,0.54741 -7.956,1.01714 -12.065,1.41579 l 0,-36.687372 c 4.0921,-0.39069 8.1097,-0.84584 12.065,-1.385011 z m -407.80841,1.138786 c 4.84866,0.29339 9.87608,0.415203 14.86578,0.492449 l 0,36.656588 c -4.99951,-0.0825 -10.02619,-0.16382 -14.86578,-0.46167 l 0,-36.687367 z m 40.16529,0 0,36.687367 c -4.79814,0.29637 -9.66024,0.37774 -14.61956,0.46167 l 0,-36.656588 c 4.93837,-0.08244 9.81941,-0.19757 14.61956,-0.492449 z m 304.76372,1.169564 c 4.8485,0.293391 9.8451,0.384424 14.8349,0.46167 l 0,36.687373 c -4.9995,-0.0825 -9.9953,-0.16383 -14.8349,-0.46167 l 0,-36.687373 z m 40.1345,0 0,36.687373 c -4.7981,0.29636 -9.6603,0.37773 -14.6196,0.46167 l 0,-36.687373 c 4.9384,-0.08243 9.8194,-0.166792 14.6196,-0.46167 z M 916.86125,112.07305 c -15.51605,18.99764 -64.33844,32.7478 -122.06554,32.7478 -56.94846,0 -105.04243,-13.43547 -121.17298,-32.03992 6.26101,4.12602 13.52233,7.6486 21.57538,10.89542 26.09396,10.51901 61.03728,16.71247 99.5976,16.71247 38.56038,0 73.4728,-6.19309 99.56682,-16.71247 8.46774,-3.41401 16.02202,-7.21309 22.49872,-11.6033 z m 344.92895,1.16955 c -15.3632,19.08456 -64.1974,33.17871 -122.0963,33.17871 -57.617,0 -106.0468,-13.99045 -121.6038,-32.93247 6.3698,4.30338 13.7344,8.0097 22.037,11.35707 26.0938,10.51902 61.0066,16.71247 99.5668,16.71247 38.5603,0 73.5035,-6.19308 99.5976,-16.71247 8.485,-3.42099 16.0357,-7.18278 22.4987,-11.60331 z m -339.8198,16.25079 c 0.0298,5.63783 0,10.60548 0,23.91451 0,4.39014 -1.97524,8.98987 -7.17127,14.15789 l 0,-32.96324 c 2.59177,-1.67507 4.94529,-3.32543 7.17127,-5.10916 z m -254.38015,0.21544 c 2.32051,1.85526 4.94798,3.61846 7.66371,5.35538 l 0,32.96325 c -5.44974,-5.30485 -7.66371,-10.13419 -7.66371,-14.61956 0,-13.24669 -0.0297,-18.50673 0,-23.69907 z m 599.30905,1.41579 c 0.029,5.63784 0,10.57479 0,23.88375 0,4.39021 -2.006,8.98993 -7.202,14.15787 l 0,-32.93246 c 2.5917,-1.67507 4.976,-3.32533 7.202,-5.10916 z m -254.38,0.21545 c 2.3205,1.85527 4.9172,3.61845 7.633,5.35538 l 0,32.96325 c -5.4497,-5.30494 -7.633,-10.16489 -7.633,-14.65033 0,-13.24664 -0.029,-18.47605 0,-23.6683 z m -326.58536,9.51042 c 3.44757,1.72334 7.04814,3.34341 10.89541,4.8937 l 0,35.97947 c -3.97413,-1.80883 -7.68016,-3.61588 -10.89541,-5.57082 l 0,-35.30235 z m 218.18521,0 0,35.05613 c -3.3877,2.08268 -7.35688,3.89888 -11.60329,5.81704 l 0,-35.76402 c 4.10589,-1.64187 7.94894,-3.27239 11.60329,-5.10915 z m 126.71305,1.63124 c 3.4476,1.72334 7.0789,3.34333 10.9262,4.8937 l 0,35.94868 c -3.9741,-1.80882 -7.7109,-3.6158 -10.9262,-5.5708 l 0,-35.27158 z m 218.1851,0 0,35.05613 c -3.3877,2.08268 -7.3569,3.86801 -11.6033,5.78625 l 0,-35.73325 c 4.1059,-1.64185 7.9489,-3.27245 11.6033,-5.10913 z m -541.26177,7.20204 c 3.45871,1.14846 6.95837,2.25173 10.64919,3.26246 l 0,36.6566 c -3.76608,-1.0799 -7.22999,-2.2569 -10.64919,-3.47791 l 0,-36.44115 z m 174.08035,0.21545 0,36.2257 c -3.45366,1.22538 -7.12483,2.3963 -10.92617,3.47791 l 0,-36.44115 c 3.73129,-1.01296 7.42957,-2.10934 10.92617,-3.26246 z m 170.81782,1.41579 c 3.4588,1.14845 6.9891,2.22094 10.68,3.23168 l 0,36.68737 c -3.7662,-1.07983 -7.2607,-2.2569 -10.68,-3.47792 l 0,-36.44113 z m 174.0804,0.21544 0,36.22569 c -3.4537,1.22534 -7.094,2.39632 -10.8954,3.47792 l 0,-36.44114 c 3.7312,-1.01291 7.3987,-2.10934 10.8954,-3.26247 z m -497.64942,3.93959 c 3.34427,0.7501 6.73002,1.45614 10.2183,2.09289 l 0,36.68737 c -3.47454,-0.6514 -6.93026,-1.33165 -10.2183,-2.09291 l 0,-36.68735 z m 131.14505,0.24622 0,36.68736 c -3.76994,0.86657 -7.59212,1.58863 -11.60331,2.30835 l 0,-36.68736 c 3.95965,-0.69524 7.82468,-1.46777 11.60331,-2.30835 z m 213.78387,1.385 c 3.3443,0.75013 6.7301,1.45615 10.2182,2.09291 l 0,36.68737 c -3.4744,-0.65139 -6.9301,-1.33167 -10.2182,-2.09291 l 0,-36.68737 z m 131.145,0.24623 0,36.65659 c -3.7698,0.86658 -7.592,1.6194 -11.6032,2.33912 l 0,-36.68736 c 3.9595,-0.69522 7.8246,-1.46776 11.6032,-2.30835 z m -455.17565,2.0929 c 4.61341,0.65808 9.35409,1.14567 14.15787,1.60045 l 0,36.68737 c -4.84433,-0.46719 -9.54818,-0.95963 -14.15787,-1.63123 l 0,-36.65659 z m 87.74806,0.21545 0,36.68736 c -3.94033,0.54742 -7.95596,0.98639 -12.06497,1.38501 l 0,-36.68737 c 4.09207,-0.39067 8.10972,-0.84582 12.06497,-1.385 z m 257.18099,1.385 c 4.6132,0.65808 9.354,1.17645 14.1577,1.63124 l 0,36.68738 c -4.8443,-0.4672 -9.5482,-0.95971 -14.1577,-1.63125 l 0,-36.68737 z m 87.7172,0.24623 0,36.68738 c -3.9403,0.54741 -7.956,0.98635 -12.065,1.38501 l 0,-36.68738 c 4.0921,-0.39068 8.1097,-0.84584 12.065,-1.38501 z m -407.80841,0.70789 c 4.84866,0.2934 9.87608,0.38443 14.86578,0.46167 l 0,36.65661 c -4.99951,-0.0824 -10.02619,-0.16385 -14.86578,-0.46169 l 0,-36.65659 z m 40.16529,0 0,36.65659 c -4.79814,0.29636 -9.66024,0.37775 -14.61956,0.46169 l 0,-36.65661 c 4.93837,-0.0824 9.81941,-0.16679 14.61956,-0.46167 z m 304.76372,1.60046 c 4.8485,0.29339 9.8451,0.38443 14.8349,0.46167 l 0,36.68737 c -4.9995,-0.0824 -9.9953,-0.16382 -14.8349,-0.46166 l 0,-36.68738 z m 40.1345,0 0,36.68738 c -4.7981,0.29636 -9.6603,0.37773 -14.6196,0.46166 l 0,-36.68737 c 4.9384,-0.0825 9.8194,-0.1668 14.6196,-0.46167 z m -243.02305,25.29951 c -15.51605,18.99765 -64.33844,32.74779 -122.06554,32.74779 -56.94846,0 -105.04243,-13.43547 -121.17298,-32.03989 6.26101,4.12593 13.52233,7.64859 21.57538,10.89541 26.09396,10.519 61.03728,16.71245 99.5976,16.71245 38.56038,0 73.4728,-6.19316 99.56682,-16.71245 8.46774,-3.41402 16.02202,-7.21308 22.49872,-11.60331 z m 344.71345,1.41579 c -15.5976,18.95087 -64.2463,32.96325 -121.8808,32.96325 -56.9485,0 -105.0115,-13.6817 -121.1422,-32.28613 6.2725,4.13954 13.5009,7.88621 21.5754,11.14163 26.0938,10.51908 61.0066,16.71245 99.5668,16.71245 38.5603,0 73.5035,-6.19306 99.5976,-16.71245 8.4572,-3.40969 15.8118,-7.43537 22.2832,-11.81875 z m -339.6043,16.00456 c 0.0298,5.6379 0,10.60556 0,23.91451 0,4.39021 -1.97524,8.98992 -7.17127,14.15787 l 0,-32.96323 c 2.59177,-1.67493 4.94529,-3.32535 7.17127,-5.10915 z m -254.38015,0.24622 c 2.32051,1.85519 4.94798,3.58773 7.66371,5.3246 l 0,32.96323 c -5.44974,-5.30484 -7.66371,-10.13418 -7.66371,-14.61954 0,-13.24671 -0.0297,-18.47596 0,-23.66829 z m 599.30905,1.38502 c 0.029,5.63788 0,10.60555 0,23.9145 0,4.39015 -2.006,8.98991 -7.202,14.15787 l 0,-32.96323 c 2.5917,-1.675 4.976,-3.32541 7.202,-5.10914 z m -254.38,0.21544 c 2.3205,1.85526 4.9172,3.61851 7.633,5.35537 l 0,32.96323 c -5.4497,-5.30483 -7.633,-10.13409 -7.633,-14.61954 0,-13.24663 -0.029,-18.50675 0,-23.69906 z m -326.58536,9.54118 c 3.44757,1.72342 7.04814,3.31264 10.89541,4.86292 l 0,35.97949 c -3.97413,-1.80878 -7.68016,-3.61588 -10.89541,-5.57082 l 0,-35.27159 z m 218.18521,0 0,35.02537 c -3.3877,2.08262 -7.35688,3.89888 -11.60329,5.81704 l 0,-35.73325 c 4.10589,-1.64187 7.94894,-3.27241 11.60329,-5.10916 z m 126.71305,1.60045 c 3.4476,1.72343 7.0789,3.34341 10.9262,4.8937 l 0,35.97948 c -3.9741,-1.80875 -7.7109,-3.6158 -10.9262,-5.57081 l 0,-35.30237 z m 218.1851,0 0,35.05614 c -3.3877,2.08269 -7.3569,3.89888 -11.6033,5.81704 l 0,-35.76402 c 4.1059,-1.64179 7.9489,-3.27239 11.6033,-5.10916 z m -541.26177,7.20206 c 3.45871,1.14852 6.95837,2.25173 10.64919,3.26247 l 0,36.65659 c -3.76608,-1.07989 -7.22999,-2.25682 -10.64919,-3.47792 l 0,-36.44114 z m 174.08035,0.24623 0,36.19491 c -3.45366,1.22534 -7.12483,2.39623 -10.92617,3.47792 l 0,-36.44115 c 3.73129,-1.01304 7.42957,-2.07856 10.92617,-3.23168 z m 170.81782,1.385 c 3.4588,1.14852 6.9891,2.25173 10.68,3.26247 l 0,36.65659 c -3.7662,-1.07982 -7.2607,-2.25682 -10.68,-3.47791 l 0,-36.44115 z m 174.0804,0.21545 0,36.2257 c -3.4537,1.22533 -7.094,2.39624 -10.8954,3.47791 l 0,-36.44115 c 3.7312,-1.01298 7.3987,-2.10934 10.8954,-3.26246 z m -497.64942,3.97035 c 3.34427,0.75012 6.73002,1.45607 10.2183,2.09291 l 0,36.6566 c -3.47454,-0.65139 -6.93026,-1.33173 -10.2183,-2.09291 l 0,-36.6566 z m 131.14505,0.21545 0,36.68737 c -3.76994,0.86658 -7.59212,1.58861 -11.60331,2.30836 l 0,-36.6566 c 3.95965,-0.69523 7.82468,-1.49861 11.60331,-2.33913 z m 213.78387,1.38502 c 3.3443,0.75011 6.7301,1.45607 10.2182,2.09289 l 0,36.68737 c -3.4744,-0.65139 -6.9301,-1.33171 -10.2182,-2.09289 l 0,-36.68737 z m 131.145,0.24622 0,36.68737 c -3.7698,0.86658 -7.592,1.58862 -11.6032,2.30834 l 0,-36.68737 c 3.9595,-0.69521 7.8246,-1.46784 11.6032,-2.30834 z m -455.17565,2.09291 c 4.61341,0.65807 9.35409,1.17636 14.15787,1.63122 l 0,36.6566 c -4.84433,-0.46719 -9.54818,-0.9597 -14.15787,-1.63124 l 0,-36.65658 z m 87.74806,0.21543 0,36.68737 c -3.94033,0.54742 -7.95596,0.98638 -12.06497,1.38502 l 0,-36.6566 c 4.09207,-0.39069 8.10972,-0.87662 12.06497,-1.41579 z m 257.18099,1.41579 c 4.6132,0.65808 9.354,1.14559 14.1577,1.60046 l 0,36.68736 c -4.8443,-0.46719 -9.5482,-0.95968 -14.1577,-1.63122 l 0,-36.6566 z m 87.7172,0.21545 0,36.68737 c -3.9403,0.54741 -7.956,0.98637 -12.065,1.385 l 0,-36.68736 c 4.0921,-0.3907 8.1097,-0.84584 12.065,-1.38501 z m -407.80841,0.70789 c 4.84866,0.29339 9.87608,0.38443 14.86578,0.46168 l 0,36.65658 c -4.99951,-0.0824 -10.02619,-0.16382 -14.86578,-0.46165 l 0,-36.65661 z m 40.16529,0 0,36.65661 c -4.79814,0.29635 -9.66024,0.37773 -14.61956,0.46165 l 0,-36.65658 c 4.93837,-0.0824 9.81941,-0.1668 14.61956,-0.46168 z m 304.76372,1.63124 c 4.8485,0.29339 9.8451,0.38442 14.8349,0.46166 l 0,36.65661 c -4.9995,-0.0824 -9.9953,-0.16384 -14.8349,-0.46167 l 0,-36.6566 z m 40.1345,0 0,36.6566 c -4.7981,0.29635 -9.6603,0.37773 -14.6196,0.46167 l 0,-36.65661 c 4.9384,-0.0824 9.8194,-0.16679 14.6196,-0.46166 z m -243.2385,25.29951 c -15.61313,18.94202 -64.23306,32.71702 -121.85009,32.71702 -56.94846,0 -105.04243,-13.43546 -121.17298,-32.0399 6.27244,4.13953 13.50087,7.67075 21.57538,10.92619 26.09396,10.51906 61.03728,16.71245 99.5976,16.71245 38.56038,0 73.4728,-6.19308 99.56682,-16.71247 8.4167,-3.39335 15.83259,-7.2459 22.28327,-11.60329 z m 345.1444,1.38502 c -15.3632,19.08455 -64.1974,32.96322 -122.0963,32.96322 -56.9485,0 -105.0115,-13.43545 -121.1422,-32.03989 6.2611,4.12602 13.5223,7.67938 21.5754,10.9262 26.0938,10.519 61.0066,16.71244 99.5668,16.71244 38.5603,0 73.5035,-6.19308 99.5976,-16.71244 8.5563,-3.44968 15.9775,-7.4022 22.4987,-11.84953 z m -339.8198,16.00455 c 0.0223,3.83151 0.008,10.0807 0,16.25078 -2.41827,0.89822 -4.81986,1.77208 -7.17127,2.80081 l 0,-13.94244 c 2.59177,-1.67507 4.94529,-3.32534 7.17127,-5.10915 z m -254.38015,0.24623 c 2.32051,1.85525 4.94798,3.58767 7.66371,5.32459 l 0,32.96323 c -5.44974,-5.30492 -7.66371,-10.13411 -7.66371,-14.61954 0,-13.24665 -0.0297,-18.47596 0,-23.66828 z m 599.30905,1.38501 c 0.029,5.63789 0,10.60555 0,23.9145 0,4.39021 -2.006,8.98992 -7.202,14.15787 l 0,-32.96323 c 2.5917,-1.67499 4.976,-3.32534 7.202,-5.10914 z m -254.38,0.24622 c 2.3205,1.85517 4.9172,3.58765 7.633,5.32459 l 0,10.21829 c -2.5415,-1.00984 -5.0188,-2.15724 -7.633,-3.01624 0,-4.60932 -0.015,-9.77778 0,-12.52664 z m -326.58536,9.51039 c 3.44757,1.72335 7.04814,3.31265 10.89541,4.86293 l 0,35.97948 c -3.97413,-1.80882 -7.68016,-3.6158 -10.89541,-5.5708 l 0,-35.27161 z m 218.18521,0 0,12.98832 c -3.96052,2.16581 -7.89308,4.42206 -11.60329,6.95583 l 0,-14.835 c 4.10589,-1.64186 7.94894,-3.27246 11.60329,-5.10915 z m 126.71305,1.63124 c 3.4476,1.72335 7.0789,3.31264 10.9262,4.86292 l 0,10.43376 c -3.5532,-2.21617 -7.1636,-4.1441 -10.9262,-6.03249 l 0,-9.26419 z m 218.1851,0 0,35.02537 c -3.3877,2.08262 -7.3569,3.89888 -11.6033,5.81704 l 0,-35.73325 c 4.1059,-1.64187 7.9489,-3.27247 11.6033,-5.10916 z m -541.26177,7.17128 c 3.45871,1.14846 6.95837,2.25172 10.64919,3.26247 l 0,36.68737 c -3.76608,-1.07983 -7.22999,-2.28769 -10.64919,-3.50869 l 0,-36.44115 z m 174.08035,0.24622 0,19.26702 c -3.81086,3.199 -7.487,6.62803 -10.92617,10.21831 l 0,-26.22286 c 3.73129,-1.0129 7.42957,-2.10934 10.92617,-3.26247 z m 170.81782,1.38502 c 3.4588,1.14845 6.9891,2.25173 10.68,3.26246 l 0,19.94415 c -3.4339,-3.24793 -6.9227,-6.38408 -10.68,-9.26419 l 0,-13.94242 z m 174.0804,0.24622 0,36.19492 c -3.4537,1.22541 -7.094,2.39631 -10.8954,3.47791 l 0,-36.44114 c 3.7312,-1.01298 7.3987,-2.07857 10.8954,-3.23169 z m -497.64942,3.93958 c 3.34427,0.75012 6.73002,1.45614 10.2183,2.09291 l 0,36.65658 c -3.47454,-0.6514 -6.93026,-1.33165 -10.2183,-2.0929 l 0,-36.65659 z m 131.14505,0.21545 0,36.44114 0,0.24623 c -0.0298,0.0371 -0.18796,-0.0371 -0.21545,0 -3.69952,0.84496 -7.45385,1.60242 -11.38786,2.30834 l 0,-36.65658 c 3.95965,-0.69523 7.82468,-1.49856 11.60331,-2.33913 z m 109.56969,0.70789 c 64.82838,0 117.20258,52.40501 117.20258,117.23339 0,64.82838 -52.3742,117.4481 -117.20258,117.44884 -64.82839,0 -117.44885,-52.62046 -117.44885,-117.44884 0,-64.82838 52.62046,-117.23339 117.44885,-117.23339 z m 104.21418,0.7079 c 3.3443,0.7501 6.7301,1.45613 10.2182,2.09289 l 0,36.6566 c -0.956,-0.17899 -1.8512,-0.52369 -2.8007,-0.7079 -2.2852,-3.25349 -4.8638,-6.22838 -7.4175,-9.26417 l 0,-28.77742 z m 131.145,0.21544 0,36.68737 c -3.7698,0.86657 -7.592,1.58863 -11.6032,2.30835 l 0,-36.6566 c 3.9595,-0.69521 7.8246,-1.49854 11.6032,-2.33912 z m -455.17565,2.0929 c 4.61341,0.65809 9.35409,1.17645 14.15787,1.63124 l 0,36.65659 c -4.84433,-0.46719 -9.54818,-0.92894 -14.15787,-1.60046 l 0,-36.68737 z m 87.74806,0.24622 0,36.6566 c -3.94033,0.54741 -7.95596,0.98638 -12.06497,1.38501 l 0,-36.65659 c 4.09207,-0.39069 8.10972,-0.84586 12.06497,-1.38502 z m -382.53972,0.46168 c -80.06977,0 -144.81049,28.42032 -144.81049,63.58734 0.0593,-19.76402 -0.24325,33.98978 -0.24622,54.53862 0,4.14695 1.04775,8.06563 2.55458,11.84952 -1.40522,3.48895 -2.30836,6.97984 -2.30836,10.67998 0.0593,-19.76404 -0.24325,33.98978 -0.24622,54.5386 0,10.57256 5.38505,20.16722 13.44999,27.85409 8.06492,7.68679 18.99291,14.00684 32.03989,19.26697 26.09395,10.52007 61.00651,16.7125 99.56683,16.7125 38.56038,0 73.50356,-6.19243 99.59758,-16.7125 13.04699,-5.26013 23.9442,-11.58018 32.00913,-19.26697 8.06493,-7.68687 13.48076,-17.2819 13.48076,-27.85409 l 0,-54.32318 c 1.4e-4,-0.0446 0,-0.17978 0,-0.21542 0,-3.8397 -0.58399,-7.52888 -2.0929,-11.14165 1.38412,-3.6349 2.0929,-7.42331 2.0929,-11.38785 l 0,-54.53862 c 0,-35.1663 -65.01758,-63.58734 -145.08747,-63.58734 z m 639.72071,0.92334 c 4.6132,0.65808 9.354,1.17645 14.1577,1.63123 l 0,36.65659 c -4.8443,-0.46719 -9.5482,-0.95969 -14.1577,-1.63123 l 0,-36.65659 z m 87.7172,0.21545 0,36.68738 c -3.9403,0.5474 -7.956,0.98636 -12.065,1.38499 l 0,-36.65659 c 4.0921,-0.3907 8.1097,-0.87663 12.065,-1.41578 z m -407.80841,0.70789 c 4.84866,0.29338 9.87608,0.38442 14.86578,0.46167 l 0,36.68736 c -4.99951,-0.0824 -10.02619,-0.16382 -14.86578,-0.46165 l 0,-36.68738 z m 40.16529,0 0,36.68738 c -4.79814,0.29635 -9.66024,0.37773 -14.61956,0.46165 l 0,-36.68736 c 4.93837,-0.0824 9.81941,-0.16681 14.61956,-0.46167 z m 304.76372,1.63123 c 4.8485,0.2934 9.8451,0.38443 14.8349,0.46167 l 0,36.6566 c -4.9995,-0.0824 -9.9953,-0.16383 -14.8349,-0.46167 l 0,-36.6566 z m 40.1345,0 0,36.6566 c -4.7981,0.29637 -9.6603,0.37774 -14.6196,0.46167 l 0,-36.6566 c 4.9384,-0.0824 9.8194,-0.16679 14.6196,-0.46167 z m -704.69301,14.37333 c 70.1947,0 127.20546,20.4623 127.20546,45.7361 -0.16935,25.22195 -57.11503,45.73611 -127.20546,45.73611 -70.09045,0 -126.79087,-20.51416 -126.95924,-45.73611 0,-25.27344 56.76459,-45.7361 126.95924,-45.7361 z m 218.43144,11.6033 c 6.27244,4.13953 13.50087,7.67076 21.57538,10.92619 26.09396,10.51892 61.03728,16.71245 99.5976,16.71245 18.64849,0 36.33641,-1.47006 52.69193,-4.18581 -0.85291,1.71057 -1.77237,3.35862 -2.55456,5.10915 -15.42567,2.40289 -32.22252,3.72413 -50.13737,3.72413 -56.94846,0 -105.04243,-13.68167 -121.17298,-32.28611 z m 588.16747,0.70789 c -15.3632,19.08456 -64.1974,32.96324 -122.0963,32.96324 -15.7542,0 -30.6946,-1.33769 -44.5666,-3.26247 -0.6774,-1.58534 -1.3583,-3.06299 -2.0929,-4.6167 14.6583,2.10811 30.3071,3.47791 46.6595,3.47791 38.5603,0 73.5035,-6.19307 99.5976,-16.71244 8.5563,-3.44966 15.9775,-7.40219 22.4987,-11.84954 z m -594.19995,16.46623 c 2.32051,1.85548 4.94798,3.61813 7.66371,5.35537 l 0,32.96324 c -5.44974,-5.30477 -7.66371,-10.13404 -7.66371,-14.61955 0,-13.24632 -0.0297,-18.50636 0,-23.69906 z m 599.30905,1.16957 c 0.029,5.63789 0,10.60556 0,23.9145 0,4.39015 -2.006,8.98992 -7.202,14.15788 l 0,-32.96324 c 2.5917,-1.67499 4.976,-3.32541 7.202,-5.10914 z m -580.96536,9.97207 c 3.44757,1.72319 7.04814,3.34283 10.89541,4.8937 l 0,35.97948 c -3.97413,-1.80861 -7.68016,-3.61589 -10.89541,-5.57082 l 0,-35.30236 z m 563.08336,1.41578 0,35.05615 c -3.3877,2.08269 -7.3569,3.8681 -11.6033,5.78626 l 0,-35.73326 c 4.1059,-1.6418 7.9489,-3.27237 11.6033,-5.10915 z m -541.26177,7.41751 c 3.45871,1.14831 6.95837,2.25157 10.64919,3.26247 l 0,36.65658 c -3.76608,-1.07989 -7.22999,-2.25681 -10.64919,-3.47791 l 0,-36.44114 z m 518.97857,1.63123 0,36.19493 c -3.4537,1.22532 -7.094,2.39631 -10.8954,3.47791 l 0,-36.44115 c 3.7312,-1.01299 7.3987,-2.07856 10.8954,-3.23169 z m -497.64942,4.18581 c 3.34427,0.75017 6.73002,1.42483 10.2183,2.06212 l 0,36.68737 c -3.47454,-0.65363 -6.93026,-1.33157 -10.2183,-2.0929 l 0,-36.65659 z m 476.07392,1.60045 0,36.68737 c -3.7698,0.86657 -7.592,1.58863 -11.6032,2.30835 l 0,-36.65659 c 3.9595,-0.69523 7.8246,-1.49862 11.6032,-2.33913 z m -455.17565,2.33913 c 4.61341,0.66105 9.35409,1.17592 14.15787,1.63124 l 0,36.65658 c -4.84433,-0.46793 -9.54818,-0.95977 -14.15787,-1.63123 l 0,-36.65659 z m 87.74806,0.21545 0,1.87746 c -2.96932,11.18756 -4.64747,22.89947 -4.64747,35.02536 0,0.078 -1.6e-4,0.16823 0,0.24622 -2.46618,0.29414 -4.88611,0.67748 -7.4175,0.92333 l 0,-36.65658 c 4.09207,-0.39368 8.10972,-0.87656 12.06497,-1.41579 z m 344.89819,1.41579 0,36.65658 c -3.9403,0.54742 -7.956,0.98639 -12.065,1.38501 l 0,-36.65659 c 4.0921,-0.3907 8.1097,-0.84585 12.065,-1.385 z m -81.0077,0.46167 c 2.4792,0.28299 4.9253,0.68416 7.4482,0.92333 l 0,36.65659 c -1.0371,-0.10029 -2.0039,-0.33391 -3.0161,-0.46167 0.012,-0.70709 0.2153,-1.38349 0.2153,-2.09289 0,-12.11386 -1.6939,-23.84777 -4.6474,-35.02536 z m -326.80071,0.46166 c 4.84866,0.29711 9.87608,0.3874 14.86578,0.46167 l 0,36.65659 c -4.99951,-0.0818 -10.02619,-0.16456 -14.86578,-0.46167 l 0,-36.65659 z m 40.16529,0 0,36.65659 c -4.79814,0.29711 -9.66024,0.37997 -14.61956,0.46167 l 0,-36.65659 c 4.93837,-0.0818 9.81941,-0.17199 14.61956,-0.46167 z m 304.76372,1.38501 c 4.8485,0.29339 9.8451,0.38443 14.8349,0.46167 l 0,36.68738 c -4.9995,-0.0824 -9.9953,-0.16383 -14.8349,-0.46167 l 0,-36.68738 z m 40.1345,0 0,36.68738 c -4.7981,0.29635 -9.6603,0.37774 -14.6196,0.46167 l 0,-36.68738 c 4.9384,-0.0824 9.8194,-0.16679 14.6196,-0.46167 z M 328.0166,408.0035 c 2.32052,1.85527 4.94798,3.61844 7.66372,5.35537 l 0,32.96323 c -5.44976,-5.30492 -7.66372,-9.91865 -7.66372,-14.40409 0,-13.24664 -0.0297,-18.72234 0,-23.91451 z m 254.38015,0 c 0.0298,5.63783 0,10.60556 0,23.91451 0,4.39014 -2.00601,8.98991 -7.20205,14.15787 l 0,-32.96323 c 2.59177,-1.67506 4.97607,-3.32534 7.20205,-5.10915 z m -17.88202,11.14163 0,35.30238 c -3.38772,2.08267 -7.35689,3.86801 -11.60331,5.78625 l 0,-35.73326 c 4.1059,-1.64186 7.94895,-3.51867 11.60331,-5.35537 z m -218.18523,0.24622 c 3.44758,1.72334 7.07894,3.31257 10.9262,4.86293 l 0,35.97948 c -3.97412,-1.80883 -7.71095,-3.61573 -10.9262,-5.57083 l 0,-35.27158 z m 327.29323,0.7079 c 6.27244,4.13946 13.50087,7.88621 21.57538,11.14164 26.09396,10.51893 61.03728,16.71245 99.5976,16.71245 13.82264,0 27.03162,-0.83675 39.67284,-2.33912 0.18718,1.39073 0.47912,2.80858 0.70789,4.1858 -12.71667,1.58505 -26.14839,2.55457 -40.38073,2.55457 -56.94846,0 -105.04245,-13.65106 -121.17298,-32.25534 z m 587.95197,0.92334 c -15.5976,18.95086 -64.2463,32.71701 -121.8808,32.71701 -12.4907,0 -24.3637,-0.65158 -35.7333,-1.84668 0.2607,-1.43752 0.2463,-2.94848 0.4617,-4.40126 11.3123,1.19176 23.0592,1.84669 35.2716,1.84669 38.5603,0 73.5035,-6.19307 99.5976,-16.71244 8.4572,-3.40971 15.8118,-7.21994 22.2832,-11.60332 z m -893.4236,7.20205 c 3.45873,1.14845 6.98914,2.22094 10.67998,3.2317 l 0,36.44115 c -3.76608,-1.07991 -7.26076,-2.25691 -10.67998,-3.47792 l 0,-36.19493 z m 174.08036,0 0,36.44115 c -3.45366,1.22534 -7.09405,2.39631 -10.8954,3.47792 l 0,-36.68737 c 3.73131,-1.01299 7.39881,-2.07858 10.8954,-3.2317 z m -152.72043,5.78627 c 3.34427,0.75009 6.73002,1.45614 10.21831,2.09291 l 0,36.68737 c -3.47456,-0.65141 -6.93027,-1.33167 -10.21831,-2.09291 l 0,-36.68737 z m 131.14505,0 0,36.68737 c -3.76993,0.86657 -7.59211,1.58861 -11.60329,2.30834 l 0,-36.44113 c 3.95963,-0.69523 7.82466,-1.71401 11.60329,-2.55458 z m 146.93417,3.26246 c 2.32051,1.85549 4.94798,3.58736 7.66371,5.3246 l 0,32.96323 c -5.44974,-5.30477 -7.66371,-10.13403 -7.66371,-14.61954 0,-13.24634 -0.0297,-18.47558 0,-23.66829 z m -257.18095,0.67712 c 4.61341,0.65808 9.35409,1.17644 14.15789,1.63124 l 0,36.68737 c -4.84434,-0.46719 -9.5482,-0.95972 -14.15789,-1.63124 l 0,-36.68737 z m 87.74806,0.24622 0,36.68737 c -3.94032,0.54743 -7.98674,0.98638 -12.09574,1.38502 l 0,-36.68737 c 4.09207,-0.39069 8.14048,-0.84585 12.09574,-1.38502 z m 768.74194,0.24623 c 0.029,5.63782 0,10.5747 0,23.88373 0,4.39013 -2.006,8.98984 -7.202,14.15787 l 0,-32.96323 c 2.5917,-1.67507 4.976,-3.29465 7.202,-5.07837 z m -831.65216,1.84668 c 4.84865,0.29339 9.87608,0.59987 14.86577,0.67711 l 0,36.68737 c -4.99949,-0.0824 -10.02619,-0.16382 -14.86577,-0.46166 l 0,-36.90282 z m 40.16528,0 0,36.90282 c -4.79814,0.29636 -9.69101,0.37773 -14.65032,0.46166 l 0,-36.68737 c 4.93837,-0.0824 9.85018,-0.38224 14.65032,-0.67711 z m 210.52152,8.12539 c 3.44757,1.72319 7.04814,3.31278 10.89541,4.86292 l 0,35.97949 c -3.97413,-1.80862 -7.68016,-3.61588 -10.89541,-5.57082 l 0,-35.27159 z m 563.08336,1.38501 0,35.05614 c -3.3877,2.08268 -7.3569,3.86809 -11.6033,5.78626 l 0,-35.73324 c 4.1059,-1.64188 7.9489,-3.2724 11.6033,-5.10916 z m -541.26177,7.4175 c 3.45871,1.1483 6.95837,2.25156 10.64919,3.26246 l 0,36.68737 c -3.76608,-1.07996 -7.22999,-2.2876 -10.64919,-3.50868 l 0,-36.44115 z m 518.97857,1.63124 0,36.2257 c -3.4537,1.22539 -7.094,2.39631 -10.8954,3.47791 l 0,-36.44115 c 3.7312,-1.01297 7.3987,-2.10934 10.8954,-3.26246 z m -497.64942,4.1858 c 3.34427,0.75019 6.73002,1.45561 10.2183,2.0929 l 0,36.6566 c -3.47454,-0.65363 -6.93026,-1.33158 -10.2183,-2.09291 l 0,-36.65659 z m 476.07392,1.63123 0,36.65659 c -3.7698,0.86659 -7.592,1.61939 -11.6032,2.33913 l 0,-36.68737 c 3.9595,-0.69522 7.8246,-1.46777 11.6032,-2.30835 z m -627.40934,2.09291 c -14.77424,19.41129 -64.01296,33.64034 -122.55797,33.64034 -58.28551,0 -107.10634,-14.14486 -122.06555,-33.4249 6.5076,4.47794 13.92477,8.60818 22.49872,12.06497 26.09395,10.51902 61.25273,16.71246 99.81305,16.71246 38.56038,0 73.47279,-6.19308 99.56681,-16.71246 8.71322,-3.51301 16.16851,-7.71209 22.74494,-12.28041 z m 172.23369,0.21544 c 4.61341,0.66106 9.35409,1.17593 14.15787,1.63123 l 0,36.6566 c -4.84433,-0.46795 -9.54818,-0.929 -14.15787,-1.60046 l 0,-36.68737 z m 87.74806,0.24623 0,36.65658 c -3.94033,0.54966 -7.95596,0.98691 -12.06497,1.38502 l 0,-36.6566 c 4.09207,-0.39364 8.10972,-0.84577 12.06497,-1.385 z m 344.89819,1.385 0,36.6566 c -3.9403,0.54742 -7.956,1.01716 -12.065,1.41578 l 0,-36.68737 c 4.0921,-0.39069 8.1097,-0.84583 12.065,-1.38501 z m -83.0699,0.24622 c 3.1551,0.38475 6.279,0.83285 9.5104,1.13879 l 0,36.68737 c -4.8443,-0.46719 -9.5482,-0.95962 -14.1577,-1.63123 l 0,-23.66828 c 1.7566,-4.07594 3.2867,-8.25727 4.6473,-12.52665 z m -324.73851,0.67712 c 4.84866,0.28968 9.87608,0.38741 14.86578,0.46167 l 0,36.68737 c -4.99951,-0.0818 -10.02619,-0.16456 -14.86578,-0.46167 l 0,-36.68737 z m 40.16529,0 0,36.68737 c -4.79814,0.29711 -9.66024,0.37997 -14.61956,0.46167 l 0,-36.68737 c 4.93837,-0.0818 9.81941,-0.17199 14.61956,-0.46167 z m 304.76372,1.38502 c 4.8485,0.29338 9.8451,0.38442 14.8349,0.46167 l 0,36.68738 c -4.9995,-0.0824 -9.9953,-0.16385 -14.8349,-0.46167 l 0,-36.68738 z m 40.1345,0 0,36.68738 c -4.7981,0.29635 -9.6603,0.37773 -14.6196,0.46167 l 0,-36.68738 c 4.9384,-0.0824 9.8194,-0.16681 14.6196,-0.46167 z m -577.48755,14.15788 c 0.0298,5.63783 0,10.60556 0,23.9145 0,4.39021 -2.00601,8.98992 -7.20205,14.15787 l 0,-32.96322 c 2.59177,-1.67508 4.97607,-3.32535 7.20205,-5.10915 z m -254.38015,0.24622 c 2.32052,1.85525 4.94798,3.58765 7.66372,5.32459 l 0,32.96324 c -5.44976,-5.30492 -7.66372,-10.13412 -7.66372,-14.61955 0,-13.24663 -0.0297,-18.47603 0,-23.66828 z m 520.60982,5.32459 c 1.89048,3.60623 3.83846,7.05646 6.03249,10.46452 -2.00053,0.39812 -3.94972,0.7651 -6.03249,1.13879 l 0,-11.60331 z m -502.29692,5.81704 c 3.44758,1.72335 7.07894,3.31257 10.9262,4.86292 l 0,35.97949 c -3.97412,-1.80884 -7.71095,-3.6158 -10.9262,-5.57083 l 0,-35.27158 z m 218.18523,0 0,35.05613 c -3.38772,2.0827 -7.35689,3.86803 -11.60331,5.78628 l 0,-35.73326 c 4.1059,-1.64186 7.94895,-3.27245 11.60331,-5.10915 z m 519.71707,4.86292 0,1.87746 c -0.3185,-0.0593 -0.606,-0.18755 -0.9232,-0.24622 0.3461,-0.51993 0.5846,-1.1064 0.9232,-1.63124 z m -716.0807,3.97036 c 3.45873,1.14847 6.98914,2.22095 10.67998,3.2317 l 0,36.68737 c -3.76608,-1.07982 -7.26076,-2.2569 -10.67998,-3.47791 l 0,-36.44116 z m 174.08036,0.21545 0,36.22571 c -3.45366,1.22532 -7.09405,2.39631 -10.8954,3.47791 l 0,-36.44116 c 3.73131,-1.01288 7.39881,-2.10934 10.8954,-3.26246 z m -152.72043,5.57083 c 3.34427,0.75009 6.73002,1.45613 10.21831,2.09289 l 0,36.65656 c -3.47456,-0.65136 -6.93027,-1.30083 -10.21831,-2.06208 l 0,-36.68737 z m 131.14505,0.24622 0,36.65659 c -3.76993,0.86657 -7.59211,1.61942 -11.60329,2.33908 l 0,-36.68732 c 3.95963,-0.69522 7.82466,-1.46778 11.60329,-2.30835 z M 410.4093,515.0186 c 4.61341,0.65808 9.35409,1.17644 14.15789,1.63123 l 0,36.68743 c -4.84434,-0.46724 -9.5482,-0.95979 -14.15789,-1.63129 l 0,-36.68737 z m 87.74806,0.24622 0,36.65654 c -3.94032,0.5475 -7.98674,1.01721 -12.09574,1.4159 l 0,-36.68743 c 4.09207,-0.3907 8.14048,-0.84584 12.09574,-1.38501 z m -62.91022,2.30835 c 4.84865,0.29339 9.87608,0.38443 14.86577,0.46167 l 0,36.68737 c -4.99949,-0.0824 -10.02619,-0.16379 -14.86577,-0.46172 l 0,-36.68732 z m 40.16528,0 0,36.68732 c -4.79814,0.29645 -9.69101,0.37781 -14.65032,0.46172 l 0,-36.68737 c 4.93837,-0.0824 9.85018,-0.1668 14.65032,-0.46167 z"
       id="path3332"
       inkscape:connector-curvature="0" />
  </g>
</svg>
