<?xml version="1.0" encoding="UTF-8" standalone="no"?>
<!-- Created with Inkscape (http://www.inkscape.org/) -->

<svg
   xmlns:dc="http://purl.org/dc/elements/1.1/"
   xmlns:cc="http://creativecommons.org/ns#"
   xmlns:rdf="http://www.w3.org/1999/02/22-rdf-syntax-ns#"
   xmlns:svg="http://www.w3.org/2000/svg"
   xmlns="http://www.w3.org/2000/svg"
   xmlns:sodipodi="http://sodipodi.sourceforge.net/DTD/sodipodi-0.dtd"
   xmlns:inkscape="http://www.inkscape.org/namespaces/inkscape"
   width="131.21921"
   height="124.1558"
   id="svg3421"
   version="1.1"
   inkscape:version="0.48.5 r10040"
   sodipodi:docname="Neues Dokument 10">
  <defs
     id="defs3423" />
  <sodipodi:namedview
     id="base"
     pagecolor="#ffffff"
     bordercolor="#666666"
     borderopacity="1.0"
     inkscape:pageopacity="0.0"
     inkscape:pageshadow="2"
     inkscape:zoom="0.49497475"
     inkscape:cx="39.944432"
     inkscape:cy="87.637355"
     inkscape:document-units="px"
     inkscape:current-layer="layer1"
     showgrid="false"
     fit-margin-top="0"
     fit-margin-left="0"
     fit-margin-right="0"
     fit-margin-bottom="0"
     inkscape:window-width="1366"
     inkscape:window-height="721"
     inkscape:window-x="-4"
     inkscape:window-y="-4"
     inkscape:window-maximized="1" />
  <metadata
     id="metadata3426">
    <rdf:RDF>
      <cc:Work
         rdf:about="">
        <dc:format>image/svg+xml</dc:format>
        <dc:type
           rdf:resource="http://purl.org/dc/dcmitype/StillImage" />
        <dc:title></dc:title>
      </cc:Work>
    </rdf:RDF>
  </metadata>
  <g
     inkscape:label="Ebene 1"
     inkscape:groupmode="layer"
     id="layer1"
     transform="translate(-284.3904,-470.28426)">
    <path
       inkscape:connector-curvature="0"
       style="fill:#000000;fill-opacity:1;fill-rule:nonzero;stroke:none"
       d="m 349.64035,470.28426 c -10.78007,0 -19.5,3.82784 -19.5,8.5625 0.008,-2.6609 -0.0308,4.57719 -0.0312,7.34375 0,0.56755 0.10327,1.10808 0.3125,1.625 -0.1797,0.45814 -0.28125,0.92112 -0.28125,1.40625 0.008,-2.6609 -0.0308,4.57719 -0.0312,7.34375 0,0.56587 0.1059,1.10863 0.3125,1.625 -0.17268,0.44934 -0.28125,0.89972 -0.28125,1.375 0.008,-2.66089 -0.0308,4.57719 -0.0312,7.34375 0,0.55781 0.11143,1.11518 0.3125,1.625 -0.17355,0.45044 -0.28125,0.92974 -0.28125,1.40625 0.008,-2.66089 -0.0308,4.57719 -0.0312,7.34375 0,0.55781 0.11143,1.08393 0.3125,1.59375 -0.17355,0.45044 -0.28125,0.92974 -0.28125,1.40625 0.008,-2.66089 -0.0308,4.57719 -0.0312,7.34375 0,0.55781 0.11143,1.08393 0.3125,1.59375 -0.1797,0.45814 -0.28125,0.92111 -0.28125,1.40625 0.008,-2.6609 -0.0308,4.57718 -0.0312,7.34375 0,0.56586 0.1059,1.10863 0.3125,1.625 -0.17268,0.44934 -0.28125,0.89972 -0.28125,1.375 0.008,-2.66089 -0.0308,4.57719 -0.0312,7.34375 0,0.56587 0.1059,1.10863 0.3125,1.625 -0.17268,0.44934 -0.28125,0.89972 -0.28125,1.375 0.008,-2.6609 -0.0308,4.57719 -0.0312,7.34375 0,0.55781 0.11143,1.11518 0.3125,1.625 -0.17355,0.45044 -0.28125,0.92974 -0.28125,1.40625 0.008,-2.66089 -0.0308,4.57714 -0.0312,7.34375 0,0.5578 0.11143,1.08393 0.3125,1.59375 -0.17355,0.45045 -0.28125,0.92977 -0.28125,1.40625 0.008,-2.6609 -0.0308,4.57714 -0.0312,7.34375 0,1.4234 0.72669,2.7151 1.8125,3.75 1.08581,1.0349 2.55594,1.88555 4.3125,2.59375 3.51312,1.41619 8.21474,2.25 13.40625,2.25 3.5159,0 6.77579,-0.40636 9.625,-1.09375 3.37631,3.90419 8.37635,6.375 13.9375,6.375 5.42442,0 10.26328,-2.35485 13.625,-6.09375 2.75957,0.63289 5.89028,1 9.25,1 5.19152,0 9.89312,-0.83375 13.40625,-2.25 1.75656,-0.70821 3.22669,-1.55886 4.3125,-2.59375 1.08581,-1.03491 1.8125,-2.32664 1.8125,-3.75 l 0,-7.3125 c 2e-5,-0.006 0,-0.0264 0,-0.0312 0,-0.49815 -0.12345,-0.96777 -0.3125,-1.4375 0.1939,-0.50116 0.3125,-1.01532 0.3125,-1.5625 l 0,-7.3125 c 2e-5,-0.006 0,-0.0264 0,-0.0312 0,-0.49815 -0.12345,-0.96777 -0.3125,-1.4375 0.1939,-0.50116 0.3125,-1.01532 0.3125,-1.5625 l 0,-7.3125 c 2e-5,-0.006 0,-0.0264 0,-0.0312 0,-0.49815 -0.12345,-0.96777 -0.3125,-1.4375 0.19449,-0.50187 0.3125,-1.01445 0.3125,-1.5625 l 0,-7.3125 c 2e-5,-0.006 0,-0.0264 0,-0.0312 0,-0.4859 -0.10113,-0.97867 -0.28125,-1.4375 0.19144,-0.49815 0.28125,-1.019 0.28125,-1.5625 l 0,-7.3125 c 2e-5,-0.006 0,-0.0264 0,-0.0312 0,-0.49851 -0.12319,-0.9987 -0.3125,-1.46875 -0.004,-0.009 0.004,-0.0221 0,-0.0312 0.1953,-0.50038 0.3125,-1.01532 0.3125,-1.5625 l 0,-7.3125 c 2e-5,-0.006 0,-0.0264 0,-0.0312 0,-4.73456 -8.75116,-8.5625 -19.53125,-8.5625 -10.78007,0 -19.53125,3.82784 -19.53125,8.5625 0.008,-2.6609 4e-4,4.57719 0,7.34375 0,0.5472 0.1172,1.06212 0.3125,1.5625 0.003,0.009 -0.003,0.0227 0,0.0312 -0.18945,0.47005 -0.28125,0.97023 -0.28125,1.46875 0.008,-2.6609 -0.0308,4.57719 -0.0312,7.34375 0,0.54352 0.0898,1.06436 0.28125,1.5625 -0.18026,0.45883 -0.25,0.95158 -0.25,1.4375 0.008,-2.66089 -0.0308,4.57719 -0.0312,7.34375 0,0.54807 0.11801,1.06063 0.3125,1.5625 -0.18919,0.46973 -0.28125,0.93934 -0.28125,1.4375 0.006,-1.90227 -0.0196,2.18573 -0.0312,5.25 -1.09013,-0.20113 -2.19488,-0.3125 -3.34375,-0.3125 -1.37997,0 -2.73767,0.14995 -4.03125,0.4375 l 0,-5.5625 c 2e-5,-0.006 0,-0.0264 0,-0.0312 0,-0.49841 -0.12326,-0.96754 -0.3125,-1.4375 0.1939,-0.50116 0.3125,-1.01532 0.3125,-1.5625 l 0,-7.3125 c 2e-5,-0.006 0,-0.0264 0,-0.0312 0,-0.49841 -0.12326,-0.96754 -0.3125,-1.4375 0.1939,-0.50116 0.3125,-1.01532 0.3125,-1.5625 l 0,-7.3125 c 2e-5,-0.006 0,-0.0264 0,-0.0312 0,-0.4984 -0.12326,-0.96754 -0.3125,-1.4375 0.19449,-0.50187 0.3125,-1.01445 0.3125,-1.5625 l 0,-7.3125 c 2e-5,-0.006 0,-0.0264 0,-0.0312 0,-0.49556 -0.0941,-1.00132 -0.28125,-1.46875 0.185,-0.49014 0.28125,-0.99749 0.28125,-1.53125 l 0,-7.3125 c 2e-5,-0.006 0,-0.0264 0,-0.0312 0,-0.49556 -0.0941,-1.00132 -0.28125,-1.46875 0.185,-0.49014 0.28125,-1.02874 0.28125,-1.5625 l 0,-7.3125 c 2e-5,-0.006 0,-0.0264 0,-0.0312 0,-0.49841 -0.12326,-0.96754 -0.3125,-1.4375 0.1939,-0.50116 0.3125,-1.01532 0.3125,-1.5625 l 0,-7.3125 c 2e-5,-0.006 0,-0.0264 0,-0.0312 0,-0.49841 -0.12326,-0.96754 -0.3125,-1.4375 -0.004,-0.009 0.004,-0.022 0,-0.0312 0.19589,-0.50109 0.3125,-1.01445 0.3125,-1.5625 l 0,-7.34375 c 0,-4.73456 -8.75116,-8.5625 -19.53125,-8.5625 z m 0,2.40625 c 9.45056,0 17.125,2.75355 17.125,6.15625 -0.0228,3.39572 -7.68848,6.15625 -17.125,6.15625 -9.43652,0 -17.07108,-2.76053 -17.09375,-6.15625 0,-3.40265 7.6432,-6.15625 17.09375,-6.15625 z m -17.125,10.28125 c 0.31242,0.24978 0.66562,0.4849 1.03125,0.71875 l 0,4.4375 c -0.73372,-0.71422 -1.03125,-1.33361 -1.03125,-1.9375 0,-1.78344 -0.004,-2.51971 0,-3.21875 z m 34.25,0 c 0.004,0.75904 0,1.42692 0,3.21875 0,0.59106 -0.26919,1.21047 -0.96875,1.90625 l 0,-4.4375 c 0.34894,-0.22552 0.66906,-0.44734 0.96875,-0.6875 z m -2.40625,1.5 0,4.71875 c -0.4561,0.2804 -0.99079,0.55424 -1.5625,0.8125 l 0,-4.8125 c 0.55279,-0.22105 1.0705,-0.47147 1.5625,-0.71875 z m -29.375,0.0312 c 0.46416,0.23202 0.95078,0.44752 1.46875,0.65625 l 0,4.8125 c -0.53505,-0.24353 -1.03587,-0.48678 -1.46875,-0.75 l 0,-4.71875 z m 2.9375,1.1875 c 0.46566,0.15462 0.94059,0.30142 1.4375,0.4375 l 0,4.90625 c -0.50704,-0.14539 -0.97716,-0.30436 -1.4375,-0.46875 l 0,-4.875 z m 23.4375,0 0,4.90625 c -0.46498,0.16497 -0.95696,0.32313 -1.46875,0.46875 l 0,-4.9375 c 0.50236,-0.13638 0.99799,-0.28225 1.46875,-0.4375 z m -20.5625,0.78125 c 0.45025,0.10099 0.90536,0.19552 1.375,0.28125 l 0,4.9375 c -0.46779,-0.0877 -0.93232,-0.17876 -1.375,-0.28125 l 0,-4.9375 z m 17.65625,0 0,4.9375 c -0.50756,0.11667 -1.02246,0.2156 -1.5625,0.3125 l 0,-4.9375 c 0.5331,-0.0936 1.05377,-0.19933 1.5625,-0.3125 z m -14.84375,0.53125 c 0.62112,0.0886 1.2595,0.15752 1.90625,0.21875 l 0,4.9375 c -0.65221,-0.0629 -1.28563,-0.12834 -1.90625,-0.21875 l 0,-4.9375 z m 11.8125,0.0312 0,4.9375 c -0.5305,0.0737 -1.07179,0.13383 -1.625,0.1875 l 0,-4.96875 c 0.55093,-0.0526 1.09249,-0.0837 1.625,-0.15625 z m -8.46875,0.28125 c 0.65279,0.0395 1.32822,0.0833 2,0.0937 l 0,4.9375 c -0.6731,-0.0111 -1.34843,-0.0224 -2,-0.0625 l 0,-4.96875 z m 5.40625,0 0,4.96875 c -0.64599,0.0399 -1.30106,0.0512 -1.96875,0.0625 l 0,-4.9375 c 0.66487,-0.0111 1.32249,-0.054 1.96875,-0.0937 z m 13.78125,3.5625 c -1.98911,2.61341 -8.61788,4.53125 -16.5,4.53125 -7.84718,0 -14.42349,-1.90426 -16.4375,-4.5 0.87614,0.60288 1.87691,1.1596 3.03125,1.625 3.51312,1.41621 8.21474,2.25 13.40625,2.25 5.19152,0 9.89312,-0.83374 13.40625,-2.25 1.17309,-0.47297 2.20834,-1.0412 3.09375,-1.65625 z m 0.625,2.46875 c 0.004,0.75904 0,1.42692 0,3.21875 0,0.59107 -0.26919,1.21047 -0.96875,1.90625 l 0,-4.4375 c 0.34894,-0.22552 0.66906,-0.44734 0.96875,-0.6875 z m -34.25,0.0312 c 0.31242,0.24978 0.66562,0.4849 1.03125,0.71875 l 0,4.4375 c -0.73372,-0.71422 -1.03125,-1.36486 -1.03125,-1.96875 0,-1.78344 -0.004,-2.48845 0,-3.1875 z m 2.46875,1.5 c 0.46416,0.23202 0.95078,0.44752 1.46875,0.65625 l 0,4.84375 c -0.53505,-0.24353 -1.03587,-0.48679 -1.46875,-0.75 l 0,-4.75 z m 29.375,0 0,4.71875 c -0.4561,0.2804 -0.99079,0.52299 -1.5625,0.78125 l 0,-4.8125 c 0.55279,-0.22105 1.0705,-0.44022 1.5625,-0.6875 z m -26.4375,1.1875 c 0.46566,0.15462 0.94059,0.30142 1.4375,0.4375 l 0,4.9375 c -0.50704,-0.14538 -0.97716,-0.30436 -1.4375,-0.46875 l 0,-4.90625 z m 23.4375,0.0312 0,4.875 c -0.46498,0.16497 -0.95696,0.32313 -1.46875,0.46875 l 0,-4.90625 c 0.50236,-0.13637 0.99799,-0.28225 1.46875,-0.4375 z m -20.5625,0.75 c 0.45025,0.10099 0.90536,0.19552 1.375,0.28125 l 0,4.9375 c -0.46779,-0.0877 -0.93232,-0.17876 -1.375,-0.28125 l 0,-4.9375 z m 17.65625,0.0312 0,4.9375 c -0.50756,0.11667 -1.02246,0.2156 -1.5625,0.3125 l 0,-4.9375 c 0.5331,-0.0936 1.05377,-0.19933 1.5625,-0.3125 z m -14.84375,0.5 c 0.62112,0.0886 1.2595,0.15752 1.90625,0.21875 l 0,4.9375 c -0.65221,-0.0629 -1.28563,-0.12834 -1.90625,-0.21875 l 0,-4.9375 z m 11.8125,0.0312 0,4.9375 c -0.5305,0.0737 -1.07179,0.13383 -1.625,0.1875 l 0,-4.9375 c 0.55093,-0.0526 1.09249,-0.11491 1.625,-0.1875 z m -8.46875,0.3125 c 0.65279,0.0395 1.32822,0.0521 2,0.0625 l 0,4.9375 c -0.6731,-0.0111 -1.34843,-0.0224 -2,-0.0625 l 0,-4.9375 z m 5.40625,0 0,4.9375 c -0.64599,0.0399 -1.30106,0.0512 -1.96875,0.0625 l 0,-4.9375 c 0.66487,-0.0111 1.32249,-0.0228 1.96875,-0.0625 z m 13.6875,3.625 c -2.10205,2.55023 -8.64907,4.40625 -16.40625,4.40625 -7.66717,0 -14.14079,-1.80772 -16.3125,-4.3125 0.84448,0.55732 1.81915,1.03046 2.90625,1.46875 3.51312,1.41622 8.21474,2.25 13.40625,2.25 5.19152,0 9.89312,-0.83374 13.40625,-2.25 1.13317,-0.45686 2.13152,-0.97585 3,-1.5625 z m 0.71875,2.34405 c 0.004,0.75905 0,1.42692 0,3.21875 0,0.59106 -0.26919,1.21047 -0.96875,1.90625 l 0,-4.4375 c 0.34894,-0.22551 0.66906,-0.44735 0.96875,-0.6875 z m -34.25,0.0312 c 0.31242,0.24978 0.66562,0.48491 1.03125,0.71875 l 0,4.4375 c -0.73372,-0.71421 -1.03125,-1.36486 -1.03125,-1.96875 0,-1.78344 -0.004,-2.48844 0,-3.1875 z m 2.46875,1.5 c 0.46416,0.23203 0.95078,0.44753 1.46875,0.65625 l 0,4.84375 c -0.53505,-0.24352 -1.03587,-0.48679 -1.46875,-0.75 l 0,-4.75 z m 29.375,0 0,4.71875 c -0.4561,0.2804 -0.99079,0.523 -1.5625,0.78125 l 0,-4.8125 c 0.55279,-0.22104 1.0705,-0.44021 1.5625,-0.6875 z m -26.4375,1.1875 c 0.46566,0.15463 0.94059,0.30142 1.4375,0.4375 l 0,4.9375 c -0.50704,-0.14538 -0.97716,-0.30435 -1.4375,-0.46875 l 0,-4.90625 z m 23.4375,0.0312 0,4.875 c -0.46498,0.16497 -0.95696,0.32312 -1.46875,0.46875 l 0,-4.90625 c 0.50236,-0.13638 0.99799,-0.28225 1.46875,-0.4375 z m -20.5625,0.75 c 0.45025,0.10099 0.90536,0.19551 1.375,0.28125 l 0,4.9375 c -0.46779,-0.0877 -0.93232,-0.17877 -1.375,-0.28125 l 0,-4.9375 z m 17.65625,0.0312 0,4.9375 c -0.50756,0.11667 -1.02246,0.2156 -1.5625,0.3125 l 0,-4.9375 c 0.5331,-0.0936 1.05377,-0.19934 1.5625,-0.3125 z m -14.84375,0.5 c 0.62112,0.0886 1.2595,0.15751 1.90625,0.21875 l 0,4.9375 c -0.65221,-0.0629 -1.28563,-0.12834 -1.90625,-0.21875 l 0,-4.9375 z m 11.8125,0.0312 0,4.9375 c -0.5305,0.0737 -1.07179,0.13383 -1.625,0.1875 l 0,-4.9375 c 0.55093,-0.0526 1.09249,-0.11491 1.625,-0.1875 z m -8.46875,0.3125 c 0.65279,0.0395 1.32822,0.0521 2,0.0625 l 0,4.9375 c -0.6731,-0.0111 -1.34843,-0.0224 -2,-0.0625 l 0,-4.9375 z m 5.40625,0 0,4.9375 c -0.64599,0.0399 -1.30106,0.0512 -1.96875,0.0625 l 0,-4.9375 c 0.66487,-0.0111 1.32249,-0.0228 1.96875,-0.0625 z m 13.6875,3.625 c -2.10205,2.55023 -8.64907,4.4375 -16.40625,4.4375 -7.66717,0 -14.14079,-1.83897 -16.3125,-4.34375 0.84448,0.55732 1.81915,1.03046 2.90625,1.46875 3.51312,1.41621 8.21474,2.25 13.40625,2.25 5.19152,0 9.89312,-0.83374 13.40625,-2.25 1.13317,-0.45686 2.13152,-0.97585 3,-1.5625 z m 0.71875,2.3752 c 0.004,0.75905 0,1.42692 0,3.21875 0,0.59107 -0.26919,1.21047 -0.96875,1.90625 l 0,-4.4375 c 0.34894,-0.22551 0.66906,-0.44734 0.96875,-0.6875 z m -34.25,0.0312 c 0.31242,0.24977 0.66562,0.4849 1.03125,0.71875 l 0,4.4375 c -0.73372,-0.71422 -1.03125,-1.36487 -1.03125,-1.96875 0,-1.78345 -0.004,-2.48844 0,-3.1875 z m 63.5625,0.1875 c 9.45056,0 17.125,2.75355 17.125,6.15625 0,0.006 4e-5,0.0264 0,0.0312 -0.0228,3.39572 -7.68848,6.15625 -17.125,6.15625 -9.43652,0 -17.10233,-2.76053 -17.125,-6.15625 -4e-5,-0.006 0,-0.0264 0,-0.0312 0,-3.40265 7.67445,-6.15625 17.125,-6.15625 z m -61.09375,1.3125 c 0.46416,0.23202 0.95078,0.44753 1.46875,0.65625 l 0,4.84375 c -0.53505,-0.24353 -1.03587,-0.4868 -1.46875,-0.75 l 0,-4.75 z m 29.375,0 0,4.71875 c -0.4561,0.28039 -0.99079,0.523 -1.5625,0.78125 l 0,-4.8125 c 0.55279,-0.22105 1.0705,-0.44022 1.5625,-0.6875 z m -26.4375,1.1875 c 0.46566,0.15462 0.94059,0.30142 1.4375,0.4375 l 0,4.9375 c -0.50704,-0.14539 -0.97716,-0.30436 -1.4375,-0.46875 l 0,-4.90625 z m 23.4375,0.0312 0,4.875 c -0.46498,0.16498 -0.95696,0.32313 -1.46875,0.46875 l 0,-4.90625 c 0.50236,-0.13638 0.99799,-0.28225 1.46875,-0.4375 z m -20.5625,0.75 c 0.45025,0.10099 0.90536,0.19552 1.375,0.28125 l 0,4.9375 c -0.46779,-0.0877 -0.93232,-0.17876 -1.375,-0.28125 l 0,-4.9375 z m 17.65625,0.0312 0,4.9375 c -0.50756,0.11667 -1.02246,0.2156 -1.5625,0.3125 l 0,-4.9375 c 0.5331,-0.0936 1.05377,-0.19933 1.5625,-0.3125 z m -14.84375,0.5 c 0.62112,0.0886 1.2595,0.15752 1.90625,0.21875 l 0,4.9375 c -0.65221,-0.0629 -1.28563,-0.12834 -1.90625,-0.21875 l 0,-4.9375 z m 11.8125,0.0312 0,4.9375 c -0.5305,0.0737 -1.07179,0.13383 -1.625,0.1875 l 0,-4.9375 c 0.55093,-0.0526 1.09249,-0.11491 1.625,-0.1875 z m -8.46875,0.3127 c 0.65279,0.0395 1.32822,0.0521 2,0.0625 l 0,4.9375 c -0.6731,-0.0111 -1.34843,-0.0224 -2,-0.0625 l 0,-4.9375 z m 5.40625,0 0,4.9375 c -0.64599,0.0399 -1.30106,0.0512 -1.96875,0.0625 l 0,-4.9375 c 0.66487,-0.0111 1.32249,-0.0228 1.96875,-0.0625 z m 13.6875,3.59375 c -2.10205,2.55023 -8.64907,4.4375 -16.40625,4.4375 -7.66717,0 -14.14079,-1.83897 -16.3125,-4.34375 0.84448,0.55732 1.81915,1.06171 2.90625,1.5 3.51312,1.41622 8.21474,2.25 13.40625,2.25 5.19152,0 9.89312,-0.83374 13.40625,-2.25 1.13317,-0.45686 2.13152,-1.0071 3,-1.59375 z m 0.71875,2.375 c 0.004,0.75905 0,1.42692 0,3.21875 0,0.59106 -0.26919,1.21047 -0.96875,1.90625 l 0,-4.4375 c 0.34894,-0.22551 0.66906,-0.44735 0.96875,-0.6875 z m -34.25,0.0312 c 0.31242,0.24978 0.66562,0.48491 1.03125,0.71875 l 0,4.4375 c -0.73372,-0.71421 -1.03125,-1.36486 -1.03125,-1.96875 0,-1.78344 -0.004,-2.48844 0,-3.1875 z m 80.6875,0.125 c 0.004,0.75904 0,1.42692 0,3.21875 0,0.59106 -0.26919,1.21047 -0.96875,1.90625 l 0,-4.4375 c 0.34894,-0.22552 0.66906,-0.44734 0.96875,-0.6875 z m -34.25,0.0312 c 0.31242,0.24978 0.66562,0.4849 1.03125,0.71875 l 0,4.4375 c -0.73372,-0.71422 -1.03125,-1.36486 -1.03125,-1.96875 0,-1.78344 -0.004,-2.48846 0,-3.1875 z m -43.96875,1.3438 c 0.46416,0.23203 0.95078,0.44753 1.46875,0.65625 l 0,4.84375 c -0.53505,-0.24352 -1.03587,-0.48679 -1.46875,-0.75 l 0,-4.75 z m 29.375,0 0,4.71875 c -0.4561,0.2804 -0.99079,0.523 -1.5625,0.78125 l 0,-4.8125 c 0.55279,-0.22104 1.0705,-0.44021 1.5625,-0.6875 z m 17.0625,0.15625 c 0.46416,0.23202 0.95078,0.44752 1.46875,0.65625 l 0,4.84375 c -0.53505,-0.24353 -1.03587,-0.48678 -1.46875,-0.75 l 0,-4.75 z m 29.375,0 0,4.71875 c -0.4561,0.2804 -1.02204,0.52299 -1.59375,0.78125 l 0,-4.8125 c 0.55279,-0.22105 1.10175,-0.44022 1.59375,-0.6875 z m -72.875,1.03125 c 0.46566,0.15463 0.94059,0.30143 1.4375,0.4375 l 0,4.9375 c -0.50704,-0.14538 -0.97716,-0.30435 -1.4375,-0.46875 l 0,-4.90625 z m 23.4375,0.0312 0,4.875 c -0.46498,0.16497 -0.95696,0.32313 -1.46875,0.46875 l 0,-4.90625 c 0.50236,-0.13638 0.99799,-0.28225 1.46875,-0.4375 z m 22.96875,0.125 c 0.46566,0.15462 0.94059,0.30142 1.4375,0.4375 l 0,4.9375 c -0.50704,-0.14539 -0.97716,-0.30436 -1.4375,-0.46875 l 0,-4.90625 z m 23.4375,0.0313 0,4.875 c -0.46498,0.16497 -0.92571,0.32313 -1.4375,0.46875 l 0,-4.90625 c 0.50236,-0.13638 0.96674,-0.28225 1.4375,-0.4375 z m -66.96875,0.59375 c 0.45025,0.10099 0.90536,0.19551 1.375,0.28125 l 0,4.9375 c -0.46779,-0.0877 -0.93232,-0.17876 -1.375,-0.28125 l 0,-4.9375 z m 17.65625,0.0312 0,4.9375 c -0.50756,0.11667 -1.02246,0.2156 -1.5625,0.3125 l 0,-4.9375 c 0.5331,-0.0936 1.05377,-0.19934 1.5625,-0.3125 z m 28.78125,0.125 c 0.45025,0.10099 0.87411,0.19552 1.34375,0.28125 l 0,4.9375 c -0.46779,-0.0877 -0.90107,-0.17876 -1.34375,-0.28125 l 0,-4.9375 z m 17.625,0.0312 0,4.9375 c -0.50756,0.11667 -1.02246,0.2156 -1.5625,0.3125 l 0,-4.9375 c 0.5331,-0.0936 1.05377,-0.19933 1.5625,-0.3125 z m -61.25,0.34385 c 0.62112,0.0886 1.2595,0.15752 1.90625,0.21875 l 0,4.9375 c -0.65221,-0.0629 -1.28563,-0.12834 -1.90625,-0.21875 l 0,-4.9375 z m 11.8125,0.0312 0,4.9375 c -0.5305,0.0737 -1.07179,0.13383 -1.625,0.1875 l 0,-4.9375 c 0.55093,-0.0526 1.09249,-0.11491 1.625,-0.1875 z m 34.625,0.125 c 0.62112,0.0886 1.2595,0.15752 1.90625,0.21875 l 0,4.9375 c -0.65221,-0.0629 -1.28563,-0.12834 -1.90625,-0.21875 l 0,-4.9375 z m 11.8125,0.0312 0,4.9375 c -0.5305,0.0737 -1.07179,0.13383 -1.625,0.1875 l 0,-4.9375 c 0.55093,-0.0526 1.09249,-0.11491 1.625,-0.1875 z m -54.90625,0.15625 c 0.65279,0.0395 1.32822,0.0521 2,0.0625 l 0,4.9375 c -0.6731,-0.0111 -1.34843,-0.0224 -2,-0.0625 l 0,-4.9375 z m 5.40625,0 0,4.9375 c -0.64599,0.0399 -1.30106,0.0512 -1.96875,0.0625 l 0,-4.9375 c 0.66487,-0.0111 1.32249,-0.0228 1.96875,-0.0625 z m 41.03125,0.15635 c 0.65279,0.0395 1.32822,0.0521 2,0.0625 l 0,4.9375 c -0.6731,-0.0111 -1.34843,-0.0224 -2,-0.0625 l 0,-4.9375 z m 5.40625,0 0,4.9375 c -0.64599,0.0399 -1.30106,0.0512 -1.96875,0.0625 l 0,-4.9375 c 0.66487,-0.0111 1.32249,-0.0228 1.96875,-0.0625 z m -32.71875,3.46875 c -2.08898,2.55772 -8.6655,4.40625 -16.4375,4.40625 -7.66717,0 -14.14079,-1.80772 -16.3125,-4.3125 0.84294,0.5555 1.82204,1.03162 2.90625,1.46875 3.51312,1.41621 8.21474,2.25 13.40625,2.25 5.19152,0 9.89312,-0.83374 13.40625,-2.25 1.14004,-0.45964 2.15927,-0.97143 3.03125,-1.5625 z m 46.4375,0.15625 c -2.0684,2.56942 -8.64236,4.46875 -16.4375,4.46875 -7.75718,0 -14.28051,-1.88727 -16.375,-4.4375 0.85759,0.57938 1.85094,1.08058 2.96875,1.53125 3.51312,1.41621 8.21474,2.25 13.40625,2.25 5.19152,0 9.89312,-0.83374 13.40625,-2.25 1.14238,-0.46058 2.16111,-0.96735 3.03125,-1.5625 z m -45.75,2.1875 c 0.004,0.75904 0,1.42691 0,3.21875 0,0.59106 -0.26919,1.21046 -0.96875,1.90625 l 0,-4.4375 c 0.34894,-0.22552 0.66906,-0.44735 0.96875,-0.6875 z m -34.25,0.0312 c 0.31242,0.24978 0.66562,0.4849 1.03125,0.71875 l 0,4.4375 c -0.73372,-0.71421 -1.03125,-1.36487 -1.03125,-1.96875 0,-1.78345 -0.004,-2.48844 0,-3.1875 z m 80.6875,0.1875 c 0.004,0.75904 0,1.42692 0,3.21875 0,0.59107 -0.26919,1.21047 -0.96875,1.90625 l 0,-4.4375 c 0.34894,-0.22552 0.66906,-0.44734 0.96875,-0.6875 z m -34.25,0.0312 c 0.31242,0.24978 0.66562,0.4849 1.03125,0.71875 l 0,4.4375 c -0.73372,-0.71422 -1.03125,-1.36486 -1.03125,-1.96875 0,-1.78344 -0.004,-2.48845 0,-3.1875 z m -43.96875,1.28125 c 0.46416,0.23202 0.95078,0.44753 1.46875,0.65625 l 0,4.84375 c -0.53505,-0.24353 -1.03587,-0.4868 -1.46875,-0.75 l 0,-4.75 z m 29.375,0 0,4.71875 c -0.4561,0.2804 -0.99079,0.523 -1.5625,0.78125 l 0,-4.8125 c 0.55279,-0.22105 1.0705,-0.44021 1.5625,-0.6875 z m 17.0625,0.21875 c 0.46416,0.23202 0.95078,0.44752 1.46875,0.65625 l 0,4.84375 c -0.53505,-0.24353 -1.03587,-0.48679 -1.46875,-0.75 l 0,-4.75 z m 29.375,0 0,4.71875 c -0.4561,0.2804 -0.99079,0.52299 -1.5625,0.78125 l 0,-4.8125 c 0.55279,-0.22105 1.0705,-0.44022 1.5625,-0.6875 z m -72.875,0.96875 c 0.46566,0.15462 0.94059,0.30142 1.4375,0.4375 l 0,4.9375 c -0.50704,-0.14539 -0.97716,-0.30436 -1.4375,-0.46875 l 0,-4.90625 z m 23.4375,0.0312 0,4.875 c -0.46498,0.16498 -0.95696,0.32313 -1.46875,0.46875 l 0,-4.90625 c 0.50236,-0.13638 0.99799,-0.28225 1.46875,-0.4375 z m 23,0.1875 c 0.46566,0.15462 0.94059,0.30142 1.4375,0.4375 l 0,4.9375 c -0.50704,-0.14538 -0.97716,-0.30436 -1.4375,-0.46875 l 0,-4.90625 z m 23.4375,0.0312 0,4.875 c -0.46498,0.16497 -0.95696,0.32313 -1.46875,0.46875 l 0,-4.90625 c 0.50236,-0.13637 0.99799,-0.28225 1.46875,-0.4375 z m -67,0.53125 c 0.45025,0.10099 0.90536,0.19552 1.375,0.28125 l 0,4.9375 c -0.46779,-0.0877 -0.93232,-0.17876 -1.375,-0.28125 l 0,-4.9375 z m 17.65625,0.0312 0,4.9375 c -0.50756,0.11667 -1.02246,0.2156 -1.5625,0.3125 l 0,-4.9375 c 0.5331,-0.0936 1.05377,-0.19933 1.5625,-0.3125 z m 28.78125,0.1875 c 0.45025,0.10099 0.90536,0.19552 1.375,0.28125 l 0,4.9375 c -0.46779,-0.0877 -0.93232,-0.17876 -1.375,-0.28125 l 0,-4.9375 z m 17.65625,0.0312 0,4.9375 c -0.50756,0.11667 -1.02246,0.2156 -1.5625,0.3125 l 0,-4.9375 c 0.5331,-0.0936 1.05377,-0.19933 1.5625,-0.3125 z m -61.28125,0.28125 c 0.62112,0.0886 1.2595,0.15752 1.90625,0.21875 l 0,4.9375 c -0.65221,-0.0629 -1.28563,-0.12833 -1.90625,-0.21875 l 0,-4.9375 z m 11.8125,0.0312 0,4.9375 c -0.5305,0.0737 -1.07179,0.13383 -1.625,0.1875 l 0,-4.9375 c 0.55093,-0.0526 1.09249,-0.11491 1.625,-0.1875 z m 34.625,0.1875 c 0.62112,0.0886 1.2595,0.15752 1.90625,0.21875 l 0,4.9375 c -0.65221,-0.0629 -1.28563,-0.12834 -1.90625,-0.21875 l 0,-4.9375 z m 11.8125,0.0312 0,4.9375 c -0.5305,0.0737 -1.07179,0.13383 -1.625,0.1875 l 0,-4.9375 c 0.55093,-0.0526 1.09249,-0.11491 1.625,-0.1875 z m -54.90625,0.0937 c 0.65279,0.0395 1.32822,0.0521 2,0.0625 l 0,4.9375 c -0.6731,-0.0111 -1.34843,-0.0224 -2,-0.0625 l 0,-4.9375 z m 5.40625,0 0,4.9375 c -0.64599,0.0399 -1.30106,0.0512 -1.96875,0.0625 l 0,-4.9375 c 0.66487,-0.0111 1.32249,-0.0228 1.96875,-0.0625 z m 41.03125,0.21875 c 0.65279,0.0395 1.32822,0.0521 2,0.0625 l 0,4.9375 c -0.6731,-0.0111 -1.34843,-0.0224 -2,-0.0625 l 0,-4.9375 z m 5.40625,0 0,4.9375 c -0.64599,0.0399 -1.30106,0.0512 -1.96875,0.0625 l 0,-4.9375 c 0.66487,-0.0111 1.32249,-0.0228 1.96875,-0.0625 z m -32.71875,3.40625 c -2.08898,2.55772 -8.6655,4.40625 -16.4375,4.40625 -7.66717,0 -14.14079,-1.80772 -16.3125,-4.3125 0.84294,0.55549 1.82204,1.03162 2.90625,1.46875 3.51312,1.41621 8.21474,2.25 13.40625,2.25 5.19152,0 9.89312,-0.83375 13.40625,-2.25 1.14004,-0.45964 2.15927,-0.97143 3.03125,-1.5625 z m 46.40625,0.1875 c -2.09997,2.55142 -8.64672,4.4375 -16.40625,4.4375 -7.66717,0 -14.14079,-1.83897 -16.3125,-4.34375 0.84448,0.55732 1.81915,1.06171 2.90625,1.5 3.51312,1.41622 8.21474,2.25 13.40625,2.25 5.19152,0 9.89312,-0.83374 13.40625,-2.25 1.13862,-0.45906 2.12874,-1.0036 3,-1.59375 z m -45.71875,2.1567 c 0.004,0.75905 0,1.42692 0,3.21875 0,0.59107 -0.26919,1.21047 -0.96875,1.90625 l 0,-4.4375 c 0.34894,-0.2255 0.66906,-0.44734 0.96875,-0.6875 z m -34.25,0.0312 c 0.31242,0.24977 0.66562,0.48491 1.03125,0.71875 l 0,4.4375 c -0.73372,-0.71421 -1.03125,-1.36487 -1.03125,-1.96875 0,-1.78345 -0.004,-2.48844 0,-3.1875 z m 80.6875,0.1875 c 0.004,0.75905 0,1.42692 0,3.21875 0,0.59106 -0.26919,1.21047 -0.96875,1.90625 l 0,-4.4375 c 0.34894,-0.22551 0.66906,-0.44735 0.96875,-0.6875 z m -34.25,0.0312 c 0.31242,0.24978 0.66562,0.48491 1.03125,0.71875 l 0,4.4375 c -0.73372,-0.71421 -1.03125,-1.36486 -1.03125,-1.96875 0,-1.78344 -0.004,-2.48844 0,-3.1875 z m -43.96875,1.28125 c 0.46416,0.23203 0.95078,0.44753 1.46875,0.65625 l 0,4.84375 c -0.53505,-0.24352 -1.03587,-0.4868 -1.46875,-0.75 l 0,-4.75 z m 29.375,0 0,4.71875 c -0.4561,0.28039 -0.99079,0.523 -1.5625,0.78125 l 0,-4.8125 c 0.55279,-0.22105 1.0705,-0.44021 1.5625,-0.6875 z m 17.0625,0.21875 c 0.46416,0.23203 0.95078,0.44753 1.46875,0.65625 l 0,4.84375 c -0.53505,-0.24352 -1.03587,-0.48679 -1.46875,-0.75 l 0,-4.75 z m 29.375,0 0,4.71875 c -0.4561,0.2804 -0.99079,0.523 -1.5625,0.78125 l 0,-4.8125 c 0.55279,-0.22104 1.0705,-0.44021 1.5625,-0.6875 z m -72.875,0.96875 c 0.46566,0.15463 0.94059,0.30142 1.4375,0.4375 l 0,4.9375 c -0.50704,-0.14539 -0.97716,-0.30435 -1.4375,-0.46875 l 0,-4.90625 z m 23.4375,0.0312 0,4.875 c -0.46498,0.16497 -0.95696,0.32312 -1.46875,0.46875 l 0,-4.90625 c 0.50236,-0.13639 0.99799,-0.28225 1.46875,-0.4375 z m 23,0.1875 c 0.46566,0.15463 0.94059,0.30142 1.4375,0.4375 l 0,4.9375 c -0.50704,-0.14538 -0.97716,-0.30435 -1.4375,-0.46875 l 0,-4.90625 z m 23.4375,0.0312 0,4.875 c -0.46498,0.16497 -0.95696,0.32312 -1.46875,0.46875 l 0,-4.90625 c 0.50236,-0.13638 0.99799,-0.28225 1.46875,-0.4375 z m -67,0.53125 c 0.45025,0.10099 0.90536,0.19551 1.375,0.28125 l 0,4.9375 c -0.46779,-0.0877 -0.93232,-0.17877 -1.375,-0.28125 l 0,-4.9375 z m 17.65625,0.0312 0,4.9375 c -0.50756,0.11667 -1.02246,0.2156 -1.5625,0.3125 l 0,-4.9375 c 0.5331,-0.0936 1.05377,-0.19934 1.5625,-0.3125 z m 28.78125,0.1875 c 0.45025,0.10099 0.90536,0.19551 1.375,0.28125 l 0,4.9375 c -0.46779,-0.0877 -0.93232,-0.17877 -1.375,-0.28125 l 0,-4.9375 z m 17.65625,0.0312 0,4.9375 c -0.50756,0.11667 -1.02246,0.2156 -1.5625,0.3125 l 0,-4.9375 c 0.5331,-0.0936 1.05377,-0.19934 1.5625,-0.3125 z m -61.28125,0.28125 c 0.62112,0.0886 1.2595,0.15751 1.90625,0.21875 l 0,4.9375 c -0.65221,-0.0629 -1.28563,-0.12834 -1.90625,-0.21875 l 0,-4.9375 z m 11.8125,0.0312 0,4.9375 c -0.5305,0.0737 -1.07179,0.13383 -1.625,0.1875 l 0,-4.9375 c 0.55093,-0.0526 1.09249,-0.11491 1.625,-0.1875 z m 34.625,0.1875 c 0.62112,0.0886 1.2595,0.15751 1.90625,0.21875 l 0,4.9375 c -0.65221,-0.0629 -1.28563,-0.12834 -1.90625,-0.21875 l 0,-4.9375 z m 11.8125,0.0312 0,4.9375 c -0.5305,0.0737 -1.07179,0.13383 -1.625,0.1875 l 0,-4.9375 c 0.55093,-0.0526 1.09249,-0.11491 1.625,-0.1875 z m -54.90625,0.0937 c 0.65279,0.0395 1.32822,0.0521 2,0.0625 l 0,4.9375 c -0.6731,-0.0111 -1.34843,-0.0224 -2,-0.0625 l 0,-4.9375 z m 5.40625,0 0,4.9375 c -0.64599,0.0399 -1.30106,0.0512 -1.96875,0.0625 l 0,-4.9375 c 0.66487,-0.0111 1.32249,-0.0228 1.96875,-0.0625 z m 41.03125,0.2192 c 0.65279,0.0395 1.32822,0.0521 2,0.0625 l 0,4.9375 c -0.6731,-0.0111 -1.34843,-0.0224 -2,-0.0625 l 0,-4.9375 z m 5.40625,0 0,4.9375 c -0.64599,0.0399 -1.30106,0.0512 -1.96875,0.0625 l 0,-4.9375 c 0.66487,-0.0111 1.32249,-0.0228 1.96875,-0.0625 z m -32.75,3.40625 c -2.10205,2.55023 -8.64907,4.40625 -16.40625,4.40625 -7.66717,0 -14.14079,-1.80772 -16.3125,-4.3125 0.84448,0.55732 1.81915,1.03046 2.90625,1.46875 3.51312,1.41622 8.21474,2.25 13.40625,2.25 5.19152,0 9.89312,-0.83374 13.40625,-2.25 1.13317,-0.45686 2.13152,-0.97585 3,-1.5625 z m 46.46875,0.1875 c -2.0684,2.56942 -8.64236,4.4375 -16.4375,4.4375 -7.66717,0 -14.14079,-1.80772 -16.3125,-4.3125 0.84294,0.5555 1.82204,1.03162 2.90625,1.46875 3.51312,1.41621 8.21474,2.25 13.40625,2.25 5.19152,0 9.89312,-0.83374 13.40625,-2.25 1.15196,-0.46444 2.15328,-0.99499 3.03125,-1.59375 z m -45.75,2.15625 c 0.003,0.51585 9.1e-4,1.3568 0,2.1875 -0.32558,0.12093 -0.65217,0.2365 -0.96875,0.375 l 0,-1.875 c 0.34894,-0.22552 0.66906,-0.44734 0.96875,-0.6875 z m -34.25,0.0312 c 0.31242,0.24978 0.66562,0.4849 1.03125,0.71875 l 0,4.4375 c -0.73372,-0.71422 -1.03125,-1.36486 -1.03125,-1.96875 0,-1.78344 -0.004,-2.48844 0,-3.1875 z m 80.6875,0.1875 c 0.004,0.75905 0,1.42692 0,3.21875 0,0.59107 -0.26919,1.21047 -0.96875,1.90625 l 0,-4.4375 c 0.34894,-0.22551 0.66906,-0.44734 0.96875,-0.6875 z m -34.25,0.0312 c 0.31242,0.24977 0.66562,0.4849 1.03125,0.71875 l 0,1.375 c -0.34217,-0.13596 -0.67929,-0.2906 -1.03125,-0.40625 -6.9e-4,-0.62057 -0.002,-1.31741 0,-1.6875 z m -43.96875,1.28125 c 0.46416,0.23202 0.95078,0.44753 1.46875,0.65625 l 0,4.84375 c -0.53505,-0.24353 -1.03587,-0.48679 -1.46875,-0.75 l 0,-4.75 z m 29.375,0 0,1.75 c -0.53322,0.29159 -1.06298,0.59637 -1.5625,0.9375 l 0,-2 c 0.55279,-0.22105 1.0705,-0.44022 1.5625,-0.6875 z m 17.0625,0.21875 c 0.46416,0.23202 0.95078,0.44753 1.46875,0.65625 l 0,1.40625 c -0.47838,-0.29837 -0.96218,-0.55826 -1.46875,-0.8125 l 0,-1.25 z m 29.375,0 0,4.71875 c -0.4561,0.28039 -0.99079,0.523 -1.5625,0.78125 l 0,-4.8125 c 0.55279,-0.22105 1.0705,-0.44022 1.5625,-0.6875 z m -72.875,0.96875 c 0.46566,0.15462 0.94059,0.30142 1.4375,0.4375 l 0,4.9375 c -0.50704,-0.14538 -0.97716,-0.30436 -1.4375,-0.46875 l 0,-4.90625 z m 23.4375,0.0312 0,2.59375 c -0.51307,0.43069 -1.00572,0.89163 -1.46875,1.375 l 0,-3.53125 c 0.50236,-0.13637 0.99799,-0.28225 1.46875,-0.4375 z m 23,0.1875 c 0.46566,0.15462 0.94059,0.30142 1.4375,0.4375 l 0,2.6875 c -0.46231,-0.43728 -0.93165,-0.86224 -1.4375,-1.25 l 0,-1.875 z m 23.4375,0.0312 0,4.875 c -0.46498,0.16498 -0.95696,0.32313 -1.46875,0.46875 l 0,-4.90625 c 0.50236,-0.13638 0.99799,-0.28225 1.46875,-0.4375 z m -67,0.53125 c 0.45025,0.10099 0.90536,0.19552 1.375,0.28125 l 0,4.9375 c -0.46779,-0.0877 -0.93232,-0.17876 -1.375,-0.28125 l 0,-4.9375 z m 17.65625,0.0312 0,4.90625 0,0.0312 c -0.004,0.005 -0.0275,-0.005 -0.0312,0 -0.49808,0.11376 -1.0016,0.21746 -1.53125,0.3125 l 0,-4.9375 c 0.5331,-0.0936 1.05377,-0.19933 1.5625,-0.3125 z m 14.75,0.0937 c 8.72807,0 15.78125,7.05318 15.78125,15.78125 0,8.72807 -7.05318,15.8124 -15.78125,15.8125 -8.72807,0 -15.8125,-7.08443 -15.8125,-15.8125 0,-8.72807 7.08443,-15.78125 15.8125,-15.78125 z m 14.03125,0.0937 c 0.45025,0.10099 0.90536,0.19552 1.375,0.28125 l 0,4.9375 c -0.12872,-0.0241 -0.24716,-0.0689 -0.375,-0.0937 -0.30766,-0.43803 -0.65618,-0.84128 -1,-1.25 l 0,-3.875 z m 17.65625,0.0312 0,4.9375 c -0.50756,0.11667 -1.02246,0.2156 -1.5625,0.3125 l 0,-4.9375 c 0.5331,-0.0936 1.05377,-0.19933 1.5625,-0.3125 z m -61.28125,0.28125 c 0.62112,0.0886 1.2595,0.15752 1.90625,0.21875 l 0,4.9375 c -0.65221,-0.0629 -1.28563,-0.12834 -1.90625,-0.21875 l 0,-4.9375 z m 11.8125,0.0312 0,4.9375 c -0.5305,0.0737 -1.07179,0.13383 -1.625,0.1875 l 0,-4.9375 c 0.55093,-0.0526 1.09249,-0.11491 1.625,-0.1875 z m -51.5,0.0625 c -10.78007,0 -19.5,3.82784 -19.5,8.5625 0.008,-2.6609 -0.0308,4.57719 -0.0312,7.34375 0,0.55832 0.14088,1.08431 0.34375,1.59375 -0.18919,0.46973 -0.3125,0.93934 -0.3125,1.4375 0.008,-2.6609 -0.0308,4.57719 -0.0312,7.34375 0,1.42342 0.72669,2.71509 1.8125,3.75 1.08581,1.0349 2.55594,1.88555 4.3125,2.59375 3.51312,1.41635 8.21474,2.25005 13.40625,2.25005 5.19152,0 9.89312,-0.8337 13.40625,-2.25005 1.75656,-0.7082 3.22669,-1.55885 4.3125,-2.59375 1.08581,-1.03491 1.8125,-2.32663 1.8125,-3.75 l 0,-7.3125 c 2e-5,-0.006 0,-0.0264 0,-0.0312 0,-0.51695 -0.0781,-1.0136 -0.28125,-1.5 0.18635,-0.48938 0.28125,-0.99749 0.28125,-1.53125 0,-4.08246 0,-3.49544 0,-7.34375 0,-4.73456 -8.75116,-8.5625 -19.53125,-8.5625 z m 86.125,0.125 c 0.62112,0.0886 1.2595,0.15752 1.90625,0.21875 l 0,4.9375 c -0.65221,-0.0629 -1.28563,-0.12834 -1.90625,-0.21875 l 0,-4.9375 z m 11.8125,0.0312 0,4.9375 c -0.5305,0.0737 -1.07179,0.13383 -1.625,0.1875 l 0,-4.9375 c 0.55093,-0.0526 1.09249,-0.11491 1.625,-0.1875 z m -54.90625,0.0937 c 0.65279,0.0395 1.32822,0.0521 2,0.0625 l 0,4.9375 c -0.6731,-0.0111 -1.34843,-0.0224 -2,-0.0625 l 0,-4.9375 z m 5.40625,0 0,4.9375 c -0.64599,0.0399 -1.30106,0.0512 -1.96875,0.0625 l 0,-4.9375 c 0.66487,-0.0111 1.32249,-0.0228 1.96875,-0.0625 z m 41.03125,0.21875 c 0.65279,0.0395 1.32822,0.0521 2,0.0625 l 0,4.9375 c -0.6731,-0.0111 -1.34843,-0.0224 -2,-0.0625 l 0,-4.9375 z m 5.40625,0 0,4.9375 c -0.64599,0.0399 -1.30106,0.0512 -1.96875,0.0625 l 0,-4.9375 c 0.66487,-0.0111 1.32249,-0.0228 1.96875,-0.0625 z m -94.875,1.9375 c 9.45056,0 17.125,2.75355 17.125,6.15625 -0.0228,3.39572 -7.68848,6.15625 -17.125,6.15625 -9.43652,0 -17.07108,-2.76053 -17.09375,-6.15625 0,-3.40265 7.6432,-6.15625 17.09375,-6.15625 z m 29.40625,1.5625 c 0.84448,0.55732 1.81915,1.03046 2.90625,1.46875 3.51312,1.4162 8.21474,2.25 13.40625,2.25 2.51071,0 4.89175,-0.19687 7.09375,-0.5625 -0.11483,0.2303 -0.23844,0.45182 -0.34375,0.6875 -2.07681,0.32351 -4.33806,0.5 -6.75,0.5 -7.66717,0 -14.14079,-1.83897 -16.3125,-4.34375 z m 79.1875,0.0937 c -2.0684,2.56942 -8.64236,4.4375 -16.4375,4.4375 -2.12105,0 -4.13236,-0.17836 -6,-0.4375 -0.0912,-0.21344 -0.18234,-0.41582 -0.28125,-0.625 1.97348,0.28382 4.07968,0.46875 6.28125,0.46875 5.19152,0 9.89312,-0.83374 13.40625,-2.25 1.15196,-0.46444 2.15328,-0.99499 3.03125,-1.59375 z m -80,2.21875 c 0.31242,0.24981 0.66562,0.48486 1.03125,0.71875 l 0,4.4375 c -0.73372,-0.7142 -1.03125,-1.36485 -1.03125,-1.96875 0,-1.7834 -0.004,-2.48839 0,-3.1875 z m 80.6875,0.15625 c 0.004,0.75905 0,1.42692 0,3.21875 0,0.59106 -0.26919,1.21047 -0.96875,1.90625 l 0,-4.4375 c 0.34894,-0.22551 0.66906,-0.44735 0.96875,-0.6875 z m -78.21875,1.34375 c 0.46416,0.232 0.95078,0.44745 1.46875,0.65625 l 0,4.84375 c -0.53505,-0.2435 -1.03587,-0.4868 -1.46875,-0.75 l 0,-4.75 z m 75.8125,0.1875 0,4.71875 c -0.4561,0.2804 -0.99079,0.523 -1.5625,0.78125 l 0,-4.8125 c 0.55279,-0.22104 1.0705,-0.44021 1.5625,-0.6875 z m -72.875,1 c 0.46566,0.1546 0.94059,0.3014 1.4375,0.4375 l 0,4.9375 c -0.50704,-0.14539 -0.97716,-0.30435 -1.4375,-0.46875 l 0,-4.90625 z m 69.875,0.21875 0,4.875 c -0.46498,0.16497 -0.95696,0.32313 -1.46875,0.46875 l 0,-4.90625 c 0.50236,-0.13638 0.99799,-0.28225 1.46875,-0.4375 z m -67,0.5625 c 0.45025,0.101 0.90536,0.19545 1.375,0.28125 l 0,4.9375 c -0.46779,-0.088 -0.93232,-0.17875 -1.375,-0.28125 l 0,-4.9375 z m 64.09375,0.21875 0,4.9375 c -0.50756,0.11667 -1.02246,0.2156 -1.5625,0.3125 l 0,-4.9375 c 0.5331,-0.0936 1.05377,-0.19934 1.5625,-0.3125 z m -61.28125,0.3125 c 0.62112,0.089 1.2595,0.15745 1.90625,0.21875 l 0,4.9375 c -0.65221,-0.063 -1.28563,-0.12835 -1.90625,-0.21875 l 0,-4.9375 z m 11.8125,0.0312 0,0.25 c -0.39977,1.50622 -0.625,3.0862 -0.625,4.71875 0,0.0105 -2e-5,0.0207 0,0.0312 -0.33203,0.0396 -0.65919,0.0919 -1,0.125 l 0,-4.9375 c 0.55093,-0.053 1.09249,-0.1149 1.625,-0.1875 z m 46.4375,0.1875 0,4.9375 c -0.5305,0.0737 -1.07179,0.13383 -1.625,0.1875 l 0,-4.9375 c 0.55093,-0.0526 1.09249,-0.11491 1.625,-0.1875 z m -10.90625,0.0625 c 0.33377,0.0381 0.66033,0.0928 1,0.125 l 0,4.9375 c -0.13965,-0.0135 -0.26997,-0.0453 -0.40625,-0.0625 10e-4,-0.0952 0.0312,-0.18574 0.0312,-0.28125 0,-1.63093 -0.22734,-3.21387 -0.625,-4.71875 z m -44,0.0625 c 0.65279,0.04 1.32822,0.0525 2,0.0625 l 0,4.9375 c -0.6731,-0.011 -1.34843,-0.0225 -2,-0.0625 l 0,-4.9375 z m 5.40625,0 0,4.9375 c -0.64599,0.04 -1.30106,0.0515 -1.96875,0.0625 l 0,-4.9375 c 0.66487,-0.011 1.32249,-0.0235 1.96875,-0.0625 z m 41.03125,0.1875 c 0.65279,0.0395 1.32822,0.0521 2,0.0625 l 0,4.9375 c -0.6731,-0.0111 -1.34843,-0.0224 -2,-0.0625 l 0,-4.9375 z m 5.40625,0 0,4.9375 c -0.64599,0.0399 -1.30106,0.0512 -1.96875,0.0625 l 0,-4.9375 c 0.66487,-0.0111 1.32249,-0.0228 1.96875,-0.0625 z m -112,1.875 c 0.31242,0.24978 0.66562,0.4849 1.03125,0.71875 l 0,4.4375 c -0.73372,-0.71422 -1.03125,-1.33361 -1.03125,-1.9375 0,-1.78344 -0.004,-2.51971 0,-3.21875 z m 34.25,0 c 0.004,0.75904 0,1.42692 0,3.21875 0,0.59106 -0.26919,1.21047 -0.96875,1.90625 l 0,-4.4375 c 0.34894,-0.22552 0.66906,-0.44734 0.96875,-0.6875 z m -2.40625,1.5 0,4.75 c -0.4561,0.2804 -0.99079,0.52299 -1.5625,0.78125 l 0,-4.8125 c 0.55279,-0.22105 1.0705,-0.47147 1.5625,-0.71875 z m -29.375,0.0312 c 0.46416,0.23202 0.95078,0.44752 1.46875,0.65625 l 0,4.84375 c -0.53505,-0.24353 -1.03587,-0.48678 -1.46875,-0.75 l 0,-4.75 z m 44.0625,0.0937 c 0.84448,0.55731 1.81915,1.06171 2.90625,1.5 3.51312,1.4162 8.21474,2.25 13.40625,2.25 1.86099,0 3.64182,-0.11023 5.34375,-0.3125 0.0252,0.18724 0.0629,0.37708 0.0937,0.5625 -1.71209,0.2134 -3.52135,0.34375 -5.4375,0.34375 -7.66717,0 -14.14079,-1.83899 -16.3125,-4.34375 z m 79.15625,0.125 c -2.09997,2.55142 -8.64672,4.40625 -16.40625,4.40625 -1.68168,0 -3.28177,-0.0891 -4.8125,-0.25 0.0351,-0.19354 0.0335,-0.39816 0.0625,-0.59375 1.52302,0.16045 3.1058,0.25 4.75,0.25 5.19152,0 9.89312,-0.83374 13.40625,-2.25 1.13862,-0.45906 2.12874,-0.97235 3,-1.5625 z m -120.28125,0.96875 c 0.46566,0.15462 0.94059,0.30142 1.4375,0.4375 l 0,4.90625 c -0.50704,-0.14539 -0.97716,-0.30436 -1.4375,-0.46875 l 0,-4.875 z m 23.4375,0 0,4.90625 c -0.46498,0.16497 -0.95696,0.32313 -1.46875,0.46875 l 0,-4.9375 c 0.50236,-0.13638 0.99799,-0.28225 1.46875,-0.4375 z m -20.5625,0.78125 c 0.45025,0.10099 0.90536,0.19552 1.375,0.28125 l 0,4.9375 c -0.46779,-0.0877 -0.93232,-0.17876 -1.375,-0.28125 l 0,-4.9375 z m 17.65625,0 0,4.9375 c -0.50756,0.11667 -1.02246,0.2156 -1.5625,0.3125 l 0,-4.90625 c 0.5331,-0.0936 1.05377,-0.23058 1.5625,-0.34375 z m 19.78125,0.43825 c 0.31242,0.24981 0.66562,0.48486 1.03125,0.71875 l 0,4.4375 c -0.73372,-0.7142 -1.03125,-1.36485 -1.03125,-1.96875 0,-1.7834 -0.004,-2.48839 0,-3.1875 z m -34.625,0.0937 c 0.62112,0.0886 1.2595,0.15752 1.90625,0.21875 l 0,4.9375 c -0.65221,-0.0629 -1.28563,-0.12834 -1.90625,-0.21875 l 0,-4.9375 z m 11.8125,0.0312 0,4.9375 c -0.5305,0.0737 -1.07179,0.13383 -1.625,0.1875 l 0,-4.9375 c 0.55093,-0.0526 1.09249,-0.11491 1.625,-0.1875 z m 103.5,0.0312 c 0.004,0.75904 0,1.42691 0,3.21875 0,0.59106 -0.26919,1.21046 -0.96875,1.90625 l 0,-4.4375 c 0.34894,-0.22552 0.66906,-0.44735 0.96875,-0.6875 z m -111.96875,0.25 c 0.65279,0.0395 1.32822,0.0833 2,0.0937 l 0,4.9375 c -0.6731,-0.0111 -1.34843,-0.0224 -2,-0.0625 l 0,-4.96875 z m 5.40625,0 0,4.96875 c -0.64599,0.0399 -1.30106,0.0512 -1.96875,0.0625 l 0,-4.9375 c 0.66487,-0.0111 1.32249,-0.054 1.96875,-0.0937 z m 28.34375,1.09375 c 0.46416,0.232 0.95078,0.44755 1.46875,0.65625 l 0,4.84375 c -0.53505,-0.2435 -1.03587,-0.4868 -1.46875,-0.75 l 0,-4.75 z m 75.8125,0.1875 0,4.71875 c -0.4561,0.2804 -0.99079,0.523 -1.5625,0.78125 l 0,-4.8125 c 0.55279,-0.22105 1.0705,-0.44021 1.5625,-0.6875 z m -72.875,1 c 0.46566,0.1546 0.94059,0.3014 1.4375,0.4375 l 0,4.9375 c -0.50704,-0.1454 -0.97716,-0.30435 -1.4375,-0.46875 l 0,-4.90625 z m 69.875,0.21875 0,4.875 c -0.46498,0.16498 -0.95696,0.32313 -1.46875,0.46875 l 0,-4.90625 c 0.50236,-0.13638 0.99799,-0.28225 1.46875,-0.4375 z m -67,0.5625 c 0.45025,0.101 0.90536,0.19545 1.375,0.28125 l 0,4.9375 c -0.46779,-0.088 -0.93232,-0.17875 -1.375,-0.28125 l 0,-4.9375 z m 64.09375,0.21875 0,4.9375 c -0.50756,0.11667 -1.02246,0.2156 -1.5625,0.3125 l 0,-4.9375 c 0.5331,-0.0936 1.05377,-0.19933 1.5625,-0.3125 z m -84.46875,0.28125 c -1.98911,2.61341 -8.61788,4.53125 -16.5,4.53125 -7.84718,0 -14.42349,-1.90426 -16.4375,-4.5 0.87614,0.60288 1.87691,1.1596 3.03125,1.625 3.51312,1.41621 8.24599,2.25 13.4375,2.25 5.19152,0 9.89312,-0.83374 13.40625,-2.25 1.17309,-0.47297 2.17709,-1.0412 3.0625,-1.65625 z m 23.1875,0.0312 c 0.62112,0.089 1.2595,0.15745 1.90625,0.21875 l 0,4.9375 c -0.65221,-0.063 -1.28563,-0.12835 -1.90625,-0.21875 l 0,-4.9375 z m 11.8125,0.0312 0,4.9375 c -0.5305,0.074 -1.07179,0.1339 -1.625,0.1875 l 0,-4.9375 c 0.55093,-0.053 1.09249,-0.1149 1.625,-0.1875 z m 46.4375,0.1875 0,4.9375 c -0.5305,0.0737 -1.07179,0.13383 -1.625,0.1875 l 0,-4.9375 c 0.55093,-0.0526 1.09249,-0.11491 1.625,-0.1875 z m -11.1875,0.0315 c 0.42477,0.0518 0.84619,0.11506 1.28125,0.15625 l 0,4.9375 c -0.65221,-0.0629 -1.28563,-0.12833 -1.90625,-0.21875 l 0,-3.1875 c 0.23651,-0.54876 0.44181,-1.1127 0.625,-1.6875 z m -43.71875,0.0937 c 0.65279,0.039 1.32822,0.0525 2,0.0625 l 0,4.9375 c -0.6731,-0.011 -1.34843,-0.0225 -2,-0.0625 l 0,-4.9375 z m 5.40625,0 0,4.9375 c -0.64599,0.04 -1.30106,0.0515 -1.96875,0.0625 l 0,-4.9375 c 0.66487,-0.011 1.32249,-0.0235 1.96875,-0.0625 z m 41.03125,0.1875 c 0.65279,0.0395 1.32822,0.0521 2,0.0625 l 0,4.9375 c -0.6731,-0.0111 -1.34843,-0.0224 -2,-0.0625 l 0,-4.9375 z m 5.40625,0 0,4.9375 c -0.64599,0.0399 -1.30106,0.0512 -1.96875,0.0625 l 0,-4.9375 c 0.66487,-0.0111 1.32249,-0.0228 1.96875,-0.0625 z m -77.75,1.90625 c 0.004,0.75904 0,1.42692 0,3.21875 0,0.59107 -0.26919,1.21047 -0.96875,1.90625 l 0,-4.4375 c 0.34894,-0.22552 0.66906,-0.44734 0.96875,-0.6875 z m -34.25,0.0312 c 0.31242,0.24978 0.66562,0.4849 1.03125,0.71875 l 0,4.4375 c -0.73372,-0.71422 -1.03125,-1.36486 -1.03125,-1.96875 0,-1.78344 -0.004,-2.48845 0,-3.1875 z m 70.09375,0.71875 c 0.25452,0.48552 0.51711,0.94741 0.8125,1.40625 -0.26934,0.0536 -0.53209,0.10594 -0.8125,0.15625 l 0,-1.5625 z m -67.625,0.78125 c 0.46416,0.23202 0.95078,0.44752 1.46875,0.65625 l 0,4.84375 c -0.53505,-0.24353 -1.03587,-0.48679 -1.46875,-0.75 l 0,-4.75 z m 29.375,0 0,4.71875 c -0.4561,0.2804 -0.99079,0.52299 -1.5625,0.78125 l 0,-4.8125 c 0.55279,-0.22105 1.0705,-0.44022 1.5625,-0.6875 z m 69.96875,0.65625 0,0.25 c -0.0429,-0.008 -0.0823,-0.0233 -0.125,-0.0312 0.0466,-0.07 0.0794,-0.14809 0.125,-0.21875 z m -96.40625,0.53125 c 0.46566,0.15462 0.94059,0.30142 1.4375,0.4375 l 0,4.9375 c -0.50704,-0.14538 -0.97716,-0.30436 -1.4375,-0.46875 l 0,-4.90625 z m 23.4375,0.0312 0,4.875 c -0.46498,0.16497 -0.95696,0.32313 -1.46875,0.46875 l 0,-4.90625 c 0.50236,-0.13637 0.99799,-0.28225 1.46875,-0.4375 z m -20.5625,0.75 c 0.45025,0.10099 0.90536,0.19552 1.375,0.28125 l 0,4.9375 c -0.46779,-0.0877 -0.93232,-0.17876 -1.375,-0.28125 l 0,-4.9375 z m 17.65625,0.0312 0,4.9375 c -0.50756,0.11667 -1.02246,0.2156 -1.5625,0.3125 l 0,-4.9375 c 0.5331,-0.0936 1.05377,-0.19933 1.5625,-0.3125 z m -14.84375,0.5 c 0.62112,0.0886 1.2595,0.15752 1.90625,0.21875 l 0,4.9375 c -0.65221,-0.0629 -1.28563,-0.12834 -1.90625,-0.21875 l 0,-4.9375 z m 11.8125,0.0312 0,4.9375 c -0.5305,0.0737 -1.07179,0.13383 -1.625,0.1875 l 0,-4.9375 c 0.55093,-0.0526 1.09249,-0.11491 1.625,-0.1875 z m -8.46875,0.3125 c 0.65279,0.0395 1.32822,0.0521 2,0.0625 l 0,4.9375 c -0.6731,-0.0111 -1.34843,-0.0224 -2,-0.0625 l 0,-4.9375 z m 5.40625,0 0,4.9375 c -0.64599,0.0399 -1.30106,0.0512 -1.96875,0.0625 l 0,-4.9375 c 0.66487,-0.0111 1.32249,-0.0228 1.96875,-0.0625 z"
       id="path3332" />
  </g>
</svg>
