<?xml version="1.0" encoding="UTF-8" standalone="no"?>
<!-- Created with Inkscape (http://www.inkscape.org/) -->

<svg
   xmlns:dc="http://purl.org/dc/elements/1.1/"
   xmlns:cc="http://creativecommons.org/ns#"
   xmlns:rdf="http://www.w3.org/1999/02/22-rdf-syntax-ns#"
   xmlns:svg="http://www.w3.org/2000/svg"
   xmlns="http://www.w3.org/2000/svg"
   xmlns:sodipodi="http://sodipodi.sourceforge.net/DTD/sodipodi-0.dtd"
   xmlns:inkscape="http://www.inkscape.org/namespaces/inkscape"
   width="1024"
   height="1024"
   id="svg3421"
   version="1.1"
   inkscape:version="0.48.5 r10040"
   sodipodi:docname="coin-stash.svg">
  <defs
     id="defs3423" />
  <sodipodi:namedview
     id="base"
     pagecolor="#ffffff"
     bordercolor="#666666"
     borderopacity="1.0"
     inkscape:pageopacity="0.0"
     inkscape:pageshadow="2"
     inkscape:zoom="0.49497475"
     inkscape:cx="766.62367"
     inkscape:cy="334.7297"
     inkscape:document-units="px"
     inkscape:current-layer="layer1"
     showgrid="false"
     fit-margin-top="0"
     fit-margin-left="0"
     fit-margin-right="0"
     fit-margin-bottom="0"
     inkscape:window-width="1920"
     inkscape:window-height="1181"
     inkscape:window-x="-4"
     inkscape:window-y="-4"
     inkscape:window-maximized="1" />
  <metadata
     id="metadata3426">
    <rdf:RDF>
      <cc:Work
         rdf:about="">
        <dc:format>image/svg+xml</dc:format>
        <dc:type
           rdf:resource="http://purl.org/dc/dcmitype/StillImage" />
        <dc:title />
      </cc:Work>
    </rdf:RDF>
  </metadata>
  <g
     inkscape:label="Ebene 1"
     inkscape:groupmode="layer"
     id="layer1"
     transform="translate(-284.3904,429.55994)">
    <path
       style="fill:#000000;fill-opacity:1;fill-rule:nonzero;stroke:none"
       d="m 794.13052,-282.68062 c -67.9659,0 -122.94614,24.12412 -122.94614,53.97508 0.0504,-16.77637 -0.20648,28.85168 -0.209,46.29422 0,3.57827 0.66637,7.00821 1.98553,10.26728 -1.13298,2.88846 -1.77653,5.79787 -1.77653,8.85651 0.0504,-16.77637 -0.20648,28.85168 -0.209,46.29421 0,3.56769 0.68296,6.98556 1.98553,10.24116 -1.08871,2.833 -1.77653,5.67712 -1.77653,8.673636 0.0504,-16.776316 -0.20649,28.851672 -0.209,46.294212 0,3.51686 0.71782,7.05298 1.98553,10.26728 -1.09419,2.839921 -1.77653,5.852226 -1.77653,8.856513 0.0504,-16.776313 -0.20648,28.851675 -0.209,46.294214 0,3.516864 0.71782,6.843978 1.98553,10.05828 -1.0942,2.839919 -1.77653,5.852224 -1.77653,8.856511 0.0504,-16.776312 -0.20648,28.851675 -0.209,46.294214 0,3.516864 0.71783,6.843978 1.98553,10.05828 -1.13297,2.888466 -1.77653,5.797816 -1.77653,8.856516 0.0504,-16.776375 -0.20648,28.877744 -0.209,46.320334 0,3.56763 0.68296,6.98556 1.98553,10.24116 -1.08871,2.83299 -1.77653,5.6771 -1.77653,8.67363 0.0504,-16.7763 -0.20649,28.85169 -0.209,46.29422 0,3.56768 0.68296,6.98556 1.98553,10.24116 -1.08871,2.83298 -1.77653,5.6771 -1.77653,8.67363 0.0504,-16.77637 -0.20648,28.85168 -0.209,46.29421 0,3.51686 0.71782,7.02686 1.98553,10.24115 -1.0942,2.83993 -1.77653,5.87836 -1.77653,8.88264 0.0504,-16.77631 -0.20648,28.85135 -0.209,46.29421 0,3.5168 0.71783,6.84398 1.98553,10.05829 -1.09419,2.83999 -1.77653,5.85241 -1.77653,8.85651 0.0504,-16.77638 -0.20649,28.85136 -0.209,46.29422 0,8.97421 4.59713,17.11867 11.44292,23.64349 6.84579,6.5248 16.09571,11.88945 27.17042,16.3545 22.14943,8.92876 51.8105,14.18609 84.5418,14.18609 22.16696,0 42.69956,-2.56326 60.66319,-6.89711 21.28688,24.61504 52.82406,40.207 87.88586,40.207 34.1997,0 64.70553,-14.85755 85.90023,-38.43047 17.3985,3.99023 37.1296,6.29622 58.3119,6.29622 32.7313,0 62.3923,-5.25696 84.5418,-14.18609 11.0747,-4.46511 20.3247,-9.82976 27.1704,-16.3545 6.8458,-6.52487 11.443,-14.66953 11.443,-23.64349 l 0,-46.08521 c 10e-5,-0.0379 0,-0.17874 0,-0.209 0,-3.14073 -0.7937,-6.10398 -1.9856,-9.06552 1.2225,-3.1597 1.9856,-6.39943 1.9856,-9.84928 l 0,-46.11133 c 10e-5,-0.0379 0,-0.15262 0,-0.18288 0,-3.14072 -0.7937,-6.10397 -1.9856,-9.06551 1.2225,-3.15972 1.9856,-6.39945 1.9856,-9.84929 l 0,-46.11134 c 10e-5,-0.0379 0,-0.15261 0,-0.18287 0,-3.14072 -0.7937,-6.10398 -1.9856,-9.06552 1.2263,-3.16417 1.9856,-6.39393 1.9856,-9.84927 l 0,-46.11134 c 10e-5,-0.0378 0,-0.17874 0,-0.20901 0,-3.06348 -0.6409,-6.14656 -1.7766,-9.03938 1.207,-3.14071 1.7766,-6.44874 1.7766,-9.8754 l 0,-46.085204 c 10e-5,-0.0378 0,-0.17874 0,-0.20901 0,-3.143 -0.792,-6.284834 -1.9856,-9.248391 -0.025,-0.05677 0.025,-0.151627 0,-0.209003 1.2314,-3.154778 1.9856,-6.399428 1.9856,-9.849277 l 0,-46.111335 c 10e-5,-0.03783 0,-0.152615 0,-0.182878 0,-29.850334 -55.1892,-53.975082 -123.1552,-53.975082 -66.9039,0 -121.41573,23.386198 -123.10283,52.590435 0.01,7.448566 -0.024,34.912944 -0.026,47.67886 0,3.449975 0.7281,6.694499 1.9594,9.849277 0.019,0.05677 -0.019,0.155407 0,0.209003 -1.1944,2.963557 -1.7765,6.105341 -1.7765,9.248391 0.05,-16.776369 -0.1804,28.877794 -0.1829,46.320334 0,3.42677 0.5695,6.70861 1.7765,9.84928 -1.1365,2.89281 -1.5936,5.97577 -1.5936,9.03938 0.05,-16.7763 -0.1804,28.8778 -0.1829,46.32034 0,3.45545 0.7332,6.68511 1.9594,9.84928 -1.1928,2.96154 -1.7765,5.92473 -1.7765,9.06552 0.038,-11.99339 -0.1098,13.78135 -0.1829,33.10088 -6.873,-1.26808 -13.8398,-1.98553 -21.0832,-1.98553 -8.70041,0 -17.2643,0.95636 -25.42002,2.76929 l 0,-35.08641 c 1.2e-4,-0.0379 0,-0.15262 0,-0.18288 0,-3.14236 -0.76629,-6.10253 -1.95941,-9.06552 1.2225,-3.1597 1.95941,-6.39942 1.95941,-9.84927 l 0,-46.11134 c 1.2e-4,-0.0378 0,-0.15261 0,-0.18288 0,-3.14236 -0.76629,-6.10251 -1.95941,-9.06551 1.2225,-3.1597 1.95941,-6.39943 1.95941,-9.84928 l 0,-46.111324 c 1.2e-4,-0.0378 0,-0.15261 0,-0.18288 0,-3.1423 -0.76629,-6.102525 -1.95941,-9.065514 1.22622,-3.164175 1.95941,-6.393943 1.95941,-9.849277 l 0,-46.111335 c 1.2e-4,-0.03783 0,-0.17874 0,-0.209004 0,-3.124397 -0.5966,-6.301355 -1.77653,-9.248392 1.16638,-3.090221 1.77653,-6.301163 1.77653,-9.666399 l 0,-46.08521 c 1.2e-4,-0.03783 0,-0.17874 0,-0.209004 0,-3.124397 -0.5966,-6.301355 -1.77653,-9.248393 1.16638,-3.09022 1.77653,-6.48404 1.77653,-9.84928 l 0,-46.111332 c 1.2e-4,-0.0378 0,-0.17874 0,-0.209 0,-3.142366 -0.76629,-6.102516 -1.95941,-9.065516 1.2225,-3.15971 1.95941,-6.39944 1.95941,-9.84928 l 0,-46.08521 c 1.2e-4,-0.0379 0,-0.17874 0,-0.209 0,-3.14236 -0.76629,-6.10253 -1.95941,-9.06551 -0.0253,-0.0568 0.0252,-0.12488 0,-0.18288 1.23505,-3.15926 1.95941,-6.39395 1.95941,-9.84928 l 0,-46.32034 c 0,-29.85033 -55.16299,-53.97508 -123.12903,-53.97508 z m 0,15.17886 c 59.58365,0 107.95017,17.34297 107.95017,38.79622 -0.14375,21.40925 -48.45504,38.82235 -107.95017,38.82235 -59.49512,0 -107.65047,-17.4131 -107.79341,-38.82235 0,-21.45294 48.20983,-38.79622 107.79341,-38.79622 z m -107.97628,64.81712 c 1.96973,1.57481 4.20001,3.04533 6.50522,4.5197 l 0,27.9803 c -4.62593,-4.503 -6.50522,-8.4193 -6.50522,-12.22668 0,-11.24419 -0.0252,-15.86602 0,-20.27332 z m 215.92645,0 c 0.0253,4.78558 0,8.97623 0,20.27332 0,3.7265 -1.67665,7.63095 -6.08722,12.01768 l 0,-27.95418 c 2.19999,-1.42185 4.19774,-2.82266 6.08722,-4.33682 z m -15.15274,9.4574 0,29.73071 c -2.8756,1.76785 -6.24477,3.49231 -9.84927,5.12058 l 0,-30.3316 c 3.48522,-1.39366 6.74733,-2.96064 9.84927,-4.51969 z m -185.20297,0.18288 c 2.92642,1.46283 5.9827,2.83794 9.24839,4.15394 l 0,30.33159 c -3.37337,-1.5354 -6.51918,-3.06916 -9.24839,-4.7287 l 0,-29.75683 z m 18.52291,7.49799 c 2.93587,0.97485 5.90649,1.88521 9.03938,2.74316 l 0,30.93248 c -3.19677,-0.91665 -6.13705,-1.91573 -9.03938,-2.95217 l 0,-30.72347 z m 147.76527,0 0,30.93247 c -2.93159,1.0401 -6.0478,2.03407 -9.27451,2.95217 l 0,-31.14148 c 3.16725,-0.85984 6.30647,-1.76434 9.27451,-2.74316 z m -129.66037,4.91157 c 2.83872,0.63673 5.71266,1.23601 8.67363,1.77653 l 0,31.14148 c -2.9493,-0.55293 -5.88263,-1.13035 -8.67363,-1.77653 l 0,-31.14148 z m 111.32034,0 0,31.14148 c -3.20005,0.73558 -6.44445,1.34847 -9.84928,1.95941 l 0,-31.11536 c 3.36108,-0.59013 6.64185,-1.27202 9.84928,-1.98553 z m -93.58119,3.34405 c 3.91602,0.5586 7.94007,0.99861 12.01768,1.38465 l 0,31.14148 c -4.11203,-0.39657 -8.10482,-0.81463 -12.01768,-1.38465 l 0,-31.14148 z m 74.48352,0.20901 0,31.14148 c -3.34469,0.46465 -6.75329,0.83726 -10.24116,1.17564 l 0,-31.32436 c 3.47349,-0.33164 6.88381,-0.53535 10.24116,-0.99276 z m -53.40032,1.77652 c 4.1157,0.24904 8.38315,0.53532 12.61857,0.60089 l 0,31.11535 c -4.24375,-0.07 -8.51056,-0.13906 -12.61857,-0.39188 l 0,-31.32436 z m 34.09365,0 0,31.32436 c -4.07282,0.25156 -8.19993,0.32064 -12.40957,0.39188 l 0,-31.11535 c 4.19185,-0.07 8.33504,-0.35059 12.40957,-0.60089 z m 86.86696,22.46785 c -12.54089,16.47696 -54.31024,28.55507 -104.00523,28.55507 -49.47469,0 -90.94159,-12.00664 -103.63947,-28.37219 5.52387,3.80102 11.81982,7.30691 19.09767,10.24116 22.14943,8.92888 51.8105,14.18609 84.5418,14.18609 32.73136,0 62.36619,-5.2569 84.51568,-14.18609 7.39607,-2.98198 13.90724,-6.54628 19.48955,-10.42404 z m 3.94494,15.54462 c 0.0253,4.78558 0,9.00235 0,20.29943 0,3.72656 -1.67665,7.63095 -6.08722,12.0177 l 0,-27.98032 c 2.19999,-1.42185 4.19774,-2.82266 6.08722,-4.33681 z m -215.92645,0.209 c 1.96973,1.57481 4.20001,3.04533 6.50522,4.51969 l 0,27.98032 c -4.62593,-4.50301 -6.50522,-8.60218 -6.50522,-12.40958 0,-11.24419 -0.0252,-15.68307 0,-20.09043 z m 15.57074,9.45739 c 2.92642,1.46284 5.9827,2.81183 9.24839,4.12782 l 0,30.540586 c -3.37337,-1.53539 -6.51918,-3.06921 -9.24839,-4.72869 l 0,-29.939716 z m 185.20297,0 0,29.756836 c -2.8756,1.76786 -6.24477,3.28331 -9.84927,4.91157 l 0,-30.331586 c 3.48522,-1.39367 6.74733,-2.77777 9.84927,-4.33682 z m -166.68006,7.47187 c 2.93587,0.97484 5.90649,1.91133 9.03938,2.76929 l 0,31.141476 c -3.19677,-0.91659 -6.13705,-1.91573 -9.03938,-2.95217 l 0,-30.958596 z m 147.76527,0.209 0,30.723476 c -2.93159,1.0401 -6.0478,2.06019 -9.27451,2.97829 l 0,-30.932466 c 3.16725,-0.85978 6.30647,-1.79048 9.27451,-2.7693 z m -129.66037,4.7287 c 2.83872,0.63673 5.71266,1.23602 8.67363,1.77653 l 0,31.115346 c -2.9493,-0.55293 -5.88263,-1.10422 -8.67363,-1.7504 l 0,-31.141476 z m 111.32034,0.209 0,31.115356 c -3.20005,0.73558 -6.44445,1.3746 -9.84928,1.98553 l 0,-31.141476 c 3.36108,-0.59013 6.64185,-1.24589 9.84928,-1.95941 z m -93.58119,3.13505 c 3.91602,0.5586 7.94007,0.9986 12.01768,1.38465 l 0,31.141476 c -4.11203,-0.39657 -8.10482,-0.81463 -12.01768,-1.38465 l 0,-31.141476 z m 74.48352,0.20901 0,31.115346 c -3.34469,0.46466 -6.75329,0.86339 -10.24116,1.20177 l 0,-31.141476 c 3.47349,-0.33163 6.88381,-0.71798 10.24116,-1.17564 z m -53.40032,1.9594 c 4.1157,0.24903 8.38315,0.32631 12.61857,0.39188 l 0,31.141476 c -4.24375,-0.07 -8.51056,-0.13906 -12.61857,-0.39188 l 0,-31.141476 z m 34.09365,0 0,31.141476 c -4.07282,0.25157 -8.19993,0.32064 -12.40957,0.39188 l 0,-31.141476 c 4.19185,-0.07 8.33504,-0.14159 12.40957,-0.39188 z m 86.2922,22.859726 c -13.25295,16.078622 -54.52319,27.771302 -103.43047,27.771302 -48.33977,0 -89.16356,-11.37834 -102.85571,-27.170422 5.32426,3.51378 11.45999,6.48507 18.31391,9.2484 22.14943,8.928942 51.8105,14.186092 84.5418,14.186092 32.73136,0 62.36619,-5.25689 84.51568,-14.186092 7.14438,-2.8804 13.43923,-6.15059 18.91479,-9.84928 z m 4.5197,14.786982 c 0.0253,4.78563 0,8.97622 0,20.27331 0,3.7265 -1.67665,7.63095 -6.08722,12.017684 l 0,-27.954184 c 2.19999,-1.42179 4.19774,-2.82272 6.08722,-4.33681 z m -215.92645,0.18287 c 1.96973,1.57481 4.20001,3.07152 6.50522,4.54582 l 0,27.98031 c -4.62593,-4.50293 -6.50522,-8.6283 -6.50522,-12.43569 0,-11.24419 -0.0252,-15.68302 0,-20.09044 z m 15.57074,9.4574 c 2.92642,1.4629 5.9827,2.838 9.24839,4.15394 l 0,30.514469 c -3.37337,-1.535338 -6.51918,-3.069221 -9.24839,-4.728698 l 0,-29.939711 z m 185.20297,0 0,29.756833 c -2.8756,1.767858 -6.24477,3.283366 -9.84927,4.911576 l 0,-30.331589 c 3.48522,-1.39361 6.74733,-2.77771 9.84927,-4.33682 z m -166.68006,7.49799 c 2.93587,0.97491 5.90649,1.88522 9.03938,2.74317 l 0,31.141478 c -3.19677,-0.916588 -6.13705,-1.915665 -9.03938,-2.952171 l 0,-30.932477 z m 147.76527,0.18288 0,30.749597 c -2.93159,1.0401 -6.0478,2.034003 -9.27451,2.952171 l 0,-30.932478 c 3.16725,-0.85985 6.30647,-1.79048 9.27451,-2.76929 z m -129.66037,4.7287 c 2.83872,0.63671 5.71266,1.23595 8.67363,1.77652 l 0,31.141483 c -2.9493,-0.55293 -5.88263,-1.130414 -8.67363,-1.776527 l 0,-31.141476 z m 111.32034,0.209 0,31.115354 c -3.20005,0.735574 -6.44445,1.374597 -9.84928,1.98553 l 0,-31.141484 c 3.36108,-0.59012 6.64185,-1.24596 9.84928,-1.9594 z m -93.58119,3.13505 c 3.91602,0.5586 7.94007,0.99854 12.01768,1.38464 l 0,31.141484 c -4.11203,-0.396571 -8.10482,-0.814628 -12.01768,-1.384646 l 0,-31.141478 z m 74.48352,0.209 0,31.141481 c -3.34469,0.464664 -6.75329,0.837267 -10.24116,1.175643 l 0,-31.141484 c 3.47349,-0.33163 6.88381,-0.71797 10.24116,-1.17564 z m -53.40032,1.95941 c 4.1157,0.24904 8.38315,0.32631 12.61857,0.39188 l 0,31.141477 c -4.24375,-0.06998 -8.51056,-0.139062 -12.61857,-0.391881 l 0,-31.141476 z m 34.09365,0 0,31.141476 c -4.07282,0.251565 -8.19993,0.320636 -12.40957,0.391881 l 0,-31.141477 c 4.19185,-0.07 8.33504,-0.14158 12.40957,-0.39188 z m 86.2922,22.859723 C 884.30804,-5.556972 843.0378,6.344708 794.13052,6.344708 c -48.33977,0 -89.16356,-11.587348 -102.85571,-27.379422 5.32426,3.513778 11.45999,6.485069 18.31391,9.248392 22.14943,8.928885 51.8105,14.186094 84.5418,14.186094 32.73136,0 62.36619,-5.256891 84.51568,-14.186094 7.14438,-2.880399 13.43923,-6.15058 18.91479,-9.849277 z m 4.5197,14.969856 c 0.0253,4.785639 0,9.002354 0,20.299438 0,3.726561 -1.67665,7.63095 -6.08722,12.017685 l 0,-27.980306 c 2.19999,-1.42179 4.19774,-2.822664 6.08722,-4.336817 z M 686.15424,-6.45674 c 1.96973,1.574748 4.20001,3.045328 6.50522,4.519695 l 0,27.980306 c -4.62593,-4.502999 -6.50522,-8.602238 -6.50522,-12.409566 0,-11.244248 -0.0252,-15.683017 0,-20.090435 z m 400.73746,1.175643 c 59.5837,0 107.9763,17.369096 107.9763,38.822349 0,0.03783 3e-4,0.152614 0,0.182878 -0.1438,21.409245 -48.4811,38.822348 -107.9763,38.822348 -59.4951,0 -107.80713,-17.413103 -107.95003,-38.822348 -3e-4,-0.03783 0,-0.152615 0,-0.182878 0,-21.452944 48.36653,-38.822349 107.95003,-38.822349 z M 701.72498,3.000656 c 2.92642,1.46283 5.9827,2.811879 9.24839,4.127814 l 0,30.540595 C 707.6,36.133661 704.45419,34.599786 701.72498,32.940368 l 0,-29.939712 z m 185.20297,0 0,29.756834 c -2.8756,1.767791 -6.24477,3.283365 -9.84927,4.911575 l 0,-30.331592 c 3.48522,-1.393667 6.74733,-2.77777 9.84927,-4.336817 z m -166.68006,7.497991 c 2.93587,0.974841 5.90649,1.885217 9.03938,2.743167 l 0,31.14148 c -3.19677,-0.916655 -6.13705,-1.915732 -9.03938,-2.952171 l 0,-30.932476 z m 147.76527,0.182877 0,30.749599 c -2.93159,1.040159 -6.0478,2.03407 -9.27451,2.952171 l 0,-30.932477 c 3.16725,-0.859847 6.30647,-1.79048 9.27451,-2.769293 z m -129.66037,4.728698 c 2.83872,0.636716 5.71266,1.23602 8.67363,1.776528 l 0,31.115354 c -2.9493,-0.55293 -5.88263,-1.104222 -8.67363,-1.750402 l 0,-31.14148 z m 111.32034,0.209004 0,31.115354 c -3.20005,0.735574 -6.44445,1.374598 -9.84928,1.985531 l 0,-31.14148 c 3.36108,-0.590125 6.64185,-1.245894 9.84928,-1.959405 z m -93.58119,3.135048 c 3.91602,0.558599 7.94007,0.998609 12.01768,1.384646 l 0,31.141481 c -4.11203,-0.396571 -8.10482,-0.814628 -12.01768,-1.384647 l 0,-31.14148 z m 74.48352,0.209003 0,31.115355 c -3.34469,0.464664 -6.75329,0.863392 -10.24116,1.201769 l 0,-31.141481 c 3.47349,-0.331629 6.88381,-0.717976 10.24116,-1.175643 z m -53.40032,1.959405 c 4.1157,0.24904 8.38315,0.326313 12.61857,0.391881 l 0,31.141481 c -4.24375,-0.06998 -8.51056,-0.139063 -12.61857,-0.391881 l 0,-31.141481 z m 34.09365,0 0,31.141481 c -4.07282,0.251564 -8.19993,0.320636 -12.40957,0.391881 l 0,-31.141481 c 4.19185,-0.06998 8.33504,-0.141578 12.40957,-0.391881 z m 86.2922,22.67685 c -13.25295,16.078626 -54.52319,27.954181 -103.43047,27.954181 -48.33977,0 -89.16356,-11.587348 -102.85571,-27.379422 5.32426,3.513779 11.45999,6.694081 18.31391,9.457396 22.14943,8.928952 51.8105,14.186094 84.5418,14.186094 32.73136,0 62.36619,-5.256891 84.51568,-14.186094 7.14438,-2.880399 13.43923,-6.333459 18.91479,-10.032155 z m 4.5197,14.969856 c 0.0253,4.785639 0,8.976229 0,20.273312 0,3.726502 -1.67665,7.63095 -6.08722,12.017685 l 0,-27.95418 c 2.19999,-1.421791 4.19774,-2.822722 6.08722,-4.336817 z m -215.92645,0.182878 c 1.96973,1.574806 4.20001,3.071511 6.50522,4.54582 l 0,27.980306 c -4.62593,-4.502933 -6.50522,-8.628305 -6.50522,-12.435692 0,-11.244189 -0.0252,-15.683016 0,-20.090434 z m 508.71376,0.783762 c 0.025,4.785572 0,9.002354 0,20.299437 0,3.726503 -1.7028,7.63095 -6.1133,12.017686 l 0,-27.980306 c 2.1999,-1.421858 4.2238,-2.822664 6.1133,-4.336817 z m -215.92633,0.209003 c 1.9697,1.574806 4.1739,3.045328 6.4791,4.519695 l 0,27.980306 c -4.6259,-4.502992 -6.4791,-8.60218 -6.4791,-12.409567 0,-11.244189 -0.025,-15.683141 0,-20.090434 z m -277.21669,8.464631 c 2.92642,1.462896 5.9827,2.838004 9.24839,4.153938 l 0,30.51446 c -3.37337,-1.53533 -6.51918,-3.069214 -9.24839,-4.728684 l 0,-29.939714 z m 185.20297,0 0,29.756834 c -2.8756,1.76786 -6.24477,3.283354 -9.84927,4.911564 l 0,-30.331582 c 3.48522,-1.393608 6.74733,-2.777711 9.84927,-4.336816 z m 107.55832,0.992764 c 2.9264,1.462831 6.00883,2.811821 9.27453,4.127814 l 0,30.54059 c -3.3734,-1.5354 -6.54533,-3.06915 -9.27453,-4.728694 l 0,-29.93971 z m 185.20283,0 0,29.75683 c -2.8756,1.767854 -6.4276,3.283304 -10.0321,4.911574 l 0,-30.331587 c 3.4852,-1.393667 6.9302,-2.77777 10.0321,-4.336817 z m -459.44121,6.505226 c 2.93587,0.974908 5.90649,1.885276 9.03938,2.743167 l 0,31.141471 c -3.19677,-0.91658 -6.13705,-1.91566 -9.03938,-2.95217 l 0,-30.932468 z m 147.76527,0.182877 0,30.749591 c -2.93159,1.0401 -6.0478,2.03407 -9.27451,2.95217 l 0,-30.932468 c 3.16725,-0.859847 6.30647,-1.790472 9.27451,-2.769293 z m 144.81304,0.783763 c 2.9359,0.974841 5.9326,1.911334 9.0655,2.769292 l 0,31.141476 c -3.1967,-0.91666 -6.1631,-1.94186 -9.0655,-2.9783 l 0,-30.932468 z m 147.7653,0.209003 0,30.723465 c -2.9317,1.0401 -5.8388,2.0602 -9.0655,2.9783 l 0,-30.932473 c 3.1672,-0.859847 6.0974,-1.79048 9.0655,-2.769292 z m -422.23871,3.735932 c 2.83872,0.636716 5.71266,1.235953 8.67363,1.776528 l 0,31.141475 c -2.9493,-0.55293 -5.88263,-1.13035 -8.67363,-1.77653 l 0,-31.141473 z m 111.32034,0.209004 0,31.115349 c -3.20005,0.73557 -6.44445,1.3746 -9.84928,1.98553 l 0,-31.141474 c 3.36108,-0.590125 6.64185,-1.24596 9.84928,-1.959405 z m 181.46697,0.783762 c 2.8387,0.636715 5.5037,1.23602 8.4646,1.776527 l 0,31.11535 c -2.9492,-0.55292 -5.6736,-1.10422 -8.4646,-1.7504 l 0,-31.141477 z m 111.1113,0.209003 0,31.115344 c -3.2,0.73558 -6.4444,1.34848 -9.8492,1.95941 l 0,-31.115349 c 3.3611,-0.590125 6.6418,-1.245893 9.8492,-1.959405 z m -386.15946,2.142283 c 3.91602,0.558607 7.94007,0.998609 12.01768,1.384646 l 0,31.141475 c -4.11203,-0.39657 -8.10482,-0.81463 -12.01768,-1.38465 l 0,-31.141471 z m 74.48352,0.209003 0,31.141478 c -3.34469,0.46466 -6.75329,0.83726 -10.24116,1.17564 l 0,-31.141475 c 3.47349,-0.331629 6.88381,-0.717976 10.24116,-1.175643 z m 218.30384,0.783762 c 3.9159,0.558607 7.9401,0.998601 12.0176,1.384647 l 0,31.141479 c -4.112,-0.39658 -8.1048,-0.81463 -12.0176,-1.38465 l 0,-31.141476 z m 74.4574,0.209003 0,31.115353 c -3.3447,0.46466 -6.7534,0.86338 -10.2412,1.20177 l 0,-31.141479 c 3.4735,-0.33163 6.8838,-0.717977 10.2412,-1.175644 z m -346.16156,0.96664 c 4.1157,0.24904 8.38315,0.352438 12.61857,0.418007 l 0,31.115346 c -4.24375,-0.07 -8.51056,-0.13905 -12.61857,-0.39188 l 0,-31.141473 z m 34.09365,0 0,31.141473 c -4.07282,0.25157 -8.19993,0.32064 -12.40957,0.39188 l 0,-31.115346 c 4.19185,-0.06998 8.33504,-0.167704 12.40957,-0.418007 z m 258.69371,0.992766 c 4.1156,0.24904 8.3569,0.326312 12.5924,0.391881 l 0,31.141476 c -4.2438,-0.07 -8.4844,-0.13906 -12.5924,-0.39188 l 0,-31.141477 z m 34.0675,0 0,31.141477 c -4.0728,0.25156 -8.1999,0.32063 -12.4096,0.39188 l 0,-31.141476 c 4.1919,-0.06997 8.3351,-0.141579 12.4096,-0.391881 z M 897.74387,108.99141 c -13.17055,16.12584 -54.61264,27.79744 -103.61335,27.79744 -48.33977,0 -89.16356,-11.40448 -102.85571,-27.19656 5.31455,3.5023 11.47821,6.49239 18.31391,9.2484 22.14943,8.92889 51.8105,14.1861 84.5418,14.1861 32.73136,0 62.36619,-5.2569 84.51568,-14.1861 7.1877,-2.89793 13.60003,-6.12272 19.09767,-9.84928 z m 292.78733,0.99276 c -13.0408,16.19962 -54.4929,28.1632 -103.6395,28.1632 -48.9072,0 -90.01603,-11.87556 -103.22133,-27.95419 5.4069,3.65286 11.6582,6.79891 18.70573,9.64027 22.1493,8.9289 51.7844,14.1861 84.5156,14.1861 32.7314,0 62.3923,-5.25689 84.5418,-14.1861 7.2024,-2.90385 13.6117,-6.09699 19.0977,-9.84928 z m -288.45051,13.79422 c 0.0253,4.78558 0,9.00229 0,20.29944 0,3.7265 -1.67665,7.6309 -6.08722,12.01769 l 0,-27.98031 c 2.19999,-1.42185 4.19774,-2.82273 6.08722,-4.33682 z m -215.92645,0.18287 c 1.96973,1.57481 4.20001,3.07147 6.50522,4.54583 l 0,27.98031 c -4.62593,-4.50293 -6.50522,-8.60224 -6.50522,-12.40957 0,-11.24424 -0.0252,-15.70914 0,-20.11657 z m 508.71376,1.20177 c 0.025,4.78559 0,8.97624 0,20.27333 0,3.72656 -1.7028,7.63095 -6.1133,12.01768 l 0,-27.95418 c 2.1999,-1.42186 4.2238,-2.82266 6.1133,-4.33683 z m -215.92633,0.18288 c 1.9697,1.57482 4.1739,3.07146 6.4791,4.54583 l 0,27.98031 c -4.6259,-4.503 -6.4791,-8.6283 -6.4791,-12.43569 0,-11.24419 -0.025,-15.68309 0,-20.09045 z m -277.21669,8.07276 c 2.92642,1.46283 5.9827,2.83801 9.24839,4.15394 l 0,30.54059 c -3.37337,-1.53539 -6.51918,-3.06928 -9.24839,-4.7287 l 0,-29.96583 z m 185.20297,0 0,29.75683 c -2.8756,1.76786 -6.24477,3.3095 -9.84927,4.9377 l 0,-30.35771 c 3.48522,-1.39367 6.74733,-2.77771 9.84927,-4.33682 z m 107.55832,1.38465 c 2.9264,1.46284 6.00883,2.83794 9.27453,4.15394 l 0,30.51446 c -3.3734,-1.53539 -6.54533,-3.06921 -9.27453,-4.72869 l 0,-29.93971 z m 185.20283,0 0,29.75683 c -2.8756,1.76786 -6.2447,3.2833 -9.8492,4.91157 l 0,-30.33159 c 3.4852,-1.39366 6.7473,-2.77777 9.8492,-4.33681 z m -459.44121,6.11334 c 2.93587,0.97485 5.90649,1.91134 9.03938,2.76929 l 0,31.11536 c -3.19677,-0.91666 -6.13705,-1.91574 -9.03938,-2.95217 l 0,-30.93248 z m 147.76527,0.18288 0,30.7496 c -2.93159,1.04015 -6.0478,2.03406 -9.27451,2.95217 l 0,-30.93248 c 3.16725,-0.85984 6.30647,-1.79048 9.27451,-2.76929 z m 144.99594,1.20177 c 2.9359,0.97485 5.9326,1.88521 9.0655,2.74316 l 0,31.14148 c -3.1968,-0.91659 -6.1631,-1.91573 -9.0655,-2.95217 l 0,-30.93247 z m 147.7653,0.18288 0,30.74959 c -2.9316,1.0401 -6.0217,2.03407 -9.2484,2.95217 l 0,-30.93247 c 3.1672,-0.85979 6.2803,-1.79048 9.2484,-2.76929 z m -422.42161,3.34405 c 2.83872,0.63671 5.71266,1.23602 8.67363,1.77652 l 0,31.14148 c -2.9493,-0.55293 -5.88263,-1.13035 -8.67363,-1.77653 l 0,-31.14147 z m 111.32034,0.209 0,31.14148 c -3.20005,0.73557 -6.44445,1.34847 -9.84928,1.9594 l 0,-31.14147 c 3.36108,-0.59014 6.64185,-1.2459 9.84928,-1.95941 z m 181.46697,1.17564 c 2.8387,0.63673 5.7127,1.23602 8.6736,1.77653 l 0,31.14148 c -2.9492,-0.55293 -5.8826,-1.13036 -8.6736,-1.77653 l 0,-31.14148 z m 111.3203,0.20901 0,31.11535 c -3.2,0.73558 -6.4444,1.3746 -9.8492,1.98553 l 0,-31.14148 c 3.361,-0.59012 6.6418,-1.24589 9.8492,-1.9594 z m -386.36846,1.77652 c 3.91602,0.5586 7.94007,0.97248 12.01768,1.35852 l 0,31.14148 c -4.11203,-0.39657 -8.10482,-0.81457 -12.01768,-1.38464 l 0,-31.11536 z m 74.48352,0.18288 0,31.14148 c -3.34469,0.46466 -6.75329,0.83727 -10.24116,1.17564 l 0,-31.14148 c 3.47349,-0.33162 6.88381,-0.71797 10.24116,-1.17564 z m 218.30384,1.17564 c 3.9159,0.5586 7.9401,0.99861 12.0176,1.38465 l 0,31.14148 c -4.112,-0.39657 -8.1048,-0.81463 -12.0176,-1.38465 l 0,-31.14148 z m 74.4574,0.20901 0,31.14148 c -3.3447,0.46466 -6.7534,0.83725 -10.2412,1.17564 l 0,-31.14148 c 3.4735,-0.33163 6.8838,-0.71798 10.2412,-1.17564 z m -346.16156,0.60088 c 4.1157,0.24904 8.38315,0.32631 12.61857,0.39188 l 0,31.11536 c -4.24375,-0.07 -8.51056,-0.13907 -12.61857,-0.39189 l 0,-31.11535 z m 34.09365,0 0,31.11535 c -4.07282,0.25156 -8.19993,0.32064 -12.40957,0.39189 l 0,-31.11536 c 4.19185,-0.07 8.33504,-0.14158 12.40957,-0.39188 z m 258.69371,1.35852 c 4.1156,0.24904 8.3569,0.32632 12.5924,0.39188 l 0,31.14148 c -4.2438,-0.07 -8.4844,-0.13905 -12.5924,-0.39188 l 0,-31.14148 z m 34.0675,0 0,31.14148 c -4.0728,0.25157 -8.1999,0.32064 -12.4096,0.39188 l 0,-31.14148 c 4.1919,-0.07 8.3351,-0.14158 12.4096,-0.39188 z m -206.28613,21.47508 c -13.17055,16.12585 -54.61264,27.79743 -103.61335,27.79743 -48.33977,0 -89.16356,-11.40448 -102.85571,-27.19654 5.31455,3.50223 11.47821,6.49238 18.31391,9.24839 22.14943,8.92888 51.8105,14.18609 84.5418,14.18609 32.73136,0 62.36619,-5.25696 84.51568,-14.18609 7.1877,-2.89793 13.60003,-6.12271 19.09767,-9.84928 z m 292.60443,1.20177 c -13.2398,16.08613 -54.5344,27.98031 -103.4566,27.98031 -48.3398,0 -89.13723,-11.61348 -102.82953,-27.40555 5.3243,3.51378 11.46,6.69408 18.31393,9.45739 22.1493,8.92896 51.7844,14.1861 84.5156,14.1861 32.7314,0 62.3923,-5.25689 84.5418,-14.1861 7.1788,-2.89426 13.4217,-6.31139 18.9148,-10.03215 z M 902.08069,188.9874 c 0.0253,4.78564 0,9.00235 0,20.29944 0,3.72656 -1.67665,7.63095 -6.08722,12.01768 l 0,-27.9803 c 2.19999,-1.42174 4.19774,-2.82267 6.08722,-4.33682 z m -215.92645,0.209 c 1.96973,1.57475 4.20001,3.04539 6.50522,4.5197 l 0,27.9803 c -4.62593,-4.50293 -6.50522,-8.60223 -6.50522,-12.40956 0,-11.24425 -0.0252,-15.68302 0,-20.09044 z m 508.71376,1.17565 c 0.025,4.78563 0,9.00235 0,20.29943 0,3.72651 -1.7028,7.63095 -6.1133,12.01769 l 0,-27.98031 c 2.1999,-1.42179 4.2238,-2.82272 6.1133,-4.33681 z m -215.92633,0.18287 c 1.9697,1.57481 4.1739,3.07152 6.4791,4.54582 l 0,27.98031 c -4.6259,-4.50293 -6.4791,-8.60217 -6.4791,-12.40957 0,-11.24418 -0.025,-15.70915 0,-20.11656 z m -277.21669,8.09888 c 2.92642,1.4629 5.9827,2.81188 9.24839,4.12781 l 0,30.5406 c -3.37337,-1.53534 -6.51918,-3.06928 -9.24839,-4.7287 l 0,-29.93971 z m 185.20297,0 0,29.73071 c -2.8756,1.7678 -6.24477,3.3095 -9.84927,4.9377 l 0,-30.33159 c 3.48522,-1.39367 6.74733,-2.77772 9.84927,-4.33682 z m 107.55832,1.35852 c 2.9264,1.4629 6.00883,2.838 9.27453,4.15394 l 0,30.54059 c -3.3734,-1.53533 -6.54533,-3.06921 -9.27453,-4.72869 l 0,-29.96584 z m 185.20283,0 0,29.75683 c -2.8756,1.76786 -6.2447,3.3095 -9.8492,4.9377 l 0,-30.35771 c 3.4852,-1.39361 6.7473,-2.77771 9.8492,-4.33682 z m -459.44121,6.11334 c 2.93587,0.97491 5.90649,1.91135 9.03938,2.7693 l 0,31.11535 c -3.19677,-0.91665 -6.13705,-1.91566 -9.03938,-2.95217 l 0,-30.93248 z m 147.76527,0.20901 0,30.72347 c -2.93159,1.0401 -6.0478,2.034 -9.27451,2.95217 l 0,-30.93248 c 3.16725,-0.8599 6.30647,-1.76435 9.27451,-2.74316 z m 144.99594,1.17564 c 2.9359,0.97491 5.9326,1.91134 9.0655,2.76929 l 0,31.11536 c -3.1968,-0.91659 -6.1631,-1.91567 -9.0655,-2.95217 l 0,-30.93248 z m 147.7653,0.18288 0,30.7496 c -2.9316,1.0401 -6.0217,2.03401 -9.2484,2.95217 l 0,-30.93248 c 3.1672,-0.85985 6.2803,-1.79048 9.2484,-2.76929 z m -422.42161,3.37017 c 2.83872,0.63672 5.71266,1.23596 8.67363,1.77653 l 0,31.11536 c -2.9493,-0.55293 -5.88263,-1.13042 -8.67363,-1.77653 l 0,-31.11536 z m 111.32034,0.18288 0,31.14148 c -3.20005,0.73558 -6.44445,1.34847 -9.84928,1.95941 l 0,-31.11536 c 3.36108,-0.59013 6.64185,-1.27207 9.84928,-1.98553 z m 181.46697,1.17565 c 2.8387,0.63672 5.7127,1.23596 8.6736,1.77652 l 0,31.14148 c -2.9492,-0.55293 -5.8826,-1.13041 -8.6736,-1.77652 l 0,-31.14148 z m 111.3203,0.209 0,31.14148 c -3.2,0.73558 -6.4444,1.34847 -9.8492,1.9594 l 0,-31.14148 c 3.361,-0.59012 6.6418,-1.24596 9.8492,-1.9594 z m -386.36846,1.77653 c 3.91602,0.5586 7.94007,0.99854 12.01768,1.38464 l 0,31.11536 c -4.11203,-0.39657 -8.10482,-0.81463 -12.01768,-1.38465 l 0,-31.11535 z m 74.48352,0.18287 0,31.14148 c -3.34469,0.46466 -6.75329,0.83727 -10.24116,1.17565 l 0,-31.11536 c 3.47349,-0.33163 6.88381,-0.7441 10.24116,-1.20177 z m 218.30384,1.20177 c 3.9159,0.5586 7.9401,0.97242 12.0176,1.35852 l 0,31.14148 c -4.112,-0.39657 -8.1048,-0.81462 -12.0176,-1.38464 l 0,-31.11536 z m 74.4574,0.18288 0,31.14148 c -3.3447,0.46466 -6.7534,0.83726 -10.2412,1.17564 l 0,-31.14148 c 3.4735,-0.33163 6.8838,-0.71797 10.2412,-1.17564 z m -346.16156,0.60088 c 4.1157,0.24904 8.38315,0.32632 12.61857,0.39189 l 0,31.11535 c -4.24375,-0.07 -8.51056,-0.13906 -12.61857,-0.39188 l 0,-31.11536 z m 34.09365,0 0,31.11536 c -4.07282,0.25156 -8.19993,0.32064 -12.40957,0.39188 l 0,-31.11535 c 4.19185,-0.07 8.33504,-0.14158 12.40957,-0.39189 z m 258.69371,1.38465 c 4.1156,0.24904 8.3569,0.32631 12.5924,0.39188 l 0,31.11536 c -4.2438,-0.07 -8.4844,-0.13907 -12.5924,-0.39188 l 0,-31.11536 z m 34.0675,0 0,31.11536 c -4.0728,0.25155 -8.1999,0.32063 -12.4096,0.39188 l 0,-31.11536 c 4.1919,-0.07 8.3351,-0.14158 12.4096,-0.39188 z m -206.46901,21.47508 c -13.25295,16.07862 -54.52319,27.77131 -103.43047,27.77131 -48.33977,0 -89.16356,-11.40447 -102.85571,-27.19655 5.32426,3.51378 11.45999,6.5112 18.31391,9.27452 22.14943,8.92894 51.8105,14.18609 84.5418,14.18609 32.73136,0 62.36619,-5.2569 84.51568,-14.1861 7.14438,-2.8804 13.43923,-6.15057 18.91479,-9.84927 z m 292.97021,1.17565 c -13.0408,16.19961 -54.4929,27.9803 -103.6395,27.9803 -48.3398,0 -89.13723,-11.40447 -102.82953,-27.19654 5.3146,3.5023 11.4782,6.51851 18.31393,9.27452 22.1493,8.92888 51.7844,14.18609 84.5156,14.18609 32.7314,0 62.3923,-5.2569 84.5418,-14.18609 7.2629,-2.9282 13.5623,-6.28324 19.0977,-10.05828 z m -288.45051,13.5852 c 0.0189,3.25232 0.006,8.55684 0,13.79422 -2.05271,0.76243 -4.09126,1.5042 -6.08722,2.37741 l 0,-11.83481 c 2.19999,-1.42186 4.19774,-2.82266 6.08722,-4.33682 z m -215.92645,0.20901 c 1.96973,1.5748 4.20001,3.04533 6.50522,4.51969 l 0,27.98031 c -4.62593,-4.503 -6.50522,-8.60218 -6.50522,-12.40957 0,-11.24419 -0.0252,-15.68301 0,-20.09043 z m 508.71376,1.17564 c 0.025,4.78564 0,9.00235 0,20.29944 0,3.72656 -1.7028,7.63095 -6.1133,12.01768 l 0,-27.9803 c 2.1999,-1.42179 4.2238,-2.82267 6.1133,-4.33682 z m -215.92633,0.209 c 1.9697,1.57474 4.1739,3.04533 6.4791,4.5197 l 0,8.67363 c -2.1573,-0.85719 -4.2601,-1.83114 -6.4791,-2.56029 0,-3.91255 -0.013,-8.29971 0,-10.63304 z m -277.21669,8.07275 c 2.92642,1.46283 5.9827,2.81188 9.24839,4.12782 l 0,30.54059 c -3.37337,-1.53539 -6.51918,-3.06921 -9.24839,-4.72869 l 0,-29.93972 z m 185.20297,0 0,11.02492 c -3.36182,1.83841 -6.69991,3.7536 -9.84927,5.90434 l 0,-12.59244 c 3.48522,-1.39367 6.74733,-2.77778 9.84927,-4.33682 z m 107.55832,1.38465 c 2.9264,1.46283 6.00883,2.81188 9.27453,4.12781 l 0,8.85652 c -3.0161,-1.88116 -6.08073,-3.51765 -9.27453,-5.12058 l 0,-7.86375 z m 185.20283,0 0,29.73071 c -2.8756,1.7678 -6.2447,3.3095 -9.8492,4.9377 l 0,-30.33159 c 3.4852,-1.39367 6.7473,-2.77778 9.8492,-4.33682 z m -459.44121,6.08722 c 2.93587,0.97485 5.90649,1.91134 9.03938,2.76929 l 0,31.14148 c -3.19677,-0.91659 -6.13705,-1.94186 -9.03938,-2.97829 l 0,-30.93248 z m 147.76527,0.209 0,16.3545 c -3.23479,2.71541 -6.35522,5.62609 -9.27451,8.67364 l 0,-22.25885 c 3.16725,-0.85978 6.30647,-1.79048 9.27451,-2.76929 z m 144.99594,1.17565 c 2.9359,0.97484 5.9326,1.91134 9.0655,2.76929 l 0,16.92926 c -2.9148,-2.75695 -5.8762,-5.41901 -9.0655,-7.86375 l 0,-11.8348 z m 147.7653,0.209 0,30.72347 c -2.9316,1.04017 -6.0217,2.03407 -9.2484,2.95217 l 0,-30.93247 c 3.1672,-0.85985 6.2803,-1.76436 9.2484,-2.74317 z m -422.42161,3.34405 c 2.83872,0.63672 5.71266,1.23602 8.67363,1.77653 l 0,31.11535 c -2.9493,-0.55293 -5.88263,-1.13035 -8.67363,-1.77653 l 0,-31.11535 z m 111.32034,0.18288 0,30.93247 0,0.20901 c -0.0253,0.0315 -0.15955,-0.0315 -0.18288,0 -3.14028,0.71723 -6.32708,1.36019 -9.6664,1.9594 l 0,-31.11535 c 3.36108,-0.59013 6.64185,-1.27202 9.84928,-1.98553 z m 93.00644,0.60088 c 55.0285,0 99.48543,44.48314 99.48543,99.51166 0,55.02851 -44.45693,99.69391 -99.48543,99.69454 -55.02852,0 -99.69454,-44.66603 -99.69454,-99.69454 0,-55.02852 44.66602,-99.51166 99.69454,-99.51166 z m 88.46053,0.60089 c 2.8387,0.63671 5.7127,1.23602 8.6736,1.77652 l 0,31.11536 c -0.8115,-0.15194 -1.5714,-0.44453 -2.3774,-0.60089 -1.9398,-2.76168 -4.1285,-5.28686 -6.2962,-7.86374 l 0,-24.42725 z m 111.3203,0.18287 0,31.14148 c -3.2,0.73558 -6.4444,1.34848 -9.8492,1.95941 l 0,-31.11536 c 3.361,-0.59012 6.6418,-1.27201 9.8492,-1.98553 z m -386.36846,1.77653 c 3.91602,0.55861 7.94007,0.99861 12.01768,1.38465 l 0,31.11535 c -4.11203,-0.39657 -8.10482,-0.78851 -12.01768,-1.35852 l 0,-31.14148 z m 74.48352,0.209 0,31.11536 c -3.34469,0.46466 -6.75329,0.83727 -10.24116,1.17564 l 0,-31.11535 c 3.47349,-0.33163 6.88381,-0.71799 10.24116,-1.17565 z m -324.71263,0.39189 c -67.96591,0 -122.92002,24.12412 -122.92002,53.97508 0.0504,-16.77637 -0.20648,28.85167 -0.209,46.29421 0,3.52008 0.88936,6.84638 2.16841,10.05828 -1.1928,2.96154 -1.95941,5.92473 -1.95941,9.06552 0.0504,-16.77638 -0.20648,28.85168 -0.209,46.29421 0,8.97435 4.57101,17.11862 11.4168,23.64349 6.84578,6.52481 16.12183,11.88948 27.19654,16.35446 22.14943,8.92979 51.78438,14.18613 84.51568,14.18613 32.73136,0 62.39231,-5.25634 84.5418,-14.18613 11.07472,-4.46498 20.32464,-9.82965 27.17042,-16.35446 6.84579,-6.52487 11.44293,-14.66946 11.44293,-23.64349 l 0,-46.11134 c 1.2e-4,-0.0379 0,-0.15261 0,-0.18287 0,-3.25926 -0.49571,-6.39076 -1.77653,-9.4574 1.17489,-3.08543 1.77653,-6.30116 1.77653,-9.6664 l 0,-46.29421 c 0,-29.85034 -55.18912,-53.97508 -123.15515,-53.97508 z m 543.01647,0.78376 c 3.9159,0.5586 7.9401,0.99861 12.0176,1.38464 l 0,31.11536 c -4.112,-0.39657 -8.1048,-0.81463 -12.0176,-1.38465 l 0,-31.11535 z m 74.4574,0.18288 0,31.14148 c -3.3447,0.46466 -6.7534,0.83726 -10.2412,1.17564 l 0,-31.11536 c 3.4735,-0.33163 6.8838,-0.74411 10.2412,-1.20176 z m -346.16156,0.60088 c 4.1157,0.24903 8.38315,0.32631 12.61857,0.39188 l 0,31.14148 c -4.24375,-0.07 -8.51056,-0.13906 -12.61857,-0.39188 l 0,-31.14148 z m 34.09365,0 0,31.14148 c -4.07282,0.25156 -8.19993,0.32064 -12.40957,0.39188 l 0,-31.14148 c 4.19185,-0.07 8.33504,-0.14159 12.40957,-0.39188 z m 258.69371,1.38465 c 4.1156,0.24904 8.3569,0.32631 12.5924,0.39188 l 0,31.11535 c -4.2438,-0.07 -8.4844,-0.13906 -12.5924,-0.39188 l 0,-31.11535 z m 34.0675,0 0,31.11535 c -4.0728,0.25157 -8.1999,0.32064 -12.4096,0.39188 l 0,-31.11535 c 4.1919,-0.07 8.3351,-0.14158 12.4096,-0.39188 z m -598.16717,12.20056 c 59.58364,0 107.97629,17.36909 107.97629,38.82235 -0.14375,21.40924 -48.48116,38.82235 -107.97629,38.82235 -59.49513,0 -107.62436,-17.41311 -107.76728,-38.82235 0,-21.45295 48.1837,-38.82235 107.76728,-38.82235 z m 185.41198,9.84928 c 5.32426,3.51377 11.45999,6.5112 18.31391,9.27451 22.14943,8.92882 51.8105,14.1861 84.5418,14.1861 15.82947,0 30.84358,-1.24784 44.72669,-3.55306 -0.72398,1.45199 -1.50445,2.85091 -2.1684,4.33682 -13.09382,2.03965 -27.35155,3.16117 -42.55829,3.16117 -48.33977,0 -89.16356,-11.61347 -102.85571,-27.40554 z m 499.25639,0.60088 c -13.0408,16.19961 -54.4929,27.98031 -103.6395,27.98031 -13.3727,0 -26.0546,-1.13548 -37.8296,-2.7693 -0.575,-1.34569 -1.1529,-2.59997 -1.7765,-3.91881 12.4424,1.78943 25.7257,2.95217 39.6061,2.95217 32.7314,0 62.3923,-5.25689 84.5418,-14.18609 7.2629,-2.92818 13.5623,-6.28323 19.0977,-10.05828 z m -504.37696,13.97709 c 1.96973,1.57499 4.20001,3.07119 6.50522,4.54582 l 0,27.98031 c -4.62593,-4.50287 -6.50522,-8.60212 -6.50522,-12.40957 0,-11.24393 -0.0252,-15.70883 0,-20.11656 z m 508.71376,0.99277 c 0.025,4.78563 0,9.00235 0,20.29943 0,3.72651 -1.7028,7.63095 -6.1133,12.01769 l 0,-27.98031 c 2.1999,-1.42179 4.2238,-2.82272 6.1133,-4.33681 z m -493.14302,8.46463 c 2.92642,1.4627 5.9827,2.8375 9.24839,4.15394 l 0,30.54059 c -3.37337,-1.53521 -6.51918,-3.06929 -9.24839,-4.7287 l 0,-29.96583 z m 477.96412,1.20176 0,29.75684 c -2.8756,1.76786 -6.2447,3.28337 -9.8492,4.91157 l 0,-30.33159 c 3.4852,-1.39361 6.7473,-2.7777 9.8492,-4.33682 z m -459.44121,6.29623 c 2.93587,0.97472 5.90649,1.91121 9.03938,2.76929 l 0,31.11535 c -3.19677,-0.91665 -6.13705,-1.91566 -9.03938,-2.95217 l 0,-30.93247 z m 440.52651,1.38464 0,30.72348 c -2.9316,1.04009 -6.0217,2.03407 -9.2484,2.95217 l 0,-30.93248 c 3.1672,-0.85985 6.2803,-1.76435 9.2484,-2.74317 z m -422.42161,3.55306 c 2.83872,0.63677 5.71266,1.20945 8.67363,1.7504 l 0,31.14148 c -2.9493,-0.55482 -5.88263,-1.13029 -8.67363,-1.77653 l 0,-31.11535 z m 404.10761,1.35852 0,31.14148 c -3.2,0.73557 -6.4444,1.34847 -9.8492,1.9594 l 0,-31.11535 c 3.361,-0.59013 6.6418,-1.27208 9.8492,-1.98553 z m -386.36846,1.98553 c 3.91602,0.56112 7.94007,0.99816 12.01768,1.38465 l 0,31.11535 c -4.11203,-0.3972 -8.10482,-0.81469 -12.01768,-1.38465 l 0,-31.11535 z m 74.48352,0.18288 0,1.59365 c -2.52046,9.49638 -3.94493,19.43784 -3.94493,29.73071 0,0.0662 -1.4e-4,0.1428 0,0.209 -2.09338,0.24967 -4.1475,0.57507 -6.29623,0.78376 l 0,-31.11535 c 3.47349,-0.33416 6.88381,-0.74405 10.24116,-1.20177 z m 292.76124,1.20177 0,31.11535 c -3.3447,0.46466 -6.7534,0.83727 -10.2412,1.17564 l 0,-31.11535 c 3.4735,-0.33164 6.8838,-0.71799 10.2412,-1.17564 z m -68.7621,0.39188 c 2.1044,0.24021 4.1808,0.58074 6.3223,0.78376 l 0,31.11535 c -0.8804,-0.0851 -1.701,-0.28344 -2.5602,-0.39188 0.01,-0.60021 0.1828,-1.17436 0.1828,-1.77652 0,-10.28265 -1.4378,-20.24279 -3.9449,-29.73071 z m -277.39946,0.39188 c 4.1157,0.25219 8.38315,0.32883 12.61857,0.39188 l 0,31.11535 c -4.24375,-0.0694 -8.51056,-0.13969 -12.61857,-0.39188 l 0,-31.11535 z m 34.09365,0 0,31.11535 c -4.07282,0.25219 -8.19993,0.32253 -12.40957,0.39188 l 0,-31.11535 c 4.19185,-0.0694 8.33504,-0.14599 12.40957,-0.39188 z m 258.69371,1.17564 c 4.1156,0.24904 8.3569,0.32631 12.5924,0.39188 l 0,31.14148 c -4.2438,-0.07 -8.4844,-0.13906 -12.5924,-0.39188 l 0,-31.14148 z m 34.0675,0 0,31.14148 c -4.0728,0.25156 -8.1999,0.32064 -12.4096,0.39188 l 0,-31.14148 c 4.1919,-0.07 8.3351,-0.14158 12.4096,-0.39188 z m -706.11733,11.80868 c 1.96974,1.57482 4.20001,3.07146 6.50522,4.54582 l 0,27.98031 c -4.62594,-4.503 -6.50522,-8.41929 -6.50522,-12.22669 0,-11.24418 -0.0252,-15.89214 0,-20.29944 z m 215.92645,0 c 0.0253,4.78558 0,9.00236 0,20.29944 0,3.7265 -1.70277,7.63095 -6.11334,12.01769 l 0,-27.98031 c 2.19998,-1.42185 4.22386,-2.82266 6.11334,-4.33682 z m -15.17886,9.4574 0,29.96584 c -2.87561,1.76785 -6.24477,3.2833 -9.84928,4.91157 l 0,-30.33159 c 3.48522,-1.39367 6.74733,-2.98677 9.84928,-4.54582 z m -185.20298,0.209 c 2.92642,1.46283 6.00884,2.81182 9.27452,4.12782 l 0,30.54059 c -3.37336,-1.5354 -6.54531,-3.06915 -9.27452,-4.7287 l 0,-29.93971 z m 277.81753,0.60089 c 5.32426,3.51371 11.45999,6.69408 18.31391,9.45739 22.14943,8.92883 51.8105,14.1861 84.5418,14.1861 11.73313,0 22.94536,-0.71026 33.67565,-1.98553 0.15888,1.1805 0.40669,2.38402 0.60088,3.55305 -10.79434,1.34545 -22.19563,2.16841 -34.27653,2.16841 -48.33977,0 -89.16357,-11.58748 -102.85571,-27.37942 z m 499.07349,0.78376 c -13.2398,16.08612 -54.5344,27.7713 -103.4566,27.7713 -10.6025,0 -20.6807,-0.55308 -30.3316,-1.56752 0.2213,-1.22022 0.2091,-2.50278 0.3919,-3.73594 9.6023,1.01161 19.5734,1.56753 29.9397,1.56753 32.7314,0 62.3923,-5.25689 84.5418,-14.18609 7.1788,-2.89427 13.4217,-6.12852 18.9148,-9.84928 z m -758.36811,6.11334 c 2.93589,0.97484 5.93261,1.88521 9.06552,2.74317 l 0,30.93248 c -3.19677,-0.91666 -6.16317,-1.91573 -9.06552,-2.95217 l 0,-30.72348 z m 147.76528,0 0,30.93248 c -2.93159,1.0401 -6.02167,2.03407 -9.24839,2.95217 l 0,-31.14148 c 3.16727,-0.85985 6.28036,-1.76436 9.24839,-2.74317 z m -129.63425,4.91158 c 2.83873,0.63671 5.71266,1.23602 8.67364,1.77653 l 0,31.14148 c -2.94932,-0.55293 -5.88264,-1.13036 -8.67364,-1.77653 l 0,-31.14148 z m 111.32034,0 0,31.14148 c -3.20005,0.73557 -6.44444,1.34847 -9.84927,1.9594 l 0,-30.93247 c 3.36107,-0.59013 6.64184,-1.4549 9.84927,-2.16841 z m 124.72268,2.76929 c 1.96973,1.575 4.20001,3.04507 6.50522,4.5197 l 0,27.9803 c -4.62593,-4.50287 -6.50522,-8.60211 -6.50522,-12.40956 0,-11.24394 -0.0252,-15.6827 0,-20.09044 z m -218.30387,0.57476 c 3.91602,0.5586 7.94007,0.9986 12.01769,1.38465 l 0,31.14148 c -4.11203,-0.39657 -8.10482,-0.81464 -12.01769,-1.38465 l 0,-31.14148 z m 74.48352,0.209 0,31.14148 c -3.34468,0.46467 -6.77942,0.83727 -10.26728,1.17565 l 0,-31.14148 c 3.47349,-0.33163 6.90992,-0.71798 10.26728,-1.17565 z m 652.53411,0.20901 c 0.025,4.78557 0,8.97616 0,20.27331 0,3.72649 -1.7028,7.63088 -6.1133,12.01768 l 0,-27.9803 c 2.1999,-1.42186 4.2238,-2.79661 6.1133,-4.31069 z m -705.93443,1.56752 c 4.11569,0.24904 8.38315,0.50919 12.61857,0.57476 l 0,31.14148 c -4.24374,-0.07 -8.51057,-0.13906 -12.61857,-0.39188 l 0,-31.32436 z m 34.09365,0 0,31.32436 c -4.07283,0.25156 -8.22606,0.32063 -12.43569,0.39188 l 0,-31.14148 c 4.19185,-0.07 8.36116,-0.32446 12.43569,-0.57476 z m 178.69776,6.89711 c 2.92642,1.4627 5.9827,2.812 9.24839,4.12781 l 0,30.5406 c -3.37337,-1.53522 -6.51918,-3.06928 -9.24839,-4.7287 l 0,-29.93971 z m 477.96412,1.17564 0,29.75683 c -2.8756,1.76786 -6.2447,3.28337 -9.8492,4.91158 l 0,-30.33159 c 3.4852,-1.39368 6.7473,-2.77771 9.8492,-4.33682 z m -459.44121,6.29622 c 2.93587,0.97472 5.90649,1.91121 9.03938,2.76929 l 0,31.14148 c -3.19677,-0.91671 -6.13705,-1.94179 -9.03938,-2.97829 l 0,-30.93248 z m 440.52651,1.38465 0,30.7496 c -2.9316,1.04016 -6.0217,2.03407 -9.2484,2.95217 l 0,-30.93248 c 3.1672,-0.85984 6.2803,-1.79048 9.2484,-2.76929 z m -422.42161,3.55305 c 2.83872,0.63679 5.71266,1.23558 8.67363,1.77653 l 0,31.11536 c -2.9493,-0.55482 -5.88263,-1.13029 -8.67363,-1.77653 l 0,-31.11536 z m 404.10761,1.38465 0,31.11535 c -3.2,0.73559 -6.4444,1.3746 -9.8492,1.98553 l 0,-31.14148 c 3.361,-0.59012 6.6418,-1.24589 9.8492,-1.9594 z m -532.56622,1.77653 c -12.54088,16.47696 -54.33636,28.55506 -104.03135,28.55506 -49.4747,0 -90.91547,-12.00663 -103.61335,-28.37219 5.52387,3.80103 11.81981,7.30692 19.09767,10.24116 22.14943,8.92889 51.99338,14.1861 84.72468,14.1861 32.73136,0 62.36619,-5.25689 84.51568,-14.1861 7.39607,-2.98196 13.72437,-6.54628 19.30667,-10.42403 z m 146.19776,0.18287 c 3.91602,0.56113 7.94007,0.99817 12.01768,1.38465 l 0,31.11536 c -4.11203,-0.39721 -8.10482,-0.78857 -12.01768,-1.35853 l 0,-31.14148 z m 74.48352,0.20901 0,31.11535 c -3.34469,0.46656 -6.75329,0.83771 -10.24116,1.17565 l 0,-31.11536 c 3.47349,-0.33414 6.88381,-0.71792 10.24116,-1.17564 z m 292.76124,1.17564 0,31.11536 c -3.3447,0.46466 -6.7534,0.86339 -10.2412,1.20176 l 0,-31.14148 c 3.4735,-0.33163 6.8838,-0.71797 10.2412,-1.17564 z m -70.5125,0.209 c 2.6781,0.32659 5.3298,0.70695 8.0727,0.96664 l 0,31.14148 c -4.112,-0.39657 -8.1048,-0.81456 -12.0176,-1.38464 l 0,-20.09044 c 1.4911,-3.4598 2.7899,-7.00905 3.9449,-10.63304 z m -275.64906,0.57476 c 4.1157,0.24589 8.38315,0.32884 12.61857,0.39188 l 0,31.14148 c -4.24375,-0.0694 -8.51056,-0.13969 -12.61857,-0.39188 l 0,-31.14148 z m 34.09365,0 0,31.14148 c -4.07282,0.25219 -8.19993,0.32253 -12.40957,0.39188 l 0,-31.14148 c 4.19185,-0.0694 8.33504,-0.14599 12.40957,-0.39188 z m 258.69371,1.17565 c 4.1156,0.24903 8.3569,0.32631 12.5924,0.39188 l 0,31.14148 c -4.2438,-0.07 -8.4844,-0.13907 -12.5924,-0.39188 l 0,-31.14148 z m 34.0675,0 0,31.14148 c -4.0728,0.25156 -8.1999,0.32064 -12.4096,0.39188 l 0,-31.14148 c 4.1919,-0.07 8.3351,-0.14159 12.4096,-0.39188 z m -490.19088,12.01768 c 0.0253,4.78558 0,9.00236 0,20.29944 0,3.72656 -1.70277,7.63095 -6.11334,12.01768 l 0,-27.9803 c 2.19998,-1.42186 4.22386,-2.82267 6.11334,-4.33682 z m -215.92645,0.209 c 1.96974,1.57481 4.20001,3.04533 6.50522,4.5197 l 0,27.98031 c -4.62594,-4.503 -6.50522,-8.60218 -6.50522,-12.40957 0,-11.24418 -0.0252,-15.68308 0,-20.09044 z m 441.91118,4.5197 c 1.6047,3.06109 3.25821,5.98976 5.12058,8.88264 -1.69812,0.33793 -3.35266,0.64944 -5.12058,0.96664 l 0,-9.84928 z m -426.36657,4.9377 c 2.92642,1.46284 6.00884,2.81182 9.27452,4.12781 l 0,30.5406 c -3.37336,-1.5354 -6.54531,-3.06921 -9.27452,-4.7287 l 0,-29.93971 z m 185.20298,0 0,29.75683 c -2.87561,1.76786 -6.24477,3.28331 -9.84928,4.91158 l 0,-30.33159 c 3.48522,-1.39367 6.74733,-2.77777 9.84928,-4.33682 z m 441.15344,4.12781 0,1.59365 c -0.2704,-0.0504 -0.5145,-0.1592 -0.7837,-0.209 0.2938,-0.44134 0.4962,-0.93915 0.7837,-1.38465 z m -607.83351,3.37018 c 2.93589,0.97485 5.93261,1.88521 9.06552,2.74317 l 0,31.14148 c -3.19677,-0.91659 -6.16317,-1.91573 -9.06552,-2.95217 l 0,-30.93248 z m 147.76528,0.18288 0,30.7496 c -2.93159,1.0401 -6.02167,2.03407 -9.24839,2.95217 l 0,-30.93248 c 3.16727,-0.85978 6.28036,-1.79048 9.24839,-2.76929 z m -129.63425,4.7287 c 2.83873,0.63671 5.71266,1.23602 8.67364,1.77652 l 0,31.11532 c -2.94932,-0.55289 -5.88264,-1.10418 -8.67364,-1.75036 l 0,-31.14148 z m 111.32034,0.209 0,31.11535 c -3.20005,0.73558 -6.44444,1.37462 -9.84927,1.98549 l 0,-31.14143 c 3.36107,-0.59013 6.64184,-1.2459 9.84927,-1.95941 z m -93.58119,3.13505 c 3.91602,0.5586 7.94007,0.9986 12.01769,1.38464 l 0,31.14153 c -4.11203,-0.39661 -8.10482,-0.8147 -12.01769,-1.38469 l 0,-31.14148 z m 74.48352,0.209 0,31.11531 c -3.34468,0.46474 -6.77942,0.86344 -10.26728,1.20186 l 0,-31.14153 c 3.47349,-0.33163 6.90992,-0.71797 10.26728,-1.17564 z m -53.40032,1.95941 c 4.11569,0.24903 8.38315,0.32631 12.61857,0.39188 l 0,31.14148 c -4.24374,-0.07 -8.51057,-0.13903 -12.61857,-0.39193 l 0,-31.14143 z m 34.09365,0 0,31.14143 c -4.07283,0.25164 -8.22606,0.3207 -12.43569,0.39193 l 0,-31.14148 c 4.19185,-0.07 8.36116,-0.14159 12.43569,-0.39188 z"
       id="path3332"
       inkscape:connector-curvature="0" />
  </g>
</svg>
