<?xml version="1.0" encoding="UTF-8" standalone="no"?>
<!-- Created with Inkscape (http://www.inkscape.org/) -->

<svg
   xmlns:dc="http://purl.org/dc/elements/1.1/"
   xmlns:cc="http://creativecommons.org/ns#"
   xmlns:rdf="http://www.w3.org/1999/02/22-rdf-syntax-ns#"
   xmlns:svg="http://www.w3.org/2000/svg"
   xmlns="http://www.w3.org/2000/svg"
   xmlns:sodipodi="http://sodipodi.sourceforge.net/DTD/sodipodi-0.dtd"
   xmlns:inkscape="http://www.inkscape.org/namespaces/inkscape"
   id="svg2"
   version="1.1"
   inkscape:version="0.48.5 r10040"
   width="878.30945"
   height="172.629"
   xml:space="preserve"
   sodipodi:docname="logo-claim.svg"><metadata
     id="metadata8"><rdf:RDF><cc:Work
         rdf:about=""><dc:format>image/svg+xml</dc:format><dc:type
           rdf:resource="http://purl.org/dc/dcmitype/StillImage" /><dc:title></dc:title></cc:Work></rdf:RDF></metadata><defs
     id="defs6" /><sodipodi:namedview
     pagecolor="#ffffff"
     bordercolor="#666666"
     borderopacity="1"
     objecttolerance="10"
     gridtolerance="10"
     guidetolerance="10"
     inkscape:pageopacity="0"
     inkscape:pageshadow="2"
     inkscape:window-width="1920"
     inkscape:window-height="1181"
     id="namedview4"
     showgrid="false"
     fit-margin-top="10"
     fit-margin-left="10"
     fit-margin-right="10"
     fit-margin-bottom="10"
     inkscape:zoom="1.0917938"
     inkscape:cx="584.7899"
     inkscape:cy="138.61586"
     inkscape:window-x="-4"
     inkscape:window-y="-4"
     inkscape:window-maximized="1"
     inkscape:current-layer="g10" /><g
     id="g10"
     inkscape:groupmode="layer"
     inkscape:label="ink_ext_XXXXXX"
     transform="matrix(1.25,0,0,-1.25,10.000001,223.50868)"><g
       transform="scale(1,-1)"
       id="text186"><path
         d="m 254.07708,-98.689102 5.31554,0 0,-25.477918 8.66066,0 0,-4.49072 -22.63686,0 0,4.49072 8.66066,0 0,25.477918"
         style="font-size:45.82360077px;font-variant:normal;font-weight:600;writing-mode:lr-tb;fill:#231f20;fill-opacity:1;fill-rule:nonzero;stroke:none;font-family:Source Sans Pro;-inkscape-font-specification:Source Sans Pro"
         id="path3293"
         inkscape:connector-curvature="0" /><path
         d="m 272.45233,-98.689102 5.26972,0 0,-15.717498 c 1.87876,-1.83294 3.16183,-2.79524 5.13224,-2.79524 2.47447,0 3.52842,1.37471 3.52842,5.08642 l 0,13.426318 5.26971,0 0,-14.113668 c 0,-5.68212 -2.10789,-8.9356 -6.91936,-8.9356 -3.07018,0 -5.31554,1.60382 -7.19431,3.39094 l 0.1833,-4.35324 0,-8.33989 -5.26972,0 0,32.351458"
         style="font-size:45.82360077px;font-variant:normal;font-weight:600;writing-mode:lr-tb;fill:#231f20;fill-opacity:1;fill-rule:nonzero;stroke:none;font-family:Source Sans Pro;-inkscape-font-specification:Source Sans Pro"
         id="path3295"
         inkscape:connector-curvature="0" /><path
         d="m 307.64487,-98.139219 c 2.84106,0 5.54466,-1.008121 7.69836,-2.428651 l -1.78712,-3.2993 c -1.64965,1.05394 -3.2993,1.64965 -5.22389,1.64965 -3.62006,0 -6.18619,-2.29118 -6.64442,-6.27783 l 14.29696,0 c 0.13747,-0.54989 0.22912,-1.55801 0.22912,-2.56612 0,-6.27783 -3.20766,-10.6769 -9.30219,-10.6769 -5.26971,0 -10.35613,4.49072 -10.35613,11.82249 0,7.42341 4.8573,11.776661 11.08931,11.776661 m -6.00289,-13.930371 c 0.45823,-3.62006 2.74941,-5.59048 5.40718,-5.59048 3.07018,0 4.58236,2.10789 4.58236,5.59048 l -9.98954,0"
         style="font-size:45.82360077px;font-variant:normal;font-weight:600;writing-mode:lr-tb;fill:#231f20;fill-opacity:1;fill-rule:nonzero;stroke:none;font-family:Source Sans Pro;-inkscape-font-specification:Source Sans Pro"
         id="path3297"
         inkscape:connector-curvature="0" /><path
         d="m 338.52997,-98.139219 c 2.42865,0 4.71984,-1.328886 6.36948,-2.978531 l 0.1833,0 0.36659,2.428648 4.35324,0 0,-32.351458 -5.26971,0 0,8.1566 0.18329,3.62006 c -1.74129,-1.51218 -3.34512,-2.47447 -5.91124,-2.47447 -4.90312,0 -9.53131,4.49072 -9.53131,11.82249 0,7.42341 3.62007,11.776661 9.25636,11.776661 m 1.28307,-4.353241 c -3.25348,0 -5.08642,-2.61195 -5.08642,-7.46925 0,-4.71982 2.337,-7.42342 5.22389,-7.42342 1.51217,0 3.02436,0.50406 4.58236,1.87877 l 0,10.4936 c -1.51218,1.7413 -2.97854,2.5203 -4.71983,2.5203"
         style="font-size:45.82360077px;font-variant:normal;font-weight:600;writing-mode:lr-tb;fill:#231f20;fill-opacity:1;fill-rule:nonzero;stroke:none;font-family:Source Sans Pro;-inkscape-font-specification:Source Sans Pro"
         id="path3299"
         inkscape:connector-curvature="0" /><path
         d="m 356.49283,-98.689102 5.26971,0 0,-22.499388 -5.26971,0 0,22.499388 m 2.65777,-26.440218 c 1.87876,0 3.25347,-1.23724 3.25347,-2.97853 0,-1.78712 -1.37471,-3.02436 -3.25347,-3.02436 -1.87877,0 -3.25348,1.23724 -3.25348,3.02436 0,1.74129 1.37471,2.97853 3.25348,2.97853"
         style="font-size:45.82360077px;font-variant:normal;font-weight:600;writing-mode:lr-tb;fill:#231f20;fill-opacity:1;fill-rule:nonzero;stroke:none;font-family:Source Sans Pro;-inkscape-font-specification:Source Sans Pro"
         id="path3301"
         inkscape:connector-curvature="0" /><path
         d="m 376.33443,-88.745381 c 7.33177,0 12.00578,-3.482598 12.00578,-7.927483 0,-3.895006 -2.84106,-5.544656 -8.24824,-5.544656 l -3.98666,0 c -2.74941,0 -3.66588,-0.779 -3.66588,-2.06206 0,-1.00812 0.41241,-1.558 1.09976,-2.15371 1.00812,0.41241 2.10789,0.59571 3.07018,0.59571 4.76565,0 8.52319,-2.65778 8.52319,-7.65255 0,-1.558 -0.54988,-2.93271 -1.28306,-3.80335 l 4.12413,0 0,-3.89501 -8.06496,0 c -0.91647,-0.32077 -2.06206,-0.54988 -3.2993,-0.54988 -4.71982,0 -8.88978,2.88689 -8.88978,8.06495 0,2.65777 1.42054,4.81148 2.93271,5.95707 l 0,0.18329 c -1.28305,0.91647 -2.47447,2.42866 -2.47447,4.16995 0,1.83294 0.87065,3.02436 2.01624,3.757536 l 0,0.183294 c -2.06206,1.28306 -3.20765,2.932713 -3.20765,4.811478 0,3.940826 3.98666,5.865421 9.34801,5.865421 m 0.27494,-20.391499 c -2.19953,0 -3.94083,-1.64966 -3.94083,-4.53654 0,-2.84106 1.7413,-4.44489 3.94083,-4.44489 2.19953,0 3.89501,1.64965 3.89501,4.44489 0,2.88688 -1.7413,4.53654 -3.89501,4.53654 m 0.54989,16.954729 c -3.57424,0 -5.77378,-1.191415 -5.77378,-3.207652 0,-1.053942 0.54989,-2.062063 1.7413,-2.978534 0.87065,0.229118 1.83294,0.320765 3.07018,0.320765 l 3.07018,0 c 2.56612,0 3.98666,0.504062 3.98666,2.245357 0,1.924589 -2.47448,3.620064 -6.09454,3.620064"
         style="font-size:45.82360077px;font-variant:normal;font-weight:600;writing-mode:lr-tb;fill:#231f20;fill-opacity:1;fill-rule:nonzero;stroke:none;font-family:Source Sans Pro;-inkscape-font-specification:Source Sans Pro"
         id="path3303"
         inkscape:connector-curvature="0" /><path
         d="m 392.32687,-98.689102 5.26972,0 0,-22.499388 -5.26972,0 0,22.499388 m 2.65777,-26.440218 c 1.87877,0 3.25348,-1.23724 3.25348,-2.97853 0,-1.78712 -1.37471,-3.02436 -3.25348,-3.02436 -1.87876,0 -3.25347,1.23724 -3.25347,3.02436 0,1.74129 1.37471,2.97853 3.25347,2.97853"
         style="font-size:45.82360077px;font-variant:normal;font-weight:600;writing-mode:lr-tb;fill:#231f20;fill-opacity:1;fill-rule:nonzero;stroke:none;font-family:Source Sans Pro;-inkscape-font-specification:Source Sans Pro"
         id="path3305"
         inkscape:connector-curvature="0" /><path
         d="m 412.26015,-98.139219 c 1.78712,0 3.34513,-0.412413 4.58236,-0.824825 l -0.91647,-3.895006 c -0.64153,0.27494 -1.558,0.50406 -2.337,0.50406 -2.15371,0 -3.16183,-1.28306 -3.16183,-3.94083 l 0,-10.72272 5.72795,0 0,-4.16995 -5.72795,0 0,-6.14036 -4.39907,0 -0.64153,6.14036 -3.48259,0.22912 0,3.94083 3.20765,0 0,10.72272 c 0,4.8573 1.9246,8.156601 7.14848,8.156601"
         style="font-size:45.82360077px;font-variant:normal;font-weight:600;writing-mode:lr-tb;fill:#231f20;fill-opacity:1;fill-rule:nonzero;stroke:none;font-family:Source Sans Pro;-inkscape-font-specification:Source Sans Pro"
         id="path3307"
         inkscape:connector-curvature="0" /><path
         d="m 425.63605,-98.139219 c 2.65777,0 4.94895,-1.328886 6.96519,-3.024361 l 0.18329,0 0.36659,2.474478 4.35325,0 0,-13.334668 c 0,-6.27783 -2.79525,-9.7146 -8.38572,-9.7146 -3.57424,0 -6.7819,1.37471 -9.25637,2.93271 l 1.92459,3.52841 c 2.01624,-1.19141 4.12413,-2.19953 6.32366,-2.19953 3.07018,0 4.03247,2.01624 4.12412,4.39907 -9.25636,1.00812 -13.24302,3.52842 -13.24302,8.33989 0,3.94083 2.7036,6.598601 6.64442,6.598601 m 1.69548,-4.124121 c -1.87877,0 -3.25348,-0.87065 -3.25348,-2.88689 0,-2.24535 2.01624,-3.84918 8.1566,-4.62818 l 0,5.04059 c -1.69547,1.558 -3.07018,2.47448 -4.90312,2.47448"
         style="font-size:45.82360077px;font-variant:normal;font-weight:600;writing-mode:lr-tb;fill:#231f20;fill-opacity:1;fill-rule:nonzero;stroke:none;font-family:Source Sans Pro;-inkscape-font-specification:Source Sans Pro"
         id="path3309"
         inkscape:connector-curvature="0" /><path
         d="m 449.28102,-98.139219 c 1.23723,0 2.15371,-0.183295 2.79524,-0.458236 l -0.68736,-3.940825 c -0.41241,0.0916 -0.59571,0.0916 -0.82482,0.0916 -0.54989,0 -1.14559,-0.45823 -1.14559,-1.74129 l 0,-26.85263 -5.26972,0 0,26.57768 c 0,3.89501 1.37471,6.323661 5.13225,6.323661"
         style="font-size:45.82360077px;font-variant:normal;font-weight:600;writing-mode:lr-tb;fill:#231f20;fill-opacity:1;fill-rule:nonzero;stroke:none;font-family:Source Sans Pro;-inkscape-font-specification:Source Sans Pro"
         id="path3311"
         inkscape:connector-curvature="0" /><path
         d="m 471.73508,-124.39614 4.26159,0 c 4.0783,0 6.32366,1.19141 6.32366,4.62818 0,3.39094 -2.24536,5.13224 -6.32366,5.13224 l -4.26159,0 0,-9.76042 m 17.00055,25.707038 -7.14848,-12.509848 c 3.57424,-1.23723 5.95707,-3.98665 5.95707,-8.56901 0,-6.69024 -4.76566,-8.88978 -10.99766,-8.88978 l -10.12702,0 0,29.968638 5.31554,0 0,-11.730838 4.58236,0 6.46112,11.730838 5.95707,0"
         style="font-size:45.82360077px;font-variant:normal;font-weight:600;writing-mode:lr-tb;fill:#231f20;fill-opacity:1;fill-rule:nonzero;stroke:none;font-family:Source Sans Pro;-inkscape-font-specification:Source Sans Pro"
         id="path3313"
         inkscape:connector-curvature="0" /><path
         d="m 502.43674,-98.139219 c 2.84106,0 5.54466,-1.008121 7.69836,-2.428651 l -1.78712,-3.2993 c -1.64965,1.05394 -3.2993,1.64965 -5.22389,1.64965 -3.62006,0 -6.18619,-2.29118 -6.64442,-6.27783 l 14.29696,0 c 0.13747,-0.54989 0.22912,-1.55801 0.22912,-2.56612 0,-6.27783 -3.20766,-10.6769 -9.30219,-10.6769 -5.26971,0 -10.35613,4.49072 -10.35613,11.82249 0,7.42341 4.8573,11.776661 11.08931,11.776661 m -6.00289,-13.930371 c 0.45823,-3.62006 2.74941,-5.59048 5.40718,-5.59048 3.07018,0 4.58236,2.10789 4.58236,5.59048 l -9.98954,0"
         style="font-size:45.82360077px;font-variant:normal;font-weight:600;writing-mode:lr-tb;fill:#231f20;fill-opacity:1;fill-rule:nonzero;stroke:none;font-family:Source Sans Pro;-inkscape-font-specification:Source Sans Pro"
         id="path3315"
         inkscape:connector-curvature="0" /><path
         d="m 523.92802,-98.139219 c 2.42864,0 4.71983,-1.328886 6.36948,-2.978531 l 0.18329,0 0.36659,2.428648 4.35324,0 0,-32.351458 -5.26971,0 0,8.1566 0.18329,3.62006 c -1.74129,-1.51218 -3.34512,-2.47447 -5.91124,-2.47447 -4.90312,0 -9.53131,4.49072 -9.53131,11.82249 0,7.42341 3.62007,11.776661 9.25637,11.776661 m 1.28306,-4.353241 c -3.25348,0 -5.08642,-2.61195 -5.08642,-7.46925 0,-4.71982 2.337,-7.42342 5.22389,-7.42342 1.51217,0 3.02436,0.50406 4.58236,1.87877 l 0,10.4936 c -1.51218,1.7413 -2.97854,2.5203 -4.71983,2.5203"
         style="font-size:45.82360077px;font-variant:normal;font-weight:600;writing-mode:lr-tb;fill:#231f20;fill-opacity:1;fill-rule:nonzero;stroke:none;font-family:Source Sans Pro;-inkscape-font-specification:Source Sans Pro"
         id="path3317"
         inkscape:connector-curvature="0" /><path
         d="m 557.05847,-124.39614 4.2616,0 c 4.07829,0 6.32365,1.19141 6.32365,4.62818 0,3.39094 -2.24536,5.13224 -6.32365,5.13224 l -4.2616,0 0,-9.76042 m 17.00056,25.707038 -7.14848,-12.509848 c 3.57423,-1.23723 5.95706,-3.98665 5.95706,-8.56901 0,-6.69024 -4.76566,-8.88978 -10.99766,-8.88978 l -10.12702,0 0,29.968638 5.31554,0 0,-11.730838 4.58236,0 6.46113,11.730838 5.95707,0"
         style="font-size:45.82360077px;font-variant:normal;font-weight:600;writing-mode:lr-tb;fill:#231f20;fill-opacity:1;fill-rule:nonzero;stroke:none;font-family:Source Sans Pro;-inkscape-font-specification:Source Sans Pro"
         id="path3319"
         inkscape:connector-curvature="0" /><path
         d="m 578.59555,-98.689102 5.26971,0 0,-22.499388 -5.26971,0 0,22.499388 m 2.65777,-26.440218 c 1.87876,0 3.25347,-1.23724 3.25347,-2.97853 0,-1.78712 -1.37471,-3.02436 -3.25347,-3.02436 -1.87877,0 -3.25348,1.23724 -3.25348,3.02436 0,1.74129 1.37471,2.97853 3.25348,2.97853"
         style="font-size:45.82360077px;font-variant:normal;font-weight:600;writing-mode:lr-tb;fill:#231f20;fill-opacity:1;fill-rule:nonzero;stroke:none;font-family:Source Sans Pro;-inkscape-font-specification:Source Sans Pro"
         id="path3321"
         inkscape:connector-curvature="0" /><path
         d="m 601.50737,-98.139219 c 4.99476,0 9.62295,-4.444901 9.62295,-12.189081 0,-6.91935 -3.25348,-11.41007 -8.88978,-11.41007 -2.29117,0 -4.62818,1.14559 -6.50695,2.79524 l 0.13747,-3.75754 0,-8.33989 -5.26971,0 0,32.351458 4.16995,0 0.45823,-2.382828 0.13747,0 c 1.87877,1.878766 4.07831,2.932711 6.14037,2.932711 m -1.09977,-4.353241 c -1.32888,0 -2.93271,-0.50406 -4.53654,-1.87877 l 0,-10.4936 c 1.7413,-1.69547 3.2993,-2.5203 4.94895,-2.5203 3.39094,0 4.8573,2.65777 4.8573,7.14848 0,5.08642 -2.29118,7.74419 -5.26971,7.74419"
         style="font-size:45.82360077px;font-variant:normal;font-weight:600;writing-mode:lr-tb;fill:#231f20;fill-opacity:1;fill-rule:nonzero;stroke:none;font-family:Source Sans Pro;-inkscape-font-specification:Source Sans Pro"
         id="path3323"
         inkscape:connector-curvature="0" /><path
         d="m 627.35185,-98.139219 c 4.99477,0 9.62295,-4.444901 9.62295,-12.189081 0,-6.91935 -3.25348,-11.41007 -8.88977,-11.41007 -2.29118,0 -4.62819,1.14559 -6.50696,2.79524 l 0.13747,-3.75754 0,-8.33989 -5.26971,0 0,32.351458 4.16995,0 0.45823,-2.382828 0.13748,0 c 1.87876,1.878766 4.0783,2.932711 6.14036,2.932711 m -1.09977,-4.353241 c -1.32888,0 -2.93271,-0.50406 -4.53654,-1.87877 l 0,-10.4936 c 1.7413,-1.69547 3.29931,-2.5203 4.94895,-2.5203 3.39095,0 4.85731,2.65777 4.85731,7.14848 0,5.08642 -2.29119,7.74419 -5.26972,7.74419"
         style="font-size:45.82360077px;font-variant:normal;font-weight:600;writing-mode:lr-tb;fill:#231f20;fill-opacity:1;fill-rule:nonzero;stroke:none;font-family:Source Sans Pro;-inkscape-font-specification:Source Sans Pro"
         id="path3325"
         inkscape:connector-curvature="0" /><path
         d="m 651.50092,-98.139219 c 5.6363,0 10.72272,-4.307421 10.72272,-11.776661 0,-7.51507 -5.08642,-11.82249 -10.72272,-11.82249 -5.59048,0 -10.6769,4.30742 -10.6769,11.82249 0,7.46924 5.08642,11.776661 10.6769,11.776661 m 0,-4.307421 c -3.2993,0 -5.26972,-2.97854 -5.26972,-7.46924 0,-4.53654 1.97042,-7.51507 5.26972,-7.51507 3.29929,0 5.31554,2.97853 5.31554,7.51507 0,4.4907 -2.01625,7.46924 -5.31554,7.46924"
         style="font-size:45.82360077px;font-variant:normal;font-weight:600;writing-mode:lr-tb;fill:#231f20;fill-opacity:1;fill-rule:nonzero;stroke:none;font-family:Source Sans Pro;-inkscape-font-specification:Source Sans Pro"
         id="path3327"
         inkscape:connector-curvature="0" /><path
         d="m 667.44748,-98.689102 5.26971,0 0,-15.717498 c 1.87877,-1.83294 3.16183,-2.79524 5.13225,-2.79524 2.47447,0 3.52841,1.37471 3.52841,5.08642 l 0,13.426318 5.26972,0 0,-14.113668 c 0,-5.68212 -2.10789,-8.9356 -6.91937,-8.9356 -3.07017,0 -5.36136,1.60382 -7.3776,3.57424 l -0.18329,0 -0.36659,-3.02436 -4.35324,0 0,22.499388"
         style="font-size:45.82360077px;font-variant:normal;font-weight:600;writing-mode:lr-tb;fill:#231f20;fill-opacity:1;fill-rule:nonzero;stroke:none;font-family:Source Sans Pro;-inkscape-font-specification:Source Sans Pro"
         id="path3329"
         inkscape:connector-curvature="0" /></g><g
       transform="scale(1,-1)"
       id="text190"><path
         d="m 259.59738,-49.917318 c 2.79524,0 5.13224,-1.237239 7.01101,-2.886887 l -1.05394,-1.420531 c -1.51218,1.374706 -3.52842,2.520298 -5.86542,2.520298 -4.81148,0 -7.97331,-3.940836 -7.97331,-9.714604 0,-5.819591 3.4826,-9.80625 7.97331,-9.80625 2.1537,0 3.80336,1.00812 5.22389,2.337003 l 1.19141,-1.420531 c -1.51218,-1.374707 -3.43677,-2.703593 -6.46113,-2.703593 -5.36135,0 -10.03537,4.215779 -10.03537,11.593371 0,7.285945 4.30743,11.501724 9.98955,11.501724"
         style="font-size:45.82360077px;font-variant:normal;font-weight:300;writing-mode:lr-tb;fill:#231f20;fill-opacity:1;fill-rule:nonzero;stroke:none;font-family:Source Sans Pro;-inkscape-font-specification:SourceSansPro-Light"
         id="path3264"
         inkscape:connector-curvature="0" /><path
         d="m 274.71856,-49.917318 c 0.64153,0 1.05394,-0.09165 1.46635,-0.229118 l -0.36659,-1.64965 c -0.45823,0.09165 -0.64153,0.09165 -0.82482,0.09165 -0.54988,0 -0.9623,-0.458237 -0.9623,-1.420532 l 0,-30.2894 -2.01623,0 0,30.014458 c 0,2.382825 0.91647,3.482594 2.70359,3.482594"
         style="font-size:45.82360077px;font-variant:normal;font-weight:300;writing-mode:lr-tb;fill:#231f20;fill-opacity:1;fill-rule:nonzero;stroke:none;font-family:Source Sans Pro;-inkscape-font-specification:SourceSansPro-Light"
         id="path3266"
         inkscape:connector-curvature="0" /><path
         d="m 282.87516,-50.467201 2.01624,0 0,-21.995329 -2.01624,0 0,21.995329 m 1.05395,-27.310866 c 1.00812,0 1.83294,-0.733179 1.83294,-1.787121 0,-1.145589 -0.82482,-1.832944 -1.83294,-1.832944 -1.00812,0 -1.83295,0.687355 -1.83295,1.832944 0,1.053942 0.82483,1.787121 1.83295,1.787121"
         style="font-size:45.82360077px;font-variant:normal;font-weight:300;writing-mode:lr-tb;fill:#231f20;fill-opacity:1;fill-rule:nonzero;stroke:none;font-family:Source Sans Pro;-inkscape-font-specification:SourceSansPro-Light"
         id="path3268"
         inkscape:connector-curvature="0" /><path
         d="m 301.52536,-49.917318 c 2.79523,0 5.13224,-1.237239 7.01101,-2.886887 l -1.05395,-1.420531 c -1.51217,1.374706 -3.52841,2.520298 -5.86542,2.520298 -4.81147,0 -7.9733,-3.940836 -7.9733,-9.714604 0,-5.819591 3.4826,-9.80625 7.9733,-9.80625 2.15371,0 3.80336,1.00812 5.22389,2.337003 l 1.19142,-1.420531 c -1.51218,-1.374707 -3.43677,-2.703593 -6.46113,-2.703593 -5.36136,0 -10.03537,4.215779 -10.03537,11.593371 0,7.285945 4.30743,11.501724 9.98955,11.501724"
         style="font-size:45.82360077px;font-variant:normal;font-weight:300;writing-mode:lr-tb;fill:#231f20;fill-opacity:1;fill-rule:nonzero;stroke:none;font-family:Source Sans Pro;-inkscape-font-specification:SourceSansPro-Light"
         id="path3270"
         inkscape:connector-curvature="0" /><path
         d="m 313.94294,-50.467201 2.01624,0 0,-6.002892 4.94895,-5.773774 7.28595,11.776666 2.24536,0 -8.33989,-13.288844 7.14848,-8.706485 -2.33701,0 -10.86019,13.334668 -0.0917,0 0,-24.286508 -2.01624,0 0,32.947169"
         style="font-size:45.82360077px;font-variant:normal;font-weight:300;writing-mode:lr-tb;fill:#231f20;fill-opacity:1;fill-rule:nonzero;stroke:none;font-family:Source Sans Pro;-inkscape-font-specification:SourceSansPro-Light"
         id="path3272"
         inkscape:connector-curvature="0" /><path
         d="m 334.19697,-60.960806 8.61484,-12.09743 c 0.82482,-1.328884 1.64965,-2.428652 2.38283,-3.665888 l 0.18329,0 c -0.0917,1.328883 -0.18329,3.711713 -0.18329,5.040596 l 0,10.722722 -10.99767,0 m 17.32132,0 -4.35324,0 0,-18.787676 -1.83294,0 -13.60961,19.337559 0,1.191414 13.47214,0 0,8.752308 1.97041,0 0,-8.752308 4.35324,0 0,-1.741297"
         style="font-size:45.82360077px;font-variant:normal;font-weight:300;writing-mode:lr-tb;fill:#231f20;fill-opacity:1;fill-rule:nonzero;stroke:none;font-family:Source Sans Pro;-inkscape-font-specification:SourceSansPro-Light"
         id="path3274"
         inkscape:connector-curvature="0" /><path
         d="m 359.85738,-49.917318 c 0.64153,0 1.05395,-0.09165 1.46636,-0.229118 l -0.36659,-1.64965 c -0.45824,0.09165 -0.64153,0.09165 -0.82483,0.09165 -0.54988,0 -0.96229,-0.458237 -0.96229,-1.420532 l 0,-30.2894 -2.01624,0 0,30.014458 c 0,2.382825 0.91647,3.482594 2.70359,3.482594"
         style="font-size:45.82360077px;font-variant:normal;font-weight:300;writing-mode:lr-tb;fill:#231f20;fill-opacity:1;fill-rule:nonzero;stroke:none;font-family:Source Sans Pro;-inkscape-font-specification:SourceSansPro-Light"
         id="path3276"
         inkscape:connector-curvature="0" /><path
         d="m 368.01399,-50.467201 2.01624,0 0,-21.995329 -2.01624,0 0,21.995329 m 1.05394,-27.310866 c 1.00812,0 1.83295,-0.733179 1.83295,-1.787121 0,-1.145589 -0.82483,-1.832944 -1.83295,-1.832944 -1.00812,0 -1.83294,0.687355 -1.83294,1.832944 0,1.053942 0.82482,1.787121 1.83294,1.787121"
         style="font-size:45.82360077px;font-variant:normal;font-weight:300;writing-mode:lr-tb;fill:#231f20;fill-opacity:1;fill-rule:nonzero;stroke:none;font-family:Source Sans Pro;-inkscape-font-specification:SourceSansPro-Light"
         id="path3278"
         inkscape:connector-curvature="0" /><path
         d="m 387.48901,-83.231076 c -1.00812,-0.458235 -2.19954,-0.733177 -3.20766,-0.733177 -3.48259,0 -5.453,2.24536 -5.453,6.598598 l 0,4.903125 -3.02436,0.183295 0,1.558002 3.02436,0 0,20.254032 2.01623,0 0,-20.254032 5.08642,0 0,-1.741297 -5.08642,0 0,-4.765654 c 0,-3.207649 1.09977,-4.994773 3.43677,-4.994773 0.82483,0 1.7413,0.183295 2.65777,0.641531 l 0.54989,-1.64965"
         style="font-size:45.82360077px;font-variant:normal;font-weight:300;writing-mode:lr-tb;fill:#231f20;fill-opacity:1;fill-rule:nonzero;stroke:none;font-family:Source Sans Pro;-inkscape-font-specification:SourceSansPro-Light"
         id="path3280"
         inkscape:connector-curvature="0" /><path
         d="m 398.44028,-49.917318 c 3.20765,0 5.17807,-1.099767 6.91936,-2.153709 l -0.82482,-1.558003 c -1.64965,1.191413 -3.52842,1.970415 -5.91125,1.970415 -4.94894,0 -8.20242,-3.986659 -8.29407,-9.531309 l 15.85497,0 c 0.0917,-0.549882 0.0917,-1.099767 0.0917,-1.649649 0,-6.461122 -3.20766,-10.17284 -8.43155,-10.17284 -4.90312,0 -9.57713,4.399073 -9.57713,11.593371 0,7.194298 4.53654,11.501724 10.17284,11.501724 m -8.11078,-12.922255 c 0.45824,-5.269709 3.80336,-8.431543 7.5609,-8.431543 3.94082,0 6.46112,2.795245 6.46112,8.431543 l -14.02202,0"
         style="font-size:45.82360077px;font-variant:normal;font-weight:300;writing-mode:lr-tb;fill:#231f20;fill-opacity:1;fill-rule:nonzero;stroke:none;font-family:Source Sans Pro;-inkscape-font-specification:SourceSansPro-Light"
         id="path3282"
         inkscape:connector-curvature="0" /><path
         d="m 413.05799,-49.917318 c 1.00812,0 1.92459,-0.779003 1.92459,-2.062062 0,-1.328883 -0.91647,-2.107886 -1.92459,-2.107886 -1.00812,0 -1.97041,0.779003 -1.97041,2.107886 0,1.283059 0.96229,2.062062 1.97041,2.062062"
         style="font-size:45.82360077px;font-variant:normal;font-weight:300;writing-mode:lr-tb;fill:#231f20;fill-opacity:1;fill-rule:nonzero;stroke:none;font-family:Source Sans Pro;-inkscape-font-specification:SourceSansPro-Light"
         id="path3284"
         inkscape:connector-curvature="0" /><path
         d="m 422.26854,-50.467201 2.01623,0 0,-16.588144 c 2.70359,-2.749413 4.58237,-4.124124 7.19431,-4.124124 3.57424,0 5.0406,2.199538 5.0406,6.87354 l 0,13.838728 2.01623,0 0,-14.113669 c 0,-5.682121 -2.10789,-8.431543 -6.64442,-8.431543 -3.02435,0 -5.31554,1.695476 -7.60672,3.986653 l 0,-14.38861 -2.01623,0 0,32.947169"
         style="font-size:45.82360077px;font-variant:normal;font-weight:300;writing-mode:lr-tb;fill:#231f20;fill-opacity:1;fill-rule:nonzero;stroke:none;font-family:Source Sans Pro;-inkscape-font-specification:SourceSansPro-Light"
         id="path3286"
         inkscape:connector-curvature="0" /><path
         d="m 446.46342,-50.467201 2.01624,0 0,-21.995329 -2.01624,0 0,21.995329 m 1.05394,-27.310866 c 1.00812,0 1.83295,-0.733179 1.83295,-1.787121 0,-1.145589 -0.82483,-1.832944 -1.83295,-1.832944 -1.00811,0 -1.83294,0.687355 -1.83294,1.832944 0,1.053942 0.82483,1.787121 1.83294,1.787121"
         style="font-size:45.82360077px;font-variant:normal;font-weight:300;writing-mode:lr-tb;fill:#231f20;fill-opacity:1;fill-rule:nonzero;stroke:none;font-family:Source Sans Pro;-inkscape-font-specification:SourceSansPro-Light"
         id="path3288"
         inkscape:connector-curvature="0" /><path
         d="m 461.53937,-50.467201 2.38283,0 8.1566,-21.995329 -2.06206,0 -4.94895,13.792904 c -0.73318,2.107884 -1.51218,4.307421 -2.24536,6.323657 l -0.18329,0 c -0.68735,-2.016236 -1.51218,-4.215773 -2.19953,-6.323657 l -4.94895,-13.792904 -2.19954,0 8.24825,21.995329"
         style="font-size:45.82360077px;font-variant:normal;font-weight:300;writing-mode:lr-tb;fill:#231f20;fill-opacity:1;fill-rule:nonzero;stroke:none;font-family:Source Sans Pro;-inkscape-font-specification:SourceSansPro-Light"
         id="path3290"
         inkscape:connector-curvature="0" /></g><g
       id="g3557"
       transform="matrix(0.4482715,0,0,0.4482715,78.278231,109.9876)"><g
         style="fill:#e3007e;fill-opacity:1"
         id="g15650"
         transform="matrix(0,-3.1866538,3.1866538,0,322.92522,-27.826697)"><path
           inkscape:connector-curvature="0"
           style="color:#000000;fill:#e3007e;fill-opacity:1;fill-rule:nonzero;stroke:none;stroke-width:1;marker:none;visibility:visible;display:inline;overflow:visible;enable-background:accumulate"
           d="m -20.225648,-55.116171 38.853323,0 0,7.770665 7.770664,0 0,7.770664 7.770665,0 0,15.541329 -7.770665,0 0,7.770665 -7.770664,0 0,7.7706645 -38.853323,0 0,-15.5413295 34.190924,0 4.662399,0 0,-15.541329 -4.662399,0 -34.190924,0 0,-15.541329 z"
           id="rect4520-4" /><rect
           style="color:#000000;fill:#e3007e;fill-opacity:1;fill-rule:nonzero;stroke:none;stroke-width:1;marker:none;visibility:visible;display:inline;overflow:visible;enable-background:accumulate"
           id="rect4518-7"
           width="15.541329"
           height="54.394688"
           x="-78.428162"
           y="-20.225689"
           transform="matrix(0,1,1,0,0,0)" /><rect
           y="-51.308346"
           x="-78.428162"
           height="15.541329"
           width="15.541329"
           id="rect4516-2"
           style="color:#000000;fill:#e3007e;fill-opacity:1;fill-rule:nonzero;stroke:none;stroke-width:1;marker:none;visibility:visible;display:inline;overflow:visible;enable-background:accumulate"
           transform="matrix(0,1,1,0,0,0)" /><path
           inkscape:connector-curvature="0"
           style="color:#000000;fill:#e3007e;fill-opacity:1;fill-rule:nonzero;stroke:none;stroke-width:1;marker:none;visibility:visible;display:inline;overflow:visible;enable-background:accumulate"
           d="m -51.308306,-132.82282 31.082658,0 15.5413291,0 38.8533229,0 0,15.54133 -38.8533229,0 0,7.77067 0,7.77066 3.1082658,0 35.7450571,0 0,15.541331 -38.8533229,0 0,-7.770664 -7.7706641,0 0,-7.770667 -7.770665,0 0,-15.54133 -31.082658,0 0,-15.54133 z"
           id="rect4505-2" /><rect
           style="color:#000000;fill:#e3007e;fill-opacity:1;fill-rule:nonzero;stroke:none;stroke-width:1;marker:none;visibility:visible;display:inline;overflow:visible;enable-background:accumulate"
           id="rect4418-7"
           width="15.541329"
           height="15.541329"
           x="-156.13481"
           y="18.627634"
           transform="matrix(0,1,1,0,0,0)" /></g><g
         style="fill:#8e2729;fill-opacity:1"
         id="g15679"
         transform="matrix(0,-3.1866538,3.1866538,0,322.92522,-27.826697)"><rect
           style="color:#000000;fill:#8e2729;fill-opacity:1;fill-rule:nonzero;stroke:none;stroke-width:1;marker:none;visibility:visible;display:inline;overflow:visible;enable-background:accumulate"
           id="rect3783-9"
           width="7.7706647"
           height="7.7706981"
           x="-156.13481"
           y="18.627634"
           transform="matrix(0,1,1,0,0,0)" /><path
           inkscape:connector-curvature="0"
           style="color:#000000;fill:#8e2729;fill-opacity:1;fill-rule:nonzero;stroke:none;stroke-width:1;marker:none;visibility:visible;display:inline;overflow:visible;enable-background:accumulate"
           d="m -12.454983,-125.05215 3.1082654,0 4.6623987,0 15.5413289,0 0,7.77066 -15.5413289,0 -4.6623987,0 -3.1082654,0 0,-7.77066 z"
           id="rect3805-7" /><path
           inkscape:connector-curvature="0"
           style="color:#000000;fill:#8e2729;fill-opacity:1;fill-rule:nonzero;stroke:none;stroke-width:1;marker:none;visibility:visible;display:inline;overflow:visible;enable-background:accumulate"
           d="m -43.537641,-125.05215 3.108265,0 4.662399,0 15.541329,0 0,7.77066 -15.541329,0 -4.662399,0 -3.108265,0 0,-7.77066 z"
           id="rect3821-6" /><rect
           y="-43.537682"
           x="-78.428162"
           height="7.7706981"
           width="7.7706647"
           id="rect3899-6"
           style="color:#000000;fill:#8e2729;fill-opacity:1;fill-rule:nonzero;stroke:none;stroke-width:1;marker:none;visibility:visible;display:inline;overflow:visible;enable-background:accumulate"
           transform="matrix(0,1,1,0,0,0)" /><rect
           y="3.0863044"
           x="-47.345505"
           height="7.7706981"
           width="7.7706647"
           id="rect3909-2"
           style="color:#000000;fill:#8e2729;fill-opacity:1;fill-rule:nonzero;stroke:none;stroke-width:1;marker:none;visibility:visible;display:inline;overflow:visible;enable-background:accumulate"
           transform="matrix(0,1,1,0,0,0)" /><rect
           style="color:#000000;fill:#8e2729;fill-opacity:1;fill-rule:nonzero;stroke:none;stroke-width:1;marker:none;visibility:visible;display:inline;overflow:visible;enable-background:accumulate"
           id="rect3923-3"
           width="7.7706647"
           height="7.7706981"
           x="-55.116169"
           y="-20.225689"
           transform="matrix(0,1,1,0,0,0)" /></g><g
         style="fill:#322424;fill-opacity:1"
         id="g15657"
         transform="matrix(0,-3.1866538,3.1866538,0,322.92522,-27.826697)"><rect
           y="18.627634"
           x="-148.36415"
           height="7.7706981"
           width="7.7706647"
           id="rect3785-3"
           style="color:#000000;fill:#322424;fill-opacity:1;fill-rule:nonzero;stroke:none;stroke-width:1;marker:none;visibility:visible;display:inline;overflow:visible;enable-background:accumulate"
           transform="matrix(0,1,1,0,0,0)" /><path
           style="color:#000000;fill:#322424;fill-opacity:1;fill-rule:nonzero;stroke:none;stroke-width:1;marker:none;visibility:visible;display:inline;overflow:visible;enable-background:accumulate"
           d="m -20.239013,-132.82282 7.78403,0 0,6.21654 0,1.55413 0,7.77066 -7.78403,0 0,-7.77066 0,-1.55413 0,-6.21654 z"
           id="rect3815-7"
           inkscape:connector-curvature="0" /><rect
           y="-51.308346"
           x="-125.05215"
           height="7.7706981"
           width="7.7706647"
           id="rect3833-0"
           style="color:#000000;fill:#322424;fill-opacity:1;fill-rule:nonzero;stroke:none;stroke-width:1;marker:none;visibility:visible;display:inline;overflow:visible;enable-background:accumulate"
           transform="matrix(0,1,1,0,0,0)" /><path
           inkscape:connector-curvature="0"
           style="color:#000000;fill:#322424;fill-opacity:1;fill-rule:nonzero;stroke:none;stroke-width:1;marker:none;visibility:visible;display:inline;overflow:visible;enable-background:accumulate"
           d="m -12.454983,-70.6575 3.1082654,0 4.6623987,0 7.7706645,0 0,7.770665 -7.7706645,0 -4.6623987,0 -3.1082654,0 0,-7.770665 z"
           id="rect3869-9" /><path
           inkscape:connector-curvature="0"
           style="color:#000000;fill:#322424;fill-opacity:1;fill-rule:nonzero;stroke:none;stroke-width:1;marker:none;visibility:visible;display:inline;overflow:visible;enable-background:accumulate"
           d="m 18.627675,-70.6575 7.770664,0 0,-7.770664 7.770665,0 0,7.770664 0,3.108266 0,4.662399 -4.662399,0 -3.108266,0 -7.770664,0 0,-7.770665 z"
           id="rect3881-6" /><path
           inkscape:connector-curvature="0"
           style="color:#000000;fill:#322424;fill-opacity:1;fill-rule:nonzero;stroke:none;stroke-width:1;marker:none;visibility:visible;display:inline;overflow:visible;enable-background:accumulate"
           d="m 3.0863456,-24.033513 3.1082658,0 4.6623986,0 15.541329,0 0,7.770665 -15.541329,0 -4.6623986,0 -3.1082658,0 0,-7.770665 z"
           id="rect3935-0" /></g><g
         style="fill:#e31e2d;fill-opacity:1"
         id="g15665"
         transform="matrix(0,-3.1866538,3.1866538,0,322.92522,-27.826697)"><rect
           y="26.398298"
           x="-156.13481"
           height="7.7706981"
           width="7.7706647"
           id="rect3787-5"
           style="color:#000000;fill:#e31e2d;fill-opacity:1;fill-rule:nonzero;stroke:none;stroke-width:1;marker:none;visibility:visible;display:inline;overflow:visible;enable-background:accumulate"
           transform="matrix(0,1,1,0,0,0)" /><rect
           y="26.398298"
           x="-132.82281"
           height="7.7706981"
           width="7.7706647"
           id="rect3791-5"
           style="color:#000000;fill:#e31e2d;fill-opacity:1;fill-rule:nonzero;stroke:none;stroke-width:1;marker:none;visibility:visible;display:inline;overflow:visible;enable-background:accumulate"
           transform="matrix(0,1,1,0,0,0)" /><rect
           y="18.627634"
           x="-125.05215"
           height="7.7706981"
           width="7.7706647"
           id="rect3797-3"
           style="color:#000000;fill:#e31e2d;fill-opacity:1;fill-rule:nonzero;stroke:none;stroke-width:1;marker:none;visibility:visible;display:inline;overflow:visible;enable-background:accumulate"
           transform="matrix(0,1,1,0,0,0)" /><rect
           y="-4.68436"
           x="-132.82281"
           height="7.7706981"
           width="7.7706647"
           id="rect3807-2"
           style="color:#000000;fill:#e31e2d;fill-opacity:1;fill-rule:nonzero;stroke:none;stroke-width:1;marker:none;visibility:visible;display:inline;overflow:visible;enable-background:accumulate"
           transform="matrix(0,1,1,0,0,0)" /><rect
           style="color:#000000;fill:#e31e2d;fill-opacity:1;fill-rule:nonzero;stroke:none;stroke-width:1;marker:none;visibility:visible;display:inline;overflow:visible;enable-background:accumulate"
           id="rect3849-9"
           width="7.7706647"
           height="7.7706981"
           x="-101.74016"
           y="3.0863044"
           transform="matrix(0,1,1,0,0,0)" /><rect
           style="color:#000000;fill:#e31e2d;fill-opacity:1;fill-rule:nonzero;stroke:none;stroke-width:1;marker:none;visibility:visible;display:inline;overflow:visible;enable-background:accumulate"
           id="rect3859-0"
           width="7.7706647"
           height="7.7706981"
           x="-93.96949"
           y="18.627634"
           transform="matrix(0,1,1,0,0,0)" /><path
           inkscape:connector-curvature="0"
           style="color:#000000;fill:#e31e2d;fill-opacity:1;fill-rule:nonzero;stroke:none;stroke-width:1;marker:none;visibility:visible;display:inline;overflow:visible;enable-background:accumulate"
           d="m -4.6843189,-78.428164 23.3119939,0 3.108265,0 4.662399,0 0,7.770664 -4.662399,0 -3.108265,0 -23.3119939,0 0,-7.770664 z"
           id="rect3867-2" /><path
           inkscape:connector-curvature="0"
           style="color:#000000;fill:#e31e2d;fill-opacity:1;fill-rule:nonzero;stroke:none;stroke-width:1;marker:none;visibility:visible;display:inline;overflow:visible;enable-background:accumulate"
           d="m -12.454983,-47.345506 3.1082654,0 4.6623987,0 7.7706645,0 0,7.770664 -7.7706645,0 -4.6623987,0 -3.1082654,0 0,-7.770664 z"
           id="rect3905-4" /><rect
           y="10.856969"
           x="-47.345505"
           height="7.7706981"
           width="7.7706647"
           id="rect3913-7"
           style="color:#000000;fill:#e31e2d;fill-opacity:1;fill-rule:nonzero;stroke:none;stroke-width:1;marker:none;visibility:visible;display:inline;overflow:visible;enable-background:accumulate"
           transform="matrix(0,1,1,0,0,0)" /><rect
           y="26.398298"
           x="-31.804176"
           height="7.7706981"
           width="7.7706647"
           id="rect3921-0"
           style="color:#000000;fill:#e31e2d;fill-opacity:1;fill-rule:nonzero;stroke:none;stroke-width:1;marker:none;visibility:visible;display:inline;overflow:visible;enable-background:accumulate"
           transform="matrix(0,1,1,0,0,0)" /><rect
           style="color:#000000;fill:#e31e2d;fill-opacity:1;fill-rule:nonzero;stroke:none;stroke-width:1;marker:none;visibility:visible;display:inline;overflow:visible;enable-background:accumulate"
           id="rect3931-4"
           width="7.7706647"
           height="7.7706981"
           x="-24.033512"
           y="-4.68436"
           transform="matrix(0,1,1,0,0,0)" /><rect
           style="color:#000000;fill:#e31e2d;fill-opacity:1;fill-rule:nonzero;stroke:none;stroke-width:1;marker:none;visibility:visible;display:inline;overflow:visible;enable-background:accumulate"
           id="rect3941-5"
           width="7.7706647"
           height="7.7706981"
           x="-16.262848"
           y="10.856969"
           transform="matrix(0,1,1,0,0,0)" /></g></g></g></svg>