<?xml version="1.0" encoding="UTF-8" standalone="no"?>
<svg
   xmlns:dc="http://purl.org/dc/elements/1.1/"
   xmlns:cc="http://creativecommons.org/ns#"
   xmlns:rdf="http://www.w3.org/1999/02/22-rdf-syntax-ns#"
   xmlns:svg="http://www.w3.org/2000/svg"
   xmlns="http://www.w3.org/2000/svg"
   xmlns:sodipodi="http://sodipodi.sourceforge.net/DTD/sodipodi-0.dtd"
   xmlns:inkscape="http://www.inkscape.org/namespaces/inkscape"
   version="1.1"
   id="Calque_1"
   x="0px"
   y="0px"
   width="1024"
   height="1024"
   viewBox="0 0 1024 1024"
   enable-background="new 0 0 100 100"
   xml:space="preserve"
   inkscape:version="0.48.5 r10040"
   sodipodi:docname="money-stash.svg"><metadata
     id="metadata3000"><rdf:RDF><cc:Work
         rdf:about=""><dc:format>image/svg+xml</dc:format><dc:type
           rdf:resource="http://purl.org/dc/dcmitype/StillImage" /></cc:Work></rdf:RDF></metadata><defs
     id="defs2998" /><sodipodi:namedview
     pagecolor="#ffffff"
     bordercolor="#666666"
     borderopacity="1"
     objecttolerance="10"
     gridtolerance="10"
     guidetolerance="10"
     inkscape:pageopacity="0"
     inkscape:pageshadow="2"
     inkscape:window-width="1920"
     inkscape:window-height="1181"
     id="namedview2996"
     showgrid="false"
     inkscape:zoom="0.5"
     inkscape:cx="1086"
     inkscape:cy="836"
     inkscape:window-x="-4"
     inkscape:window-y="-4"
     inkscape:window-maximized="1"
     inkscape:current-layer="Calque_1" /><path
     d="m 660.6875,413.88023 -594.75,297.375 297.375,148.6875 594.75,-297.375 -297.375,-148.6875 z M 501.92953,584.48581 c 30.14633,-1.44219 61.33448,3.5685 84.41422,15.1057 41.05908,20.52006 41.05908,53.81421 0,74.34375 -41.01169,20.52006 -107.6379,20.52006 -148.6875,0 -41.05908,-20.52954 -41.05908,-53.82369 0,-74.34375 17.9509,-8.97338 40.82613,-13.98407 64.27328,-15.1057 z M 936.7368,594.26008 363.3125,880.97224 87.263197,742.65139 65.9375,753.31424 l 297.375,148.6875 594.75,-297.375 -21.3257,-10.36666 z m 0,42.05902 L 363.3125,923.03125 87.263197,784.71041 65.9375,795.37326 l 297.375,148.6875 594.75,-297.375 -21.3257,-10.36666 z m 0,42.05901 L 363.3125,965.09074 87.263197,827.06561 65.9375,837.43227 l 297.375,148.6875 594.75,-297.375 -21.3257,-10.36666 z"
     id="polygon2988"
     inkscape:connector-curvature="0" /></svg>