<?xml version="1.0" encoding="UTF-8" standalone="no"?>
<svg
   xmlns:dc="http://purl.org/dc/elements/1.1/"
   xmlns:cc="http://creativecommons.org/ns#"
   xmlns:rdf="http://www.w3.org/1999/02/22-rdf-syntax-ns#"
   xmlns:svg="http://www.w3.org/2000/svg"
   xmlns="http://www.w3.org/2000/svg"
   xmlns:sodipodi="http://sodipodi.sourceforge.net/DTD/sodipodi-0.dtd"
   xmlns:inkscape="http://www.inkscape.org/namespaces/inkscape"
   version="1.1"
   width="1024"
   height="1024"
   data-icon="people"
   data-container-transform="translate(0 8)"
   viewBox="0 0 1024 1024"
   id="svg2"
   inkscape:version="0.48.5 r10040"
   sodipodi:docname="people.svg">
  <metadata
     id="metadata10">
    <rdf:RDF>
      <cc:Work
         rdf:about="">
        <dc:format>image/svg+xml</dc:format>
        <dc:type
           rdf:resource="http://purl.org/dc/dcmitype/StillImage" />
      </cc:Work>
    </rdf:RDF>
  </metadata>
  <defs
     id="defs8" />
  <sodipodi:namedview
     pagecolor="#ffffff"
     bordercolor="#666666"
     borderopacity="1"
     objecttolerance="10"
     gridtolerance="10"
     guidetolerance="10"
     inkscape:pageopacity="0"
     inkscape:pageshadow="2"
     inkscape:window-width="1920"
     inkscape:window-height="1181"
     id="namedview6"
     showgrid="false"
     inkscape:zoom="0.32593203"
     inkscape:cx="34.714847"
     inkscape:cy="375.20448"
     inkscape:window-x="-4"
     inkscape:window-y="-4"
     inkscape:window-maximized="1"
     inkscape:current-layer="svg2" />
  <path
     d="m 512,312.04237 c -58.65424,0 -106.64407,45.32373 -106.64407,119.97457 0,74.65085 47.98983,146.6356 106.64407,146.6356 58.65424,0 106.64407,-71.98475 106.64407,-146.6356 0,-74.65084 -47.98983,-119.97457 -106.64407,-119.97457 z m -239.94915,26.66102 c -50.65593,0 -93.31356,45.00379 -93.31356,111.65634 0,66.65254 42.65763,128.31948 93.31356,128.31948 50.65593,0 93.31356,-61.66694 93.31356,-128.31948 0,-63.98645 -42.65763,-111.65634 -93.31356,-111.65634 z m 479.8983,0 c -50.65593,0 -93.31356,45.00379 -93.31356,111.65634 0,66.65254 42.65763,128.31948 93.31356,128.31948 50.65593,0 93.31356,-61.66694 93.31356,-128.31948 0,-63.98645 -42.65763,-111.65634 -93.31356,-111.65634 z M 178.73729,551.99153 c -50.65593,0 -93.31356,42.65763 -93.31356,93.31355 v 26.66101 c 0,7.99831 5.332203,13.33051 13.330508,13.33051 H 258.72034 c 7.9983,0 13.33051,-5.3322 13.33051,-13.33051 v -13.3305 c 0,-13.33051 2.98603,-29.16716 8.3449,-42.49766 2.6661,-7.9983 2.6661,-13.49048 0,-10.82438 h -5.83877 c -31.99322,0 -61.16037,-15.83664 -82.48918,-42.49766 l -10.82438,-10.82436 h -2.50613 z m 226.61864,0 c -58.65423,0 -106.64406,47.98982 -106.64406,106.64406 v 39.99153 c 0,7.9983 5.3322,13.3305 13.3305,13.3305 h 399.91526 c 7.9983,0 13.33051,-5.3322 13.33051,-13.3305 v -39.99153 c 0,-58.65424 -47.98983,-106.64407 -106.64407,-106.64407 h -5.01227 c -2.6661,0 -10.66441,5.49217 -13.33051,10.82437 -21.32881,26.66102 -51.16249,42.49766 -85.82181,42.49766 -34.65933,0 -63.63985,-15.83664 -84.99533,-42.49766 -7.9983,-5.3322 -13.83706,-10.82437 -19.16927,-10.82437 h -5.01227 z m 437.40065,0 -10.82438,10.82437 c -21.32881,26.66102 -50.49596,42.49766 -82.48918,42.49766 h -5.83877 c -2.6661,0 -2.6661,5.49217 0,10.82438 5.33221,13.3305 8.3449,26.50105 8.3449,42.49766 v 13.3305 c 0,7.99831 5.33221,13.33051 13.33051,13.33051 h 159.9661 c 7.99831,0 13.33051,-5.3322 13.33051,-13.33051 v -26.66101 c 0,-50.65593 -42.49766,-93.31356 -95.81969,-93.31356 z"
     id="path4"
     inkscape:connector-curvature="0" />
</svg>
