<?xml version="1.0" encoding="UTF-8" standalone="no"?>
<!-- Created with Inkscape (http://www.inkscape.org/) -->

<svg
   xmlns:a="http://ns.adobe.com/AdobeSVGViewerExtensions/3.0/"
   xmlns:dc="http://purl.org/dc/elements/1.1/"
   xmlns:cc="http://creativecommons.org/ns#"
   xmlns:rdf="http://www.w3.org/1999/02/22-rdf-syntax-ns#"
   xmlns:svg="http://www.w3.org/2000/svg"
   xmlns="http://www.w3.org/2000/svg"
   xmlns:xlink="http://www.w3.org/1999/xlink"
   xmlns:sodipodi="http://sodipodi.sourceforge.net/DTD/sodipodi-0.dtd"
   xmlns:inkscape="http://www.inkscape.org/namespaces/inkscape"
   version="1.0"
   width="384.82852"
   height="672.61969"
   viewBox="0 0 384.83037 672.62155"
   id="svg81530"
   xml:space="preserve"
   inkscape:version="0.48.4 r9939"
   sodipodi:docname="World_Aids_Day_Ribbon.svg"><metadata
     id="metadata192"><rdf:RDF><cc:Work
         rdf:about=""><dc:format>image/svg+xml</dc:format><dc:type
           rdf:resource="http://purl.org/dc/dcmitype/StillImage" /><dc:title></dc:title></cc:Work></rdf:RDF></metadata><sodipodi:namedview
     pagecolor="#ffffff"
     bordercolor="#666666"
     borderopacity="1"
     objecttolerance="10"
     gridtolerance="10"
     guidetolerance="10"
     inkscape:pageopacity="0"
     inkscape:pageshadow="2"
     inkscape:window-width="1920"
     inkscape:window-height="1146"
     id="namedview190"
     showgrid="false"
     inkscape:snap-global="false"
     fit-margin-top="0"
     fit-margin-left="0"
     fit-margin-right="0"
     fit-margin-bottom="0"
     inkscape:zoom="0.32653061"
     inkscape:cx="250.8746"
     inkscape:cy="597.86537"
     inkscape:window-x="-4"
     inkscape:window-y="31"
     inkscape:window-maximized="1"
     inkscape:current-layer="svg81530" /><defs
     id="defs81901"><linearGradient
       gradientTransform="matrix(1,0,0,-1,-381.9844,-36.9619)"
       gradientUnits="userSpaceOnUse"
       id="path81049_2_"
       y2="-643.43628"
       x2="839.60663"
       y1="-179.2744"
       x1="450.12839"><stop
         id="stop81811"
         offset="0"
         style="stop-color:#420000;stop-opacity:1" /><stop
         id="stop81813"
         offset="0.00063376"
         style="stop-color:#400;stop-opacity:1" /><stop
         id="stop81815"
         offset="0.0192"
         style="stop-color:#820000;stop-opacity:1" /><stop
         id="stop81817"
         offset="0.0281"
         style="stop-color:#9a0000;stop-opacity:1" /><stop
         id="stop81819"
         offset="0.28650001"
         style="stop-color:red;stop-opacity:1" /><stop
         id="stop81821"
         offset="1"
         style="stop-color:red;stop-opacity:1" /><a:midPointStop
         style="stop-color:#420000"
         offset="0" /><a:midPointStop
         style="stop-color:#420000"
         offset="0.5" /><a:midPointStop
         style="stop-color:#440000"
         offset="6.337600e-04" /><a:midPointStop
         style="stop-color:#440000"
         offset="0.5" /><a:midPointStop
         style="stop-color:#820000"
         offset="0.0192" /><a:midPointStop
         style="stop-color:#820000"
         offset="0.5" /><a:midPointStop
         style="stop-color:#9A0000"
         offset="0.0281" /><a:midPointStop
         style="stop-color:#9A0000"
         offset="0.5" /><a:midPointStop
         style="stop-color:#FF0000"
         offset="0.2865" /><a:midPointStop
         style="stop-color:#FF0000"
         offset="0.5" /><a:midPointStop
         style="stop-color:#FF0000"
         offset="1" /></linearGradient><linearGradient
       gradientTransform="matrix(1,0,0,-1,-381.9844,-36.9619)"
       gradientUnits="userSpaceOnUse"
       id="path81074_2_"
       y2="-696.34692"
       x2="374.7337"
       y1="-128.72459"
       x1="702.45068"><stop
         id="stop81825"
         offset="0"
         style="stop-color:#470000;stop-opacity:1" /><stop
         id="stop81827"
         offset="0.0042"
         style="stop-color:#530000;stop-opacity:1" /><stop
         id="stop81829"
         offset="0.0229"
         style="stop-color:#820000;stop-opacity:1" /><stop
         id="stop81831"
         offset="0.0394"
         style="stop-color:#a50000;stop-opacity:1" /><stop
         id="stop81833"
         offset="0.0529"
         style="stop-color:#ba0000;stop-opacity:1" /><stop
         id="stop81835"
         offset="0.0618"
         style="stop-color:#c20000;stop-opacity:1" /><stop
         id="stop81837"
         offset="0.1006"
         style="stop-color:#cb0000;stop-opacity:1" /><stop
         id="stop81839"
         offset="0.20389999"
         style="stop-color:#db0000;stop-opacity:1" /><stop
         id="stop81841"
         offset="0.33219999"
         style="stop-color:#e70000;stop-opacity:1" /><stop
         id="stop81843"
         offset="0.51139998"
         style="stop-color:#e00;stop-opacity:1" /><stop
         id="stop81845"
         offset="1"
         style="stop-color:#f00000;stop-opacity:1" /><a:midPointStop
         style="stop-color:#470000"
         offset="0" /><a:midPointStop
         style="stop-color:#470000"
         offset="0.5" /><a:midPointStop
         style="stop-color:#530000"
         offset="0.0042" /><a:midPointStop
         style="stop-color:#530000"
         offset="0.5" /><a:midPointStop
         style="stop-color:#820000"
         offset="0.0229" /><a:midPointStop
         style="stop-color:#820000"
         offset="0.5" /><a:midPointStop
         style="stop-color:#A50000"
         offset="0.0394" /><a:midPointStop
         style="stop-color:#A50000"
         offset="0.5" /><a:midPointStop
         style="stop-color:#BA0000"
         offset="0.0529" /><a:midPointStop
         style="stop-color:#BA0000"
         offset="0.5" /><a:midPointStop
         style="stop-color:#C20000"
         offset="0.0618" /><a:midPointStop
         style="stop-color:#C20000"
         offset="0.5" /><a:midPointStop
         style="stop-color:#CB0000"
         offset="0.1006" /><a:midPointStop
         style="stop-color:#CB0000"
         offset="0.5" /><a:midPointStop
         style="stop-color:#DB0000"
         offset="0.2039" /><a:midPointStop
         style="stop-color:#DB0000"
         offset="0.5" /><a:midPointStop
         style="stop-color:#E70000"
         offset="0.3322" /><a:midPointStop
         style="stop-color:#E70000"
         offset="0.5" /><a:midPointStop
         style="stop-color:#EE0000"
         offset="0.5114" /><a:midPointStop
         style="stop-color:#EE0000"
         offset="0.5" /><a:midPointStop
         style="stop-color:#F00000"
         offset="1" /></linearGradient><linearGradient
       gradientTransform="matrix(1,0,0,-1,-381.9844,-36.9619)"
       gradientUnits="userSpaceOnUse"
       id="path81099_2_"
       y2="-601.82239"
       x2="370.6174"
       y1="-502.38181"
       x1="610.68799"><stop
         id="stop81849"
         offset="0"
         style="stop-color:#3d0000;stop-opacity:1" /><stop
         id="stop81851"
         offset="0.0023"
         style="stop-color:#4f0000;stop-opacity:1" /><stop
         id="stop81853"
         offset="0.0083"
         style="stop-color:#780000;stop-opacity:1" /><stop
         id="stop81855"
         offset="0.0149"
         style="stop-color:#9d0000;stop-opacity:1" /><stop
         id="stop81857"
         offset="0.0219"
         style="stop-color:#b00;stop-opacity:1" /><stop
         id="stop81859"
         offset="0.0296"
         style="stop-color:#d40000;stop-opacity:1" /><stop
         id="stop81861"
         offset="0.0381"
         style="stop-color:#e70000;stop-opacity:1" /><stop
         id="stop81863"
         offset="0.048"
         style="stop-color:#f50000;stop-opacity:1" /><stop
         id="stop81865"
         offset="0.0605"
         style="stop-color:#fd0000;stop-opacity:1" /><stop
         id="stop81867"
         offset="0.0843"
         style="stop-color:red;stop-opacity:1" /><stop
         id="stop81869"
         offset="1"
         style="stop-color:red;stop-opacity:1" /><a:midPointStop
         style="stop-color:#3D0000"
         offset="0" /><a:midPointStop
         style="stop-color:#3D0000"
         offset="0.5" /><a:midPointStop
         style="stop-color:#4F0000"
         offset="0.0023" /><a:midPointStop
         style="stop-color:#4F0000"
         offset="0.5" /><a:midPointStop
         style="stop-color:#780000"
         offset="0.0083" /><a:midPointStop
         style="stop-color:#780000"
         offset="0.5" /><a:midPointStop
         style="stop-color:#9D0000"
         offset="0.0149" /><a:midPointStop
         style="stop-color:#9D0000"
         offset="0.5" /><a:midPointStop
         style="stop-color:#BB0000"
         offset="0.0219" /><a:midPointStop
         style="stop-color:#BB0000"
         offset="0.5" /><a:midPointStop
         style="stop-color:#D40000"
         offset="0.0296" /><a:midPointStop
         style="stop-color:#D40000"
         offset="0.5" /><a:midPointStop
         style="stop-color:#E70000"
         offset="0.0381" /><a:midPointStop
         style="stop-color:#E70000"
         offset="0.5" /><a:midPointStop
         style="stop-color:#F50000"
         offset="0.048" /><a:midPointStop
         style="stop-color:#F50000"
         offset="0.5" /><a:midPointStop
         style="stop-color:#FD0000"
         offset="0.0605" /><a:midPointStop
         style="stop-color:#FD0000"
         offset="0.5" /><a:midPointStop
         style="stop-color:#FF0000"
         offset="0.0843" /><a:midPointStop
         style="stop-color:#FF0000"
         offset="0.5" /><a:midPointStop
         style="stop-color:#FF0000"
         offset="1" /></linearGradient><linearGradient
       gradientTransform="matrix(1,0,0,-1,-381.9844,-36.9619)"
       gradientUnits="userSpaceOnUse"
       id="path81130_2_"
       y2="-91.608398"
       x2="681.18408"
       y1="-91.608398"
       x1="507.00729"><stop
         id="stop81873"
         offset="0"
         style="stop-color:red;stop-opacity:1" /><stop
         id="stop81875"
         offset="0.0664"
         style="stop-color:#ff0606;stop-opacity:1" /><stop
         id="stop81877"
         offset="0.1552"
         style="stop-color:#ff1717;stop-opacity:1" /><stop
         id="stop81879"
         offset="0.2568"
         style="stop-color:#f33;stop-opacity:1" /><stop
         id="stop81881"
         offset="0.3678"
         style="stop-color:#ff5a5a;stop-opacity:1" /><stop
         id="stop81883"
         offset="0.4851"
         style="stop-color:#ff8b8b;stop-opacity:1" /><stop
         id="stop81885"
         offset="0.55059999"
         style="stop-color:#faa;stop-opacity:1" /><stop
         id="stop81887"
         offset="0.56529999"
         style="stop-color:#ffa2a2;stop-opacity:1" /><stop
         id="stop81889"
         offset="0.67699999"
         style="stop-color:#ff6969;stop-opacity:1" /><stop
         id="stop81891"
         offset="0.78030002"
         style="stop-color:#ff3b3b;stop-opacity:1" /><stop
         id="stop81893"
         offset="0.87180001"
         style="stop-color:#ff1b1b;stop-opacity:1" /><stop
         id="stop81895"
         offset="0.94819999"
         style="stop-color:#ff0707;stop-opacity:1" /><stop
         id="stop81897"
         offset="1"
         style="stop-color:red;stop-opacity:1" /><a:midPointStop
         style="stop-color:#FF0000"
         offset="0" /><a:midPointStop
         style="stop-color:#FF0000"
         offset="0.5" /><a:midPointStop
         style="stop-color:#FF0606"
         offset="0.0664" /><a:midPointStop
         style="stop-color:#FF0606"
         offset="0.5" /><a:midPointStop
         style="stop-color:#FF1717"
         offset="0.1552" /><a:midPointStop
         style="stop-color:#FF1717"
         offset="0.5" /><a:midPointStop
         style="stop-color:#FF3333"
         offset="0.2568" /><a:midPointStop
         style="stop-color:#FF3333"
         offset="0.5" /><a:midPointStop
         style="stop-color:#FF5A5A"
         offset="0.3678" /><a:midPointStop
         style="stop-color:#FF5A5A"
         offset="0.5" /><a:midPointStop
         style="stop-color:#FF8B8B"
         offset="0.4851" /><a:midPointStop
         style="stop-color:#FF8B8B"
         offset="0.5" /><a:midPointStop
         style="stop-color:#FFAAAA"
         offset="0.5506" /><a:midPointStop
         style="stop-color:#FFAAAA"
         offset="0.5" /><a:midPointStop
         style="stop-color:#FFA2A2"
         offset="0.5653" /><a:midPointStop
         style="stop-color:#FFA2A2"
         offset="0.5" /><a:midPointStop
         style="stop-color:#FF6969"
         offset="0.677" /><a:midPointStop
         style="stop-color:#FF6969"
         offset="0.5" /><a:midPointStop
         style="stop-color:#FF3B3B"
         offset="0.7803" /><a:midPointStop
         style="stop-color:#FF3B3B"
         offset="0.5" /><a:midPointStop
         style="stop-color:#FF1B1B"
         offset="0.8718" /><a:midPointStop
         style="stop-color:#FF1B1B"
         offset="0.5" /><a:midPointStop
         style="stop-color:#FF0707"
         offset="0.9482" /><a:midPointStop
         style="stop-color:#FF0707"
         offset="0.5" /><a:midPointStop
         style="stop-color:#FF0000"
         offset="1" /></linearGradient><linearGradient
       inkscape:collect="always"
       xlink:href="#path81130_2_"
       id="linearGradient3983"
       gradientUnits="userSpaceOnUse"
       gradientTransform="matrix(0.930641,0,0,-0.930641,-338.28186,-11.45362)"
       x1="507.00729"
       y1="-91.608398"
       x2="681.18408"
       y2="-91.608398" /><linearGradient
       inkscape:collect="always"
       xlink:href="#path81099_2_"
       id="linearGradient3986"
       gradientUnits="userSpaceOnUse"
       gradientTransform="matrix(0.930641,0,0,-0.930641,-338.28186,-11.45362)"
       x1="610.68799"
       y1="-502.38181"
       x2="370.6174"
       y2="-601.82239" /><linearGradient
       inkscape:collect="always"
       xlink:href="#path81074_2_"
       id="linearGradient3989"
       gradientUnits="userSpaceOnUse"
       gradientTransform="matrix(0.930641,0,0,-0.930641,-338.28186,-11.45362)"
       x1="702.45068"
       y1="-128.72459"
       x2="374.7337"
       y2="-696.34692" /><linearGradient
       inkscape:collect="always"
       xlink:href="#path81049_2_"
       id="linearGradient3992"
       gradientUnits="userSpaceOnUse"
       gradientTransform="matrix(0.930641,0,0,-0.930641,-338.28186,-11.45362)"
       x1="450.12839"
       y1="-179.2744"
       x2="839.60663"
       y2="-643.43628" /></defs><g
     id="g3994"
     transform="translate(-17.208699,-22.945666)"><g
       id="g81537"
       style="fill:#8d8d8d;fill-opacity:0.01176471"
       transform="matrix(0.930641,0,0,0.930641,17.20848,22.94464)"><path
         id="path81539"
         style="fill:#8d8d8d;fill-opacity:0.01176471"
         d="m 286.88,244.383 c -5.534,17.692 -12.689,37.976 -21,59.984 0.102,0.189 0.203,0.379 0.306,0.569 8.181,-21.696 15.229,-41.7 20.694,-59.175 9.621,-30.756 13.914,-60.896 13.946,-88.805 -0.015,2.418 -0.062,4.854 -0.142,7.304 -0.825,25.434 -5.173,52.532 -13.804,80.123 z"
         inkscape:connector-curvature="0" /></g><g
       id="g81541"
       style="fill:#8d8d8d;fill-opacity:0.01176471"
       transform="matrix(0.930641,0,0,0.930641,17.20848,22.94464)"><path
         id="path81543"
         style="fill:#8d8d8d;fill-opacity:0.01176471"
         d="m 179.688,69.41 c -0.217,0.119 -0.48,0.261 -0.755,0.412 0.052,0.427 0.103,0.858 0.149,1.298 0.223,-0.12 0.431,-0.233 0.606,-0.331 14.08,-7.548 29.633,-12.456 45.439,-11.126 20.128,1.694 35.034,9.667 46.092,19.975 l 0,0 c 0.108,-0.369 0.214,-0.728 0.317,-1.083 -11.089,-10.451 -26.088,-18.561 -46.409,-20.27 -15.806,-1.331 -31.359,3.576 -45.439,11.125 z"
         inkscape:connector-curvature="0" /></g><g
       id="g81545"
       style="fill:#8d8d8d;fill-opacity:1"
       transform="matrix(0.930641,0,0,0.930641,17.20848,22.94464)"><path
         id="path81547"
         style="fill:#8d8d8d;fill-opacity:1"
         d="m 411.31,556.828 c 0,0 -0.002,-0.005 -0.005,-0.008 0.005,0.007 0.009,0.015 0.014,0.022 -0.003,-0.004 -0.005,-0.01 -0.009,-0.014 z"
         inkscape:connector-curvature="0" /></g><g
       id="g81549"
       style="fill:#8d8d8d;fill-opacity:0.01176471"
       transform="matrix(0.930641,0,0,0.930641,17.20848,22.94464)"><path
         id="path81551"
         style="fill:#8d8d8d;fill-opacity:0.01176471"
         d="m 159.845,317.578 c -14.926,-38.762 -27.667,-76.005 -36.608,-109.315 -2.729,-10.167 -4.303,-21.829 -4.852,-33.696 -0.142,-3.075 -0.213,-6.164 -0.219,-9.245 -0.067,15.411 1.53,31.125 5.071,44.319 8.878,33.08 21.505,70.038 36.297,108.51 l 0,0 c 0.105,-0.191 0.208,-0.381 0.311,-0.573 z"
         inkscape:connector-curvature="0" /></g><g
       id="g81553"
       style="fill:#8d8d8d;fill-opacity:0.01176471"
       transform="matrix(0.930641,0,0,0.930641,17.20848,22.94464)"><path
         id="path81555"
         style="fill:#8d8d8d;fill-opacity:0.01176471"
         d="m 411.589,557.326 c 2.004,3.833 1.988,10.504 0.288,14.322 l -60.526,135.993 c -1.777,3.995 -5.088,3.882 -7.438,-0.407 -1.302,-2.411 -125.111,-251.536 -129.244,-260.641 -2.055,-4.153 -5.25,-4.345 -7.183,-0.611 -3.976,9.188 -123.358,269.094 -124.663,271.807 -2.15,4.436 -5.882,4.986 -8.372,1.393 L 3.42,616.635 3.419,616.634 2.709,615.61 c -1.62,-2.338 -2.728,-6.336 -2.405,-9.455 0.173,-1.674 0.701,-3.391 1.586,-4.941 -0.194,0.34 -0.295,0.517 -0.295,0.517 -2.352,4.112 -2.069,10.662 0.628,14.556 l 0.711,1.027 10e-4,0.001 71.14,102.702 c 2.697,3.895 6.597,3.594 8.665,-0.668 L 207.21,447.964 c 1.978,-4.305 5.321,-4.356 7.43,-0.114 l 129.335,260.884 c 2.279,4.153 5.72,4.01 7.646,-0.318 L 412.32,572.034 c 1.85,-4.158 1.499,-10.628 -0.731,-14.708 z"
         inkscape:connector-curvature="0" /></g><g
       id="g81557"
       style="fill:#8d8d8d;fill-opacity:0.05882353"
       transform="matrix(0.930641,0,0,0.930641,17.20848,22.94464)"><path
         id="path81559"
         style="fill:#8d8d8d;fill-opacity:0.05882353"
         d="m 2.709,615.609 0.71,1.024 10e-4,10e-4 71.032,102.547 c 2.49,3.594 6.222,3.043 8.372,-1.393 1.305,-2.713 120.687,-262.619 124.663,-271.807 1.933,-3.733 5.128,-3.542 7.183,0.611 4.133,9.104 127.942,258.229 129.244,260.641 2.35,4.289 5.66,4.402 7.438,0.407 l 60.526,-135.993 c 1.7,-3.818 1.716,-10.489 -0.288,-14.322 -0.087,-0.166 -0.176,-0.328 -0.271,-0.483 -0.005,-0.008 -0.009,-0.016 -0.014,-0.022 -0.001,-0.003 -0.003,-0.005 -0.004,-0.008 0,0 -0.003,-0.004 -0.008,-0.012 2.099,3.414 1.771,10.803 0.142,14.463 l -60.353,135.604 c -1.63,3.662 -4.81,3.293 -7.231,-1.131 -2.603,-4.823 -120.886,-242.189 -129.152,-260.398 -2.001,-4.064 -5.046,-4.5 -6.935,-1.336 -7.953,18.375 -122.245,266.804 -124.855,272.228 -2.233,4.611 -5.797,5.411 -8.08,2.117 L 3.906,615.958 3.905,615.956 3.197,614.933 C 1.712,612.79 0.228,608.45 0.524,605.59 c 0.159,-1.535 0.718,-3.24 1.669,-4.906 -0.183,0.321 -0.284,0.498 -0.298,0.521 -0.001,0.002 -0.002,0.006 -0.004,0.008 -0.885,1.551 -1.413,3.268 -1.586,4.941 -0.323,3.119 0.785,7.117 2.404,9.455 z"
         inkscape:connector-curvature="0" /></g><g
       id="g81561"
       style="fill:#8d8d8d;fill-opacity:0.05882353"
       transform="matrix(0.930641,0,0,0.930641,17.20848,22.94464)"><path
         id="path81563"
         style="fill:#8d8d8d;fill-opacity:0.05882353"
         d="m 179.688,68.03 c -0.267,0.144 -0.592,0.321 -0.923,0.507 0.058,0.421 0.114,0.849 0.167,1.284 0.275,-0.15 0.538,-0.293 0.755,-0.412 14.08,-7.548 29.633,-12.456 45.439,-11.126 20.321,1.709 35.32,9.819 46.409,20.27 0.107,-0.367 0.213,-0.729 0.314,-1.083 C 260.73,66.876 245.638,58.629 225.125,56.904 209.321,55.575 193.768,60.482 179.688,68.03 z"
         inkscape:connector-curvature="0" /></g><g
       id="g81565"
       style="fill:#8d8d8d;fill-opacity:0.05882353"
       transform="matrix(0.930641,0,0,0.930641,17.20848,22.94464)"><path
         id="path81567"
         style="fill:#8d8d8d;fill-opacity:0.05882353"
         d="m 123.237,208.263 c 8.941,33.311 21.682,70.553 36.608,109.315 0.104,-0.191 0.207,-0.382 0.31,-0.573 -15.06,-39.052 -27.915,-76.58 -36.917,-110.121 -2.733,-10.184 -4.309,-21.869 -4.854,-33.757 -0.14,-3.042 -0.21,-6.098 -0.217,-9.146 -0.002,0.447 -0.001,0.894 0,1.341 0.006,3.081 0.077,6.169 0.219,9.245 0.548,11.867 2.123,23.529 4.851,33.696 z"
         inkscape:connector-curvature="0" /></g><g
       id="g81569"
       style="fill:#8d8d8d;fill-opacity:0.05882353"
       transform="matrix(0.930641,0,0,0.930641,17.20848,22.94464)"><path
         id="path81571"
         style="fill:#8d8d8d;fill-opacity:0.05882353"
         d="m 300.685,162.882 c -0.826,25.434 -5.174,52.532 -13.805,80.122 -5.602,17.908 -12.864,38.473 -21.306,60.792 0.103,0.19 0.204,0.381 0.306,0.571 8.311,-22.009 15.466,-42.292 21,-59.984 8.631,-27.59 12.979,-54.688 13.805,-80.123 0.08,-2.45 0.127,-4.885 0.142,-7.304 0.005,-0.93 0.007,-1.857 0.003,-2.782 -0.004,2.88 -0.049,5.783 -0.145,8.708 z"
         inkscape:connector-curvature="0" /></g><g
       id="g81573"
       style="fill:#8d8d8d;fill-opacity:1"
       transform="matrix(0.930641,0,0,0.930641,17.20848,22.94464)"><path
         id="path81575"
         style="fill:#8d8d8d;fill-opacity:1"
         d="m 3.529,598.343 c -0.004,0.006 -0.007,0.011 -0.01,0.018 0.003,-0.007 0.006,-0.012 0.01,-0.018 l 0,0 z"
         inkscape:connector-curvature="0" /></g><g
       id="g81577"
       style="fill:#8d8d8d;fill-opacity:0.09019608"
       transform="matrix(0.930641,0,0,0.930641,17.20848,22.94464)"><path
         id="path81579"
         style="fill:#8d8d8d;fill-opacity:0.09019608"
         d="m 300.685,161.503 c -0.826,25.434 -5.174,52.532 -13.805,80.122 -5.669,18.124 -13.04,38.969 -21.611,61.601 0.103,0.19 0.203,0.38 0.306,0.57 8.441,-22.319 15.704,-42.884 21.306,-60.792 8.631,-27.59 12.979,-54.688 13.805,-80.122 0.096,-2.925 0.141,-5.828 0.145,-8.707 0,-0.46 0.002,-0.92 0,-1.379 -0.005,2.88 -0.05,5.782 -0.146,8.707 z"
         inkscape:connector-curvature="0" /></g><g
       id="g81581"
       style="fill:#8d8d8d;fill-opacity:0.09019608"
       transform="matrix(0.930641,0,0,0.930641,17.20848,22.94464)"><path
         id="path81583"
         style="fill:#8d8d8d;fill-opacity:0.09019608"
         d="m 118.383,173.126 c 0.545,11.888 2.121,23.573 4.854,33.757 9.002,33.542 21.857,71.069 36.917,110.121 0.104,-0.191 0.207,-0.382 0.31,-0.574 -15.194,-39.341 -28.164,-77.154 -37.228,-110.926 -2.738,-10.202 -4.314,-21.909 -4.857,-33.818 -0.138,-3.024 -0.207,-6.061 -0.214,-9.089 -0.002,0.461 -0.001,0.922 0,1.383 0.008,3.048 0.078,6.104 0.218,9.146 z"
         inkscape:connector-curvature="0" /></g><g
       id="g81585"
       style="fill:#8d8d8d;fill-opacity:0.09019608"
       transform="matrix(0.930641,0,0,0.930641,17.20848,22.94464)"><path
         id="path81587"
         style="fill:#8d8d8d;fill-opacity:0.09019608"
         d="m 179.688,66.651 c -0.324,0.171 -0.718,0.39 -1.104,0.615 0.062,0.416 0.122,0.84 0.181,1.271 0.331,-0.186 0.656,-0.363 0.923,-0.507 14.08,-7.548 29.633,-12.455 45.439,-11.125 20.513,1.726 35.604,9.972 46.724,20.566 0.107,-0.368 0.21,-0.726 0.311,-1.078 -11.148,-10.738 -26.328,-19.125 -47.034,-20.867 -15.807,-1.33 -31.36,3.578 -45.44,11.125 z"
         inkscape:connector-curvature="0" /></g><g
       id="g81589"
       style="fill:#8d8d8d;fill-opacity:0.09019608"
       transform="matrix(0.930641,0,0,0.930641,17.20848,22.94464)"><path
         id="path81591"
         style="fill:#8d8d8d;fill-opacity:0.09019608"
         d="m 0.523,605.59 c -0.295,2.859 1.188,7.2 2.673,9.343 l 0.708,1.023 10e-4,0.002 70.923,102.39 c 2.282,3.294 5.847,2.494 8.08,-2.117 2.609,-5.425 116.902,-253.854 124.854,-272.229 1.889,-3.164 4.934,-2.729 6.935,1.336 8.267,18.209 126.55,255.575 129.152,260.398 2.422,4.424 5.602,4.793 7.231,1.131 l 60.353,-135.604 c 1.629,-3.66 1.957,-11.049 -0.142,-14.463 -10e-4,-10e-4 -10e-4,-0.002 -10e-4,-0.002 0,0 -0.021,-0.035 -0.061,-0.1 0,0.002 0.002,0.004 0.003,0.006 10e-4,0.002 0.004,0.006 0.004,0.006 l 0,0 c 0.022,0.037 0.036,0.059 0.036,0.059 l 0,0 c 0.006,0.01 0.008,0.015 0.008,0.015 1.91,3.104 1.191,10.767 -0.291,14.096 L 350.81,706.094 c -1.481,3.33 -4.532,2.705 -7.022,-1.857 -3.905,-7.233 -116.662,-232.841 -129.062,-260.153 -1.947,-3.978 -4.844,-4.655 -6.688,-2.062 -11.929,27.562 -121.132,264.514 -125.046,272.65 -2.316,4.786 -5.712,5.836 -7.788,2.841 L 4.392,615.279 4.39,615.277 3.682,614.256 c -1.35,-1.947 -3.209,-6.631 -2.94,-9.229 0.144,-1.396 0.732,-3.085 1.747,-4.863 -0.167,0.294 -0.27,0.473 -0.295,0.519 -10e-4,0 -10e-4,0.002 -0.002,0.002 -0.951,1.665 -1.51,3.37 -1.669,4.905 z"
         inkscape:connector-curvature="0" /></g><g
       id="g81593"
       style="fill:#8d8d8d;fill-opacity:0.18039216"
       transform="matrix(0.930641,0,0,0.930641,17.20848,22.94464)"><path
         id="path81595"
         style="fill:#8d8d8d;fill-opacity:0.18039216"
         d="m 300.685,160.125 c -0.826,25.434 -5.174,52.531 -13.805,80.121 -5.736,18.34 -13.215,39.465 -21.917,62.408 0.103,0.19 0.204,0.381 0.306,0.571 8.571,-22.632 15.942,-43.477 21.611,-61.601 8.631,-27.59 12.979,-54.688 13.805,-80.122 0.096,-2.925 0.141,-5.828 0.145,-8.708 0,-0.459 0.002,-0.92 0,-1.378 -0.004,2.881 -0.049,5.783 -0.145,8.709 z"
         inkscape:connector-curvature="0" /></g><g
       id="g81597"
       style="fill:#8d8d8d;fill-opacity:0.18039216"
       transform="matrix(0.930641,0,0,0.930641,17.20848,22.94464)"><path
         id="path81599"
         style="fill:#8d8d8d;fill-opacity:0.18039216"
         d="m 118.38,171.687 c 0.543,11.909 2.119,23.617 4.857,33.818 9.064,33.772 22.033,71.585 37.228,110.926 0.104,-0.192 0.208,-0.383 0.311,-0.576 -15.328,-39.63 -28.413,-77.728 -37.539,-111.729 -2.743,-10.219 -4.32,-21.95 -4.86,-33.88 -0.136,-3.009 -0.204,-6.03 -0.211,-9.044 -0.002,0.465 -10e-4,0.93 0,1.396 0.007,3.028 0.076,6.065 0.214,9.089 z"
         inkscape:connector-curvature="0" /></g><g
       id="g81601"
       style="fill:#8d8d8d;fill-opacity:0.18039216"
       transform="matrix(0.930641,0,0,0.930641,17.20848,22.94464)"><path
         id="path81603"
         style="fill:#8d8d8d;fill-opacity:0.18039216"
         d="m 0.742,605.026 c -0.269,2.599 1.591,7.282 2.94,9.229 l 0.708,1.021 0.002,0.002 70.814,102.233 c 2.075,2.995 5.472,1.945 7.788,-2.841 3.914,-8.137 113.117,-245.088 125.046,-272.65 1.844,-2.594 4.741,-1.916 6.688,2.062 12.4,27.312 125.157,252.92 129.062,260.153 2.49,4.562 5.541,5.188 7.022,1.857 l 60.179,-135.214 c 1.482,-3.329 2.201,-10.991 0.291,-14.096 0,0 -0.002,-0.005 -0.008,-0.015 1.718,2.795 0.607,10.73 -0.726,13.727 L 350.543,705.32 c -1.333,2.996 -4.253,2.115 -6.815,-2.582 -5.206,-9.646 -112.438,-223.494 -128.972,-259.911 -1.893,-3.89 -4.64,-4.81 -6.439,-2.787 -15.905,36.75 -120.02,262.224 -125.238,273.074 -2.398,4.96 -5.628,6.26 -7.495,3.564 L 4.877,614.602 4.876,614.6 4.169,613.58 c -1.215,-1.754 -3.45,-6.779 -3.208,-9.117 0.13,-1.257 0.747,-2.932 1.828,-4.825 -0.158,0.275 -0.259,0.454 -0.297,0.519 -10e-4,0.002 -0.002,0.004 -0.003,0.007 -1.015,1.777 -1.603,3.467 -1.747,4.862 z"
         inkscape:connector-curvature="0" /></g><g
       id="g81605"
       style="fill:#8d8d8d;fill-opacity:0.18039216"
       transform="matrix(0.930641,0,0,0.930641,17.20848,22.94464)"><path
         id="path81607"
         style="fill:#8d8d8d;fill-opacity:0.18039216"
         d="m 179.688,65.272 c -0.389,0.202 -0.861,0.47 -1.296,0.739 0.065,0.41 0.129,0.828 0.192,1.254 0.386,-0.225 0.78,-0.444 1.104,-0.615 14.08,-7.548 29.633,-12.456 45.439,-11.125 20.706,1.742 35.886,10.129 47.034,20.867 0.105,-0.369 0.209,-0.729 0.309,-1.081 -11.177,-10.881 -26.445,-19.407 -47.343,-21.166 -15.806,-1.328 -31.359,3.58 -45.439,11.127 z"
         inkscape:connector-curvature="0" /></g><g
       id="g81609"
       style="fill:#8d8d8d;fill-opacity:1"
       transform="matrix(0.930641,0,0,0.930641,17.20848,22.94464)"><path
         id="path81611"
         style="fill:#8d8d8d;fill-opacity:1"
         d="m 4.124,597.3 c -0.066,0.116 -0.127,0.224 -0.189,0.331 0.06,-0.105 0.124,-0.217 0.189,-0.331 l 0,0 z"
         inkscape:connector-curvature="0" /></g><g
       id="g81613"
       style="fill:#8d8d8d;fill-opacity:0.27058824"
       transform="matrix(0.930641,0,0,0.930641,17.20848,22.94464)"><path
         id="path81615"
         style="fill:#8d8d8d;fill-opacity:0.27058824"
         d="m 300.685,158.747 c -0.826,25.434 -5.174,52.531 -13.805,80.121 -5.804,18.555 -13.391,39.96 -22.224,63.215 0.103,0.191 0.204,0.382 0.307,0.572 8.702,-22.943 16.181,-44.068 21.917,-62.408 8.631,-27.59 12.979,-54.688 13.805,-80.121 0.096,-2.926 0.141,-5.828 0.145,-8.708 0,-0.465 0.002,-0.93 0,-1.394 -0.004,2.884 -0.049,5.792 -0.145,8.723 z"
         inkscape:connector-curvature="0" /></g><g
       id="g81617"
       style="fill:#8d8d8d;fill-opacity:0.27058824"
       transform="matrix(0.930641,0,0,0.930641,17.20848,22.94464)"><path
         id="path81619"
         style="fill:#8d8d8d;fill-opacity:0.27058824"
         d="m 118.377,170.246 c 0.541,11.93 2.117,23.661 4.86,33.88 9.126,34.002 22.211,72.1 37.539,111.729 0.104,-0.192 0.208,-0.384 0.312,-0.576 -15.462,-39.918 -28.663,-78.302 -37.85,-112.533 -2.748,-10.237 -4.325,-21.99 -4.863,-33.941 -0.135,-2.996 -0.202,-6.003 -0.208,-9.003 -0.002,0.466 -0.001,0.933 0,1.399 0.006,3.015 0.074,6.036 0.21,9.045 z"
         inkscape:connector-curvature="0" /></g><g
       id="g81621"
       style="fill:#8d8d8d;fill-opacity:0.27058824"
       transform="matrix(0.930641,0,0,0.930641,17.20848,22.94464)"><path
         id="path81623"
         style="fill:#8d8d8d;fill-opacity:0.27058824"
         d="m 0.961,604.463 c -0.242,2.338 1.993,7.363 3.208,9.117 l 0.707,1.02 10e-4,0.002 70.707,102.077 c 1.867,2.695 5.097,1.396 7.495,-3.564 5.218,-10.851 109.333,-236.324 125.238,-273.074 1.8,-2.022 4.547,-1.103 6.439,2.787 16.534,36.417 123.766,250.266 128.972,259.911 2.562,4.697 5.482,5.578 6.815,2.582 l 60.006,-134.824 c 1.333,-2.996 2.443,-10.932 0.726,-13.727 l 0,0 c 0,0 -0.014,-0.021 -0.036,-0.059 l 0,0 c 0.005,0.01 0.009,0.015 0.009,0.015 0,0 0,0 0,10e-4 0.002,0.002 0.004,0.005 0.005,0.007 0.001,0.003 0.004,0.007 0.004,0.007 l 0,0 c 0.006,0.01 0.009,0.015 0.009,0.015 1.527,2.483 0.027,10.694 -1.158,13.356 l -59.833,134.436 c -1.185,2.664 -3.976,1.525 -6.606,-3.308 -6.509,-12.057 -108.215,-214.146 -128.883,-259.667 -1.838,-3.803 -4.436,-4.965 -6.191,-3.514 -19.882,45.938 -118.907,259.934 -125.43,273.497 -2.48,5.134 -5.542,6.685 -7.203,4.288 L 5.363,613.925 5.361,613.922 4.655,612.903 c -1.08,-1.559 -3.69,-6.927 -3.475,-9.005 0.11,-1.064 0.708,-2.627 1.755,-4.51 l -0.002,-0.003 c 0,0 0.048,-0.084 0.141,-0.246 0.006,-0.011 0.011,-0.021 0.018,-0.032 0.006,-0.01 0.016,-0.027 0.023,-0.04 -0.162,0.284 -0.272,0.478 -0.322,0.565 -0.001,0.002 -0.002,0.003 -0.003,0.005 -1.082,1.894 -1.699,3.569 -1.829,4.826 z"
         inkscape:connector-curvature="0" /></g><g
       id="g81625"
       style="fill:#8d8d8d;fill-opacity:0.27058824"
       transform="matrix(0.930641,0,0,0.930641,17.20848,22.94464)"><path
         id="path81627"
         style="fill:#8d8d8d;fill-opacity:0.27058824"
         d="m 179.688,63.894 c -0.464,0.237 -1.019,0.562 -1.494,0.882 0.065,0.404 0.132,0.815 0.198,1.236 0.436,-0.27 0.907,-0.537 1.296,-0.739 14.08,-7.548 29.633,-12.456 45.439,-11.126 20.897,1.759 36.166,10.285 47.343,21.166 0.105,-0.37 0.207,-0.732 0.306,-1.083 -11.203,-11.023 -26.562,-19.688 -47.648,-21.462 -15.807,-1.33 -31.36,3.578 -45.44,11.126 z"
         inkscape:connector-curvature="0" /></g><g
       id="g81629"
       style="fill:#8d8d8d;fill-opacity:1"
       transform="matrix(0.930641,0,0,0.930641,17.20848,22.94464)"><path
         id="path81631"
         style="fill:#8d8d8d;fill-opacity:1"
         d="m 3.074,599.14 c 0.07,-0.122 0.167,-0.293 0.288,-0.505 0.01,-0.018 0.019,-0.033 0.029,-0.051 0.022,-0.039 0.048,-0.086 0.079,-0.139 -0.165,0.289 -0.284,0.498 -0.355,0.622 -0.007,0.013 -0.017,0.03 -0.023,0.04 -0.007,0.012 -0.011,0.022 -0.018,0.033 z"
         inkscape:connector-curvature="0" /></g><g
       id="g81633"
       style="fill:#8d8d8d;fill-opacity:1"
       transform="matrix(0.930641,0,0,0.930641,17.20848,22.94464)"><path
         id="path81635"
         style="fill:#8d8d8d;fill-opacity:1"
         d="m 4.422,596.777 c 0,0 -10e-4,0 0,0 -0.106,0.186 -0.204,0.357 -0.298,0.522 -0.065,0.114 -0.129,0.227 -0.189,0.331 -0.145,0.255 -0.273,0.479 -0.384,0.673 0.188,-0.328 0.48,-0.84 0.871,-1.526 z"
         inkscape:connector-curvature="0" /></g><g
       id="g81637"
       style="fill:#8d8d8d;fill-opacity:0.36470588"
       transform="matrix(0.930641,0,0,0.930641,17.20848,22.94464)"><path
         id="path81639"
         style="fill:#8d8d8d;fill-opacity:0.36470588"
         d="m 300.685,157.368 c -0.826,25.434 -5.174,52.53 -13.805,80.12 -5.871,18.769 -13.566,40.455 -22.53,64.021 0.103,0.191 0.204,0.382 0.307,0.572 8.833,-23.255 16.42,-44.66 22.224,-63.215 8.631,-27.59 12.979,-54.687 13.805,-80.121 0.096,-2.931 0.141,-5.838 0.145,-8.723 0,-0.455 0.002,-0.91 0,-1.364 -0.005,2.882 -0.05,5.784 -0.146,8.71 z"
         inkscape:connector-curvature="0" /></g><g
       id="g81641"
       style="fill:#8d8d8d;fill-opacity:0.36470588"
       transform="matrix(0.930641,0,0,0.930641,17.20848,22.94464)"><path
         id="path81643"
         style="fill:#8d8d8d;fill-opacity:0.36470588"
         d="m 118.375,168.806 c 0.538,11.952 2.115,23.705 4.863,33.941 9.188,34.231 22.388,72.614 37.85,112.533 0.104,-0.192 0.208,-0.384 0.311,-0.576 -15.596,-40.207 -28.912,-78.875 -38.161,-113.336 -2.752,-10.254 -4.331,-22.03 -4.866,-34.002 -0.133,-2.981 -0.2,-5.974 -0.206,-8.958 -0.002,0.465 -10e-4,0.93 0,1.396 0.007,2.998 0.074,6.006 0.209,9.002 z"
         inkscape:connector-curvature="0" /></g><g
       id="g81645"
       style="fill:#8d8d8d;fill-opacity:1"
       transform="matrix(0.930641,0,0,0.930641,17.20848,22.94464)"><polygon
         id="polygon81647"
         style="fill:#8d8d8d;fill-opacity:1"
         points="411.248,556.727 411.248,556.727 411.252,556.733 411.252,556.733 " /></g><g
       id="g81649"
       style="fill:#8d8d8d;fill-opacity:0.36470588"
       transform="matrix(0.930641,0,0,0.930641,17.20848,22.94464)"><path
         id="path81651"
         style="fill:#8d8d8d;fill-opacity:0.36470588"
         d="m 225.127,51.389 c -15.807,-1.33 -31.359,3.578 -45.439,11.126 -0.55,0.276 -1.193,0.669 -1.691,1.048 0.064,0.394 0.13,0.8 0.197,1.213 0.476,-0.32 1.03,-0.645 1.494,-0.882 14.08,-7.548 29.633,-12.456 45.439,-11.126 21.087,1.774 36.445,10.439 47.648,21.462 0.104,-0.371 0.204,-0.731 0.302,-1.08 -11.228,-11.165 -26.671,-19.971 -47.95,-21.761 z"
         inkscape:connector-curvature="0" /></g><g
       id="g81653"
       style="fill:#8d8d8d;fill-opacity:0.36470588"
       transform="matrix(0.930641,0,0,0.930641,17.20848,22.94464)"><path
         id="path81655"
         style="fill:#8d8d8d;fill-opacity:0.36470588"
         d="m 409.664,569.728 -59.659,134.046 c -1.036,2.33 -3.696,0.938 -6.399,-4.033 -7.81,-14.468 -103.99,-204.799 -128.791,-259.424 -1.784,-3.714 -4.232,-5.12 -5.944,-4.238 -23.858,55.125 -117.793,257.644 -125.621,273.92 -2.563,5.309 -5.458,7.108 -6.91,5.012 L 5.849,613.247 5.847,613.244 5.142,612.226 c -0.945,-1.363 -3.931,-7.073 -3.743,-8.893 0.088,-0.85 0.612,-2.205 1.542,-3.938 l -0.005,-0.008 c -1.047,1.883 -1.646,3.445 -1.755,4.51 -0.215,2.078 2.396,7.446 3.475,9.005 l 0.706,1.019 0.002,0.003 70.598,101.919 c 1.66,2.396 4.722,0.846 7.203,-4.288 6.523,-13.563 105.548,-227.56 125.43,-273.497 1.756,-1.451 4.354,-0.289 6.191,3.514 20.668,45.521 122.374,247.61 128.883,259.667 2.631,4.833 5.422,5.972 6.606,3.308 l 59.833,-134.436 c 1.186,-2.662 2.686,-10.873 1.158,-13.356 0,0 -0.003,-0.005 -0.009,-0.015 1.336,2.173 -0.556,10.657 -1.593,12.988 z"
         inkscape:connector-curvature="0" /></g><g
       id="g81657"
       style="fill:#8d8d8d;fill-opacity:0.45490196"
       transform="matrix(0.930641,0,0,0.930641,17.20848,22.94464)"><path
         id="path81659"
         style="fill:#8d8d8d;fill-opacity:0.45490196"
         d="m 300.685,155.99 c -0.826,25.434 -5.174,52.53 -13.805,80.12 -5.938,18.983 -13.741,40.949 -22.837,64.828 0.103,0.191 0.204,0.382 0.307,0.572 8.964,-23.566 16.659,-45.253 22.53,-64.021 8.631,-27.59 12.979,-54.687 13.805,-80.12 0.096,-2.926 0.141,-5.829 0.145,-8.709 0,-0.46 0.002,-0.92 0,-1.379 -0.004,2.88 -0.049,5.782 -0.145,8.709 z"
         inkscape:connector-curvature="0" /></g><g
       id="g81661"
       style="fill:#8d8d8d;fill-opacity:0.45490196"
       transform="matrix(0.930641,0,0,0.930641,17.20848,22.94464)"><path
         id="path81663"
         style="fill:#8d8d8d;fill-opacity:0.45490196"
         d="m 118.372,167.366 c 0.535,11.972 2.113,23.748 4.866,34.002 9.249,34.461 22.565,73.129 38.161,113.336 0.104,-0.192 0.208,-0.384 0.312,-0.576 -15.73,-40.495 -29.162,-79.449 -38.473,-114.139 -2.757,-10.272 -4.336,-22.07 -4.868,-34.063 -0.132,-2.961 -0.197,-5.933 -0.203,-8.896 -0.002,0.459 -0.001,0.918 0,1.378 0.005,2.984 0.072,5.977 0.205,8.958 z"
         inkscape:connector-curvature="0" /></g><g
       id="g81665"
       style="fill:#8d8d8d;fill-opacity:1"
       transform="matrix(0.930641,0,0,0.930641,17.20848,22.94464)"><path
         id="path81667"
         style="fill:#8d8d8d;fill-opacity:1"
         d="m 3.391,598.584 c -0.01,0.018 -0.019,0.033 -0.029,0.051 0.077,-0.135 0.163,-0.285 0.261,-0.455 0.023,-0.041 0.044,-0.08 0.067,-0.12 0.179,-0.313 0.527,-0.924 1.029,-1.803 0,0 0,0 0,0 -0.105,0.185 -0.203,0.356 -0.297,0.521 -0.391,0.686 -0.683,1.197 -0.871,1.526 -0.008,0.014 -0.015,0.026 -0.022,0.039 -0.003,0.006 -0.007,0.012 -0.01,0.018 -0.016,0.028 -0.034,0.06 -0.049,0.085 -0.031,0.052 -0.057,0.099 -0.079,0.138 z"
         inkscape:connector-curvature="0" /></g><g
       id="g81669"
       style="fill:#8d8d8d;fill-opacity:0.45490196"
       transform="matrix(0.930641,0,0,0.930641,17.20848,22.94464)"><path
         id="path81671"
         style="fill:#8d8d8d;fill-opacity:0.45490196"
         d="M 409.221,569.344 349.736,703 c -0.89,1.997 -3.419,0.348 -6.192,-4.759 -9.111,-16.879 -99.767,-195.451 -128.7,-259.181 -1.73,-3.626 -4.03,-5.274 -5.697,-4.963 -27.835,64.312 -116.681,255.354 -125.814,274.342 -2.646,5.482 -5.373,7.533 -6.618,5.736 L 6.334,612.569 6.332,612.566 5.628,611.55 c -0.81,-1.17 -4.171,-7.222 -4.01,-8.781 0.068,-0.658 0.521,-1.811 1.332,-3.359 l -0.009,-0.014 c -0.93,1.732 -1.454,3.088 -1.542,3.938 -0.188,1.819 2.798,7.529 3.743,8.893 l 0.705,1.018 0.002,0.003 70.489,101.762 c 1.453,2.097 4.347,0.297 6.91,-5.012 7.828,-16.276 101.763,-218.795 125.621,-273.92 1.712,-0.882 4.16,0.524 5.944,4.238 24.801,54.625 120.981,244.956 128.791,259.424 2.703,4.971 5.363,6.363 6.399,4.033 l 59.659,-134.046 c 1.037,-2.33 2.93,-10.814 1.593,-12.987 l 0,0 c 0,0 -0.003,-0.004 -0.004,-0.007 -10e-4,-0.002 -0.002,-0.003 -0.005,-0.007 1.146,1.863 -1.135,10.62 -2.025,12.618 z"
         inkscape:connector-curvature="0" /></g><g
       id="g81673"
       style="fill:#8d8d8d;fill-opacity:0.45490196"
       transform="matrix(0.930641,0,0,0.930641,17.20848,22.94464)"><path
         id="path81675"
         style="fill:#8d8d8d;fill-opacity:0.45490196"
         d="m 225.127,50.01 c -15.807,-1.33 -31.359,3.578 -45.439,11.126 -0.65,0.321 -1.384,0.796 -1.878,1.244 0.06,0.386 0.122,0.777 0.188,1.183 0.498,-0.379 1.141,-0.771 1.691,-1.048 14.08,-7.548 29.633,-12.456 45.439,-11.126 21.278,1.791 36.722,10.597 47.95,21.761 0.104,-0.372 0.203,-0.731 0.298,-1.079 C 262.123,60.765 246.595,51.816 225.127,50.01 z"
         inkscape:connector-curvature="0" /></g><g
       id="g81677"
       style="fill:#8d8d8d;fill-opacity:0.54509804"
       transform="matrix(0.930641,0,0,0.930641,17.20848,22.94464)"><path
         id="path81679"
         style="fill:#8d8d8d;fill-opacity:0.54509804"
         d="m 408.779,568.959 -59.312,133.267 c -0.741,1.665 -3.141,-0.24 -5.984,-5.483 -10.413,-19.29 -95.543,-186.104 -128.609,-258.938 -1.678,-3.538 -3.827,-5.43 -5.449,-5.688 -31.813,73.498 -115.57,253.063 -126.007,274.764 -2.729,5.658 -5.288,7.958 -6.326,6.461 L 6.82,611.892 6.818,611.889 6.116,610.874 C 5.441,609.9 1.704,603.506 1.838,602.206 1.889,601.714 2.271,600.764 2.96,599.424 L 2.951,599.41 c -0.811,1.549 -1.264,2.701 -1.332,3.359 -0.161,1.56 3.201,7.611 4.01,8.781 l 0.704,1.016 0.002,0.003 70.381,101.606 c 1.245,1.797 3.972,-0.254 6.618,-5.736 9.132,-18.988 97.979,-210.03 125.813,-274.342 1.667,-0.312 3.966,1.337 5.697,4.963 28.934,63.729 119.589,242.302 128.7,259.181 2.773,5.106 5.303,6.756 6.192,4.759 l 59.485,-133.656 c 0.89,-1.998 3.171,-10.755 2.026,-12.617 l 0,0 c 0,-10e-4 0,-10e-4 0,-10e-4 0,0 -0.004,-0.005 -0.009,-0.015 0.955,1.553 -1.719,10.584 -2.459,12.248 z"
         inkscape:connector-curvature="0" /></g><g
       id="g81681"
       style="fill:#8d8d8d;fill-opacity:1"
       transform="matrix(0.930641,0,0,0.930641,17.20848,22.94464)"><path
         id="path81683"
         style="fill:#8d8d8d;fill-opacity:1"
         d="m 411.189,556.63 c 0.025,0.041 0.04,0.065 0.046,0.075 -0.001,-0.002 -0.003,-0.004 -0.003,-0.006 -0.017,-0.026 -0.046,-0.074 -0.088,-0.144 0.02,0.033 0.033,0.056 0.045,0.075 z"
         inkscape:connector-curvature="0" /></g><g
       id="g81685"
       style="fill:#8d8d8d;fill-opacity:0.54509804"
       transform="matrix(0.930641,0,0,0.930641,17.20848,22.94464)"><path
         id="path81687"
         style="fill:#8d8d8d;fill-opacity:0.54509804"
         d="m 300.685,154.611 c -0.826,25.434 -5.174,52.53 -13.805,80.119 -6.004,19.196 -13.918,41.443 -23.145,65.634 0.103,0.191 0.205,0.382 0.308,0.573 9.096,-23.879 16.899,-45.845 22.837,-64.828 8.631,-27.59 12.979,-54.686 13.805,-80.12 0.096,-2.926 0.141,-5.829 0.145,-8.709 0,-0.459 0.002,-0.92 0,-1.378 -0.004,2.88 -0.049,5.784 -0.145,8.709 z"
         inkscape:connector-curvature="0" /></g><g
       id="g81689"
       style="fill:#8d8d8d;fill-opacity:1"
       transform="matrix(0.930641,0,0,0.930641,17.20848,22.94464)"><path
         id="path81691"
         style="fill:#8d8d8d;fill-opacity:1"
         d="m 3.69,598.06 c -0.023,0.04 -0.044,0.079 -0.067,0.12 0.086,-0.151 0.18,-0.315 0.282,-0.494 0.028,-0.05 0.056,-0.1 0.085,-0.15 0.203,-0.355 0.55,-0.964 1.028,-1.801 0,0 -10e-4,0 -10e-4,10e-4 -0.105,0.185 -0.203,0.356 -0.297,0.521 -0.502,0.879 -0.851,1.489 -1.03,1.803 z"
         inkscape:connector-curvature="0" /></g><g
       id="g81693"
       style="fill:#8d8d8d;fill-opacity:0.54509804"
       transform="matrix(0.930641,0,0,0.930641,17.20848,22.94464)"><path
         id="path81695"
         style="fill:#8d8d8d;fill-opacity:0.54509804"
         d="m 118.37,165.926 c 0.532,11.993 2.111,23.792 4.868,34.063 9.311,34.69 22.742,73.644 38.473,114.139 0.104,-0.192 0.208,-0.384 0.311,-0.576 -15.865,-40.783 -29.412,-80.022 -38.784,-114.941 -2.762,-10.29 -4.341,-22.11 -4.871,-34.125 -0.13,-2.946 -0.195,-5.903 -0.2,-8.852 -0.002,0.465 -0.001,0.93 0,1.396 0.005,2.963 0.071,5.935 0.203,8.896 z"
         inkscape:connector-curvature="0" /></g><g
       id="g81697"
       style="fill:#8d8d8d;fill-opacity:0.54509804"
       transform="matrix(0.930641,0,0,0.930641,17.20848,22.94464)"><path
         id="path81699"
         style="fill:#8d8d8d;fill-opacity:0.54509804"
         d="m 225.127,48.631 c -15.807,-1.33 -31.359,3.578 -45.439,11.126 -0.769,0.374 -1.593,0.95 -2.048,1.486 0.052,0.368 0.11,0.749 0.17,1.137 0.495,-0.448 1.228,-0.923 1.878,-1.244 14.08,-7.548 29.633,-12.456 45.439,-11.126 21.468,1.807 36.995,10.755 48.248,22.062 0.103,-0.375 0.202,-0.736 0.296,-1.081 -11.277,-11.448 -26.888,-20.538 -48.544,-22.36 z"
         inkscape:connector-curvature="0" /></g><g
       id="g81701"
       style="fill:#8d8d8d;fill-opacity:0.63529412"
       transform="matrix(0.930641,0,0,0.930641,17.20848,22.94464)"><path
         id="path81703"
         style="fill:#8d8d8d;fill-opacity:0.63529412"
         d="m 300.685,153.233 c -0.826,25.433 -5.174,52.529 -13.805,80.119 -6.07,19.408 -14.094,41.937 -23.451,66.438 0.102,0.191 0.205,0.383 0.307,0.574 9.227,-24.19 17.141,-46.438 23.145,-65.634 8.631,-27.589 12.979,-54.686 13.805,-80.119 0.096,-2.926 0.141,-5.829 0.145,-8.709 0,-0.46 0.002,-0.92 0,-1.379 -0.005,2.881 -0.05,5.784 -0.146,8.71 z"
         inkscape:connector-curvature="0" /></g><g
       id="g81705"
       style="fill:#8d8d8d;fill-opacity:0.63529412"
       transform="matrix(0.930641,0,0,0.930641,17.20848,22.94464)"><path
         id="path81707"
         style="fill:#8d8d8d;fill-opacity:0.63529412"
         d="m 411.189,556.63 c 0.014,0.023 0.022,0.037 0.022,0.037 l 0,0 c 0.006,0.009 0.009,0.015 0.009,0.015 l 0,0 c 0.006,0.01 0.01,0.015 0.01,0.015 0.764,1.241 -2.302,10.547 -2.895,11.878 l -59.139,132.878 c -0.593,1.331 -2.861,-0.829 -5.777,-6.208 -11.714,-21.701 -91.318,-176.757 -128.518,-258.695 -1.623,-3.449 -3.625,-5.584 -5.202,-6.414 -35.786,82.686 -114.454,250.772 -126.196,275.186 -2.811,5.832 -5.203,8.383 -6.033,7.185 L 7.306,611.214 7.304,611.21 6.602,610.197 c -0.54,-0.779 -4.652,-7.516 -4.545,-8.556 0.03,-0.291 0.255,-0.87 0.661,-1.704 0.013,-0.055 0.094,-0.227 0.243,-0.512 L 2.96,599.423 c -0.689,1.34 -1.071,2.29 -1.122,2.782 -0.134,1.3 3.603,7.694 4.278,8.668 l 0.702,1.015 0.002,0.003 70.272,101.45 c 1.038,1.497 3.597,-0.803 6.326,-6.461 10.437,-21.701 94.194,-201.266 126.005,-274.765 1.622,0.259 3.771,2.15 5.449,5.688 33.066,72.834 118.196,239.647 128.609,258.938 2.844,5.243 5.243,7.148 5.984,5.483 l 59.312,-133.267 c 0.74,-1.664 3.414,-10.695 2.46,-12.248 l 0,0 0,0 c 0,0 -0.003,-0.004 -0.004,-0.006 -0.004,-0.008 -0.019,-0.032 -0.044,-0.073 z"
         inkscape:connector-curvature="0" /></g><g
       id="g81709"
       style="fill:#8d8d8d;fill-opacity:1"
       transform="matrix(0.930641,0,0,0.930641,17.20848,22.94464)"><path
         id="path81711"
         style="fill:#8d8d8d;fill-opacity:1"
         d="m 3.99,597.535 c -0.029,0.051 -0.057,0.101 -0.085,0.15 0.088,-0.154 0.183,-0.32 0.282,-0.494 0.034,-0.061 0.067,-0.119 0.102,-0.18 0.223,-0.391 0.56,-0.982 1.003,-1.758 -0.096,0.168 -0.187,0.326 -0.274,0.48 -0.478,0.838 -0.825,1.447 -1.028,1.802 z"
         inkscape:connector-curvature="0" /></g><g
       id="g81713"
       style="fill:#8d8d8d;fill-opacity:0.63529412"
       transform="matrix(0.930641,0,0,0.930641,17.20848,22.94464)"><path
         id="path81715"
         style="fill:#8d8d8d;fill-opacity:0.63529412"
         d="m 118.367,164.485 c 0.53,12.015 2.109,23.835 4.871,34.125 9.372,34.919 22.919,74.159 38.784,114.941 0.104,-0.192 0.208,-0.385 0.312,-0.578 -15.999,-41.07 -29.663,-80.595 -39.096,-115.742 -2.767,-10.307 -4.347,-22.151 -4.874,-34.187 -0.128,-2.932 -0.192,-5.875 -0.198,-8.811 -0.002,0.466 0,0.933 0,1.399 0.006,2.951 0.071,5.908 0.201,8.853 z"
         inkscape:connector-curvature="0" /></g><g
       id="g81717"
       style="fill:#8d8d8d;fill-opacity:0.63529412"
       transform="matrix(0.930641,0,0,0.930641,17.20848,22.94464)"><path
         id="path81719"
         style="fill:#8d8d8d;fill-opacity:0.63529412"
         d="m 225.127,47.252 c -15.807,-1.33 -31.359,3.578 -45.439,11.126 -0.915,0.438 -1.821,1.144 -2.188,1.801 0.042,0.345 0.088,0.699 0.14,1.064 0.455,-0.536 1.279,-1.112 2.048,-1.486 14.08,-7.548 29.633,-12.456 45.439,-11.126 21.655,1.822 37.267,10.912 48.544,22.359 0.103,-0.381 0.199,-0.741 0.292,-1.085 C 262.666,58.32 246.969,49.09 225.127,47.252 z"
         inkscape:connector-curvature="0" /></g><g
       id="g81721"
       style="fill:#8d8d8d;fill-opacity:1"
       transform="matrix(0.930641,0,0,0.930641,17.20848,22.94464)"><path
         id="path81723"
         style="fill:#8d8d8d;fill-opacity:1"
         d="m 118.166,153.108 c 0,-0.089 0,-0.179 0,-0.268 0,0.089 0.001,0.179 0,0.268 z"
         inkscape:connector-curvature="0" /></g><g
       id="g81725"
       style="fill:#8d8d8d;fill-opacity:0.7254902"
       transform="matrix(0.930641,0,0,0.930641,17.20848,22.94464)"><path
         id="path81727"
         style="fill:#8d8d8d;fill-opacity:0.7254902"
         d="m 300.685,151.854 c -0.826,25.433 -5.174,52.529 -13.805,80.118 -6.138,19.622 -14.268,42.43 -23.759,67.244 0.103,0.191 0.205,0.382 0.308,0.574 9.357,-24.501 17.381,-47.03 23.451,-66.438 8.631,-27.589 12.979,-54.686 13.805,-80.119 0.096,-2.926 0.141,-5.829 0.145,-8.709 0,-0.46 0.002,-0.92 0,-1.378 -0.004,2.879 -0.049,5.782 -0.145,8.708 z"
         inkscape:connector-curvature="0" /></g><g
       id="g81729"
       style="fill:#8d8d8d;fill-opacity:0.72156863"
       transform="matrix(0.930641,0,0,0.930641,17.20848,22.94464)"><path
         id="path81731"
         style="fill:#8d8d8d;fill-opacity:0.72156863"
         d="m 118.364,163.045 c 0.527,12.036 2.107,23.879 4.874,34.187 9.434,35.147 23.097,74.672 39.096,115.742 0.104,-0.192 0.208,-0.386 0.313,-0.578 -16.134,-41.356 -29.915,-81.167 -39.409,-116.543 -2.771,-10.324 -4.352,-22.19 -4.876,-34.248 -0.118,-2.71 -0.183,-5.429 -0.195,-8.143 0,0.258 0,0.515 0,0.773 0.004,2.935 0.068,5.878 0.197,8.81 z"
         inkscape:connector-curvature="0" /></g><g
       id="g81733"
       style="fill:#8d8d8d;fill-opacity:1"
       transform="matrix(0.930641,0,0,0.930641,17.20848,22.94464)"><path
         id="path81735"
         style="fill:#8d8d8d;fill-opacity:1"
         d="m 4.289,597.012 c -0.035,0.061 -0.068,0.119 -0.102,0.18 0.083,-0.145 0.168,-0.295 0.259,-0.453 0.047,-0.084 0.094,-0.166 0.143,-0.252 0.249,-0.436 0.594,-1.04 1.025,-1.797 0,0.002 -10e-4,0.002 -0.002,0.003 -0.113,0.198 -0.218,0.383 -0.319,0.562 -0.444,0.774 -0.781,1.366 -1.004,1.757 z"
         inkscape:connector-curvature="0" /></g><g
       id="g81737"
       style="fill:#8d8d8d;fill-opacity:0.7254902"
       transform="matrix(0.930641,0,0,0.930641,17.20848,22.94464)"><path
         id="path81739"
         style="fill:#8d8d8d;fill-opacity:0.7254902"
         d="m 225.127,45.873 c -15.807,-1.33 -31.359,3.578 -45.439,11.126 -1.053,0.496 -1.988,1.326 -2.248,2.134 -0.014,0.043 -0.025,0.09 -0.037,0.135 0.027,0.295 0.06,0.599 0.097,0.912 0.367,-0.658 1.273,-1.363 2.188,-1.801 14.08,-7.548 29.633,-12.456 45.439,-11.126 21.842,1.838 37.538,11.068 48.836,22.653 0.103,-0.382 0.198,-0.743 0.287,-1.08 C 262.931,57.1 247.156,47.727 225.127,45.873 z"
         inkscape:connector-curvature="0" /></g><g
       id="g81741"
       style="fill:#8d8d8d;fill-opacity:0.7254902"
       transform="matrix(0.930641,0,0,0.930641,17.20848,22.94464)"><path
         id="path81743"
         style="fill:#8d8d8d;fill-opacity:0.7254902"
         d="m 6.602,610.197 0.702,1.013 0.002,0.004 70.164,101.293 c 0.83,1.198 3.222,-1.353 6.033,-7.185 11.741,-24.414 90.409,-192.5 126.196,-275.188 1.577,0.83 3.579,2.965 5.202,6.414 37.199,81.938 116.804,236.994 128.518,258.695 2.916,5.379 5.185,7.539 5.777,6.208 l 59.139,-132.878 c 0.593,-1.331 3.658,-10.637 2.895,-11.878 0,0 -0.004,-0.005 -0.01,-0.015 0.572,0.932 -2.883,10.51 -3.327,11.509 l -58.966,132.487 c -0.444,1 -2.584,-1.418 -5.568,-6.933 -13.017,-24.113 -87.095,-167.409 -128.428,-258.451 -1.569,-3.362 -3.422,-5.739 -4.955,-7.14 -39.763,91.877 -113.342,248.486 -126.388,275.612 -2.893,6.008 -5.118,8.808 -5.741,7.908 L 7.792,610.535 7.79,610.532 7.09,609.521 c -0.405,-0.585 -4.893,-7.664 -4.812,-8.443 0.016,-0.16 0.143,-0.49 0.374,-0.98 0.02,-0.043 0.042,-0.092 0.066,-0.142 0,-0.002 -0.002,-0.005 -0.002,-0.007 0,-0.002 0.003,-0.009 0.004,-0.012 -0.406,0.834 -0.631,1.413 -0.661,1.704 -0.109,1.041 4.003,7.777 4.543,8.556 z"
         inkscape:connector-curvature="0" /></g><g
       id="g81745"
       style="fill:#8d8d8d;fill-opacity:0.81960784"
       transform="matrix(0.930641,0,0,0.930641,17.20848,22.94464)"><path
         id="path81747"
         style="fill:#8d8d8d;fill-opacity:0.81960784"
         d="m 300.685,150.476 c -0.826,25.433 -5.174,52.529 -13.805,80.118 -6.203,19.833 -14.444,42.923 -24.066,68.048 0.102,0.191 0.205,0.383 0.308,0.575 9.491,-24.814 17.621,-47.623 23.759,-67.244 8.631,-27.589 12.979,-54.685 13.805,-80.118 0.096,-2.926 0.141,-5.829 0.145,-8.709 0,-0.46 0.002,-0.92 0,-1.378 -0.005,2.879 -0.05,5.782 -0.146,8.708 z"
         inkscape:connector-curvature="0" /></g><g
       id="g81749"
       style="fill:#8d8d8d;fill-opacity:0.81568627"
       transform="matrix(0.930641,0,0,0.930641,17.20848,22.94464)"><path
         id="path81751"
         style="fill:#8d8d8d;fill-opacity:0.81568627"
         d="m 118.361,161.604 c 0.524,12.057 2.105,23.923 4.876,34.248 9.495,35.376 23.275,75.187 39.409,116.543 0.104,-0.192 0.208,-0.386 0.312,-0.578 -16.268,-41.644 -30.166,-81.74 -39.722,-117.344 -2.776,-10.342 -4.357,-22.231 -4.879,-34.309 -0.116,-2.694 -0.18,-5.398 -0.192,-8.096 0,0.257 0,0.514 0,0.771 0,0.089 0,0.179 0,0.268 0,0.118 0,0.235 0,0.354 0.014,2.714 0.078,5.434 0.196,8.143 z"
         inkscape:connector-curvature="0" /></g><g
       id="g81753"
       style="fill:#8d8d8d;fill-opacity:1"
       transform="matrix(0.930641,0,0,0.930641,17.20848,22.94464)"><path
         id="path81755"
         style="fill:#8d8d8d;fill-opacity:1"
         d="m 4.588,596.486 c -0.049,0.086 -0.095,0.168 -0.143,0.252 0.087,-0.153 0.177,-0.311 0.272,-0.477 0.056,-0.1 0.112,-0.197 0.17,-0.299 0.271,-0.477 0.615,-1.078 1.024,-1.796 -10e-4,10e-4 -0.002,0.003 -0.002,0.005 -0.104,0.181 -0.201,0.352 -0.296,0.518 -0.431,0.757 -0.776,1.362 -1.025,1.797 z"
         inkscape:connector-curvature="0" /></g><g
       id="g81757"
       style="fill:#8d8d8d;fill-opacity:0.81960784"
       transform="matrix(0.930641,0,0,0.930641,17.20848,22.94464)"><path
         id="path81759"
         style="fill:#8d8d8d;fill-opacity:0.81960784"
         d="m 7.089,609.521 0.7,1.011 0.002,0.003 70.056,101.137 c 0.623,0.899 2.848,-1.9 5.741,-7.908 13.046,-27.126 86.625,-183.734 126.388,-275.609 1.533,1.4 3.386,3.777 4.955,7.14 41.333,91.042 115.411,234.338 128.428,258.451 2.984,5.515 5.124,7.933 5.568,6.933 l 58.966,-132.487 c 0.444,-0.999 3.899,-10.577 3.327,-11.509 l 0,0 c 0,0 -0.003,-0.006 -0.009,-0.015 0.382,0.622 -3.465,10.474 -3.761,11.14 l -58.793,132.098 c -0.297,0.666 -2.305,-2.007 -5.361,-7.658 -14.317,-26.524 -82.869,-158.062 -128.337,-258.207 -1.515,-3.275 -3.218,-5.895 -4.707,-7.865 -43.74,101.062 -112.229,246.193 -126.58,276.032 -2.976,6.181 -5.033,9.231 -5.448,8.632 L 8.277,609.857 8.274,609.853 7.575,608.844 c -0.27,-0.39 -5.134,-7.812 -5.08,-8.331 0.007,-0.066 0.06,-0.207 0.154,-0.416 -0.231,0.49 -0.357,0.82 -0.374,0.98 -0.079,0.78 4.409,7.86 4.814,8.444 z"
         inkscape:connector-curvature="0" /></g><g
       id="g81761"
       style="fill:#8d8d8d;fill-opacity:0.81960784"
       transform="matrix(0.930641,0,0,0.930641,17.20848,22.94464)"><path
         id="path81763"
         style="fill:#8d8d8d;fill-opacity:0.81960784"
         d="m 225.127,44.494 c -15.807,-1.33 -31.359,3.578 -45.439,11.126 -1.064,0.494 -1.902,1.307 -2.188,2.195 -0.066,0.206 -0.118,0.43 -0.157,0.671 0.015,0.253 0.035,0.514 0.06,0.781 0.012,-0.045 0.023,-0.092 0.037,-0.135 0.26,-0.808 1.195,-1.638 2.248,-2.134 14.08,-7.548 29.633,-12.456 45.439,-11.126 22.028,1.854 37.804,11.227 49.123,22.952 0.104,-0.392 0.198,-0.753 0.283,-1.082 C 263.195,55.879 247.341,46.363 225.127,44.494 z"
         inkscape:connector-curvature="0" /></g><g
       id="g81765"
       style="fill:#8d8d8d;fill-opacity:0.90980392"
       transform="matrix(0.930641,0,0,0.930641,17.20848,22.94464)"><path
         id="path81767"
         style="fill:#8d8d8d;fill-opacity:0.90980392"
         d="m 300.685,149.098 c -0.826,25.433 -5.174,52.528 -13.805,80.117 -6.27,20.044 -14.621,43.416 -24.375,68.852 0.103,0.191 0.205,0.383 0.309,0.575 9.622,-25.125 17.863,-48.215 24.066,-68.048 8.631,-27.589 12.979,-54.685 13.805,-80.118 0.096,-2.926 0.141,-5.829 0.145,-8.709 0,-0.46 0.002,-0.92 0,-1.379 -0.004,2.881 -0.049,5.783 -0.145,8.71 z"
         inkscape:connector-curvature="0" /></g><g
       id="g81769"
       style="fill:#8d8d8d;fill-opacity:0.89019608"
       transform="matrix(0.930641,0,0,0.930641,17.20848,22.94464)"><path
         id="path81771"
         style="fill:#8d8d8d;fill-opacity:0.89019608"
         d="m 411.203,556.652 c 0.191,0.311 -4.047,10.437 -4.195,10.77 l -58.619,131.709 c -0.148,0.333 -2.026,-2.597 -5.153,-8.384 -15.618,-28.936 -78.646,-148.714 -128.247,-257.964 -1.461,-3.188 -3.014,-6.05 -4.459,-8.591 -47.717,110.249 -111.117,243.904 -126.772,276.455 -3.058,6.356 -4.948,9.655 -5.156,9.356 L 8.763,609.18 8.76,609.176 8.062,608.168 c -0.134,-0.193 -5.33,-7.893 -5.346,-8.212 -0.024,0.05 -0.046,0.099 -0.066,0.142 -0.095,0.209 -0.147,0.35 -0.154,0.416 -0.054,0.52 4.81,7.941 5.08,8.331 l 0.699,1.009 0.003,0.004 69.947,100.98 c 0.415,0.6 2.473,-2.451 5.448,-8.632 14.351,-29.839 82.84,-174.971 126.58,-276.032 1.489,1.971 3.192,4.59 4.707,7.865 45.468,100.146 114.02,231.683 128.337,258.207 3.057,5.651 5.064,8.324 5.361,7.658 l 58.793,-132.098 c 0.296,-0.666 4.143,-10.518 3.761,-11.14 l 0,0 c 0,0 -0.009,-0.014 -0.022,-0.037 -0.012,-0.019 -0.025,-0.042 -0.045,-0.074 -0.015,-0.022 -0.03,-0.048 -0.049,-0.077 l 0,0 c 0.07,0.115 0.107,0.174 0.107,0.174 z"
         inkscape:connector-curvature="0" /></g><g
       id="g81773"
       style="fill:#8d8d8d;fill-opacity:0.90980392"
       transform="matrix(0.930641,0,0,0.930641,17.20848,22.94464)"><path
         id="path81775"
         style="fill:#8d8d8d;fill-opacity:0.90980392"
         d="m 118.358,160.165 c 0.522,12.078 2.104,23.967 4.879,34.309 9.556,35.604 23.454,75.7 39.722,117.344 0.104,-0.193 0.208,-0.386 0.312,-0.578 -16.403,-41.931 -30.417,-82.312 -40.034,-118.145 -2.781,-10.359 -4.363,-22.271 -4.882,-34.37 -0.115,-2.677 -0.177,-5.362 -0.189,-8.042 -10e-4,0.462 -0.002,0.924 0,1.386 0.013,2.698 0.076,5.401 0.192,8.096 z"
         inkscape:connector-curvature="0" /></g><g
       id="g81777"
       style="fill:#8d8d8d;fill-opacity:1"
       transform="matrix(0.930641,0,0,0.930641,17.20848,22.94464)"><path
         id="path81779"
         style="fill:#8d8d8d;fill-opacity:1"
         d="m 4.888,595.963 c -0.058,0.102 -0.114,0.199 -0.17,0.299 0.093,-0.163 0.189,-0.331 0.289,-0.506 0.06,-0.105 0.119,-0.209 0.181,-0.317 0.292,-0.513 0.635,-1.112 1.021,-1.791 0,10e-4 -10e-4,10e-4 -0.002,0.003 -0.102,0.18 -0.2,0.35 -0.295,0.517 -0.41,0.717 -0.753,1.318 -1.024,1.795 z"
         inkscape:connector-curvature="0" /></g><g
       id="g81781"
       style="fill:#8d8d8d;fill-opacity:0.90980392"
       transform="matrix(0.930641,0,0,0.930641,17.20848,22.94464)"><path
         id="path81783"
         style="fill:#8d8d8d;fill-opacity:0.90980392"
         d="m 225.127,43.115 c -15.807,-1.33 -31.359,3.578 -45.439,11.126 -1.075,0.491 -1.815,1.287 -2.127,2.256 -0.125,0.39 -0.203,0.83 -0.245,1.315 0.004,0.218 0.013,0.444 0.027,0.674 0.04,-0.241 0.091,-0.465 0.157,-0.671 0.285,-0.889 1.124,-1.702 2.188,-2.195 14.08,-7.548 29.633,-12.456 45.439,-11.126 22.214,1.869 38.067,11.385 49.406,23.249 0.107,-0.415 0.2,-0.776 0.278,-1.087 C 263.456,54.657 247.523,45 225.127,43.115 z"
         inkscape:connector-curvature="0" /></g><g
       id="g81785"
       style="fill:#8d8d8d;fill-opacity:1"
       transform="matrix(0.930641,0,0,0.930641,17.20848,22.94464)"><path
         id="path81787"
         style="fill:#8d8d8d;fill-opacity:1"
         d="m 300.685,147.719 c -0.826,25.433 -5.174,52.528 -13.805,80.116 -6.336,20.255 -14.796,43.908 -24.684,69.656 0.103,0.192 0.206,0.383 0.309,0.575 9.754,-25.437 18.105,-48.808 24.375,-68.852 8.631,-27.588 12.979,-54.684 13.805,-80.117 0.096,-2.926 0.141,-5.829 0.145,-8.71 0,-0.46 0.002,-0.92 0,-1.378 -0.004,2.881 -0.049,5.784 -0.145,8.71 z"
         inkscape:connector-curvature="0" /></g><g
       id="g81789"
       style="fill:#8d8d8d;fill-opacity:1"
       transform="matrix(0.930641,0,0,0.930641,17.20848,22.94464)"><path
         id="path81791"
         style="fill:#8d8d8d;fill-opacity:1"
         d="m 411.193,556.638 -4.628,10.399 -58.446,131.32 c 0,0 -72.295,-131.725 -137.312,-276.146 C 149.541,563.766 78.979,709.17 78.979,709.17 L 8.549,607.492 2.962,599.426 c -0.149,0.285 -0.23,0.457 -0.243,0.512 -10e-4,0.003 -0.003,0.01 -0.004,0.012 0,0.002 0.002,0.005 0.002,0.007 0.016,0.319 5.211,8.019 5.346,8.212 l 0.698,1.008 0.003,0.004 69.839,100.824 c 0.208,0.299 2.098,-3 5.156,-9.356 15.655,-32.552 79.056,-166.206 126.771,-276.455 1.445,2.541 2.998,5.403 4.459,8.591 49.602,109.25 112.629,229.028 128.247,257.964 3.127,5.787 5.005,8.717 5.153,8.384 l 58.619,-131.709 c 0.148,-0.333 4.387,-10.459 4.195,-10.77 0,0 -0.037,-0.06 -0.107,-0.174 -0.003,-0.006 -0.006,-0.01 -0.009,-0.016 -10e-4,-0.002 -0.003,-0.004 -0.004,-0.006 0.072,0.116 0.11,0.18 0.11,0.18 z"
         inkscape:connector-curvature="0" /></g><g
       id="g81793"
       style="fill:#8d8d8d;fill-opacity:1"
       transform="matrix(0.930641,0,0,0.930641,17.20848,22.94464)"><path
         id="path81795"
         style="fill:#8d8d8d;fill-opacity:1"
         d="m 5.187,595.438 c -0.062,0.108 -0.121,0.212 -0.181,0.317 0.438,-0.767 0.943,-1.653 1.511,-2.65 -0.004,0.008 -0.009,0.016 -0.013,0.023 -0.103,0.179 -0.2,0.35 -0.296,0.519 -0.386,0.679 -0.729,1.279 -1.021,1.791 z"
         inkscape:connector-curvature="0" /></g><g
       id="g81797"
       style="fill:#8d8d8d;fill-opacity:1"
       transform="matrix(0.930641,0,0,0.930641,17.20848,22.94464)"><path
         id="path81799"
         style="fill:#8d8d8d;fill-opacity:1"
         d="m 118.356,158.725 c 0.519,12.099 2.101,24.011 4.882,34.37 9.617,35.833 23.631,76.214 40.034,118.145 0.104,-0.193 0.208,-0.386 0.312,-0.579 -16.538,-42.217 -30.668,-82.884 -40.347,-118.945 -2.785,-10.376 -4.368,-22.311 -4.885,-34.431 -0.113,-2.664 -0.175,-5.336 -0.187,-8.003 -0.001,0.467 -0.002,0.934 0,1.401 0.014,2.679 0.076,5.365 0.191,8.042 z"
         inkscape:connector-curvature="0" /></g><g
       id="g81801"
       style="fill:#8d8d8d;fill-opacity:1"
       transform="matrix(0.930641,0,0,0.930641,17.20848,22.94464)"><path
         id="path81803"
         style="fill:#8d8d8d;fill-opacity:1"
         d="m 225.127,41.736 c -15.807,-1.33 -31.359,3.578 -45.439,11.126 -1.856,0.834 -2.417,2.518 -2.372,4.95 0.042,-0.485 0.119,-0.925 0.245,-1.315 0.312,-0.969 1.052,-1.765 2.127,-2.256 14.08,-7.548 29.633,-12.456 45.439,-11.126 22.396,1.884 38.328,11.542 49.685,23.541 0.128,-0.502 0.219,-0.87 0.273,-1.093 C 263.711,53.431 247.702,43.636 225.127,41.736 z"
         inkscape:connector-curvature="0" /></g><g
       id="g81805"
       style="fill:#8d8d8d;fill-opacity:1"
       transform="matrix(0.930641,0,0,0.930641,17.20848,22.94464)"><path
         id="path81807"
         style="fill:#8d8d8d;fill-opacity:1"
         d="m 5.006,595.756 c -0.1,0.175 -0.196,0.343 -0.289,0.506 -0.095,0.166 -0.185,0.323 -0.272,0.477 -0.09,0.158 -0.176,0.309 -0.259,0.453 -0.1,0.174 -0.194,0.34 -0.282,0.494 -0.102,0.179 -0.195,0.343 -0.282,0.494 -0.098,0.17 -0.184,0.32 -0.261,0.455 -0.121,0.212 -0.218,0.383 -0.288,0.505 -0.093,0.162 -0.141,0.246 -0.141,0.246 l 0.002,0.003 0.005,0.008 0.009,0.014 0.009,0.014 0.001,0.002 5.587,8.066 70.43,101.678 c 0,0 70.562,-145.404 131.827,-286.959 65.018,144.422 137.312,276.146 137.312,276.146 l 58.446,-131.32 4.628,-10.399 c 0,0 -0.038,-0.063 -0.11,-0.181 -3.249,-5.29 -78.765,-128.422 -144.896,-251.521 l 0,0 c -0.103,-0.19 -0.204,-0.38 -0.306,-0.569 -0.102,-0.19 -0.203,-0.381 -0.306,-0.571 -0.103,-0.19 -0.203,-0.38 -0.306,-0.57 -0.102,-0.19 -0.203,-0.381 -0.306,-0.571 -0.103,-0.19 -0.204,-0.381 -0.307,-0.572 -0.103,-0.19 -0.204,-0.381 -0.307,-0.572 -0.103,-0.19 -0.204,-0.381 -0.307,-0.572 -0.103,-0.191 -0.205,-0.382 -0.308,-0.573 -0.102,-0.191 -0.205,-0.383 -0.307,-0.574 -0.103,-0.191 -0.205,-0.382 -0.308,-0.574 -0.103,-0.192 -0.206,-0.383 -0.308,-0.575 -0.104,-0.192 -0.206,-0.384 -0.309,-0.575 -0.103,-0.192 -0.206,-0.383 -0.309,-0.575 9.888,-25.748 18.348,-49.4 24.684,-69.656 8.631,-27.588 12.979,-54.684 13.805,-80.116 0.096,-2.926 0.141,-5.83 0.145,-8.71 0.011,-10.236 -0.55,-20.173 -1.635,-29.728 l 0.004,0.011 C 297.144,91.26 293.241,74.579 287.823,59.795 255.176,-29.296 189.518,-5.26 152.92,44.299 c -3.983,5.394 -18.372,26.102 -27.905,54.094 -4.482,13.164 -6.94,31.885 -6.855,50.891 0.012,2.667 0.073,5.34 0.187,8.003 0.517,12.12 2.1,24.055 4.885,34.431 9.679,36.061 23.809,76.728 40.347,118.945 -0.104,0.193 -0.208,0.386 -0.312,0.579 -0.104,0.192 -0.208,0.385 -0.312,0.578 -0.104,0.192 -0.208,0.386 -0.312,0.578 -0.104,0.192 -0.208,0.386 -0.313,0.578 -0.104,0.193 -0.208,0.386 -0.312,0.578 -0.104,0.192 -0.208,0.384 -0.311,0.576 -0.104,0.192 -0.208,0.384 -0.312,0.576 -0.104,0.192 -0.208,0.384 -0.311,0.576 -0.104,0.192 -0.208,0.384 -0.312,0.576 -0.104,0.192 -0.207,0.384 -0.311,0.576 -0.104,0.191 -0.207,0.382 -0.31,0.574 -0.103,0.192 -0.207,0.382 -0.31,0.573 -0.104,0.191 -0.206,0.382 -0.31,0.574 l 0,0 C 94.117,439.053 23.068,564.072 6.518,593.105 c -0.569,0.998 -1.074,1.884 -1.512,2.651 z m 269.806,-529.1 c -0.078,0.311 -0.171,0.673 -0.278,1.087 -0.085,0.329 -0.18,0.69 -0.283,1.082 -0.089,0.337 -0.185,0.698 -0.287,1.08 -0.093,0.344 -0.189,0.704 -0.292,1.085 -0.094,0.345 -0.193,0.706 -0.296,1.081 -0.095,0.347 -0.194,0.707 -0.298,1.079 -0.098,0.349 -0.197,0.709 -0.302,1.08 -0.099,0.351 -0.2,0.712 -0.306,1.083 -0.1,0.352 -0.203,0.712 -0.309,1.081 -0.101,0.352 -0.203,0.71 -0.311,1.078 -0.102,0.353 -0.207,0.715 -0.314,1.083 -0.104,0.355 -0.209,0.715 -0.317,1.083 l 0,0 c -6.26,21.263 -20.39,63.917 -45.15,112.498 -2.882,5.655 -5.847,11.431 -8.881,17.308 -4.319,-8.946 -8.453,-17.703 -12.358,-26.214 -19.64,-42.801 -24.521,-83.347 -25.426,-107.689 -0.058,-1.539 -0.173,-3.014 -0.322,-4.421 -0.046,-0.44 -0.097,-0.871 -0.149,-1.298 -0.054,-0.436 -0.109,-0.863 -0.167,-1.284 -0.059,-0.431 -0.119,-0.855 -0.181,-1.271 -0.063,-0.426 -0.127,-0.844 -0.192,-1.254 -0.066,-0.421 -0.132,-0.833 -0.198,-1.236 -0.066,-0.413 -0.133,-0.819 -0.197,-1.213 -0.065,-0.405 -0.127,-0.797 -0.188,-1.183 -0.06,-0.388 -0.118,-0.769 -0.17,-1.137 -0.052,-0.365 -0.098,-0.719 -0.14,-1.064 -0.038,-0.313 -0.07,-0.617 -0.097,-0.912 -0.024,-0.267 -0.045,-0.528 -0.06,-0.781 -0.014,-0.23 -0.023,-0.456 -0.027,-0.674 -0.045,-2.432 0.516,-4.116 2.372,-4.95 14.08,-7.548 29.633,-12.456 45.439,-11.126 22.574,1.899 38.584,11.694 49.958,23.826 -0.054,0.223 -0.145,0.59 -0.273,1.093 z"
         inkscape:connector-curvature="0" /></g><path
       sodipodi:nodetypes="scccsccs"
       d="M 207.83168,193.46506 C 180.33403,133.53829 183.92258,78.36152 184.4335,72.140185 l 0,-2.436216 c -23.64387,12.67533 -42.82438,35.785731 -50.87442,44.805511 -7.42093,21.79096 -8.88204,59.9491 -1.6612,86.853 47.36684,176.48117 209.28348,471.50182 209.28348,471.50182 l 58.69925,-131.89045 c 9.3e-4,0.002 -128.38378,-208.76325 -192.04893,-347.50879 z"
       style="fill:url(#linearGradient3992)"
       id="path81049_1_"
       inkscape:connector-curvature="0" /><path
       d="m 284.19077,234.97723 c 12.23979,-39.12694 15.22436,-77.18829 11.45991,-110.33121 -3.40987,-10.87733 -9.8955,-27.30873 -22.43682,-40.686695 l 0,0 c -0.96508,3.943126 -13.94845,55.661635 -45.61723,117.793095 -2.68211,5.26277 -5.44146,10.63816 -8.26502,16.10753 12.61018,26.11286 26.94205,53.9595 41.88722,81.94108 9.20311,-23.96121 17.0754,-45.97273 22.97194,-64.8238 z"
       style="fill:url(#linearGradient3989)"
       id="path81074_1_"
       inkscape:connector-curvature="0" /><path
       d="m 19.938981,580.75783 70.770595,102.16949 c 0,0 65.667894,-135.31893 122.683614,-267.05581 C 197.88312,381.42197 182.81884,346.19628 169.44739,312.0585 99.009032,442.52041 19.938981,580.75783 19.938981,580.75783 z"
       style="fill:url(#linearGradient3986)"
       id="path81099_1_"
       inkscape:connector-curvature="0" /><path
       sodipodi:nodetypes="ccccccc"
       d="m 273.21386,83.959325 c 12.54597,13.382618 19.03068,29.818665 22.44055,40.696005 -1.90503,-16.78411 -5.53639,-32.308137 -10.5786,-46.066734 -30.38357,-82.9117373 -91.48666,-60.54285 -125.54626,-14.420282 -3.70675,5.019877 -30.44932,43.001646 -31.6639,79.770946 11.02639,-46.066293 55.01452,-85.272694 98.85711,-82.152457 21.00829,1.767288 35.90692,10.882916 46.4911,22.172522 z"
       style="fill:url(#linearGradient3983)"
       id="path81130_1_"
       inkscape:connector-curvature="0" /></g></svg>