<?xml version="1.0" encoding="UTF-8" standalone="no"?>
<!-- Created with Inkscape (http://www.inkscape.org/) -->

<svg
   xmlns:a="http://ns.adobe.com/AdobeSVGViewerExtensions/3.0/"
   xmlns:dc="http://purl.org/dc/elements/1.1/"
   xmlns:cc="http://creativecommons.org/ns#"
   xmlns:rdf="http://www.w3.org/1999/02/22-rdf-syntax-ns#"
   xmlns:svg="http://www.w3.org/2000/svg"
   xmlns="http://www.w3.org/2000/svg"
   xmlns:xlink="http://www.w3.org/1999/xlink"
   xmlns:sodipodi="http://sodipodi.sourceforge.net/DTD/sodipodi-0.dtd"
   xmlns:inkscape="http://www.inkscape.org/namespaces/inkscape"
   version="1.0"
   width="384.82852"
   height="672.61969"
   viewBox="0 0 384.83037 672.62155"
   id="svg81530"
   xml:space="preserve"
   inkscape:version="0.48.5 r10040"
   sodipodi:docname="ribbon.svg"><metadata
     id="metadata192"><rdf:RDF><cc:Work
         rdf:about=""><dc:format>image/svg+xml</dc:format><dc:type
           rdf:resource="http://purl.org/dc/dcmitype/StillImage" /><dc:title></dc:title></cc:Work></rdf:RDF></metadata><sodipodi:namedview
     pagecolor="#ffffff"
     bordercolor="#666666"
     borderopacity="1"
     objecttolerance="10"
     gridtolerance="10"
     guidetolerance="10"
     inkscape:pageopacity="0"
     inkscape:pageshadow="2"
     inkscape:window-width="1920"
     inkscape:window-height="1181"
     id="namedview190"
     showgrid="false"
     inkscape:snap-global="false"
     fit-margin-top="0"
     fit-margin-left="0"
     fit-margin-right="0"
     fit-margin-bottom="0"
     inkscape:zoom="0.92356803"
     inkscape:cx="354.19249"
     inkscape:cy="349.26193"
     inkscape:window-x="-4"
     inkscape:window-y="-4"
     inkscape:window-maximized="1"
     inkscape:current-layer="svg81530" /><defs
     id="defs81901"><linearGradient
       gradientTransform="matrix(1,0,0,-1,-381.9844,-36.9619)"
       gradientUnits="userSpaceOnUse"
       id="path81049_2_"
       y2="-643.43628"
       x2="839.60663"
       y1="-179.2744"
       x1="450.12839"><stop
         id="stop81811"
         offset="0"
         style="stop-color:#420000;stop-opacity:1" /><stop
         id="stop81813"
         offset="0.00063376"
         style="stop-color:#400;stop-opacity:1" /><stop
         id="stop81815"
         offset="0.0192"
         style="stop-color:#820000;stop-opacity:1" /><stop
         id="stop81817"
         offset="0.0281"
         style="stop-color:#9a0000;stop-opacity:1" /><stop
         id="stop81819"
         offset="0.28650001"
         style="stop-color:red;stop-opacity:1" /><stop
         id="stop81821"
         offset="1"
         style="stop-color:red;stop-opacity:1" /><a:midPointStop
         style="stop-color:#420000"
         offset="0" /><a:midPointStop
         style="stop-color:#420000"
         offset="0.5" /><a:midPointStop
         style="stop-color:#440000"
         offset="6.337600e-04" /><a:midPointStop
         style="stop-color:#440000"
         offset="0.5" /><a:midPointStop
         style="stop-color:#820000"
         offset="0.0192" /><a:midPointStop
         style="stop-color:#820000"
         offset="0.5" /><a:midPointStop
         style="stop-color:#9A0000"
         offset="0.0281" /><a:midPointStop
         style="stop-color:#9A0000"
         offset="0.5" /><a:midPointStop
         style="stop-color:#FF0000"
         offset="0.2865" /><a:midPointStop
         style="stop-color:#FF0000"
         offset="0.5" /><a:midPointStop
         style="stop-color:#FF0000"
         offset="1" /></linearGradient><linearGradient
       gradientTransform="matrix(1,0,0,-1,-381.9844,-36.9619)"
       gradientUnits="userSpaceOnUse"
       id="path81074_2_"
       y2="-696.34692"
       x2="374.7337"
       y1="-128.72459"
       x1="702.45068"><stop
         id="stop81825"
         offset="0"
         style="stop-color:#470000;stop-opacity:1" /><stop
         id="stop81827"
         offset="0.0042"
         style="stop-color:#530000;stop-opacity:1" /><stop
         id="stop81829"
         offset="0.0229"
         style="stop-color:#820000;stop-opacity:1" /><stop
         id="stop81831"
         offset="0.0394"
         style="stop-color:#a50000;stop-opacity:1" /><stop
         id="stop81833"
         offset="0.0529"
         style="stop-color:#ba0000;stop-opacity:1" /><stop
         id="stop81835"
         offset="0.0618"
         style="stop-color:#c20000;stop-opacity:1" /><stop
         id="stop81837"
         offset="0.1006"
         style="stop-color:#cb0000;stop-opacity:1" /><stop
         id="stop81839"
         offset="0.20389999"
         style="stop-color:#db0000;stop-opacity:1" /><stop
         id="stop81841"
         offset="0.33219999"
         style="stop-color:#e70000;stop-opacity:1" /><stop
         id="stop81843"
         offset="0.51139998"
         style="stop-color:#e00;stop-opacity:1" /><stop
         id="stop81845"
         offset="1"
         style="stop-color:#f00000;stop-opacity:1" /><a:midPointStop
         style="stop-color:#470000"
         offset="0" /><a:midPointStop
         style="stop-color:#470000"
         offset="0.5" /><a:midPointStop
         style="stop-color:#530000"
         offset="0.0042" /><a:midPointStop
         style="stop-color:#530000"
         offset="0.5" /><a:midPointStop
         style="stop-color:#820000"
         offset="0.0229" /><a:midPointStop
         style="stop-color:#820000"
         offset="0.5" /><a:midPointStop
         style="stop-color:#A50000"
         offset="0.0394" /><a:midPointStop
         style="stop-color:#A50000"
         offset="0.5" /><a:midPointStop
         style="stop-color:#BA0000"
         offset="0.0529" /><a:midPointStop
         style="stop-color:#BA0000"
         offset="0.5" /><a:midPointStop
         style="stop-color:#C20000"
         offset="0.0618" /><a:midPointStop
         style="stop-color:#C20000"
         offset="0.5" /><a:midPointStop
         style="stop-color:#CB0000"
         offset="0.1006" /><a:midPointStop
         style="stop-color:#CB0000"
         offset="0.5" /><a:midPointStop
         style="stop-color:#DB0000"
         offset="0.2039" /><a:midPointStop
         style="stop-color:#DB0000"
         offset="0.5" /><a:midPointStop
         style="stop-color:#E70000"
         offset="0.3322" /><a:midPointStop
         style="stop-color:#E70000"
         offset="0.5" /><a:midPointStop
         style="stop-color:#EE0000"
         offset="0.5114" /><a:midPointStop
         style="stop-color:#EE0000"
         offset="0.5" /><a:midPointStop
         style="stop-color:#F00000"
         offset="1" /></linearGradient><linearGradient
       gradientTransform="matrix(1,0,0,-1,-381.9844,-36.9619)"
       gradientUnits="userSpaceOnUse"
       id="path81099_2_"
       y2="-601.82239"
       x2="370.6174"
       y1="-502.38181"
       x1="610.68799"><stop
         id="stop81849"
         offset="0"
         style="stop-color:#3d0000;stop-opacity:1" /><stop
         id="stop81851"
         offset="0.0023"
         style="stop-color:#4f0000;stop-opacity:1" /><stop
         id="stop81853"
         offset="0.0083"
         style="stop-color:#780000;stop-opacity:1" /><stop
         id="stop81855"
         offset="0.0149"
         style="stop-color:#9d0000;stop-opacity:1" /><stop
         id="stop81857"
         offset="0.0219"
         style="stop-color:#b00;stop-opacity:1" /><stop
         id="stop81859"
         offset="0.0296"
         style="stop-color:#d40000;stop-opacity:1" /><stop
         id="stop81861"
         offset="0.0381"
         style="stop-color:#e70000;stop-opacity:1" /><stop
         id="stop81863"
         offset="0.048"
         style="stop-color:#f50000;stop-opacity:1" /><stop
         id="stop81865"
         offset="0.0605"
         style="stop-color:#fd0000;stop-opacity:1" /><stop
         id="stop81867"
         offset="0.0843"
         style="stop-color:red;stop-opacity:1" /><stop
         id="stop81869"
         offset="1"
         style="stop-color:red;stop-opacity:1" /><a:midPointStop
         style="stop-color:#3D0000"
         offset="0" /><a:midPointStop
         style="stop-color:#3D0000"
         offset="0.5" /><a:midPointStop
         style="stop-color:#4F0000"
         offset="0.0023" /><a:midPointStop
         style="stop-color:#4F0000"
         offset="0.5" /><a:midPointStop
         style="stop-color:#780000"
         offset="0.0083" /><a:midPointStop
         style="stop-color:#780000"
         offset="0.5" /><a:midPointStop
         style="stop-color:#9D0000"
         offset="0.0149" /><a:midPointStop
         style="stop-color:#9D0000"
         offset="0.5" /><a:midPointStop
         style="stop-color:#BB0000"
         offset="0.0219" /><a:midPointStop
         style="stop-color:#BB0000"
         offset="0.5" /><a:midPointStop
         style="stop-color:#D40000"
         offset="0.0296" /><a:midPointStop
         style="stop-color:#D40000"
         offset="0.5" /><a:midPointStop
         style="stop-color:#E70000"
         offset="0.0381" /><a:midPointStop
         style="stop-color:#E70000"
         offset="0.5" /><a:midPointStop
         style="stop-color:#F50000"
         offset="0.048" /><a:midPointStop
         style="stop-color:#F50000"
         offset="0.5" /><a:midPointStop
         style="stop-color:#FD0000"
         offset="0.0605" /><a:midPointStop
         style="stop-color:#FD0000"
         offset="0.5" /><a:midPointStop
         style="stop-color:#FF0000"
         offset="0.0843" /><a:midPointStop
         style="stop-color:#FF0000"
         offset="0.5" /><a:midPointStop
         style="stop-color:#FF0000"
         offset="1" /></linearGradient><linearGradient
       gradientTransform="matrix(1,0,0,-1,-381.9844,-36.9619)"
       gradientUnits="userSpaceOnUse"
       id="path81130_2_"
       y2="-91.608398"
       x2="681.18408"
       y1="-91.608398"
       x1="507.00729"><stop
         id="stop81873"
         offset="0"
         style="stop-color:red;stop-opacity:1" /><stop
         id="stop81875"
         offset="0.0664"
         style="stop-color:#ff0606;stop-opacity:1" /><stop
         id="stop81877"
         offset="0.1552"
         style="stop-color:#ff1717;stop-opacity:1" /><stop
         id="stop81879"
         offset="0.2568"
         style="stop-color:#f33;stop-opacity:1" /><stop
         id="stop81881"
         offset="0.3678"
         style="stop-color:#ff5a5a;stop-opacity:1" /><stop
         id="stop81883"
         offset="0.4851"
         style="stop-color:#ff8b8b;stop-opacity:1" /><stop
         id="stop81885"
         offset="0.55059999"
         style="stop-color:#faa;stop-opacity:1" /><stop
         id="stop81887"
         offset="0.56529999"
         style="stop-color:#ffa2a2;stop-opacity:1" /><stop
         id="stop81889"
         offset="0.67699999"
         style="stop-color:#ff6969;stop-opacity:1" /><stop
         id="stop81891"
         offset="0.78030002"
         style="stop-color:#ff3b3b;stop-opacity:1" /><stop
         id="stop81893"
         offset="0.87180001"
         style="stop-color:#ff1b1b;stop-opacity:1" /><stop
         id="stop81895"
         offset="0.94819999"
         style="stop-color:#ff0707;stop-opacity:1" /><stop
         id="stop81897"
         offset="1"
         style="stop-color:red;stop-opacity:1" /><a:midPointStop
         style="stop-color:#FF0000"
         offset="0" /><a:midPointStop
         style="stop-color:#FF0000"
         offset="0.5" /><a:midPointStop
         style="stop-color:#FF0606"
         offset="0.0664" /><a:midPointStop
         style="stop-color:#FF0606"
         offset="0.5" /><a:midPointStop
         style="stop-color:#FF1717"
         offset="0.1552" /><a:midPointStop
         style="stop-color:#FF1717"
         offset="0.5" /><a:midPointStop
         style="stop-color:#FF3333"
         offset="0.2568" /><a:midPointStop
         style="stop-color:#FF3333"
         offset="0.5" /><a:midPointStop
         style="stop-color:#FF5A5A"
         offset="0.3678" /><a:midPointStop
         style="stop-color:#FF5A5A"
         offset="0.5" /><a:midPointStop
         style="stop-color:#FF8B8B"
         offset="0.4851" /><a:midPointStop
         style="stop-color:#FF8B8B"
         offset="0.5" /><a:midPointStop
         style="stop-color:#FFAAAA"
         offset="0.5506" /><a:midPointStop
         style="stop-color:#FFAAAA"
         offset="0.5" /><a:midPointStop
         style="stop-color:#FFA2A2"
         offset="0.5653" /><a:midPointStop
         style="stop-color:#FFA2A2"
         offset="0.5" /><a:midPointStop
         style="stop-color:#FF6969"
         offset="0.677" /><a:midPointStop
         style="stop-color:#FF6969"
         offset="0.5" /><a:midPointStop
         style="stop-color:#FF3B3B"
         offset="0.7803" /><a:midPointStop
         style="stop-color:#FF3B3B"
         offset="0.5" /><a:midPointStop
         style="stop-color:#FF1B1B"
         offset="0.8718" /><a:midPointStop
         style="stop-color:#FF1B1B"
         offset="0.5" /><a:midPointStop
         style="stop-color:#FF0707"
         offset="0.9482" /><a:midPointStop
         style="stop-color:#FF0707"
         offset="0.5" /><a:midPointStop
         style="stop-color:#FF0000"
         offset="1" /></linearGradient><linearGradient
       inkscape:collect="always"
       xlink:href="#path81130_2_"
       id="linearGradient3983"
       gradientUnits="userSpaceOnUse"
       gradientTransform="matrix(0.930641,0,0,-0.930641,-338.28186,-11.45362)"
       x1="507.00729"
       y1="-91.608398"
       x2="681.18408"
       y2="-91.608398" /><linearGradient
       inkscape:collect="always"
       xlink:href="#path81099_2_"
       id="linearGradient3986"
       gradientUnits="userSpaceOnUse"
       gradientTransform="matrix(0.930641,0,0,-0.930641,-338.28186,-11.45362)"
       x1="610.68799"
       y1="-502.38181"
       x2="370.6174"
       y2="-601.82239" /><linearGradient
       inkscape:collect="always"
       xlink:href="#path81074_2_"
       id="linearGradient3989"
       gradientUnits="userSpaceOnUse"
       gradientTransform="matrix(0.930641,0,0,-0.930641,-338.28186,-11.45362)"
       x1="702.45068"
       y1="-128.72459"
       x2="374.7337"
       y2="-696.34692" /><linearGradient
       inkscape:collect="always"
       xlink:href="#path81049_2_"
       id="linearGradient3992"
       gradientUnits="userSpaceOnUse"
       gradientTransform="matrix(0.930641,0,0,-0.930641,-338.28186,-11.45362)"
       x1="450.12839"
       y1="-179.2744"
       x2="839.60663"
       y2="-643.43628" /><linearGradient
       inkscape:collect="always"
       xlink:href="#path81130_2_"
       id="linearGradient3174"
       gradientUnits="userSpaceOnUse"
       gradientTransform="matrix(0.930641,0,0,-0.930641,-355.49056,-34.399286)"
       x1="507.00729"
       y1="-91.608398"
       x2="681.18408"
       y2="-91.608398" /><linearGradient
       inkscape:collect="always"
       xlink:href="#path81099_2_"
       id="linearGradient3177"
       gradientUnits="userSpaceOnUse"
       gradientTransform="matrix(0.930641,0,0,-0.930641,-355.49056,-34.399286)"
       x1="610.68799"
       y1="-502.38181"
       x2="370.6174"
       y2="-601.82239" /><linearGradient
       inkscape:collect="always"
       xlink:href="#path81074_2_"
       id="linearGradient3180"
       gradientUnits="userSpaceOnUse"
       gradientTransform="matrix(0.930641,0,0,-0.930641,-355.49056,-34.399286)"
       x1="702.45068"
       y1="-128.72459"
       x2="374.7337"
       y2="-696.34692" /><linearGradient
       inkscape:collect="always"
       xlink:href="#path81049_2_"
       id="linearGradient3183"
       gradientUnits="userSpaceOnUse"
       gradientTransform="matrix(0.930641,0,0,-0.930641,-355.49056,-34.399286)"
       x1="450.12839"
       y1="-179.2744"
       x2="839.60663"
       y2="-643.43628" /></defs><path
     id="path81547"
     style="fill:#8d8d8d;fill-opacity:1"
     d="m 382.78173,518.20594 c 0,0 -0.002,-0.005 -0.005,-0.007 0.005,0.007 0.008,0.014 0.013,0.0205 -0.003,-0.004 -0.005,-0.009 -0.008,-0.013 z"
     inkscape:connector-curvature="0" /><path
     id="path81555"
     style="fill:#8d8d8d;fill-opacity:0.01176471"
     d="m 383.04138,518.6694 c 1.865,3.56715 1.85011,9.77545 0.26802,13.32864 L 326.98143,658.5587 c -1.65375,3.71791 -4.7351,3.61275 -6.92211,-0.37877 -1.2117,-2.24377 -116.43343,-234.08971 -120.27977,-242.5632 -1.91246,-3.86495 -4.88586,-4.04364 -6.68479,-0.56862 -3.70023,8.55073 -114.802013,250.42991 -116.016499,252.95474 -2.000879,4.12832 -5.474031,4.64017 -7.791327,1.29638 l -66.1043608,-95.43444 -9.306e-4,-9.3e-4 -0.6607551,-0.95298 c -1.5076385,-2.17584 -2.53878868,-5.89654 -2.23819164,-8.79921 0.1610009,-1.55789 0.65237935,-3.1558 1.47599664,-4.5983 -0.1805444,0.31642 -0.2745391,0.48114 -0.2745391,0.48114 -2.18886764,3.8268 -1.92549623,9.9225 0.5844425,13.54641 l 0.6616858,0.95577 9.306e-4,9.3e-4 66.2058007,95.57869 c 2.509939,3.62485 6.139439,3.34473 8.064004,-0.62166 L 192.8379,416.89264 c 1.84081,-4.00641 4.95194,-4.05387 6.91467,-0.10609 l 120.36445,242.78934 c 2.12093,3.86495 5.32327,3.73187 7.11568,-0.29594 l 56.48898,-126.92268 c 1.72168,-3.86961 1.39503,-9.89085 -0.6803,-13.68787 z"
     inkscape:connector-curvature="0" /><path
     id="path81559"
     style="fill:#8d8d8d;fill-opacity:0.05882353"
     d="m 2.5208875,572.90995 0.6607551,0.95298 9.306e-4,9.3e-4 66.1052918,95.43444 c 2.317296,3.34472 5.790448,2.83194 7.791326,-1.29638 1.214487,-2.52483 112.316269,-244.40401 116.016499,-252.95474 1.79893,-3.47409 4.77233,-3.29633 6.68479,0.56862 3.84634,8.47256 119.06808,240.31849 120.27977,242.5632 2.18701,3.99152 5.26743,4.09668 6.92211,0.37877 l 56.32797,-126.56066 c 1.58209,-3.55319 1.59698,-9.76149 -0.26802,-13.32864 -0.081,-0.15449 -0.16379,-0.30525 -0.2522,-0.4495 -0.005,-0.007 -0.008,-0.0149 -0.013,-0.0205 -9.3e-4,-0.003 -0.003,-0.005 -0.004,-0.007 0,0 -0.003,-0.004 -0.007,-0.0112 1.95342,3.17721 1.64817,10.05372 0.13215,13.45986 l -56.16698,126.19865 c -1.51694,3.408 -4.47638,3.0646 -6.72946,-1.05256 -2.42246,-4.48848 -112.50147,-225.39101 -120.19415,-242.33705 -1.86221,-3.78213 -4.69601,-4.18789 -6.45399,-1.24334 -7.40139,17.10053 -113.766211,248.29874 -116.195184,253.34654 -2.078122,4.29118 -5.394926,5.0357 -7.51958,1.97016 l -66.0038513,-95.2874 -9.306e-4,-0.002 -0.6588938,-0.95204 c -1.3820019,-1.99437 -2.76307315,-6.03335 -2.48760342,-8.69498 0.14797192,-1.42854 0.66820022,-3.01528 1.55323982,-4.56573 -0.1703073,0.29874 -0.264302,0.46346 -0.277331,0.48487 -9.306e-4,0.002 -0.00186,0.006 -0.00372,0.007 -0.82361725,1.44343 -1.3149957,3.04134 -1.4759966,4.5983 -0.30059704,2.90267 0.7305532,6.62337 2.237261,8.79921 z"
     inkscape:connector-curvature="0" /><path
     id="path81575"
     style="fill:#8d8d8d;fill-opacity:1"
     d="m 3.2840131,556.8415 c -0.00372,0.006 -0.00651,0.0102 -0.00931,0.0168 0.00279,-0.007 0.00558,-0.0112 0.00931,-0.0168 l 0,0 z"
     inkscape:connector-curvature="0" /><path
     id="path81611"
     style="fill:#8d8d8d;fill-opacity:1"
     d="m 3.8377445,555.87084 c -0.061422,0.10796 -0.1181914,0.20847 -0.1758912,0.30805 0.055838,-0.0977 0.1153995,-0.20195 0.1758912,-0.30805 l 0,0 z"
     inkscape:connector-curvature="0" /><path
     id="path81631"
     style="fill:#8d8d8d;fill-opacity:1"
     d="m 2.8605714,557.58322 c 0.065145,-0.11354 0.1554171,-0.27268 0.2680246,-0.46997 0.00931,-0.0168 0.017682,-0.0307 0.026989,-0.0475 0.020474,-0.0363 0.044671,-0.08 0.073521,-0.12936 -0.1535558,0.26895 -0.2643021,0.46346 -0.3303776,0.57886 -0.00651,0.0121 -0.015821,0.0279 -0.021405,0.0372 -0.00651,0.0112 -0.010237,0.0205 -0.016752,0.0307 z"
     inkscape:connector-curvature="0" /><path
     id="path81635"
     style="fill:#8d8d8d;fill-opacity:1"
     d="m 4.1150755,555.38412 c 0,0 -9.306e-4,0 0,0 -0.098648,0.1731 -0.1898508,0.33224 -0.277331,0.48579 -0.060492,0.1061 -0.1200527,0.21126 -0.1758912,0.30804 -0.1349429,0.23732 -0.254065,0.44578 -0.3573661,0.62633 0.1749605,-0.30525 0.4467077,-0.78174 0.8105883,-1.42016 z"
     inkscape:connector-curvature="0" /><polygon
     id="polygon81647"
     style="fill:#8d8d8d;fill-opacity:1"
     points="411.248,556.727 411.248,556.727 411.252,556.733 411.252,556.733 "
     transform="matrix(0.930641,0,0,0.930641,-2.19e-4,-0.001026)" /><path
     id="path81667"
     style="fill:#8d8d8d;fill-opacity:1"
     d="m 3.1555846,557.06579 c -0.00931,0.0168 -0.017682,0.0307 -0.026989,0.0475 0.071659,-0.12564 0.1516945,-0.26523 0.2428973,-0.42344 0.021405,-0.0382 0.040948,-0.0744 0.062353,-0.11168 0.1665847,-0.29129 0.4904478,-0.85991 0.9576296,-1.67795 0,0 0,0 0,0 -0.097717,0.17217 -0.1889201,0.33131 -0.2764004,0.48487 -0.3638806,0.63842 -0.6356278,1.11398 -0.8105883,1.42016 -0.00745,0.013 -0.01396,0.0242 -0.020474,0.0363 -0.00279,0.006 -0.00651,0.0112 -0.00931,0.0168 -0.01489,0.0261 -0.031642,0.0558 -0.045601,0.0791 -0.02885,0.0484 -0.053047,0.0921 -0.073521,0.12843 z"
     inkscape:connector-curvature="0" /><path
     id="path81683"
     style="fill:#8d8d8d;fill-opacity:1"
     d="m 382.66912,518.02167 c 0.0233,0.0382 0.0372,0.0605 0.0428,0.0698 -9.3e-4,-0.002 -0.003,-0.004 -0.003,-0.006 -0.0158,-0.0242 -0.0428,-0.0689 -0.0819,-0.13401 0.0186,0.0307 0.0307,0.0521 0.0419,0.0698 z"
     inkscape:connector-curvature="0" /><path
     id="path81691"
     style="fill:#8d8d8d;fill-opacity:1"
     d="m 3.4338463,556.57813 c -0.021405,0.0372 -0.040948,0.0735 -0.062353,0.11168 0.080035,-0.14053 0.1675154,-0.29315 0.2624408,-0.45974 0.026058,-0.0465 0.052116,-0.0931 0.079105,-0.1396 0.1889201,-0.33037 0.5118525,-0.89713 0.9566989,-1.67608 0,0 -9.306e-4,0 -9.306e-4,9.3e-4 -0.097717,0.17217 -0.1889201,0.33131 -0.2764004,0.48486 -0.4671818,0.81804 -0.7919755,1.38573 -0.9585602,1.67795 z"
     inkscape:connector-curvature="0" /><path
     id="path81711"
     style="fill:#8d8d8d;fill-opacity:1"
     d="m 3.7130386,556.08954 c -0.026989,0.0475 -0.053046,0.094 -0.079105,0.1396 0.081896,-0.14332 0.1703073,-0.29781 0.2624408,-0.45974 0.031642,-0.0568 0.062353,-0.11074 0.094925,-0.16751 0.207533,-0.36388 0.521159,-0.91389 0.933433,-1.63607 -0.089342,0.15635 -0.1740299,0.30339 -0.2549957,0.44671 -0.4448464,0.77988 -0.7677788,1.34664 -0.9566989,1.67701 z"
     inkscape:connector-curvature="0" /><path
     id="path81723"
     style="fill:#8d8d8d;fill-opacity:1"
     d="m 109.96991,142.48756 c 0,-0.0828 0,-0.16659 0,-0.24942 0,0.0828 9.3e-4,0.16659 0,0.24942 z"
     inkscape:connector-curvature="0" /><path
     id="path81735"
     style="fill:#8d8d8d;fill-opacity:1"
     d="m 3.9913002,555.60282 c -0.032572,0.0568 -0.063283,0.11074 -0.094925,0.16751 0.077243,-0.13494 0.1563477,-0.27454 0.241036,-0.42158 0.04374,-0.0782 0.08748,-0.15448 0.1330816,-0.23452 0.2317297,-0.40576 0.5528008,-0.96786 0.9539071,-1.67236 0,0.002 -9.307e-4,0.002 -0.00186,0.003 -0.1051624,0.18427 -0.2028797,0.35644 -0.2968745,0.52302 -0.4132046,0.72032 -0.7268306,1.27126 -0.9343636,1.63514 z"
     inkscape:connector-curvature="0" /><path
     id="path81755"
     style="fill:#8d8d8d;fill-opacity:1"
     d="m 4.2695619,555.1133 c -0.045601,0.08 -0.088411,0.15635 -0.1330817,0.23452 0.080966,-0.14239 0.1647235,-0.28943 0.2531344,-0.44391 0.052116,-0.0931 0.1042318,-0.18334 0.158209,-0.27826 0.2522037,-0.44392 0.5723442,-1.00324 0.9529764,-1.67144 -9.307e-4,9.4e-4 -0.00186,0.003 -0.00186,0.005 -0.096787,0.16844 -0.1870589,0.32758 -0.2754698,0.48207 -0.4011062,0.70449 -0.7221774,1.26753 -0.953907,1.67236 z"
     inkscape:connector-curvature="0" /><path
     id="path81779"
     style="fill:#8d8d8d;fill-opacity:1"
     d="m 4.5487542,554.62658 c -0.053977,0.0949 -0.1060931,0.18519 -0.158209,0.27826 0.08655,-0.1517 0.1758912,-0.30804 0.2689553,-0.47091 0.055838,-0.0977 0.1107463,-0.1945 0.168446,-0.29501 0.2717472,-0.47742 0.590957,-1.03487 0.9501845,-1.66678 0,9.3e-4 -9.307e-4,9.3e-4 -0.00186,0.003 -0.094925,0.16752 -0.1861282,0.32573 -0.2745391,0.48115 -0.3815628,0.66727 -0.7007727,1.22658 -0.9529764,1.6705 z"
     inkscape:connector-curvature="0" /><path
     id="path81795"
     style="fill:#8d8d8d;fill-opacity:1"
     d="m 4.8270159,554.13799 c -0.0577,0.10051 -0.1126076,0.1973 -0.1684461,0.29501 0.4076208,-0.7138 0.8775945,-1.53835 1.4061986,-2.4662 -0.00372,0.007 -0.00838,0.0149 -0.012098,0.0214 -0.095856,0.16658 -0.1861282,0.32572 -0.2754698,0.483 -0.3592274,0.63191 -0.6784373,1.19029 -0.9501844,1.66678 z"
     inkscape:connector-curvature="0" /><path
     inkscape:connector-curvature="0"
     id="path81049_1_"
     style="fill:url(#linearGradient3183)"
     d="M 190.62298,170.51939 C 163.12533,110.59262 166.71388,55.415854 167.2248,49.194519 l 0,-2.436216 c -23.64387,12.67533 -42.82438,35.785731 -50.87442,44.805511 -7.42093,21.790956 -8.88204,59.949096 -1.6612,86.852996 47.36684,176.48117 209.28348,471.50182 209.28348,471.50182 l 58.69925,-131.89045 c 9.3e-4,0.002 -128.38378,-208.76325 -192.04893,-347.50879 z"
     sodipodi:nodetypes="scccsccs" /><path
     inkscape:connector-curvature="0"
     id="path81074_1_"
     style="fill:url(#linearGradient3180)"
     d="m 266.98207,212.03156 c 12.23979,-39.12694 15.22436,-77.18829 11.45991,-110.33121 -3.40987,-10.877326 -9.8955,-27.308726 -22.43682,-40.686691 l 0,0 c -0.96508,3.943126 -13.94845,55.661631 -45.61723,117.793091 -2.68211,5.26277 -5.44146,10.63816 -8.26502,16.10753 12.61018,26.11286 26.94205,53.9595 41.88722,81.94108 9.20311,-23.96121 17.0754,-45.97273 22.97194,-64.8238 z" /><path
     inkscape:connector-curvature="0"
     id="path81099_1_"
     style="fill:url(#linearGradient3177)"
     d="m 2.730282,557.81216 70.770595,102.16949 c 0,0 65.667893,-135.31893 122.683613,-267.05581 C 180.67442,358.4763 165.61014,323.25061 152.23869,289.11283 81.800333,419.57474 2.730282,557.81216 2.730282,557.81216 z" /><path
     inkscape:connector-curvature="0"
     id="path81130_1_"
     style="fill:url(#linearGradient3174)"
     d="m 256.00516,61.013659 c 12.54597,13.382618 19.03068,29.818665 22.44055,40.696001 -1.90503,-16.784106 -5.53639,-32.308133 -10.5786,-46.06673 -30.38357,-82.911737 -91.48666,-60.54285 -125.54626,-14.420282 -3.70675,5.019877 -30.44932,43.001646 -31.6639,79.770942 11.02639,-46.066289 55.01452,-85.27269 98.85711,-82.152453 21.00829,1.767288 35.90692,10.882916 46.4911,22.172522 z"
     sodipodi:nodetypes="ccccccc" /></svg>