<?xml version="1.0" encoding="UTF-8" standalone="no"?>
<!-- Created with Inkscape (http://www.inkscape.org/) -->

<svg
   xmlns:dc="http://purl.org/dc/elements/1.1/"
   xmlns:cc="http://creativecommons.org/ns#"
   xmlns:rdf="http://www.w3.org/1999/02/22-rdf-syntax-ns#"
   xmlns:svg="http://www.w3.org/2000/svg"
   xmlns="http://www.w3.org/2000/svg"
   xmlns:sodipodi="http://sodipodi.sourceforge.net/DTD/sodipodi-0.dtd"
   xmlns:inkscape="http://www.inkscape.org/namespaces/inkscape"
   width="1024"
   height="1024"
   id="svg4125"
   version="1.1"
   inkscape:version="0.48.5 r10040"
   sodipodi:docname="three-coins.svg">
  <defs
     id="defs4127" />
  <sodipodi:namedview
     id="base"
     pagecolor="#ffffff"
     bordercolor="#666666"
     borderopacity="1.0"
     inkscape:pageopacity="0.0"
     inkscape:pageshadow="2"
     inkscape:zoom="0.35"
     inkscape:cx="1129.3919"
     inkscape:cy="148.45734"
     inkscape:document-units="px"
     inkscape:current-layer="layer1"
     showgrid="false"
     fit-margin-top="0"
     fit-margin-left="0"
     fit-margin-right="0"
     fit-margin-bottom="0"
     inkscape:window-width="1920"
     inkscape:window-height="1181"
     inkscape:window-x="-4"
     inkscape:window-y="-4"
     inkscape:window-maximized="1" />
  <metadata
     id="metadata4130">
    <rdf:RDF>
      <cc:Work
         rdf:about="">
        <dc:format>image/svg+xml</dc:format>
        <dc:type
           rdf:resource="http://purl.org/dc/dcmitype/StillImage" />
        <dc:title />
      </cc:Work>
    </rdf:RDF>
  </metadata>
  <g
     inkscape:label="Ebene 1"
     inkscape:groupmode="layer"
     id="layer1"
     transform="translate(-557.71429,646.08061)">
    <path
       style="color:#000000;fill:#000000;fill-opacity:1;stroke:none;stroke-width:3.68457818;marker:none;visibility:visible;display:inline;overflow:visible;enable-background:accumulate"
       d="m 1071.1104,-341.11992 c -95.76526,0 -173.33031,33.98 -173.33031,76.04057 0.0706,-23.6382 -0.11994,40.64594 -0.12293,65.22278 0,12.64507 6.51055,24.08507 16.15642,33.27872 4.1419,3.94772 8.91173,7.60363 14.22468,10.9934 -0.0103,3.43445 -0.0314,10.62967 -0.0702,28.27374 -38.68289,13.92103 -63.37884,35.024707 -63.37884,58.742648 0.0706,-23.639052 -0.13792,40.645939 -0.14049,65.2227835 0,12.6446445 6.52811,24.0850675 16.17399,33.2787255 9.64587,9.193657 22.609,16.819394 38.21345,23.110711 31.2089,12.581781 73.08736,19.91455 119.20628,19.91455 46.1192,0 87.8569,-7.333219 119.0658,-19.91455 15.6046,-6.290463 28.5676,-13.917054 38.2135,-23.110711 9.6459,-9.193658 16.174,-20.6345081 16.174,-33.2787255 0,-17.0565595 -0.046,-25.5496855 -0.088,-33.1909155 3.1482,-1.098244 6.221,-2.229727 9.1845,-3.42446 15.6045,-6.29089 28.5676,-13.934621 38.2135,-23.128273 9.6458,-9.193652 16.174,-20.616519 16.174,-33.261161 0,-36.267012 -0.1405,-30.895702 -0.1405,-65.082292 2e-4,-0.047 0,-0.0977 0,-0.14049 0,-15.8967 -11.1449,-30.62736 -30.1352,-42.81452 -0.013,-30.19601 -0.1405,-28.23833 -0.1405,-60.55147 10e-5,-0.047 0,-0.0977 0,-0.14049 0,-42.05971 -77.688,-76.02301 -173.4533,-76.02301 l 0,-0.0175 z m 0,21.3897 c 83.9544,0 152.0811,24.42286 152.0811,54.65087 0,0.047 3e-4,0.0977 0,0.14049 -0.2018,30.16599 -68.2514,54.65086 -152.0811,54.65086 -83.82976,0 -151.73915,-24.48487 -151.94061,-54.65086 -3.1e-4,-0.047 0,-0.0977 0,-0.14049 0,-30.22758 67.98619,-54.65087 151.94061,-54.65087 z m 152.2041,91.26624 c 0.03,6.74289 0,12.68968 0,28.60741 0,5.25089 -2.4607,10.78326 -8.6753,16.96425 l 0,-39.42519 c 3.0999,-2.00346 6.013,-4.01302 8.6753,-6.14647 z m -304.2852,0.14049 c 2.77542,2.21898 5.8487,4.33245 9.09677,6.40989 l 0,39.42519 c -6.51801,-6.34478 -9.09677,-12.00353 -9.09677,-17.36816 0,-15.84333 -0.0299,-22.25686 0,-28.46692 z m 282.7725,13.36417 0,41.95402 c -4.0518,2.49096 -8.8121,4.80054 -13.891,7.09478 l 0,-42.76184 c 4.9107,-1.96369 9.5203,-4.09021 13.891,-6.28696 z m -260.85596,0.12293 c 4.12326,2.06119 8.49931,4.02884 13.10075,5.88305 l 0,42.90233 c -4.75312,-2.16339 -9.25536,-4.35258 -13.10075,-6.69087 l 0,-42.09451 z m 25.92052,10.57193 c 4.13678,1.37355 8.42311,2.65458 12.83734,3.86349 l 0,43.71015 c -4.50429,-1.29145 -8.7479,-2.68411 -12.83734,-4.14447 l 0,-43.42917 z m 208.20714,0.12292 0,43.42918 c -4.1308,1.46549 -8.4138,2.85088 -12.9603,4.14447 l 0,-43.69259 c 4.4628,-1.21148 8.7782,-2.50194 12.9603,-3.88106 z m -182.55003,6.8138 c 3.99972,0.89717 7.99803,1.78478 12.17003,2.54639 l 0,43.83309 c -4.1557,-0.77872 -8.23749,-1.63597 -12.17003,-2.5464 l 0,-43.83308 z m 156.76993,0.14049 0,43.83308 c -4.5089,1.03658 -9.1111,1.94899 -13.9085,2.80982 l 0,-43.83309 c 4.7358,-0.83174 9.3892,-1.80445 13.9085,-2.80981 z m -131.7802,4.54839 c 5.5177,0.78727 11.2365,1.45804 16.9818,2.00199 l 0,43.83308 c -5.7939,-0.55849 -11.4685,-1.1989 -16.9818,-2.00199 l 0,-43.83308 z m 105.0519,0.26342 0,43.83308 c -4.7128,0.6547 -9.521,1.26176 -14.4354,1.73857 l 0,-43.97357 c 4.8942,-0.46698 9.7047,-0.95321 14.4354,-1.59808 z m -75.2503,2.66932 c 5.799,0.35066 11.6814,0.57539 17.6491,0.66733 l 0,43.97357 c -5.9794,-0.0983 -11.8608,-0.32867 -17.6491,-0.68489 l 0,-43.95601 z m 47.9776,0 0,43.95601 c -5.7387,0.35494 -11.5773,0.58526 -17.5087,0.68489 l 0,-43.97357 c 5.9064,-0.0984 11.7676,-0.31539 17.5087,-0.66733 z m 145.5658,6.48013 c 8.0615,6.63146 12.609,13.9362 12.609,21.65312 0,0.047 3e-4,0.0977 0,0.14049 -0.2018,30.16599 -68.2514,54.65086 -152.0811,54.65086 -62.5191,0 -116.17964,-13.59255 -139.50716,-33.0153 29.92577,10.32517 67.93816,16.24423 109.37196,16.24423 46.1192,0 87.8568,-7.33319 119.0658,-19.91455 15.6045,-6.29131 28.5676,-13.91706 38.2135,-23.11071 5.1927,-4.9493 9.4755,-10.56014 12.328,-16.64814 z m 12.732,58.2685 c 0.03,6.74332 0,12.68924 0,28.607402 0,5.250889 -2.4607,10.783259 -8.6753,16.964246 l 0,-39.425188 c 3.0999,-2.00345 6.013,-4.01301 8.6753,-6.14646 z m -304.28516,0.14049 c 2.77541,2.21898 5.84869,4.33245 9.09677,6.40988 l 0,39.425188 c -6.518,-6.344344 -9.09677,-12.003515 -9.09677,-17.368156 0,-15.843332 -0.03,-22.256842 0,-28.466912 z m 282.77246,13.36417 0,41.954017 c -4.0517,2.490956 -8.8121,4.782976 -13.8909,7.077217 l 0,-42.761844 c 4.9106,-1.96368 9.5203,-4.07265 13.8909,-6.26939 z m -260.85593,0.12293 c 4.12327,2.06075 8.49931,4.0284 13.10076,5.88304 l 0,42.902334 c -4.75313,-2.163387 -9.25536,-4.352574 -13.10076,-6.690867 l 0,-42.094507 z m -43.28868,5.11034 c -0.004,3.24569 2.7e-4,7.330469 0,9.869472 0,12.645069 6.51055,24.067509 16.15643,33.261161 9.64587,9.193652 22.62657,16.837383 38.23101,23.128273 31.20887,12.581348 73.06977,19.91455 119.18877,19.91455 2.4512,0 4.8975,-0.02914 7.323,-0.07025 -21.1694,4.049003 -45.2928,6.340171 -70.9302,6.339642 -83.82973,0 -151.73913,-24.484869 -151.94058,-54.650864 -3e-4,-0.04704 0,-0.09772 0,-0.14049 0,-14.643183 15.97428,-27.860948 41.97158,-37.651498 z m 69.20921,5.44402 c 4.1368,1.373551 8.4231,2.672134 12.8373,3.881051 l 0,43.692592 c -4.5043,-1.291447 -8.7479,-2.684541 -12.8373,-4.144475 l 0,-43.429168 z m 208.2071,0.14049 0,43.429169 c -4.1308,1.465492 -8.4138,2.85046 -12.9603,4.144474 l 0,-43.692592 c 4.4628,-1.211479 8.7782,-2.502368 12.9603,-3.881051 z m -182.55,6.813794 c 3.9997,0.897173 7.9979,1.784782 12.17,2.546393 l 0,43.833082 c -4.1556,-0.77829 -8.2375,-1.635969 -12.17,-2.546393 l 0,-43.833082 z m 156.7524,0.14049 0,43.815521 c -4.5089,1.036574 -9.0936,1.948993 -13.891,2.809813 l 0,-43.833082 c 4.7358,-0.831744 9.3717,-1.786889 13.891,-2.792252 z m -131.7627,4.530824 c 5.5177,0.78727 11.2365,1.458045 16.9819,2.001992 l 0,43.833082 c -5.794,-0.558484 -11.4686,-1.198475 -16.9819,-2.001992 l 0,-43.833082 z m 105.0519,0.280981 0,43.833082 c -4.7127,0.654277 -9.5209,1.244203 -14.4354,1.721011 l 0,-43.956012 c 4.8941,-0.467401 9.7048,-0.953639 14.4354,-1.598081 z m -75.2503,2.669322 c 5.799,0.350659 11.6814,0.575388 17.6491,0.667331 l 0,43.956012 c -5.9794,-0.09835 -11.8608,-0.311541 -17.6491,-0.667331 l 0,-43.956012 z m 47.9776,0 0,43.956012 c -5.7388,0.35493 -11.5773,0.567689 -17.5087,0.667331 l 0,-43.956012 c 5.9064,-0.09835 11.7676,-0.315817 17.5087,-0.667331 z m -239.72971,54.387443 c 2.77541,2.218977 5.83113,4.33245 9.07921,6.409886 l 0,39.425185 c -6.51801,-6.3439169 -9.07921,-12.003948 -9.07921,-17.3681535 0,-15.8437545 -0.03,-22.2568545 0,-28.4669175 z m 304.28511,1.615642 c 0.019,6.143892 0,12.219304 0,26.8512755 0,5.2504587 -2.4782,10.7832558 -8.6928,16.9642435 l 0,-39.407625 c 1.8131,-1.172051 3.5576,-2.365188 5.2332,-3.56495 1.1616,-0.276255 2.3147,-0.555343 3.4596,-0.842944 z m -21.5301,11.748531 0,41.954017 c -4.0519,2.490955 -8.8122,4.800964 -13.8911,7.094778 l 0,-42.761837 c 4.9107,-1.963688 9.5204,-4.090213 13.8911,-6.286958 z m -260.83847,0.14049 c 4.12326,2.060329 8.48174,4.010851 13.08319,5.865487 l 0,42.902327 c -4.75312,-2.163387 -9.2378,-4.335013 -13.08319,-6.673306 l 0,-42.094508 z m 25.92052,10.5543621 c 4.13678,1.3735546 8.40555,2.654582 12.81977,3.8634911 l 0,43.7101498 c -4.50428,-1.291446 -8.73033,-2.684967 -12.81977,-4.144474 l 0,-43.4291669 z m 208.20705,0.1229293 0,43.4291676 c -4.1307,1.465491 -8.4313,2.850886 -12.9778,4.144474 l 0,-43.6925891 c 4.4628,-1.2114773 8.7958,-2.5019401 12.9778,-3.8810525 z m -182.54994,6.81379757 c 3.99973,0.89717328 7.98042,1.78520905 12.15244,2.54639303 l 0,43.833082 c -4.15564,-0.777863 -8.2199,-1.635968 -12.15244,-2.546393 l 0,-43.83308203 z m 156.75244,0.14049064 0,43.83308239 c -4.5089,1.036141 -9.1111,1.948993 -13.9086,2.809813 l 0,-43.8330824 c 4.7358,-0.831744 9.3893,-1.80487776 13.9086,-2.80981299 z M 984.32233,3.8724314 c 5.51764,0.7876973 11.21893,1.4580456 16.96427,2.0019917 l 0,43.8330829 c -5.79396,-0.558485 -11.45103,-1.216464 -16.96427,-2.019554 l 0,-43.8155206 z m 105.03427,0.2634199 0,43.8330827 c -4.7128,0.653849 -9.5209,1.261763 -14.4354,1.738572 l 0,-43.9735735 c 4.8941,-0.4678283 9.7048,-0.9540664 14.4354,-1.5980812 z m -75.2327,2.6693224 c 5.799,0.350659 11.6639,0.5753878 17.6316,0.6673305 l 0,43.9735728 c -5.9795,-0.09835 -11.8433,-0.311546 -17.6316,-0.66733 l 0,-43.9735733 z m 47.9775,0 0,43.9735733 c -5.7387,0.354935 -11.5772,0.568121 -17.5086,0.66733 l 0,-43.9735728 c 5.9064,-0.098355 11.7676,-0.3158173 17.5086,-0.6673305 z"
       id="path4049"
       inkscape:connector-curvature="0" />
  </g>
</svg>
