<?xml version="1.0" encoding="UTF-8" standalone="no"?>
<!-- Created with Inkscape (http://www.inkscape.org/) -->

<svg
   xmlns:dc="http://purl.org/dc/elements/1.1/"
   xmlns:cc="http://creativecommons.org/ns#"
   xmlns:rdf="http://www.w3.org/1999/02/22-rdf-syntax-ns#"
   xmlns:svg="http://www.w3.org/2000/svg"
   xmlns="http://www.w3.org/2000/svg"
   xmlns:sodipodi="http://sodipodi.sourceforge.net/DTD/sodipodi-0.dtd"
   xmlns:inkscape="http://www.inkscape.org/namespaces/inkscape"
   width="1024"
   height="1024"
   id="svg4125"
   version="1.1"
   inkscape:version="0.48.5 r10040"
   sodipodi:docname="three-coins.svg">
  <defs
     id="defs4127" />
  <sodipodi:namedview
     id="base"
     pagecolor="#ffffff"
     bordercolor="#666666"
     borderopacity="1.0"
     inkscape:pageopacity="0.0"
     inkscape:pageshadow="2"
     inkscape:zoom="0.35"
     inkscape:cx="1129.3919"
     inkscape:cy="148.45734"
     inkscape:document-units="px"
     inkscape:current-layer="layer1"
     showgrid="false"
     fit-margin-top="0"
     fit-margin-left="0"
     fit-margin-right="0"
     fit-margin-bottom="0"
     inkscape:window-width="1920"
     inkscape:window-height="1181"
     inkscape:window-x="-4"
     inkscape:window-y="-4"
     inkscape:window-maximized="1" />
  <metadata
     id="metadata4130">
    <rdf:RDF>
      <cc:Work
         rdf:about="">
        <dc:format>image/svg+xml</dc:format>
        <dc:type
           rdf:resource="http://purl.org/dc/dcmitype/StillImage" />
        <dc:title />
      </cc:Work>
    </rdf:RDF>
  </metadata>
  <g
     inkscape:label="Ebene 1"
     inkscape:groupmode="layer"
     id="layer1"
     transform="translate(-557.71429,646.08061)">
    <path
       style="color:#000000;fill:#000000;fill-opacity:1;stroke:none;stroke-width:3.68457818;marker:none;visibility:visible;display:inline;overflow:visible;enable-background:accumulate"
       d="m 1072.1986,-502.50248 c -170.41212,0 -308.43742,60.46665 -308.43742,135.3125 0.12556,-42.06365 -0.21342,72.32855 -0.21875,116.0625 0,22.50162 11.58539,42.85885 28.75,59.21875 7.37042,7.02488 15.85822,13.53048 25.3125,19.5625 -0.0183,6.11154 -0.0559,18.91527 -0.125,50.3125 -68.83536,24.772165 -112.78125,62.325695 -112.78125,104.531245 0.12556,-42.06517 -0.24543,72.32855 -0.25,116.0625 0,22.500865 11.61663,42.858845 28.78125,59.218755 17.16462,16.35991 40.23223,29.92974 68,41.125 55.53555,22.389 130.05733,35.4375 212.12497,35.4375 82.068,0 156.3393,-13.0493 211.875,-35.4375 27.7679,-11.19374 50.8354,-24.76509 68,-41.125 17.1646,-16.35991 28.7812,-36.71865 28.7812,-59.218755 0,-30.35177 -0.081,-45.4651 -0.1562,-59.0625 5.6021,-1.9543 11.0702,-3.96775 16.3437,-6.09375 27.7678,-11.1945 50.8353,-24.79635 68,-41.1562501 17.1646,-16.3598999 28.7813,-36.6866399 28.7813,-59.1874999 0,-64.536345 -0.25,-54.978225 -0.25,-115.812495 3e-4,-0.0837 0,-0.1739 0,-0.25 0,-28.28782 -19.8321,-54.50071 -53.625,-76.1875 -0.023,-53.73312 -0.25,-50.24947 -0.25,-107.75 3e-4,-0.0837 0,-0.1739 0,-0.25 0,-74.84432 -138.244,-135.28125 -308.6563,-135.28125 l 0,-0.0312 z m 0,38.0625 c 149.395,0 270.625,43.45994 270.625,97.25 0,0.0837 6e-4,0.1739 0,0.25 -0.3591,53.67971 -121.4518,97.25 -270.625,97.25 -149.17317,0 -270.01642,-43.57029 -270.37492,-97.25 -5.4e-4,-0.0837 0,-0.17391 0,-0.25 0,-53.7893 120.97993,-97.25 270.37492,-97.25 z m 270.8438,162.40625 c 0.053,11.99883 0,22.581 0,50.90625 0,9.34384 -4.3787,19.18857 -15.4375,30.1875 l 0,-70.15625 c 5.5162,-3.5651 10.7001,-7.14107 15.4375,-10.9375 z m -541.46871,0.25 c 4.93879,3.94862 10.40762,7.7095 16.1875,11.40625 l 0,70.15625 c -11.59865,-11.29038 -16.1875,-21.36 -16.1875,-30.90625 0,-28.19285 -0.0533,-39.60558 0,-50.65625 z m 503.18741,23.78125 0,74.65625 c -7.2101,4.4326 -15.681,8.54244 -24.7187,12.625 l 0,-76.09375 c 8.7385,-3.49434 16.9412,-7.27844 24.7187,-11.1875 z m -464.18742,0.21875 c 7.33726,3.66783 15.12433,7.16923 23.3125,10.46875 l 0,76.34375 c -8.45808,-3.8497 -16.46971,-7.74532 -23.3125,-11.90625 l 0,-74.90625 z m 46.125,18.8125 c 7.3613,2.44421 14.98873,4.72377 22.84375,6.875 l 0,77.78125 c -8.01528,-2.2981 -15.56668,-4.77632 -22.84375,-7.375 l 0,-77.28125 z m 370.49992,0.21875 0,77.28125 c -7.3506,2.60781 -14.9721,5.07309 -23.0625,7.375 l 0,-77.75 c 7.9414,-2.1558 15.6207,-4.45215 23.0625,-6.90625 z m -324.84367,12.125 c 7.11742,1.5965 14.23224,3.17598 21.65625,4.53125 l 0,78 c -7.39487,-1.38571 -14.65838,-2.91116 -21.65625,-4.53125 l 0,-78 z m 278.96867,0.25 0,78 c -8.0235,1.84457 -16.213,3.46818 -24.75,5 l 0,-78 c 8.4273,-1.48007 16.708,-3.21098 24.75,-5 z m -234.49992,8.09375 c 9.81853,1.40093 19.99501,2.59456 30.21872,3.5625 l 0,78 c -10.31021,-0.99382 -20.40803,-2.13342 -30.21872,-3.5625 l 0,-78 z m 186.93742,0.46875 0,78 c -8.3863,1.16503 -16.9423,2.24528 -25.6875,3.09375 l 0,-78.25 c 8.7091,-0.83097 17.2694,-1.69622 25.6875,-2.84375 z m -133.9062,4.75 c 10.3192,0.62399 20.7868,1.02389 31.4062,1.1875 l 0,78.25 c -10.6403,-0.17502 -21.1061,-0.58487 -31.4062,-1.21875 l 0,-78.21875 z m 85.375,0 0,78.21875 c -10.2119,0.6316 -20.6014,1.04145 -31.1563,1.21875 l 0,-78.25 c 10.5104,-0.17502 20.9402,-0.56123 31.1563,-1.1875 z m 259.0312,11.53125 c 14.3452,11.80054 22.4375,24.79916 22.4375,38.53125 0,0.0837 5e-4,0.1739 0,0.25 -0.3592,53.67971 -121.4519,97.249995 -270.625,97.249995 -111.2514,0 -206.73913,-24.187645 -248.24992,-58.749995 53.25223,18.3734 120.89441,28.90625 194.62492,28.90625 82.0681,0 156.3393,-13.04926 211.875,-35.4375 27.7679,-11.19526 50.8354,-24.7651 68,-41.125 9.2404,-8.80718 16.8616,-18.79153 21.9375,-29.625 z m 22.6563,103.6875 c 0.053,11.99959 0,22.580235 0,50.906245 0,9.34384 -4.3787,19.18857 -15.4375,30.1875 l 0,-70.156245 c 5.5162,-3.5651 10.7,-7.14107 15.4375,-10.9375 z m -541.46871,0.25 c 4.93879,3.94863 10.40762,7.7095 16.1875,11.40625 l 0,70.156245 c -11.59864,-11.28962 -16.1875,-21.35999 -16.1875,-30.90625 0,-28.19285 -0.0533,-39.605565 0,-50.656245 z m 503.18741,23.781245 0,74.65625 c -7.21,4.4326 -15.681,8.5112 -24.7187,12.5937499 l 0,-76.0937499 c 8.7384,-3.49433 16.9412,-7.24719 24.7187,-11.15625 z m -464.18742,0.21875 c 7.33727,3.66707 15.12433,7.16846 23.3125,10.46875 l 0,76.3437499 c -8.45809,-3.8496999 -16.46971,-7.7453099 -23.3125,-11.9062499 l 0,-74.90625 z m -77.03125,9.09375 c -0.007,5.77563 4.7e-4,13.0444 0,17.5625 0,22.50162 11.58538,42.8276 28.75,59.1874999 17.16462,16.3599001 40.26348,29.9617501 68.03125,41.1562501 55.53555,22.38823 130.02602,35.4375 212.09372,35.4375 4.3619,0 8.715,-0.05186 13.0312,-0.125 -37.6706,7.20511 -80.5976,11.282193 -126.2187,11.281253 -149.17321,0 -270.01647,-43.570283 -270.37496,-97.250003 -5.3e-4,-0.0837 0,-0.1739 0,-0.25 0,-26.05722 28.42588,-49.57794 74.6875,-67 z m 123.15625,9.6875 c 7.36131,2.44421 14.98873,4.75501 22.84375,6.90625 l 0,77.75 c -8.01528,-2.2981 -15.56668,-4.7770801 -22.84375,-7.3750001 l 0,-77.2812499 z m 370.49992,0.25 0,77.2812499 c -7.3506,2.60781 -14.9721,5.0723301 -23.0625,7.3750001 l 0,-77.75 c 7.9414,-2.1558 15.6206,-4.45291 23.0625,-6.90625 z m -324.84367,12.125 c 7.11736,1.5965 14.23217,3.17598 21.65617,4.53125 l 0,78 c -7.3948,-1.38495 -14.65831,-2.91117 -21.65617,-4.53125 l 0,-78 z m 278.93747,0.25 0,77.96875 c -8.0236,1.84456 -16.1819,3.46819 -24.7188,5 l 0,-78 c 8.4272,-1.48007 16.6767,-3.17973 24.7188,-4.96875 z m -234.4688,8.0625 c 9.8186,1.40093 19.9951,2.59456 30.2188,3.5625 l 0,78 c -10.3102,-0.99381 -20.4081,-2.13266 -30.2188,-3.5625 l 0,-78 z m 186.9375,0.5 0,78 c -8.3862,1.16427 -16.9423,2.21403 -25.6875,3.0625 l 0,-78.21875 c 8.709,-0.83173 17.2695,-1.69698 25.6875,-2.84375 z m -133.9062,4.75 c 10.3192,0.62399 20.7868,1.02389 31.4062,1.1875 l 0,78.21875 c -10.6403,-0.17502 -21.1061,-0.55438 -31.4062,-1.1875 l 0,-78.21875 z m 85.375,0 0,78.21875 c -10.212,0.63159 -20.6015,1.01019 -31.1563,1.1875 l 0,-78.21875 c 10.5103,-0.17502 20.9401,-0.56199 31.1563,-1.1875 z m -426.59371,96.78125 c 4.93879,3.94862 10.37638,7.7095 16.15625,11.40625 l 0,70.156245 C 747.0688,118.1774 742.51119,108.1055 742.51119,98.560015 c 0,-28.19361 -0.0533,-39.60558 0,-50.65625 z m 541.46871,2.875 c 0.034,10.93292 0,21.74398 0,47.78125 0,9.343075 -4.41,19.188565 -15.4688,30.187495 l 0,-70.124995 c 3.2264,-2.08564 6.3308,-4.2088 9.3125,-6.34375 2.0669,-0.49159 4.1189,-0.98822 6.1563,-1.5 z m -38.3125,20.90625 0,74.656245 c -7.2101,4.4326 -15.6811,8.54321 -24.7188,12.625 l 0,-76.093742 c 8.7384,-3.49434 16.9413,-7.278443 24.7188,-11.187503 z m -464.15621,0.25 c 7.33726,3.66631 15.09308,7.13722 23.28125,10.437503 l 0,76.343742 c -8.45808,-3.8497 -16.43846,-7.71406 -23.28125,-11.875 l 0,-74.906245 z m 46.125,18.781253 c 7.36131,2.44421 14.95748,4.72377 22.8125,6.874997 l 0,77.781245 c -8.01528,-2.2981 -15.53543,-4.77784 -22.8125,-7.375 l 0,-77.281242 z m 370.49991,0.21875 0,77.281242 c -7.3506,2.60781 -15.0034,5.07309 -23.0937,7.375 l 0,-77.749995 c 7.9414,-2.155797 15.6519,-4.452147 23.0937,-6.906247 z M 873.29244,103.06002 c 7.11743,1.5965 14.20099,3.17674 21.625,4.53125 l 0,78 c -7.39486,-1.38419 -14.62712,-2.91117 -21.625,-4.53125 l 0,-78 z m 278.93746,0.25 0,78 c -8.0235,1.84379 -16.213,3.46819 -24.75,5 l 0,-78 c 8.4273,-1.48007 16.708,-3.21174 24.75,-5 z m -234.46871,8.09375 c 9.81852,1.40169 19.96383,2.59456 30.1875,3.5625 l 0,78 c -10.31019,-0.99381 -20.37681,-2.16467 -30.1875,-3.59375 l 0,-77.96875 z m 186.90621,0.46875 0,78 c -8.3863,1.16351 -16.9423,2.24528 -25.6875,3.09375 l 0,-78.25 c 8.709,-0.83249 17.2694,-1.69774 25.6875,-2.84375 z m -133.87496,4.75 c 10.31924,0.62399 20.75556,1.02389 31.37496,1.1875 l 0,78.25 c -10.6404,-0.17502 -21.0749,-0.55439 -31.37496,-1.1875 l 0,-78.25 z m 85.37496,0 0,78.25 c -10.212,0.6316 -20.6014,1.01096 -31.1563,1.1875 l 0,-78.25 c 10.5104,-0.17502 20.9402,-0.56199 31.1563,-1.1875 z"
       id="path4049"
       inkscape:connector-curvature="0" />
  </g>
</svg>
