<?xml version="1.0" encoding="UTF-8" standalone="no"?>
<!-- Created with Inkscape (http://www.inkscape.org/) -->

<svg
   xmlns:dc="http://purl.org/dc/elements/1.1/"
   xmlns:cc="http://creativecommons.org/ns#"
   xmlns:rdf="http://www.w3.org/1999/02/22-rdf-syntax-ns#"
   xmlns:svg="http://www.w3.org/2000/svg"
   xmlns="http://www.w3.org/2000/svg"
   xmlns:sodipodi="http://sodipodi.sourceforge.net/DTD/sodipodi-0.dtd"
   xmlns:inkscape="http://www.inkscape.org/namespaces/inkscape"
   width="1024"
   height="1024"
   id="svg2"
   version="1.1"
   inkscape:version="0.48.4 r9939"
   sodipodi:docname="googleplus.svg">
  <defs
     id="defs4" />
  <sodipodi:namedview
     id="base"
     pagecolor="#ffffff"
     bordercolor="#666666"
     borderopacity="1.0"
     inkscape:pageopacity="0.0"
     inkscape:pageshadow="2"
     inkscape:zoom="0.1767767"
     inkscape:cx="1563.0258"
     inkscape:cy="55.578704"
     inkscape:document-units="px"
     inkscape:current-layer="layer1"
     showgrid="false"
     inkscape:snap-global="false"
     inkscape:window-width="1920"
     inkscape:window-height="1146"
     inkscape:window-x="-4"
     inkscape:window-y="31"
     inkscape:window-maximized="1" />
  <metadata
     id="metadata7">
    <rdf:RDF>
      <cc:Work
         rdf:about="">
        <dc:format>image/svg+xml</dc:format>
        <dc:type
           rdf:resource="http://purl.org/dc/dcmitype/StillImage" />
        <dc:title />
      </cc:Work>
    </rdf:RDF>
  </metadata>
  <g
     inkscape:label="Ebene 1"
     inkscape:groupmode="layer"
     id="layer1"
     transform="translate(0,-28.362168)">
    <path
       style="color:#000000;fill:#dd4b39;fill-opacity:1;fill-rule:nonzero;stroke:#000000;stroke-width:0.20139629;stroke-linecap:butt;stroke-linejoin:round;stroke-miterlimit:4;stroke-dashoffset:0;stroke-opacity:1;marker:none;visibility:visible;display:inline;overflow:visible;enable-background:accumulate"
       d="m 0.10069814,28.462875 1023.79860186,0 0,1023.798625 -1023.79860186,0 z"
       id="rect4198" />
    <g
       style="font-size:912.7565918px;font-style:normal;font-variant:normal;font-weight:500;font-stretch:normal;line-height:125%;letter-spacing:0px;word-spacing:0px;fill:#000000;fill-opacity:0.11764706;stroke:none;font-family:Catull;-inkscape-font-specification:Catull"
       id="text3775">
      <path
         d="m 582.88513,215.5235 58.38433,-32.98047 -188.07778,0 c -24.9584,4.2e-4 -51.69929,2.82307 -80.22274,8.46796 -28.8209,6.53707 -56.60172,20.50175 -83.34252,41.8941 -38.92294,36.54625 -58.38436,77.25182 -58.38434,122.11685 -2e-5,37.14037 13.37042,69.67511 40.11138,97.60434 25.55234,30.00937 62.69246,45.3111 111.42048,45.90524 9.21058,10e-5 19.01557,-0.59414 29.41501,-1.78273 -1.78293,4.75404 -3.71422,9.95366 -5.79387,15.59887 -2.37716,5.34826 -3.56565,12.03349 -3.56545,20.05569 -2e-4,13.37051 3.11957,24.80966 9.35932,34.31751 5.34797,9.80502 11.43895,19.01577 18.27296,27.63228 -21.39294,0.59424 -48.28239,3.26833 -80.66843,8.02227 -32.68345,5.64529 -63.88116,16.93589 -93.59321,33.87183 -26.44382,15.74737 -44.71676,34.02031 -54.81888,54.81888 -10.39922,20.79837 -15.59884,39.66555 -15.59886,56.6016 2e-5,34.763 16.34167,64.62366 49.02501,89.58207 32.38616,26.74065 81.41112,40.40821 147.07504,41.00274 78.43976,-1.18877 138.4582,-19.46171 180.0555,-54.81888 40.11097,-34.16914 60.16664,-73.38911 60.16706,-117.66003 -0.59466,-31.19781 -8.17125,-56.4531 -22.72978,-75.76593 -15.45069,-19.01578 -33.42651,-36.39735 -53.92752,-52.14478 l -32.98046,-25.40387 c -4.75424,-4.45678 -9.65674,-9.65639 -14.7075,-15.59887 -5.94271,-6.23948 -8.91392,-14.11319 -8.91364,-23.62114 -2.8e-4,-9.80491 2.97093,-18.42142 8.91364,-25.84956 5.05076,-7.13079 10.5475,-13.51889 16.49023,-19.16432 10.39893,-8.31926 20.20392,-16.49009 29.41501,-24.51251 8.31905,-8.02211 16.19275,-16.78718 23.62114,-26.29523 15.15281,-19.60981 23.02652,-45.75645 23.62114,-78.44002 -3.8e-4,-17.827 -2.08023,-33.42585 -6.23955,-46.7966 -5.05143,-13.37014 -10.84529,-24.95786 -17.38159,-34.76319 -6.83414,-10.3989 -13.81649,-19.16397 -20.94705,-26.29524 -7.42837,-6.83341 -14.11359,-12.03303 -20.05569,-15.59886 l 56.60161,0 M 425.5594,473.12765 c -18.71884,1.2e-4 -35.35761,-5.79373 -49.91637,-17.38159 -14.5591,-11.58758 -26.44394,-25.70083 -35.65456,-42.33979 -19.01587,-35.65433 -28.52374,-69.97181 -28.52364,-102.95252 -0.59435,-24.95788 6.23944,-47.53908 20.50137,-67.74366 16.93577,-19.31251 38.17992,-29.26606 63.73252,-29.86069 19.31267,0.59463 36.39713,6.09137 51.25342,16.49024 14.55869,10.99384 26.29497,25.25565 35.20887,42.78546 19.01547,36.54621 28.52334,72.79497 28.52364,108.74639 -3e-4,8.31961 -0.89166,18.57028 -2.67409,30.75206 -2.97151,12.18214 -9.65673,24.06698 -20.05569,35.65455 -16.63905,16.3418 -37.43752,24.95831 -62.39547,25.84955 l 0,0 m 135.48731,268.30052 c -3.5e-4,28.52347 -11.29095,51.84747 -33.87183,69.97207 -23.17575,18.42128 -56.75042,27.92915 -100.72411,28.52364 -49.02518,-0.59449 -87.65091,-11.29084 -115.8773,-32.0891 -29.7122,-20.79868 -44.56825,-47.24245 -44.5682,-79.33138 -5e-5,-16.34179 3.41684,-30.30648 10.25069,-41.8941 5.94235,-10.99357 13.22181,-20.20432 21.83841,-27.63228 8.91354,-7.13097 17.67861,-12.62771 26.29524,-16.49024 8.61639,-3.56549 15.30161,-6.23958 20.05568,-8.02227 20.20409,-5.94246 39.96264,-10.25071 59.2757,-12.92478 19.60979,-1.78275 31.79175,-2.37699 36.54592,-1.78272 8.02203,-3e-5 15.00438,0.29709 20.94705,0.89136 34.7629,23.76966 60.31531,43.82532 76.65729,60.16706 15.44996,17.23293 23.17511,37.43716 23.17546,60.61274 l 0,0"
         style=""
         id="path3805" />
    </g>
    <g
       style="font-size:912.7565918px;font-style:normal;font-variant:normal;font-weight:500;font-stretch:normal;line-height:125%;letter-spacing:0px;word-spacing:0px;fill:#ffffff;fill-opacity:1;stroke:none;font-family:Catull;-inkscape-font-specification:Catull"
       id="text4350">
      <path
         d="m 582.88513,225.27295 58.38433,-32.98047 -188.07778,0 c -24.9584,4.2e-4 -51.69929,2.82307 -80.22274,8.46796 -28.8209,6.53707 -56.60172,20.50175 -83.34252,41.8941 -38.92294,36.54625 -58.38436,77.25182 -58.38434,122.11685 -2e-5,37.14037 13.37042,69.67511 40.11138,97.60434 25.55234,30.00937 62.69246,45.3111 111.42048,45.90524 9.21058,10e-5 19.01557,-0.59414 29.41501,-1.78273 -1.78293,4.75404 -3.71422,9.95366 -5.79387,15.59887 -2.37716,5.34826 -3.56565,12.03349 -3.56545,20.05569 -2e-4,13.37051 3.11957,24.80967 9.35932,34.31751 5.34797,9.80502 11.43895,19.01577 18.27296,27.63228 -21.39294,0.59424 -48.28239,3.26833 -80.66843,8.02227 -32.68345,5.64529 -63.88116,16.93589 -93.59321,33.87183 -26.44382,15.74737 -44.71676,34.02031 -54.81888,54.81888 -10.39922,20.79837 -15.59884,39.66555 -15.59886,56.6016 2e-5,34.76301 16.34167,64.62366 49.02501,89.58207 32.38616,26.74065 81.41112,40.40821 147.07504,41.00274 78.43976,-1.18877 138.4582,-19.46171 180.0555,-54.81888 40.11097,-34.16914 60.16664,-73.38911 60.16706,-117.66003 -0.59466,-31.19781 -8.17125,-56.4531 -22.72978,-75.76593 -15.45069,-19.01578 -33.42651,-36.39735 -53.92752,-52.14478 l -32.98046,-25.40387 c -4.75424,-4.45678 -9.65674,-9.65639 -14.7075,-15.59887 -5.94271,-6.23948 -8.91392,-14.11319 -8.91364,-23.62114 -2.8e-4,-9.80491 2.97093,-18.42142 8.91364,-25.84956 5.05076,-7.13079 10.5475,-13.51889 16.49023,-19.16432 10.39893,-8.31926 20.20392,-16.49009 29.41501,-24.5125 8.31905,-8.02212 16.19275,-16.78719 23.62114,-26.29524 15.15281,-19.60981 23.02652,-45.75645 23.62114,-78.44002 -3.8e-4,-17.827 -2.08023,-33.42585 -6.23955,-46.7966 -5.05143,-13.37014 -10.84529,-24.95786 -17.38159,-34.76319 -6.83414,-10.3989 -13.81649,-19.16397 -20.94705,-26.29524 -7.42837,-6.83341 -14.11359,-12.03303 -20.05569,-15.59886 l 56.60161,0 M 425.5594,482.8771 c -18.71884,1.3e-4 -35.35761,-5.79373 -49.91637,-17.38159 -14.5591,-11.58758 -26.44394,-25.70083 -35.65456,-42.33979 -19.01587,-35.65433 -28.52374,-69.97181 -28.52364,-102.95252 -0.59435,-24.95788 6.23944,-47.53907 20.50137,-67.74366 16.93577,-19.31251 38.17992,-29.26606 63.73252,-29.86068 19.31267,0.59462 36.39713,6.09136 51.25342,16.49023 14.55869,10.99384 26.29497,25.25565 35.20887,42.78546 19.01547,36.54621 28.52334,72.79497 28.52364,108.74639 -3e-4,8.31961 -0.89166,18.57028 -2.67409,30.75206 -2.97151,12.18214 -9.65673,24.06698 -20.05569,35.65455 -16.63905,16.3418 -37.43752,24.95831 -62.39547,25.84955 l 0,0 m 135.48731,268.30052 c -3.5e-4,28.52347 -11.29095,51.84747 -33.87183,69.97207 -23.17575,18.42128 -56.75042,27.92915 -100.72411,28.52364 -49.02518,-0.59449 -87.65091,-11.29084 -115.8773,-32.0891 -29.7122,-20.79868 -44.56825,-47.24245 -44.5682,-79.33138 -5e-5,-16.34179 3.41684,-30.30648 10.25069,-41.8941 5.94235,-10.99357 13.22181,-20.20432 21.83841,-27.63228 8.91354,-7.13097 17.67861,-12.62771 26.29524,-16.49023 8.61639,-3.5655 15.30161,-6.23959 20.05568,-8.02228 20.20409,-5.94246 39.96264,-10.25071 59.2757,-12.92478 19.60979,-1.78275 31.79175,-2.37699 36.54592,-1.78272 8.02203,-3e-5 15.00438,0.29709 20.94705,0.89136 34.7629,23.76966 60.31531,43.82532 76.65729,60.16706 15.44996,17.23293 23.17511,37.43716 23.17546,60.61274 l 0,0"
         style=""
         id="path3808" />
    </g>
    <g
       style="fill:#000000;fill-opacity:0.11764706;stroke:none"
       id="g3769"
       transform="matrix(1.0832702,0,0,1.0832702,-1601.271,-266.72434)">
      <path
         transform="translate(0,28.362168)"
         style="color:#000000;fill:#000000;fill-rule:nonzero;stroke-width:0.1;marker:none;visibility:visible;display:inline;overflow:visible;enable-background:accumulate"
         d="m 2071.8228,669.03235 207.8894,0 0,46.66905 -207.8894,0 z"
         id="rect3771" />
      <path
         transform="matrix(0,1,-1,0,0,0)"
         style="color:#000000;fill:#000000;fill-rule:nonzero;stroke-width:0.1;marker:none;visibility:visible;display:inline;overflow:visible;enable-background:accumulate"
         d="m 616.7843,-2199.1021 207.88948,0 0,46.6691 -207.88948,0 z"
         id="rect3773" />
    </g>
    <g
       id="g2997"
       style="fill:#ffffff;fill-opacity:1;stroke:none"
       transform="matrix(1.0832702,0,0,1.0832702,-1601.271,-259.83045)">
      <path
         transform="translate(0,28.362168)"
         style="color:#000000;fill:#ffffff;fill-rule:nonzero;stroke-width:0.1;marker:none;visibility:visible;display:inline;overflow:visible;enable-background:accumulate"
         d="m 2071.8228,669.03235 207.8894,0 0,46.66905 -207.8894,0 z"
         id="rect2993" />
      <path
         transform="matrix(0,1,-1,0,0,0)"
         style="color:#000000;fill:#ffffff;fill-rule:nonzero;stroke-width:0.1;marker:none;visibility:visible;display:inline;overflow:visible;enable-background:accumulate"
         d="m 616.7843,-2199.1021 207.88948,0 0,46.6691 -207.88948,0 z"
         id="rect2995" />
    </g>
  </g>
</svg>
