<?xml version="1.0" encoding="UTF-8" standalone="no"?>
<!-- Created with Inkscape (http://www.inkscape.org/) -->

<svg
   xmlns:dc="http://purl.org/dc/elements/1.1/"
   xmlns:cc="http://creativecommons.org/ns#"
   xmlns:rdf="http://www.w3.org/1999/02/22-rdf-syntax-ns#"
   xmlns:svg="http://www.w3.org/2000/svg"
   xmlns="http://www.w3.org/2000/svg"
   xmlns:sodipodi="http://sodipodi.sourceforge.net/DTD/sodipodi-0.dtd"
   xmlns:inkscape="http://www.inkscape.org/namespaces/inkscape"
   version="1.1"
   width="1024"
   height="1024"
   id="svg4825"
   inkscape:version="0.48.4 r9939"
   sodipodi:docname="off.svg">
  <sodipodi:namedview
     pagecolor="#ffffff"
     bordercolor="#666666"
     borderopacity="1"
     objecttolerance="10"
     gridtolerance="10"
     guidetolerance="10"
     inkscape:pageopacity="0"
     inkscape:pageshadow="2"
     inkscape:window-width="1920"
     inkscape:window-height="1181"
     id="namedview5173"
     showgrid="false"
     inkscape:zoom="0.44851479"
     inkscape:cx="743.95224"
     inkscape:cy="765.77681"
     inkscape:window-x="1916"
     inkscape:window-y="-4"
     inkscape:window-maximized="1"
     inkscape:current-layer="svg4825" />
  <defs
     id="defs4827" />
  <metadata
     id="metadata4830">
    <rdf:RDF>
      <cc:Work
         rdf:about="">
        <dc:format>image/svg+xml</dc:format>
        <dc:type
           rdf:resource="http://purl.org/dc/dcmitype/StillImage" />
        <dc:title />
      </cc:Work>
    </rdf:RDF>
  </metadata>
  <rect
     style="color:#000000;fill:#d3d3d3;fill-opacity:1;fill-rule:nonzero;stroke:none;stroke-width:20;marker:none;visibility:visible;display:inline;overflow:visible;enable-background:accumulate"
     id="rect3851"
     width="1024"
     height="1024"
     x="0"
     y="0" />
  <g
     transform="matrix(0,5.7103445,5.7103445,0,955.28346,560.93577)"
     id="g15650"
     style="fill:#727272;fill-opacity:1">
    <path
       id="rect4520-4"
       d="m -20.225648,-55.116171 38.853323,0 0,7.770665 7.770664,0 0,7.770664 7.770665,0 0,15.541329 -7.770665,0 0,7.770665 -7.770664,0 0,7.7706645 -38.853323,0 0,-15.5413295 34.190924,0 4.662399,0 0,-15.541329 -4.662399,0 -34.190924,0 0,-15.541329 z"
       style="color:#000000;fill:#727272;fill-opacity:1;fill-rule:nonzero;stroke:none;stroke-width:1;marker:none;visibility:visible;display:inline;overflow:visible;enable-background:accumulate"
       inkscape:connector-curvature="0" />
    <rect
       transform="matrix(0,1,1,0,0,0)"
       y="-20.225689"
       x="-78.428162"
       height="54.394688"
       width="15.541329"
       id="rect4518-7"
       style="color:#000000;fill:#727272;fill-opacity:1;fill-rule:nonzero;stroke:none;stroke-width:1;marker:none;visibility:visible;display:inline;overflow:visible;enable-background:accumulate" />
    <rect
       transform="matrix(0,1,1,0,0,0)"
       style="color:#000000;fill:#727272;fill-opacity:1;fill-rule:nonzero;stroke:none;stroke-width:1;marker:none;visibility:visible;display:inline;overflow:visible;enable-background:accumulate"
       id="rect4516-2"
       width="15.541329"
       height="15.541329"
       x="-78.428162"
       y="-51.308346" />
    <path
       id="rect4505-2"
       d="m -51.308306,-132.82282 31.082658,0 15.5413291,0 38.8533229,0 0,15.54133 -38.8533229,0 0,7.77067 0,7.77066 3.1082658,0 35.7450571,0 0,15.541331 -38.8533229,0 0,-7.770664 -7.7706641,0 0,-7.770667 -7.770665,0 0,-15.54133 -31.082658,0 0,-15.54133 z"
       style="color:#000000;fill:#727272;fill-opacity:1;fill-rule:nonzero;stroke:none;stroke-width:1;marker:none;visibility:visible;display:inline;overflow:visible;enable-background:accumulate"
       inkscape:connector-curvature="0" />
    <rect
       transform="matrix(0,1,1,0,0,0)"
       y="18.627634"
       x="-156.13481"
       height="15.541329"
       width="15.541329"
       id="rect4418-7"
       style="color:#000000;fill:#727272;fill-opacity:1;fill-rule:nonzero;stroke:none;stroke-width:1;marker:none;visibility:visible;display:inline;overflow:visible;enable-background:accumulate" />
  </g>
  <g
     transform="matrix(0,5.7103445,5.7103445,0,955.28346,560.93577)"
     id="g15679"
     style="fill:#5b5b5b;fill-opacity:1">
    <rect
       transform="matrix(0,1,1,0,0,0)"
       y="18.627634"
       x="-156.13481"
       height="7.7706981"
       width="7.7706647"
       id="rect3783-9"
       style="color:#000000;fill:#5b5b5b;fill-opacity:1;fill-rule:nonzero;stroke:none;stroke-width:1;marker:none;visibility:visible;display:inline;overflow:visible;enable-background:accumulate" />
    <path
       id="rect3805-7"
       d="m -12.454983,-125.05215 3.1082654,0 4.6623987,0 15.5413289,0 0,7.77066 -15.5413289,0 -4.6623987,0 -3.1082654,0 0,-7.77066 z"
       style="color:#000000;fill:#5b5b5b;fill-opacity:1;fill-rule:nonzero;stroke:none;stroke-width:1;marker:none;visibility:visible;display:inline;overflow:visible;enable-background:accumulate"
       inkscape:connector-curvature="0" />
    <path
       id="rect3821-6"
       d="m -43.537641,-125.05215 3.108265,0 4.662399,0 15.541329,0 0,7.77066 -15.541329,0 -4.662399,0 -3.108265,0 0,-7.77066 z"
       style="color:#000000;fill:#5b5b5b;fill-opacity:1;fill-rule:nonzero;stroke:none;stroke-width:1;marker:none;visibility:visible;display:inline;overflow:visible;enable-background:accumulate"
       inkscape:connector-curvature="0" />
    <rect
       transform="matrix(0,1,1,0,0,0)"
       style="color:#000000;fill:#5b5b5b;fill-opacity:1;fill-rule:nonzero;stroke:none;stroke-width:1;marker:none;visibility:visible;display:inline;overflow:visible;enable-background:accumulate"
       id="rect3899-6"
       width="7.7706647"
       height="7.7706981"
       x="-78.428162"
       y="-43.537682" />
    <rect
       transform="matrix(0,1,1,0,0,0)"
       style="color:#000000;fill:#5b5b5b;fill-opacity:1;fill-rule:nonzero;stroke:none;stroke-width:1;marker:none;visibility:visible;display:inline;overflow:visible;enable-background:accumulate"
       id="rect3909-2"
       width="7.7706647"
       height="7.7706981"
       x="-47.345505"
       y="3.0863044" />
    <rect
       transform="matrix(0,1,1,0,0,0)"
       y="-20.225689"
       x="-55.116169"
       height="7.7706981"
       width="7.7706647"
       id="rect3923-3"
       style="color:#000000;fill:#5b5b5b;fill-opacity:1;fill-rule:nonzero;stroke:none;stroke-width:1;marker:none;visibility:visible;display:inline;overflow:visible;enable-background:accumulate" />
  </g>
  <g
     transform="matrix(0,5.7103445,5.7103445,0,955.28346,560.93577)"
     id="g15657"
     style="fill:#2b2b2b;fill-opacity:1">
    <rect
       transform="matrix(0,1,1,0,0,0)"
       style="color:#000000;fill:#2b2b2b;fill-opacity:1;fill-rule:nonzero;stroke:none;stroke-width:1;marker:none;visibility:visible;display:inline;overflow:visible;enable-background:accumulate"
       id="rect3785-3"
       width="7.7706647"
       height="7.7706981"
       x="-148.36415"
       y="18.627634" />
    <path
       inkscape:connector-curvature="0"
       id="rect3815-7"
       d="m -20.239013,-132.82282 7.78403,0 0,6.21654 0,1.55413 0,7.77066 -7.78403,0 0,-7.77066 0,-1.55413 0,-6.21654 z"
       style="color:#000000;fill:#2b2b2b;fill-opacity:1;fill-rule:nonzero;stroke:none;stroke-width:1;marker:none;visibility:visible;display:inline;overflow:visible;enable-background:accumulate" />
    <rect
       transform="matrix(0,1,1,0,0,0)"
       style="color:#000000;fill:#2b2b2b;fill-opacity:1;fill-rule:nonzero;stroke:none;stroke-width:1;marker:none;visibility:visible;display:inline;overflow:visible;enable-background:accumulate"
       id="rect3833-0"
       width="7.7706647"
       height="7.7706981"
       x="-125.05215"
       y="-51.308346" />
    <path
       id="rect3869-9"
       d="m -12.454983,-70.6575 3.1082654,0 4.6623987,0 7.7706645,0 0,7.770665 -7.7706645,0 -4.6623987,0 -3.1082654,0 0,-7.770665 z"
       style="color:#000000;fill:#2b2b2b;fill-opacity:1;fill-rule:nonzero;stroke:none;stroke-width:1;marker:none;visibility:visible;display:inline;overflow:visible;enable-background:accumulate"
       inkscape:connector-curvature="0" />
    <path
       id="rect3881-6"
       d="m 18.627675,-70.6575 7.770664,0 0,-7.770664 7.770665,0 0,7.770664 0,3.108266 0,4.662399 -4.662399,0 -3.108266,0 -7.770664,0 0,-7.770665 z"
       style="color:#000000;fill:#2b2b2b;fill-opacity:1;fill-rule:nonzero;stroke:none;stroke-width:1;marker:none;visibility:visible;display:inline;overflow:visible;enable-background:accumulate"
       inkscape:connector-curvature="0" />
    <path
       id="rect3935-0"
       d="m 3.0863456,-24.033513 3.1082658,0 4.6623986,0 15.541329,0 0,7.770665 -15.541329,0 -4.6623986,0 -3.1082658,0 0,-7.770665 z"
       style="color:#000000;fill:#2b2b2b;fill-opacity:1;fill-rule:nonzero;stroke:none;stroke-width:1;marker:none;visibility:visible;display:inline;overflow:visible;enable-background:accumulate"
       inkscape:connector-curvature="0" />
  </g>
  <g
     transform="matrix(0,5.7103445,5.7103445,0,955.28346,560.93577)"
     id="g15665"
     style="fill:#808080;fill-opacity:1">
    <rect
       transform="matrix(0,1,1,0,0,0)"
       style="color:#000000;fill:#808080;fill-opacity:1;fill-rule:nonzero;stroke:none;stroke-width:1;marker:none;visibility:visible;display:inline;overflow:visible;enable-background:accumulate"
       id="rect3787-5"
       width="7.7706647"
       height="7.7706981"
       x="-156.13481"
       y="26.398298" />
    <rect
       transform="matrix(0,1,1,0,0,0)"
       style="color:#000000;fill:#808080;fill-opacity:1;fill-rule:nonzero;stroke:none;stroke-width:1;marker:none;visibility:visible;display:inline;overflow:visible;enable-background:accumulate"
       id="rect3791-5"
       width="7.7706647"
       height="7.7706981"
       x="-132.82281"
       y="26.398298" />
    <rect
       transform="matrix(0,1,1,0,0,0)"
       style="color:#000000;fill:#808080;fill-opacity:1;fill-rule:nonzero;stroke:none;stroke-width:1;marker:none;visibility:visible;display:inline;overflow:visible;enable-background:accumulate"
       id="rect3797-3"
       width="7.7706647"
       height="7.7706981"
       x="-125.05215"
       y="18.627634" />
    <rect
       transform="matrix(0,1,1,0,0,0)"
       style="color:#000000;fill:#808080;fill-opacity:1;fill-rule:nonzero;stroke:none;stroke-width:1;marker:none;visibility:visible;display:inline;overflow:visible;enable-background:accumulate"
       id="rect3807-2"
       width="7.7706647"
       height="7.7706981"
       x="-132.82281"
       y="-4.68436" />
    <rect
       transform="matrix(0,1,1,0,0,0)"
       y="3.0863044"
       x="-101.74016"
       height="7.7706981"
       width="7.7706647"
       id="rect3849-9"
       style="color:#000000;fill:#808080;fill-opacity:1;fill-rule:nonzero;stroke:none;stroke-width:1;marker:none;visibility:visible;display:inline;overflow:visible;enable-background:accumulate" />
    <rect
       transform="matrix(0,1,1,0,0,0)"
       y="18.627634"
       x="-93.96949"
       height="7.7706981"
       width="7.7706647"
       id="rect3859-0"
       style="color:#000000;fill:#808080;fill-opacity:1;fill-rule:nonzero;stroke:none;stroke-width:1;marker:none;visibility:visible;display:inline;overflow:visible;enable-background:accumulate" />
    <path
       id="rect3867-2"
       d="m -4.6843189,-78.428164 23.3119939,0 3.108265,0 4.662399,0 0,7.770664 -4.662399,0 -3.108265,0 -23.3119939,0 0,-7.770664 z"
       style="color:#000000;fill:#808080;fill-opacity:1;fill-rule:nonzero;stroke:none;stroke-width:1;marker:none;visibility:visible;display:inline;overflow:visible;enable-background:accumulate"
       inkscape:connector-curvature="0" />
    <path
       id="rect3905-4"
       d="m -12.454983,-47.345506 3.1082654,0 4.6623987,0 7.7706645,0 0,7.770664 -7.7706645,0 -4.6623987,0 -3.1082654,0 0,-7.770664 z"
       style="color:#000000;fill:#808080;fill-opacity:1;fill-rule:nonzero;stroke:none;stroke-width:1;marker:none;visibility:visible;display:inline;overflow:visible;enable-background:accumulate"
       inkscape:connector-curvature="0" />
    <rect
       transform="matrix(0,1,1,0,0,0)"
       style="color:#000000;fill:#808080;fill-opacity:1;fill-rule:nonzero;stroke:none;stroke-width:1;marker:none;visibility:visible;display:inline;overflow:visible;enable-background:accumulate"
       id="rect3913-7"
       width="7.7706647"
       height="7.7706981"
       x="-47.345505"
       y="10.856969" />
    <rect
       transform="matrix(0,1,1,0,0,0)"
       style="color:#000000;fill:#808080;fill-opacity:1;fill-rule:nonzero;stroke:none;stroke-width:1;marker:none;visibility:visible;display:inline;overflow:visible;enable-background:accumulate"
       id="rect3921-0"
       width="7.7706647"
       height="7.7706981"
       x="-31.804176"
       y="26.398298" />
    <rect
       transform="matrix(0,1,1,0,0,0)"
       y="-4.68436"
       x="-24.033512"
       height="7.7706981"
       width="7.7706647"
       id="rect3931-4"
       style="color:#000000;fill:#808080;fill-opacity:1;fill-rule:nonzero;stroke:none;stroke-width:1;marker:none;visibility:visible;display:inline;overflow:visible;enable-background:accumulate" />
    <rect
       transform="matrix(0,1,1,0,0,0)"
       y="10.856969"
       x="-16.262848"
       height="7.7706981"
       width="7.7706647"
       id="rect3941-5"
       style="color:#000000;fill:#808080;fill-opacity:1;fill-rule:nonzero;stroke:none;stroke-width:1;marker:none;visibility:visible;display:inline;overflow:visible;enable-background:accumulate" />
  </g>
</svg>
